G04 #@! TF.GenerationSoftware,KiCad,Pcbnew,(5.1.0)-1*
G04 #@! TF.CreationDate,2019-08-14T22:30:10+08:00*
G04 #@! TF.ProjectId,Kelvin Connector for Handheld LCR Meter,4b656c76-696e-4204-936f-6e6e6563746f,1.01*
G04 #@! TF.SameCoordinates,Original*
G04 #@! TF.FileFunction,Copper,L1,Top*
G04 #@! TF.FilePolarity,Positive*
%FSLAX46Y46*%
G04 Gerber Fmt 4.6, Leading zero omitted, Abs format (unit mm)*
G04 Created by KiCad (PCBNEW (5.1.0)-1) date 2019-08-14 22:30:10*
%MOMM*%
%LPD*%
G04 APERTURE LIST*
%ADD10C,2.500000*%
%ADD11C,2.600000*%
%ADD12C,5.500000*%
%ADD13C,0.100000*%
%ADD14C,11.000000*%
%ADD15C,13.500000*%
%ADD16C,2.999999*%
%ADD17C,1.200000*%
%ADD18C,0.600000*%
%ADD19C,2.540000*%
%ADD20C,1.270000*%
%ADD21C,0.254000*%
G04 APERTURE END LIST*
D10*
X222700000Y-93000000D03*
D11*
X225240000Y-90460000D03*
X225240000Y-95540000D03*
X220160000Y-90460000D03*
X220160000Y-95540000D03*
D12*
X243300000Y-101000000D03*
X185900000Y-101000000D03*
D13*
G36*
X238397358Y-104911759D02*
G01*
X238634411Y-104946922D01*
X238866875Y-105005152D01*
X239092513Y-105085886D01*
X239309151Y-105188348D01*
X239514703Y-105311551D01*
X239707188Y-105454308D01*
X239884755Y-105615245D01*
X240045692Y-105792812D01*
X240188449Y-105985297D01*
X240311652Y-106190849D01*
X240414114Y-106407487D01*
X240494848Y-106633125D01*
X240553078Y-106865589D01*
X240588241Y-107102642D01*
X240600000Y-107342000D01*
X240600000Y-121458000D01*
X240588241Y-121697358D01*
X240553078Y-121934411D01*
X240494848Y-122166875D01*
X240414114Y-122392513D01*
X240311652Y-122609151D01*
X240188449Y-122814703D01*
X240045692Y-123007188D01*
X239884755Y-123184755D01*
X239707188Y-123345692D01*
X239514703Y-123488449D01*
X239309151Y-123611652D01*
X239092513Y-123714114D01*
X238866875Y-123794848D01*
X238634411Y-123853078D01*
X238397358Y-123888241D01*
X238158000Y-123900000D01*
X232042000Y-123900000D01*
X231802642Y-123888241D01*
X231565589Y-123853078D01*
X231333125Y-123794848D01*
X231107487Y-123714114D01*
X230890849Y-123611652D01*
X230685297Y-123488449D01*
X230492812Y-123345692D01*
X230315245Y-123184755D01*
X230154308Y-123007188D01*
X230011551Y-122814703D01*
X229888348Y-122609151D01*
X229785886Y-122392513D01*
X229705152Y-122166875D01*
X229646922Y-121934411D01*
X229611759Y-121697358D01*
X229600000Y-121458000D01*
X229600000Y-107342000D01*
X229611759Y-107102642D01*
X229646922Y-106865589D01*
X229705152Y-106633125D01*
X229785886Y-106407487D01*
X229888348Y-106190849D01*
X230011551Y-105985297D01*
X230154308Y-105792812D01*
X230315245Y-105615245D01*
X230492812Y-105454308D01*
X230685297Y-105311551D01*
X230890849Y-105188348D01*
X231107487Y-105085886D01*
X231333125Y-105005152D01*
X231565589Y-104946922D01*
X231802642Y-104911759D01*
X232042000Y-104900000D01*
X238158000Y-104900000D01*
X238397358Y-104911759D01*
X238397358Y-104911759D01*
G37*
D14*
X235100000Y-114400000D03*
D13*
G36*
X218896757Y-104914431D02*
G01*
X219187686Y-104957587D01*
X219472983Y-105029050D01*
X219749902Y-105128133D01*
X220015776Y-105253882D01*
X220268044Y-105405086D01*
X220504277Y-105580288D01*
X220722199Y-105777801D01*
X220919712Y-105995723D01*
X221094914Y-106231956D01*
X221246118Y-106484224D01*
X221371867Y-106750098D01*
X221470950Y-107027017D01*
X221542413Y-107312314D01*
X221585569Y-107603243D01*
X221600000Y-107897000D01*
X221600000Y-120903000D01*
X221585569Y-121196757D01*
X221542413Y-121487686D01*
X221470950Y-121772983D01*
X221371867Y-122049902D01*
X221246118Y-122315776D01*
X221094914Y-122568044D01*
X220919712Y-122804277D01*
X220722199Y-123022199D01*
X220504277Y-123219712D01*
X220268044Y-123394914D01*
X220015776Y-123546118D01*
X219749902Y-123671867D01*
X219472983Y-123770950D01*
X219187686Y-123842413D01*
X218896757Y-123885569D01*
X218603000Y-123900000D01*
X211097000Y-123900000D01*
X210803243Y-123885569D01*
X210512314Y-123842413D01*
X210227017Y-123770950D01*
X209950098Y-123671867D01*
X209684224Y-123546118D01*
X209431956Y-123394914D01*
X209195723Y-123219712D01*
X208977801Y-123022199D01*
X208780288Y-122804277D01*
X208605086Y-122568044D01*
X208453882Y-122315776D01*
X208328133Y-122049902D01*
X208229050Y-121772983D01*
X208157587Y-121487686D01*
X208114431Y-121196757D01*
X208100000Y-120903000D01*
X208100000Y-107897000D01*
X208114431Y-107603243D01*
X208157587Y-107312314D01*
X208229050Y-107027017D01*
X208328133Y-106750098D01*
X208453882Y-106484224D01*
X208605086Y-106231956D01*
X208780288Y-105995723D01*
X208977801Y-105777801D01*
X209195723Y-105580288D01*
X209431956Y-105405086D01*
X209684224Y-105253882D01*
X209950098Y-105128133D01*
X210227017Y-105029050D01*
X210512314Y-104957587D01*
X210803243Y-104914431D01*
X211097000Y-104900000D01*
X218603000Y-104900000D01*
X218896757Y-104914431D01*
X218896757Y-104914431D01*
G37*
D15*
X214850000Y-114400000D03*
D13*
G36*
X199396757Y-104914431D02*
G01*
X199687686Y-104957587D01*
X199972983Y-105029050D01*
X200249902Y-105128133D01*
X200515776Y-105253882D01*
X200768044Y-105405086D01*
X201004277Y-105580288D01*
X201222199Y-105777801D01*
X201419712Y-105995723D01*
X201594914Y-106231956D01*
X201746118Y-106484224D01*
X201871867Y-106750098D01*
X201970950Y-107027017D01*
X202042413Y-107312314D01*
X202085569Y-107603243D01*
X202100000Y-107897000D01*
X202100000Y-120903000D01*
X202085569Y-121196757D01*
X202042413Y-121487686D01*
X201970950Y-121772983D01*
X201871867Y-122049902D01*
X201746118Y-122315776D01*
X201594914Y-122568044D01*
X201419712Y-122804277D01*
X201222199Y-123022199D01*
X201004277Y-123219712D01*
X200768044Y-123394914D01*
X200515776Y-123546118D01*
X200249902Y-123671867D01*
X199972983Y-123770950D01*
X199687686Y-123842413D01*
X199396757Y-123885569D01*
X199103000Y-123900000D01*
X191597000Y-123900000D01*
X191303243Y-123885569D01*
X191012314Y-123842413D01*
X190727017Y-123770950D01*
X190450098Y-123671867D01*
X190184224Y-123546118D01*
X189931956Y-123394914D01*
X189695723Y-123219712D01*
X189477801Y-123022199D01*
X189280288Y-122804277D01*
X189105086Y-122568044D01*
X188953882Y-122315776D01*
X188828133Y-122049902D01*
X188729050Y-121772983D01*
X188657587Y-121487686D01*
X188614431Y-121196757D01*
X188600000Y-120903000D01*
X188600000Y-107897000D01*
X188614431Y-107603243D01*
X188657587Y-107312314D01*
X188729050Y-107027017D01*
X188828133Y-106750098D01*
X188953882Y-106484224D01*
X189105086Y-106231956D01*
X189280288Y-105995723D01*
X189477801Y-105777801D01*
X189695723Y-105580288D01*
X189931956Y-105405086D01*
X190184224Y-105253882D01*
X190450098Y-105128133D01*
X190727017Y-105029050D01*
X191012314Y-104957587D01*
X191303243Y-104914431D01*
X191597000Y-104900000D01*
X199103000Y-104900000D01*
X199396757Y-104914431D01*
X199396757Y-104914431D01*
G37*
D15*
X195350000Y-114400000D03*
D16*
X231300000Y-95700000D03*
X197693000Y-98125000D03*
X195400000Y-93000000D03*
D11*
X203760000Y-95540000D03*
X203760000Y-90460000D03*
X208840000Y-95540000D03*
X208840000Y-90460000D03*
D10*
X206300000Y-93000000D03*
D16*
X199900000Y-93000000D03*
D10*
X189000000Y-93000000D03*
D11*
X191540000Y-90460000D03*
X191540000Y-95540000D03*
X186460000Y-90460000D03*
X186460000Y-95540000D03*
D16*
X229100000Y-91200000D03*
D11*
X237460000Y-95540000D03*
X237460000Y-90460000D03*
X242540000Y-95540000D03*
X242540000Y-90460000D03*
D10*
X240000000Y-93000000D03*
D16*
X233634000Y-91200000D03*
D17*
X213000000Y-85000000D03*
X214500000Y-85000000D03*
X216000000Y-85000000D03*
X217500000Y-85000000D03*
X219000000Y-85000000D03*
D18*
X233000000Y-100500000D03*
X234000000Y-100500000D03*
X235000000Y-100500000D03*
X236000000Y-100500000D03*
X237000000Y-100500000D03*
X238000000Y-100500000D03*
X239000000Y-100500000D03*
X232000000Y-101700000D03*
X233000000Y-101700000D03*
X234000000Y-101700000D03*
X235000000Y-101700000D03*
X236000000Y-101700000D03*
X237000000Y-101700000D03*
X238000000Y-101700000D03*
X239000000Y-101700000D03*
X232000000Y-102900000D03*
X233000000Y-102900000D03*
X234000000Y-102900000D03*
X235000000Y-102900000D03*
X236000000Y-102900000D03*
X237000000Y-102900000D03*
X238000000Y-102900000D03*
X239000000Y-102900000D03*
X232000000Y-104100000D03*
X233000000Y-104100000D03*
X234000000Y-104100000D03*
X235000000Y-104100000D03*
X236000000Y-104100000D03*
X237000000Y-104100000D03*
X238000000Y-104100000D03*
X239000000Y-104100000D03*
X183600000Y-97800000D03*
X183600000Y-96900000D03*
X184400000Y-97300000D03*
X245500000Y-97700000D03*
X245500000Y-96900000D03*
X244800000Y-97300000D03*
X232000000Y-100500000D03*
X207000000Y-99300000D03*
X206000000Y-100500000D03*
X207000000Y-100500000D03*
X205000000Y-101700000D03*
X206000000Y-101700000D03*
X207000000Y-101700000D03*
X204000000Y-102900000D03*
X205000000Y-102900000D03*
X206000000Y-102900000D03*
X207000000Y-102900000D03*
X202000000Y-99300000D03*
X201000000Y-99300000D03*
X203000000Y-98100000D03*
X202000000Y-98100000D03*
X201000000Y-98100000D03*
X200000000Y-98100000D03*
X201000000Y-96900000D03*
X200000000Y-96900000D03*
D19*
X235100000Y-102700000D02*
X235100000Y-102700000D01*
X235400000Y-102400000D02*
X235200000Y-102600000D01*
X235200000Y-102600000D02*
X235100000Y-102700000D01*
X235900000Y-101900000D02*
X235400000Y-102400000D01*
X235100000Y-102700000D02*
X235100000Y-114400000D01*
X235900000Y-101900000D02*
X237500000Y-101900000D01*
X237460000Y-101560000D02*
X237460000Y-101040000D01*
X237800000Y-101900000D02*
X237460000Y-101560000D01*
X237500000Y-101900000D02*
X237500000Y-101900000D01*
X237460000Y-101040000D02*
X237460000Y-100840000D01*
X237460000Y-100840000D02*
X237460000Y-95540000D01*
X237500000Y-101900000D02*
X237800000Y-101900000D01*
X238900000Y-110600000D02*
X235100000Y-114400000D01*
X238900000Y-103500000D02*
X238900000Y-110600000D01*
X233000000Y-112300000D02*
X235100000Y-114400000D01*
X233000000Y-103000000D02*
X233000000Y-112300000D01*
X237500000Y-112000000D02*
X235100000Y-114400000D01*
X237500000Y-103500000D02*
X237500000Y-112000000D01*
D20*
X195350000Y-104800000D02*
X195350000Y-114400000D01*
X189000000Y-98450000D02*
X195350000Y-104800000D01*
X189000000Y-93000000D02*
X189000000Y-98450000D01*
X189000000Y-93000000D02*
X195400000Y-93000000D01*
X214850000Y-104800000D02*
X214850000Y-114400000D01*
X214850000Y-104009802D02*
X214850000Y-104800000D01*
X222700000Y-96159802D02*
X214850000Y-104009802D01*
X222700000Y-93000000D02*
X222700000Y-96159802D01*
X227300000Y-93000000D02*
X229100000Y-91200000D01*
X222700000Y-93000000D02*
X227300000Y-93000000D01*
D21*
G36*
X245873000Y-98785886D02*
G01*
X245457812Y-98370698D01*
X244903399Y-98000252D01*
X244287368Y-97745083D01*
X243633393Y-97615000D01*
X242966607Y-97615000D01*
X242312632Y-97745083D01*
X241696601Y-98000252D01*
X241142188Y-98370698D01*
X240670698Y-98842188D01*
X240300252Y-99396601D01*
X240045083Y-100012632D01*
X239915000Y-100666607D01*
X239915000Y-101333393D01*
X240045083Y-101987368D01*
X240300252Y-102603399D01*
X240670698Y-103157812D01*
X241142188Y-103629302D01*
X241506909Y-103873000D01*
X223327000Y-103873000D01*
X223327000Y-97328853D01*
X223553914Y-97101939D01*
X223602370Y-97062172D01*
X223744305Y-96889224D01*
X224070381Y-96889224D01*
X224202317Y-97184312D01*
X224543045Y-97355159D01*
X224910557Y-97456250D01*
X225290729Y-97483701D01*
X225668951Y-97436457D01*
X226030690Y-97316333D01*
X226263950Y-97191652D01*
X229987953Y-97191652D01*
X230143963Y-97507213D01*
X230518746Y-97698019D01*
X230923552Y-97812043D01*
X231342825Y-97844902D01*
X231760452Y-97795333D01*
X232160383Y-97665242D01*
X232456037Y-97507213D01*
X232612047Y-97191652D01*
X231300000Y-95879605D01*
X229987953Y-97191652D01*
X226263950Y-97191652D01*
X226277683Y-97184312D01*
X226409619Y-96889224D01*
X225240000Y-95719605D01*
X224070381Y-96889224D01*
X223744305Y-96889224D01*
X223761075Y-96868790D01*
X223854760Y-96693516D01*
X223890776Y-96709619D01*
X225060395Y-95540000D01*
X225046253Y-95525858D01*
X225225858Y-95346253D01*
X225240000Y-95360395D01*
X225254143Y-95346253D01*
X225433748Y-95525858D01*
X225419605Y-95540000D01*
X226589224Y-96709619D01*
X226884312Y-96577683D01*
X227055159Y-96236955D01*
X227156250Y-95869443D01*
X227165392Y-95742825D01*
X229155098Y-95742825D01*
X229204667Y-96160452D01*
X229334758Y-96560383D01*
X229492787Y-96856037D01*
X229808348Y-97012047D01*
X231120395Y-95700000D01*
X231479605Y-95700000D01*
X232791652Y-97012047D01*
X233040085Y-96889224D01*
X236290381Y-96889224D01*
X236422317Y-97184312D01*
X236763045Y-97355159D01*
X237130557Y-97456250D01*
X237510729Y-97483701D01*
X237888951Y-97436457D01*
X238250690Y-97316333D01*
X238497683Y-97184312D01*
X238629619Y-96889224D01*
X241370381Y-96889224D01*
X241502317Y-97184312D01*
X241843045Y-97355159D01*
X242210557Y-97456250D01*
X242590729Y-97483701D01*
X242968951Y-97436457D01*
X243330690Y-97316333D01*
X243577683Y-97184312D01*
X243709619Y-96889224D01*
X242540000Y-95719605D01*
X241370381Y-96889224D01*
X238629619Y-96889224D01*
X237460000Y-95719605D01*
X236290381Y-96889224D01*
X233040085Y-96889224D01*
X233107213Y-96856037D01*
X233298019Y-96481254D01*
X233412043Y-96076448D01*
X233444902Y-95657175D01*
X233437016Y-95590729D01*
X235516299Y-95590729D01*
X235563543Y-95968951D01*
X235683667Y-96330690D01*
X235815688Y-96577683D01*
X236110776Y-96709619D01*
X237280395Y-95540000D01*
X236110776Y-94370381D01*
X235815688Y-94502317D01*
X235644841Y-94843045D01*
X235543750Y-95210557D01*
X235516299Y-95590729D01*
X233437016Y-95590729D01*
X233395333Y-95239548D01*
X233265242Y-94839617D01*
X233107213Y-94543963D01*
X232791652Y-94387953D01*
X231479605Y-95700000D01*
X231120395Y-95700000D01*
X229808348Y-94387953D01*
X229492787Y-94543963D01*
X229301981Y-94918746D01*
X229187957Y-95323552D01*
X229155098Y-95742825D01*
X227165392Y-95742825D01*
X227183701Y-95489271D01*
X227136457Y-95111049D01*
X227016333Y-94749310D01*
X226884312Y-94502317D01*
X226589226Y-94370382D01*
X226689608Y-94270000D01*
X227237627Y-94270000D01*
X227300000Y-94276143D01*
X227362373Y-94270000D01*
X227362380Y-94270000D01*
X227548963Y-94251623D01*
X227691621Y-94208348D01*
X229987953Y-94208348D01*
X231300000Y-95520395D01*
X232612047Y-94208348D01*
X232456037Y-93892787D01*
X232081254Y-93701981D01*
X231676448Y-93587957D01*
X231257175Y-93555098D01*
X230839548Y-93604667D01*
X230439617Y-93734758D01*
X230143963Y-93892787D01*
X229987953Y-94208348D01*
X227691621Y-94208348D01*
X227788359Y-94179003D01*
X228008988Y-94061075D01*
X228202370Y-93902370D01*
X228242141Y-93853909D01*
X228782399Y-93313651D01*
X228889721Y-93334999D01*
X229310279Y-93334999D01*
X229722756Y-93252952D01*
X230111301Y-93092011D01*
X230460982Y-92858362D01*
X230758362Y-92560982D01*
X230992011Y-92211301D01*
X231152952Y-91822756D01*
X231234999Y-91410279D01*
X231234999Y-90989721D01*
X231499001Y-90989721D01*
X231499001Y-91410279D01*
X231581048Y-91822756D01*
X231741989Y-92211301D01*
X231975638Y-92560982D01*
X232273018Y-92858362D01*
X232622699Y-93092011D01*
X233011244Y-93252952D01*
X233423721Y-93334999D01*
X233844279Y-93334999D01*
X234256756Y-93252952D01*
X234645301Y-93092011D01*
X234994982Y-92858362D01*
X235292362Y-92560982D01*
X235526011Y-92211301D01*
X235686952Y-91822756D01*
X235689643Y-91809224D01*
X236290381Y-91809224D01*
X236422317Y-92104312D01*
X236763045Y-92275159D01*
X237130557Y-92376250D01*
X237510729Y-92403701D01*
X237888951Y-92356457D01*
X238250690Y-92236333D01*
X238283212Y-92218950D01*
X238187439Y-92450166D01*
X238115000Y-92814344D01*
X238115000Y-93185656D01*
X238187439Y-93549834D01*
X238286923Y-93790009D01*
X238156955Y-93724841D01*
X237789443Y-93623750D01*
X237409271Y-93596299D01*
X237031049Y-93643543D01*
X236669310Y-93763667D01*
X236422317Y-93895688D01*
X236290381Y-94190776D01*
X237460000Y-95360395D01*
X237474143Y-95346253D01*
X237653748Y-95525858D01*
X237639605Y-95540000D01*
X238809224Y-96709619D01*
X239104312Y-96577683D01*
X239275159Y-96236955D01*
X239376250Y-95869443D01*
X239403701Y-95489271D01*
X239356457Y-95111049D01*
X239236333Y-94749310D01*
X239218950Y-94716788D01*
X239450166Y-94812561D01*
X239814344Y-94885000D01*
X240185656Y-94885000D01*
X240549834Y-94812561D01*
X240790009Y-94713077D01*
X240724841Y-94843045D01*
X240623750Y-95210557D01*
X240596299Y-95590729D01*
X240643543Y-95968951D01*
X240763667Y-96330690D01*
X240895688Y-96577683D01*
X241190776Y-96709619D01*
X242360395Y-95540000D01*
X242719605Y-95540000D01*
X243889224Y-96709619D01*
X244184312Y-96577683D01*
X244355159Y-96236955D01*
X244456250Y-95869443D01*
X244483701Y-95489271D01*
X244436457Y-95111049D01*
X244316333Y-94749310D01*
X244184312Y-94502317D01*
X243889224Y-94370381D01*
X242719605Y-95540000D01*
X242360395Y-95540000D01*
X242346253Y-95525858D01*
X242525858Y-95346253D01*
X242540000Y-95360395D01*
X243709619Y-94190776D01*
X243577683Y-93895688D01*
X243236955Y-93724841D01*
X242869443Y-93623750D01*
X242489271Y-93596299D01*
X242111049Y-93643543D01*
X241749310Y-93763667D01*
X241716788Y-93781050D01*
X241812561Y-93549834D01*
X241885000Y-93185656D01*
X241885000Y-92814344D01*
X241812561Y-92450166D01*
X241713077Y-92209991D01*
X241843045Y-92275159D01*
X242210557Y-92376250D01*
X242590729Y-92403701D01*
X242968951Y-92356457D01*
X243330690Y-92236333D01*
X243577683Y-92104312D01*
X243709619Y-91809224D01*
X242540000Y-90639605D01*
X242525858Y-90653748D01*
X242346253Y-90474143D01*
X242360395Y-90460000D01*
X242719605Y-90460000D01*
X243889224Y-91629619D01*
X244184312Y-91497683D01*
X244355159Y-91156955D01*
X244456250Y-90789443D01*
X244483701Y-90409271D01*
X244436457Y-90031049D01*
X244316333Y-89669310D01*
X244184312Y-89422317D01*
X243889224Y-89290381D01*
X242719605Y-90460000D01*
X242360395Y-90460000D01*
X241190776Y-89290381D01*
X240895688Y-89422317D01*
X240724841Y-89763045D01*
X240623750Y-90130557D01*
X240596299Y-90510729D01*
X240643543Y-90888951D01*
X240763667Y-91250690D01*
X240781050Y-91283212D01*
X240549834Y-91187439D01*
X240185656Y-91115000D01*
X239814344Y-91115000D01*
X239450166Y-91187439D01*
X239209991Y-91286923D01*
X239275159Y-91156955D01*
X239376250Y-90789443D01*
X239403701Y-90409271D01*
X239356457Y-90031049D01*
X239236333Y-89669310D01*
X239104312Y-89422317D01*
X238809224Y-89290381D01*
X237639605Y-90460000D01*
X237653748Y-90474143D01*
X237474143Y-90653748D01*
X237460000Y-90639605D01*
X236290381Y-91809224D01*
X235689643Y-91809224D01*
X235768991Y-91410319D01*
X235815688Y-91497683D01*
X236110776Y-91629619D01*
X237280395Y-90460000D01*
X236110776Y-89290381D01*
X235815688Y-89422317D01*
X235644841Y-89763045D01*
X235543750Y-90130557D01*
X235537542Y-90216536D01*
X235526011Y-90188699D01*
X235292362Y-89839018D01*
X234994982Y-89541638D01*
X234645301Y-89307989D01*
X234256756Y-89147048D01*
X234074405Y-89110776D01*
X236290381Y-89110776D01*
X237460000Y-90280395D01*
X238629619Y-89110776D01*
X241370381Y-89110776D01*
X242540000Y-90280395D01*
X243709619Y-89110776D01*
X243577683Y-88815688D01*
X243236955Y-88644841D01*
X242869443Y-88543750D01*
X242489271Y-88516299D01*
X242111049Y-88563543D01*
X241749310Y-88683667D01*
X241502317Y-88815688D01*
X241370381Y-89110776D01*
X238629619Y-89110776D01*
X238497683Y-88815688D01*
X238156955Y-88644841D01*
X237789443Y-88543750D01*
X237409271Y-88516299D01*
X237031049Y-88563543D01*
X236669310Y-88683667D01*
X236422317Y-88815688D01*
X236290381Y-89110776D01*
X234074405Y-89110776D01*
X233844279Y-89065001D01*
X233423721Y-89065001D01*
X233011244Y-89147048D01*
X232622699Y-89307989D01*
X232273018Y-89541638D01*
X231975638Y-89839018D01*
X231741989Y-90188699D01*
X231581048Y-90577244D01*
X231499001Y-90989721D01*
X231234999Y-90989721D01*
X231152952Y-90577244D01*
X230992011Y-90188699D01*
X230758362Y-89839018D01*
X230460982Y-89541638D01*
X230111301Y-89307989D01*
X229722756Y-89147048D01*
X229310279Y-89065001D01*
X228889721Y-89065001D01*
X228477244Y-89147048D01*
X228088699Y-89307989D01*
X227739018Y-89541638D01*
X227441638Y-89839018D01*
X227207989Y-90188699D01*
X227168160Y-90284854D01*
X227136457Y-90031049D01*
X227016333Y-89669310D01*
X226884312Y-89422317D01*
X226589224Y-89290381D01*
X225419605Y-90460000D01*
X225433748Y-90474143D01*
X225254143Y-90653748D01*
X225240000Y-90639605D01*
X225225858Y-90653748D01*
X225046253Y-90474143D01*
X225060395Y-90460000D01*
X223890776Y-89290381D01*
X223595688Y-89422317D01*
X223424841Y-89763045D01*
X223323750Y-90130557D01*
X223296299Y-90510729D01*
X223343543Y-90888951D01*
X223463667Y-91250690D01*
X223481050Y-91283212D01*
X223249834Y-91187439D01*
X222885656Y-91115000D01*
X222514344Y-91115000D01*
X222150166Y-91187439D01*
X221909991Y-91286923D01*
X221975159Y-91156955D01*
X222076250Y-90789443D01*
X222103701Y-90409271D01*
X222056457Y-90031049D01*
X221936333Y-89669310D01*
X221804312Y-89422317D01*
X221509224Y-89290381D01*
X220339605Y-90460000D01*
X220353748Y-90474143D01*
X220174143Y-90653748D01*
X220160000Y-90639605D01*
X218990381Y-91809224D01*
X219122317Y-92104312D01*
X219463045Y-92275159D01*
X219830557Y-92376250D01*
X220210729Y-92403701D01*
X220588951Y-92356457D01*
X220950690Y-92236333D01*
X220983212Y-92218950D01*
X220887439Y-92450166D01*
X220815000Y-92814344D01*
X220815000Y-93185656D01*
X220887439Y-93549834D01*
X220986923Y-93790009D01*
X220856955Y-93724841D01*
X220489443Y-93623750D01*
X220109271Y-93596299D01*
X219731049Y-93643543D01*
X219369310Y-93763667D01*
X219122317Y-93895688D01*
X218990381Y-94190776D01*
X220160000Y-95360395D01*
X220174143Y-95346253D01*
X220353748Y-95525858D01*
X220339605Y-95540000D01*
X220353748Y-95554143D01*
X220174143Y-95733748D01*
X220160000Y-95719605D01*
X218990381Y-96889224D01*
X219122317Y-97184312D01*
X219463045Y-97355159D01*
X219655621Y-97408131D01*
X213996091Y-103067661D01*
X213947630Y-103107432D01*
X213788925Y-103300815D01*
X213670997Y-103521444D01*
X213638279Y-103629302D01*
X213598377Y-103760839D01*
X213597423Y-103770527D01*
X213587330Y-103873000D01*
X196222358Y-103873000D01*
X196203915Y-103857864D01*
X191962703Y-99616652D01*
X196380953Y-99616652D01*
X196536963Y-99932213D01*
X196911746Y-100123019D01*
X197316552Y-100237043D01*
X197735825Y-100269902D01*
X198153452Y-100220333D01*
X198553383Y-100090242D01*
X198849037Y-99932213D01*
X199005047Y-99616652D01*
X197693000Y-98304605D01*
X196380953Y-99616652D01*
X191962703Y-99616652D01*
X190513876Y-98167825D01*
X195548098Y-98167825D01*
X195597667Y-98585452D01*
X195727758Y-98985383D01*
X195885787Y-99281037D01*
X196201348Y-99437047D01*
X197513395Y-98125000D01*
X197872605Y-98125000D01*
X199184652Y-99437047D01*
X199500213Y-99281037D01*
X199691019Y-98906254D01*
X199805043Y-98501448D01*
X199837902Y-98082175D01*
X199788333Y-97664548D01*
X199658242Y-97264617D01*
X199500213Y-96968963D01*
X199338926Y-96889224D01*
X202590381Y-96889224D01*
X202722317Y-97184312D01*
X203063045Y-97355159D01*
X203430557Y-97456250D01*
X203810729Y-97483701D01*
X204188951Y-97436457D01*
X204550690Y-97316333D01*
X204797683Y-97184312D01*
X204929619Y-96889224D01*
X207670381Y-96889224D01*
X207802317Y-97184312D01*
X208143045Y-97355159D01*
X208510557Y-97456250D01*
X208890729Y-97483701D01*
X209268951Y-97436457D01*
X209630690Y-97316333D01*
X209877683Y-97184312D01*
X210009619Y-96889224D01*
X208840000Y-95719605D01*
X207670381Y-96889224D01*
X204929619Y-96889224D01*
X203760000Y-95719605D01*
X202590381Y-96889224D01*
X199338926Y-96889224D01*
X199184652Y-96812953D01*
X197872605Y-98125000D01*
X197513395Y-98125000D01*
X196201348Y-96812953D01*
X195885787Y-96968963D01*
X195694981Y-97343746D01*
X195580957Y-97748552D01*
X195548098Y-98167825D01*
X190513876Y-98167825D01*
X190270000Y-97923950D01*
X190270000Y-96989608D01*
X190370382Y-96889226D01*
X190502317Y-97184312D01*
X190843045Y-97355159D01*
X191210557Y-97456250D01*
X191590729Y-97483701D01*
X191968951Y-97436457D01*
X192330690Y-97316333D01*
X192577683Y-97184312D01*
X192709619Y-96889224D01*
X191540000Y-95719605D01*
X191525858Y-95733748D01*
X191346253Y-95554143D01*
X191360395Y-95540000D01*
X191346253Y-95525858D01*
X191525858Y-95346253D01*
X191540000Y-95360395D01*
X191554143Y-95346253D01*
X191733748Y-95525858D01*
X191719605Y-95540000D01*
X192889224Y-96709619D01*
X193059811Y-96633348D01*
X196380953Y-96633348D01*
X197693000Y-97945395D01*
X199005047Y-96633348D01*
X198849037Y-96317787D01*
X198474254Y-96126981D01*
X198069448Y-96012957D01*
X197650175Y-95980098D01*
X197232548Y-96029667D01*
X196832617Y-96159758D01*
X196536963Y-96317787D01*
X196380953Y-96633348D01*
X193059811Y-96633348D01*
X193184312Y-96577683D01*
X193355159Y-96236955D01*
X193456250Y-95869443D01*
X193476375Y-95590729D01*
X201816299Y-95590729D01*
X201863543Y-95968951D01*
X201983667Y-96330690D01*
X202115688Y-96577683D01*
X202410776Y-96709619D01*
X203580395Y-95540000D01*
X202410776Y-94370381D01*
X202115688Y-94502317D01*
X201944841Y-94843045D01*
X201843750Y-95210557D01*
X201816299Y-95590729D01*
X193476375Y-95590729D01*
X193483701Y-95489271D01*
X193436457Y-95111049D01*
X193316333Y-94749310D01*
X193184312Y-94502317D01*
X192889226Y-94370382D01*
X192989608Y-94270000D01*
X193680846Y-94270000D01*
X193741638Y-94360982D01*
X194039018Y-94658362D01*
X194388699Y-94892011D01*
X194777244Y-95052952D01*
X195189721Y-95134999D01*
X195610279Y-95134999D01*
X196022756Y-95052952D01*
X196411301Y-94892011D01*
X196760982Y-94658362D01*
X197058362Y-94360982D01*
X197292011Y-94011301D01*
X197452952Y-93622756D01*
X197534999Y-93210279D01*
X197534999Y-92789721D01*
X197765001Y-92789721D01*
X197765001Y-93210279D01*
X197847048Y-93622756D01*
X198007989Y-94011301D01*
X198241638Y-94360982D01*
X198539018Y-94658362D01*
X198888699Y-94892011D01*
X199277244Y-95052952D01*
X199689721Y-95134999D01*
X200110279Y-95134999D01*
X200522756Y-95052952D01*
X200911301Y-94892011D01*
X201260982Y-94658362D01*
X201558362Y-94360982D01*
X201792011Y-94011301D01*
X201952952Y-93622756D01*
X202034999Y-93210279D01*
X202034999Y-92789721D01*
X201952952Y-92377244D01*
X201792011Y-91988699D01*
X201672090Y-91809224D01*
X202590381Y-91809224D01*
X202722317Y-92104312D01*
X203063045Y-92275159D01*
X203430557Y-92376250D01*
X203810729Y-92403701D01*
X204188951Y-92356457D01*
X204550690Y-92236333D01*
X204583212Y-92218950D01*
X204487439Y-92450166D01*
X204415000Y-92814344D01*
X204415000Y-93185656D01*
X204487439Y-93549834D01*
X204586923Y-93790009D01*
X204456955Y-93724841D01*
X204089443Y-93623750D01*
X203709271Y-93596299D01*
X203331049Y-93643543D01*
X202969310Y-93763667D01*
X202722317Y-93895688D01*
X202590381Y-94190776D01*
X203760000Y-95360395D01*
X203774143Y-95346253D01*
X203953748Y-95525858D01*
X203939605Y-95540000D01*
X205109224Y-96709619D01*
X205404312Y-96577683D01*
X205575159Y-96236955D01*
X205676250Y-95869443D01*
X205703701Y-95489271D01*
X205656457Y-95111049D01*
X205536333Y-94749310D01*
X205518950Y-94716788D01*
X205750166Y-94812561D01*
X206114344Y-94885000D01*
X206485656Y-94885000D01*
X206849834Y-94812561D01*
X207090009Y-94713077D01*
X207024841Y-94843045D01*
X206923750Y-95210557D01*
X206896299Y-95590729D01*
X206943543Y-95968951D01*
X207063667Y-96330690D01*
X207195688Y-96577683D01*
X207490776Y-96709619D01*
X208660395Y-95540000D01*
X209019605Y-95540000D01*
X210189224Y-96709619D01*
X210484312Y-96577683D01*
X210655159Y-96236955D01*
X210756250Y-95869443D01*
X210783701Y-95489271D01*
X210736457Y-95111049D01*
X210616333Y-94749310D01*
X210484312Y-94502317D01*
X210189224Y-94370381D01*
X209019605Y-95540000D01*
X208660395Y-95540000D01*
X208646253Y-95525858D01*
X208825858Y-95346253D01*
X208840000Y-95360395D01*
X210009619Y-94190776D01*
X209877683Y-93895688D01*
X209536955Y-93724841D01*
X209169443Y-93623750D01*
X208789271Y-93596299D01*
X208411049Y-93643543D01*
X208049310Y-93763667D01*
X208016788Y-93781050D01*
X208112561Y-93549834D01*
X208185000Y-93185656D01*
X208185000Y-92814344D01*
X208167368Y-92725701D01*
X211815000Y-92725701D01*
X211815000Y-93274299D01*
X211922026Y-93812354D01*
X212131965Y-94319192D01*
X212436750Y-94775334D01*
X212824666Y-95163250D01*
X213280808Y-95468035D01*
X213787646Y-95677974D01*
X214325701Y-95785000D01*
X214874299Y-95785000D01*
X215412354Y-95677974D01*
X215622982Y-95590729D01*
X218216299Y-95590729D01*
X218263543Y-95968951D01*
X218383667Y-96330690D01*
X218515688Y-96577683D01*
X218810776Y-96709619D01*
X219980395Y-95540000D01*
X218810776Y-94370381D01*
X218515688Y-94502317D01*
X218344841Y-94843045D01*
X218243750Y-95210557D01*
X218216299Y-95590729D01*
X215622982Y-95590729D01*
X215919192Y-95468035D01*
X216375334Y-95163250D01*
X216763250Y-94775334D01*
X217068035Y-94319192D01*
X217277974Y-93812354D01*
X217385000Y-93274299D01*
X217385000Y-92725701D01*
X217277974Y-92187646D01*
X217068035Y-91680808D01*
X216763250Y-91224666D01*
X216375334Y-90836750D01*
X215919192Y-90531965D01*
X215867924Y-90510729D01*
X218216299Y-90510729D01*
X218263543Y-90888951D01*
X218383667Y-91250690D01*
X218515688Y-91497683D01*
X218810776Y-91629619D01*
X219980395Y-90460000D01*
X218810776Y-89290381D01*
X218515688Y-89422317D01*
X218344841Y-89763045D01*
X218243750Y-90130557D01*
X218216299Y-90510729D01*
X215867924Y-90510729D01*
X215412354Y-90322026D01*
X214874299Y-90215000D01*
X214325701Y-90215000D01*
X213787646Y-90322026D01*
X213280808Y-90531965D01*
X212824666Y-90836750D01*
X212436750Y-91224666D01*
X212131965Y-91680808D01*
X211922026Y-92187646D01*
X211815000Y-92725701D01*
X208167368Y-92725701D01*
X208112561Y-92450166D01*
X208013077Y-92209991D01*
X208143045Y-92275159D01*
X208510557Y-92376250D01*
X208890729Y-92403701D01*
X209268951Y-92356457D01*
X209630690Y-92236333D01*
X209877683Y-92104312D01*
X210009619Y-91809224D01*
X208840000Y-90639605D01*
X208825858Y-90653748D01*
X208646253Y-90474143D01*
X208660395Y-90460000D01*
X209019605Y-90460000D01*
X210189224Y-91629619D01*
X210484312Y-91497683D01*
X210655159Y-91156955D01*
X210756250Y-90789443D01*
X210783701Y-90409271D01*
X210736457Y-90031049D01*
X210616333Y-89669310D01*
X210484312Y-89422317D01*
X210189224Y-89290381D01*
X209019605Y-90460000D01*
X208660395Y-90460000D01*
X207490776Y-89290381D01*
X207195688Y-89422317D01*
X207024841Y-89763045D01*
X206923750Y-90130557D01*
X206896299Y-90510729D01*
X206943543Y-90888951D01*
X207063667Y-91250690D01*
X207081050Y-91283212D01*
X206849834Y-91187439D01*
X206485656Y-91115000D01*
X206114344Y-91115000D01*
X205750166Y-91187439D01*
X205509991Y-91286923D01*
X205575159Y-91156955D01*
X205676250Y-90789443D01*
X205703701Y-90409271D01*
X205656457Y-90031049D01*
X205536333Y-89669310D01*
X205404312Y-89422317D01*
X205109224Y-89290381D01*
X203939605Y-90460000D01*
X203953748Y-90474143D01*
X203774143Y-90653748D01*
X203760000Y-90639605D01*
X202590381Y-91809224D01*
X201672090Y-91809224D01*
X201558362Y-91639018D01*
X201260982Y-91341638D01*
X200911301Y-91107989D01*
X200522756Y-90947048D01*
X200110279Y-90865001D01*
X199689721Y-90865001D01*
X199277244Y-90947048D01*
X198888699Y-91107989D01*
X198539018Y-91341638D01*
X198241638Y-91639018D01*
X198007989Y-91988699D01*
X197847048Y-92377244D01*
X197765001Y-92789721D01*
X197534999Y-92789721D01*
X197452952Y-92377244D01*
X197292011Y-91988699D01*
X197058362Y-91639018D01*
X196760982Y-91341638D01*
X196411301Y-91107989D01*
X196022756Y-90947048D01*
X195610279Y-90865001D01*
X195189721Y-90865001D01*
X194777244Y-90947048D01*
X194388699Y-91107989D01*
X194039018Y-91341638D01*
X193741638Y-91639018D01*
X193680846Y-91730000D01*
X192989608Y-91730000D01*
X192889226Y-91629618D01*
X193184312Y-91497683D01*
X193355159Y-91156955D01*
X193456250Y-90789443D01*
X193476375Y-90510729D01*
X201816299Y-90510729D01*
X201863543Y-90888951D01*
X201983667Y-91250690D01*
X202115688Y-91497683D01*
X202410776Y-91629619D01*
X203580395Y-90460000D01*
X202410776Y-89290381D01*
X202115688Y-89422317D01*
X201944841Y-89763045D01*
X201843750Y-90130557D01*
X201816299Y-90510729D01*
X193476375Y-90510729D01*
X193483701Y-90409271D01*
X193436457Y-90031049D01*
X193316333Y-89669310D01*
X193184312Y-89422317D01*
X192889224Y-89290381D01*
X191719605Y-90460000D01*
X191733748Y-90474143D01*
X191554143Y-90653748D01*
X191540000Y-90639605D01*
X191525858Y-90653748D01*
X191346253Y-90474143D01*
X191360395Y-90460000D01*
X190190776Y-89290381D01*
X189895688Y-89422317D01*
X189724841Y-89763045D01*
X189623750Y-90130557D01*
X189596299Y-90510729D01*
X189643543Y-90888951D01*
X189763667Y-91250690D01*
X189781050Y-91283212D01*
X189549834Y-91187439D01*
X189185656Y-91115000D01*
X188814344Y-91115000D01*
X188450166Y-91187439D01*
X188209991Y-91286923D01*
X188275159Y-91156955D01*
X188376250Y-90789443D01*
X188403701Y-90409271D01*
X188356457Y-90031049D01*
X188236333Y-89669310D01*
X188104312Y-89422317D01*
X187809224Y-89290381D01*
X186639605Y-90460000D01*
X186653748Y-90474143D01*
X186474143Y-90653748D01*
X186460000Y-90639605D01*
X185290381Y-91809224D01*
X185422317Y-92104312D01*
X185763045Y-92275159D01*
X186130557Y-92376250D01*
X186510729Y-92403701D01*
X186888951Y-92356457D01*
X187250690Y-92236333D01*
X187283212Y-92218950D01*
X187187439Y-92450166D01*
X187115000Y-92814344D01*
X187115000Y-93185656D01*
X187187439Y-93549834D01*
X187286923Y-93790009D01*
X187156955Y-93724841D01*
X186789443Y-93623750D01*
X186409271Y-93596299D01*
X186031049Y-93643543D01*
X185669310Y-93763667D01*
X185422317Y-93895688D01*
X185290381Y-94190776D01*
X186460000Y-95360395D01*
X186474143Y-95346253D01*
X186653748Y-95525858D01*
X186639605Y-95540000D01*
X186653748Y-95554143D01*
X186474143Y-95733748D01*
X186460000Y-95719605D01*
X185290381Y-96889224D01*
X185422317Y-97184312D01*
X185763045Y-97355159D01*
X186130557Y-97456250D01*
X186510729Y-97483701D01*
X186888951Y-97436457D01*
X187250690Y-97316333D01*
X187497683Y-97184312D01*
X187629618Y-96889226D01*
X187730001Y-96989609D01*
X187730001Y-98151662D01*
X187503399Y-98000252D01*
X186887368Y-97745083D01*
X186233393Y-97615000D01*
X185566607Y-97615000D01*
X184912632Y-97745083D01*
X184296601Y-98000252D01*
X183742188Y-98370698D01*
X183270698Y-98842188D01*
X183127000Y-99057248D01*
X183127000Y-95590729D01*
X184516299Y-95590729D01*
X184563543Y-95968951D01*
X184683667Y-96330690D01*
X184815688Y-96577683D01*
X185110776Y-96709619D01*
X186280395Y-95540000D01*
X185110776Y-94370381D01*
X184815688Y-94502317D01*
X184644841Y-94843045D01*
X184543750Y-95210557D01*
X184516299Y-95590729D01*
X183127000Y-95590729D01*
X183127000Y-90510729D01*
X184516299Y-90510729D01*
X184563543Y-90888951D01*
X184683667Y-91250690D01*
X184815688Y-91497683D01*
X185110776Y-91629619D01*
X186280395Y-90460000D01*
X185110776Y-89290381D01*
X184815688Y-89422317D01*
X184644841Y-89763045D01*
X184543750Y-90130557D01*
X184516299Y-90510729D01*
X183127000Y-90510729D01*
X183127000Y-89110776D01*
X185290381Y-89110776D01*
X186460000Y-90280395D01*
X187629619Y-89110776D01*
X190370381Y-89110776D01*
X191540000Y-90280395D01*
X192709619Y-89110776D01*
X202590381Y-89110776D01*
X203760000Y-90280395D01*
X204929619Y-89110776D01*
X207670381Y-89110776D01*
X208840000Y-90280395D01*
X210009619Y-89110776D01*
X218990381Y-89110776D01*
X220160000Y-90280395D01*
X221329619Y-89110776D01*
X224070381Y-89110776D01*
X225240000Y-90280395D01*
X226409619Y-89110776D01*
X226277683Y-88815688D01*
X225936955Y-88644841D01*
X225569443Y-88543750D01*
X225189271Y-88516299D01*
X224811049Y-88563543D01*
X224449310Y-88683667D01*
X224202317Y-88815688D01*
X224070381Y-89110776D01*
X221329619Y-89110776D01*
X221197683Y-88815688D01*
X220856955Y-88644841D01*
X220489443Y-88543750D01*
X220109271Y-88516299D01*
X219731049Y-88563543D01*
X219369310Y-88683667D01*
X219122317Y-88815688D01*
X218990381Y-89110776D01*
X210009619Y-89110776D01*
X209877683Y-88815688D01*
X209536955Y-88644841D01*
X209169443Y-88543750D01*
X208789271Y-88516299D01*
X208411049Y-88563543D01*
X208049310Y-88683667D01*
X207802317Y-88815688D01*
X207670381Y-89110776D01*
X204929619Y-89110776D01*
X204797683Y-88815688D01*
X204456955Y-88644841D01*
X204089443Y-88543750D01*
X203709271Y-88516299D01*
X203331049Y-88563543D01*
X202969310Y-88683667D01*
X202722317Y-88815688D01*
X202590381Y-89110776D01*
X192709619Y-89110776D01*
X192577683Y-88815688D01*
X192236955Y-88644841D01*
X191869443Y-88543750D01*
X191489271Y-88516299D01*
X191111049Y-88563543D01*
X190749310Y-88683667D01*
X190502317Y-88815688D01*
X190370381Y-89110776D01*
X187629619Y-89110776D01*
X187497683Y-88815688D01*
X187156955Y-88644841D01*
X186789443Y-88543750D01*
X186409271Y-88516299D01*
X186031049Y-88563543D01*
X185669310Y-88683667D01*
X185422317Y-88815688D01*
X185290381Y-89110776D01*
X183127000Y-89110776D01*
X183127000Y-88289535D01*
X183208895Y-88189121D01*
X183283986Y-88127000D01*
X245873000Y-88127000D01*
X245873000Y-98785886D01*
X245873000Y-98785886D01*
G37*
X245873000Y-98785886D02*
X245457812Y-98370698D01*
X244903399Y-98000252D01*
X244287368Y-97745083D01*
X243633393Y-97615000D01*
X242966607Y-97615000D01*
X242312632Y-97745083D01*
X241696601Y-98000252D01*
X241142188Y-98370698D01*
X240670698Y-98842188D01*
X240300252Y-99396601D01*
X240045083Y-100012632D01*
X239915000Y-100666607D01*
X239915000Y-101333393D01*
X240045083Y-101987368D01*
X240300252Y-102603399D01*
X240670698Y-103157812D01*
X241142188Y-103629302D01*
X241506909Y-103873000D01*
X223327000Y-103873000D01*
X223327000Y-97328853D01*
X223553914Y-97101939D01*
X223602370Y-97062172D01*
X223744305Y-96889224D01*
X224070381Y-96889224D01*
X224202317Y-97184312D01*
X224543045Y-97355159D01*
X224910557Y-97456250D01*
X225290729Y-97483701D01*
X225668951Y-97436457D01*
X226030690Y-97316333D01*
X226263950Y-97191652D01*
X229987953Y-97191652D01*
X230143963Y-97507213D01*
X230518746Y-97698019D01*
X230923552Y-97812043D01*
X231342825Y-97844902D01*
X231760452Y-97795333D01*
X232160383Y-97665242D01*
X232456037Y-97507213D01*
X232612047Y-97191652D01*
X231300000Y-95879605D01*
X229987953Y-97191652D01*
X226263950Y-97191652D01*
X226277683Y-97184312D01*
X226409619Y-96889224D01*
X225240000Y-95719605D01*
X224070381Y-96889224D01*
X223744305Y-96889224D01*
X223761075Y-96868790D01*
X223854760Y-96693516D01*
X223890776Y-96709619D01*
X225060395Y-95540000D01*
X225046253Y-95525858D01*
X225225858Y-95346253D01*
X225240000Y-95360395D01*
X225254143Y-95346253D01*
X225433748Y-95525858D01*
X225419605Y-95540000D01*
X226589224Y-96709619D01*
X226884312Y-96577683D01*
X227055159Y-96236955D01*
X227156250Y-95869443D01*
X227165392Y-95742825D01*
X229155098Y-95742825D01*
X229204667Y-96160452D01*
X229334758Y-96560383D01*
X229492787Y-96856037D01*
X229808348Y-97012047D01*
X231120395Y-95700000D01*
X231479605Y-95700000D01*
X232791652Y-97012047D01*
X233040085Y-96889224D01*
X236290381Y-96889224D01*
X236422317Y-97184312D01*
X236763045Y-97355159D01*
X237130557Y-97456250D01*
X237510729Y-97483701D01*
X237888951Y-97436457D01*
X238250690Y-97316333D01*
X238497683Y-97184312D01*
X238629619Y-96889224D01*
X241370381Y-96889224D01*
X241502317Y-97184312D01*
X241843045Y-97355159D01*
X242210557Y-97456250D01*
X242590729Y-97483701D01*
X242968951Y-97436457D01*
X243330690Y-97316333D01*
X243577683Y-97184312D01*
X243709619Y-96889224D01*
X242540000Y-95719605D01*
X241370381Y-96889224D01*
X238629619Y-96889224D01*
X237460000Y-95719605D01*
X236290381Y-96889224D01*
X233040085Y-96889224D01*
X233107213Y-96856037D01*
X233298019Y-96481254D01*
X233412043Y-96076448D01*
X233444902Y-95657175D01*
X233437016Y-95590729D01*
X235516299Y-95590729D01*
X235563543Y-95968951D01*
X235683667Y-96330690D01*
X235815688Y-96577683D01*
X236110776Y-96709619D01*
X237280395Y-95540000D01*
X236110776Y-94370381D01*
X235815688Y-94502317D01*
X235644841Y-94843045D01*
X235543750Y-95210557D01*
X235516299Y-95590729D01*
X233437016Y-95590729D01*
X233395333Y-95239548D01*
X233265242Y-94839617D01*
X233107213Y-94543963D01*
X232791652Y-94387953D01*
X231479605Y-95700000D01*
X231120395Y-95700000D01*
X229808348Y-94387953D01*
X229492787Y-94543963D01*
X229301981Y-94918746D01*
X229187957Y-95323552D01*
X229155098Y-95742825D01*
X227165392Y-95742825D01*
X227183701Y-95489271D01*
X227136457Y-95111049D01*
X227016333Y-94749310D01*
X226884312Y-94502317D01*
X226589226Y-94370382D01*
X226689608Y-94270000D01*
X227237627Y-94270000D01*
X227300000Y-94276143D01*
X227362373Y-94270000D01*
X227362380Y-94270000D01*
X227548963Y-94251623D01*
X227691621Y-94208348D01*
X229987953Y-94208348D01*
X231300000Y-95520395D01*
X232612047Y-94208348D01*
X232456037Y-93892787D01*
X232081254Y-93701981D01*
X231676448Y-93587957D01*
X231257175Y-93555098D01*
X230839548Y-93604667D01*
X230439617Y-93734758D01*
X230143963Y-93892787D01*
X229987953Y-94208348D01*
X227691621Y-94208348D01*
X227788359Y-94179003D01*
X228008988Y-94061075D01*
X228202370Y-93902370D01*
X228242141Y-93853909D01*
X228782399Y-93313651D01*
X228889721Y-93334999D01*
X229310279Y-93334999D01*
X229722756Y-93252952D01*
X230111301Y-93092011D01*
X230460982Y-92858362D01*
X230758362Y-92560982D01*
X230992011Y-92211301D01*
X231152952Y-91822756D01*
X231234999Y-91410279D01*
X231234999Y-90989721D01*
X231499001Y-90989721D01*
X231499001Y-91410279D01*
X231581048Y-91822756D01*
X231741989Y-92211301D01*
X231975638Y-92560982D01*
X232273018Y-92858362D01*
X232622699Y-93092011D01*
X233011244Y-93252952D01*
X233423721Y-93334999D01*
X233844279Y-93334999D01*
X234256756Y-93252952D01*
X234645301Y-93092011D01*
X234994982Y-92858362D01*
X235292362Y-92560982D01*
X235526011Y-92211301D01*
X235686952Y-91822756D01*
X235689643Y-91809224D01*
X236290381Y-91809224D01*
X236422317Y-92104312D01*
X236763045Y-92275159D01*
X237130557Y-92376250D01*
X237510729Y-92403701D01*
X237888951Y-92356457D01*
X238250690Y-92236333D01*
X238283212Y-92218950D01*
X238187439Y-92450166D01*
X238115000Y-92814344D01*
X238115000Y-93185656D01*
X238187439Y-93549834D01*
X238286923Y-93790009D01*
X238156955Y-93724841D01*
X237789443Y-93623750D01*
X237409271Y-93596299D01*
X237031049Y-93643543D01*
X236669310Y-93763667D01*
X236422317Y-93895688D01*
X236290381Y-94190776D01*
X237460000Y-95360395D01*
X237474143Y-95346253D01*
X237653748Y-95525858D01*
X237639605Y-95540000D01*
X238809224Y-96709619D01*
X239104312Y-96577683D01*
X239275159Y-96236955D01*
X239376250Y-95869443D01*
X239403701Y-95489271D01*
X239356457Y-95111049D01*
X239236333Y-94749310D01*
X239218950Y-94716788D01*
X239450166Y-94812561D01*
X239814344Y-94885000D01*
X240185656Y-94885000D01*
X240549834Y-94812561D01*
X240790009Y-94713077D01*
X240724841Y-94843045D01*
X240623750Y-95210557D01*
X240596299Y-95590729D01*
X240643543Y-95968951D01*
X240763667Y-96330690D01*
X240895688Y-96577683D01*
X241190776Y-96709619D01*
X242360395Y-95540000D01*
X242719605Y-95540000D01*
X243889224Y-96709619D01*
X244184312Y-96577683D01*
X244355159Y-96236955D01*
X244456250Y-95869443D01*
X244483701Y-95489271D01*
X244436457Y-95111049D01*
X244316333Y-94749310D01*
X244184312Y-94502317D01*
X243889224Y-94370381D01*
X242719605Y-95540000D01*
X242360395Y-95540000D01*
X242346253Y-95525858D01*
X242525858Y-95346253D01*
X242540000Y-95360395D01*
X243709619Y-94190776D01*
X243577683Y-93895688D01*
X243236955Y-93724841D01*
X242869443Y-93623750D01*
X242489271Y-93596299D01*
X242111049Y-93643543D01*
X241749310Y-93763667D01*
X241716788Y-93781050D01*
X241812561Y-93549834D01*
X241885000Y-93185656D01*
X241885000Y-92814344D01*
X241812561Y-92450166D01*
X241713077Y-92209991D01*
X241843045Y-92275159D01*
X242210557Y-92376250D01*
X242590729Y-92403701D01*
X242968951Y-92356457D01*
X243330690Y-92236333D01*
X243577683Y-92104312D01*
X243709619Y-91809224D01*
X242540000Y-90639605D01*
X242525858Y-90653748D01*
X242346253Y-90474143D01*
X242360395Y-90460000D01*
X242719605Y-90460000D01*
X243889224Y-91629619D01*
X244184312Y-91497683D01*
X244355159Y-91156955D01*
X244456250Y-90789443D01*
X244483701Y-90409271D01*
X244436457Y-90031049D01*
X244316333Y-89669310D01*
X244184312Y-89422317D01*
X243889224Y-89290381D01*
X242719605Y-90460000D01*
X242360395Y-90460000D01*
X241190776Y-89290381D01*
X240895688Y-89422317D01*
X240724841Y-89763045D01*
X240623750Y-90130557D01*
X240596299Y-90510729D01*
X240643543Y-90888951D01*
X240763667Y-91250690D01*
X240781050Y-91283212D01*
X240549834Y-91187439D01*
X240185656Y-91115000D01*
X239814344Y-91115000D01*
X239450166Y-91187439D01*
X239209991Y-91286923D01*
X239275159Y-91156955D01*
X239376250Y-90789443D01*
X239403701Y-90409271D01*
X239356457Y-90031049D01*
X239236333Y-89669310D01*
X239104312Y-89422317D01*
X238809224Y-89290381D01*
X237639605Y-90460000D01*
X237653748Y-90474143D01*
X237474143Y-90653748D01*
X237460000Y-90639605D01*
X236290381Y-91809224D01*
X235689643Y-91809224D01*
X235768991Y-91410319D01*
X235815688Y-91497683D01*
X236110776Y-91629619D01*
X237280395Y-90460000D01*
X236110776Y-89290381D01*
X235815688Y-89422317D01*
X235644841Y-89763045D01*
X235543750Y-90130557D01*
X235537542Y-90216536D01*
X235526011Y-90188699D01*
X235292362Y-89839018D01*
X234994982Y-89541638D01*
X234645301Y-89307989D01*
X234256756Y-89147048D01*
X234074405Y-89110776D01*
X236290381Y-89110776D01*
X237460000Y-90280395D01*
X238629619Y-89110776D01*
X241370381Y-89110776D01*
X242540000Y-90280395D01*
X243709619Y-89110776D01*
X243577683Y-88815688D01*
X243236955Y-88644841D01*
X242869443Y-88543750D01*
X242489271Y-88516299D01*
X242111049Y-88563543D01*
X241749310Y-88683667D01*
X241502317Y-88815688D01*
X241370381Y-89110776D01*
X238629619Y-89110776D01*
X238497683Y-88815688D01*
X238156955Y-88644841D01*
X237789443Y-88543750D01*
X237409271Y-88516299D01*
X237031049Y-88563543D01*
X236669310Y-88683667D01*
X236422317Y-88815688D01*
X236290381Y-89110776D01*
X234074405Y-89110776D01*
X233844279Y-89065001D01*
X233423721Y-89065001D01*
X233011244Y-89147048D01*
X232622699Y-89307989D01*
X232273018Y-89541638D01*
X231975638Y-89839018D01*
X231741989Y-90188699D01*
X231581048Y-90577244D01*
X231499001Y-90989721D01*
X231234999Y-90989721D01*
X231152952Y-90577244D01*
X230992011Y-90188699D01*
X230758362Y-89839018D01*
X230460982Y-89541638D01*
X230111301Y-89307989D01*
X229722756Y-89147048D01*
X229310279Y-89065001D01*
X228889721Y-89065001D01*
X228477244Y-89147048D01*
X228088699Y-89307989D01*
X227739018Y-89541638D01*
X227441638Y-89839018D01*
X227207989Y-90188699D01*
X227168160Y-90284854D01*
X227136457Y-90031049D01*
X227016333Y-89669310D01*
X226884312Y-89422317D01*
X226589224Y-89290381D01*
X225419605Y-90460000D01*
X225433748Y-90474143D01*
X225254143Y-90653748D01*
X225240000Y-90639605D01*
X225225858Y-90653748D01*
X225046253Y-90474143D01*
X225060395Y-90460000D01*
X223890776Y-89290381D01*
X223595688Y-89422317D01*
X223424841Y-89763045D01*
X223323750Y-90130557D01*
X223296299Y-90510729D01*
X223343543Y-90888951D01*
X223463667Y-91250690D01*
X223481050Y-91283212D01*
X223249834Y-91187439D01*
X222885656Y-91115000D01*
X222514344Y-91115000D01*
X222150166Y-91187439D01*
X221909991Y-91286923D01*
X221975159Y-91156955D01*
X222076250Y-90789443D01*
X222103701Y-90409271D01*
X222056457Y-90031049D01*
X221936333Y-89669310D01*
X221804312Y-89422317D01*
X221509224Y-89290381D01*
X220339605Y-90460000D01*
X220353748Y-90474143D01*
X220174143Y-90653748D01*
X220160000Y-90639605D01*
X218990381Y-91809224D01*
X219122317Y-92104312D01*
X219463045Y-92275159D01*
X219830557Y-92376250D01*
X220210729Y-92403701D01*
X220588951Y-92356457D01*
X220950690Y-92236333D01*
X220983212Y-92218950D01*
X220887439Y-92450166D01*
X220815000Y-92814344D01*
X220815000Y-93185656D01*
X220887439Y-93549834D01*
X220986923Y-93790009D01*
X220856955Y-93724841D01*
X220489443Y-93623750D01*
X220109271Y-93596299D01*
X219731049Y-93643543D01*
X219369310Y-93763667D01*
X219122317Y-93895688D01*
X218990381Y-94190776D01*
X220160000Y-95360395D01*
X220174143Y-95346253D01*
X220353748Y-95525858D01*
X220339605Y-95540000D01*
X220353748Y-95554143D01*
X220174143Y-95733748D01*
X220160000Y-95719605D01*
X218990381Y-96889224D01*
X219122317Y-97184312D01*
X219463045Y-97355159D01*
X219655621Y-97408131D01*
X213996091Y-103067661D01*
X213947630Y-103107432D01*
X213788925Y-103300815D01*
X213670997Y-103521444D01*
X213638279Y-103629302D01*
X213598377Y-103760839D01*
X213597423Y-103770527D01*
X213587330Y-103873000D01*
X196222358Y-103873000D01*
X196203915Y-103857864D01*
X191962703Y-99616652D01*
X196380953Y-99616652D01*
X196536963Y-99932213D01*
X196911746Y-100123019D01*
X197316552Y-100237043D01*
X197735825Y-100269902D01*
X198153452Y-100220333D01*
X198553383Y-100090242D01*
X198849037Y-99932213D01*
X199005047Y-99616652D01*
X197693000Y-98304605D01*
X196380953Y-99616652D01*
X191962703Y-99616652D01*
X190513876Y-98167825D01*
X195548098Y-98167825D01*
X195597667Y-98585452D01*
X195727758Y-98985383D01*
X195885787Y-99281037D01*
X196201348Y-99437047D01*
X197513395Y-98125000D01*
X197872605Y-98125000D01*
X199184652Y-99437047D01*
X199500213Y-99281037D01*
X199691019Y-98906254D01*
X199805043Y-98501448D01*
X199837902Y-98082175D01*
X199788333Y-97664548D01*
X199658242Y-97264617D01*
X199500213Y-96968963D01*
X199338926Y-96889224D01*
X202590381Y-96889224D01*
X202722317Y-97184312D01*
X203063045Y-97355159D01*
X203430557Y-97456250D01*
X203810729Y-97483701D01*
X204188951Y-97436457D01*
X204550690Y-97316333D01*
X204797683Y-97184312D01*
X204929619Y-96889224D01*
X207670381Y-96889224D01*
X207802317Y-97184312D01*
X208143045Y-97355159D01*
X208510557Y-97456250D01*
X208890729Y-97483701D01*
X209268951Y-97436457D01*
X209630690Y-97316333D01*
X209877683Y-97184312D01*
X210009619Y-96889224D01*
X208840000Y-95719605D01*
X207670381Y-96889224D01*
X204929619Y-96889224D01*
X203760000Y-95719605D01*
X202590381Y-96889224D01*
X199338926Y-96889224D01*
X199184652Y-96812953D01*
X197872605Y-98125000D01*
X197513395Y-98125000D01*
X196201348Y-96812953D01*
X195885787Y-96968963D01*
X195694981Y-97343746D01*
X195580957Y-97748552D01*
X195548098Y-98167825D01*
X190513876Y-98167825D01*
X190270000Y-97923950D01*
X190270000Y-96989608D01*
X190370382Y-96889226D01*
X190502317Y-97184312D01*
X190843045Y-97355159D01*
X191210557Y-97456250D01*
X191590729Y-97483701D01*
X191968951Y-97436457D01*
X192330690Y-97316333D01*
X192577683Y-97184312D01*
X192709619Y-96889224D01*
X191540000Y-95719605D01*
X191525858Y-95733748D01*
X191346253Y-95554143D01*
X191360395Y-95540000D01*
X191346253Y-95525858D01*
X191525858Y-95346253D01*
X191540000Y-95360395D01*
X191554143Y-95346253D01*
X191733748Y-95525858D01*
X191719605Y-95540000D01*
X192889224Y-96709619D01*
X193059811Y-96633348D01*
X196380953Y-96633348D01*
X197693000Y-97945395D01*
X199005047Y-96633348D01*
X198849037Y-96317787D01*
X198474254Y-96126981D01*
X198069448Y-96012957D01*
X197650175Y-95980098D01*
X197232548Y-96029667D01*
X196832617Y-96159758D01*
X196536963Y-96317787D01*
X196380953Y-96633348D01*
X193059811Y-96633348D01*
X193184312Y-96577683D01*
X193355159Y-96236955D01*
X193456250Y-95869443D01*
X193476375Y-95590729D01*
X201816299Y-95590729D01*
X201863543Y-95968951D01*
X201983667Y-96330690D01*
X202115688Y-96577683D01*
X202410776Y-96709619D01*
X203580395Y-95540000D01*
X202410776Y-94370381D01*
X202115688Y-94502317D01*
X201944841Y-94843045D01*
X201843750Y-95210557D01*
X201816299Y-95590729D01*
X193476375Y-95590729D01*
X193483701Y-95489271D01*
X193436457Y-95111049D01*
X193316333Y-94749310D01*
X193184312Y-94502317D01*
X192889226Y-94370382D01*
X192989608Y-94270000D01*
X193680846Y-94270000D01*
X193741638Y-94360982D01*
X194039018Y-94658362D01*
X194388699Y-94892011D01*
X194777244Y-95052952D01*
X195189721Y-95134999D01*
X195610279Y-95134999D01*
X196022756Y-95052952D01*
X196411301Y-94892011D01*
X196760982Y-94658362D01*
X197058362Y-94360982D01*
X197292011Y-94011301D01*
X197452952Y-93622756D01*
X197534999Y-93210279D01*
X197534999Y-92789721D01*
X197765001Y-92789721D01*
X197765001Y-93210279D01*
X197847048Y-93622756D01*
X198007989Y-94011301D01*
X198241638Y-94360982D01*
X198539018Y-94658362D01*
X198888699Y-94892011D01*
X199277244Y-95052952D01*
X199689721Y-95134999D01*
X200110279Y-95134999D01*
X200522756Y-95052952D01*
X200911301Y-94892011D01*
X201260982Y-94658362D01*
X201558362Y-94360982D01*
X201792011Y-94011301D01*
X201952952Y-93622756D01*
X202034999Y-93210279D01*
X202034999Y-92789721D01*
X201952952Y-92377244D01*
X201792011Y-91988699D01*
X201672090Y-91809224D01*
X202590381Y-91809224D01*
X202722317Y-92104312D01*
X203063045Y-92275159D01*
X203430557Y-92376250D01*
X203810729Y-92403701D01*
X204188951Y-92356457D01*
X204550690Y-92236333D01*
X204583212Y-92218950D01*
X204487439Y-92450166D01*
X204415000Y-92814344D01*
X204415000Y-93185656D01*
X204487439Y-93549834D01*
X204586923Y-93790009D01*
X204456955Y-93724841D01*
X204089443Y-93623750D01*
X203709271Y-93596299D01*
X203331049Y-93643543D01*
X202969310Y-93763667D01*
X202722317Y-93895688D01*
X202590381Y-94190776D01*
X203760000Y-95360395D01*
X203774143Y-95346253D01*
X203953748Y-95525858D01*
X203939605Y-95540000D01*
X205109224Y-96709619D01*
X205404312Y-96577683D01*
X205575159Y-96236955D01*
X205676250Y-95869443D01*
X205703701Y-95489271D01*
X205656457Y-95111049D01*
X205536333Y-94749310D01*
X205518950Y-94716788D01*
X205750166Y-94812561D01*
X206114344Y-94885000D01*
X206485656Y-94885000D01*
X206849834Y-94812561D01*
X207090009Y-94713077D01*
X207024841Y-94843045D01*
X206923750Y-95210557D01*
X206896299Y-95590729D01*
X206943543Y-95968951D01*
X207063667Y-96330690D01*
X207195688Y-96577683D01*
X207490776Y-96709619D01*
X208660395Y-95540000D01*
X209019605Y-95540000D01*
X210189224Y-96709619D01*
X210484312Y-96577683D01*
X210655159Y-96236955D01*
X210756250Y-95869443D01*
X210783701Y-95489271D01*
X210736457Y-95111049D01*
X210616333Y-94749310D01*
X210484312Y-94502317D01*
X210189224Y-94370381D01*
X209019605Y-95540000D01*
X208660395Y-95540000D01*
X208646253Y-95525858D01*
X208825858Y-95346253D01*
X208840000Y-95360395D01*
X210009619Y-94190776D01*
X209877683Y-93895688D01*
X209536955Y-93724841D01*
X209169443Y-93623750D01*
X208789271Y-93596299D01*
X208411049Y-93643543D01*
X208049310Y-93763667D01*
X208016788Y-93781050D01*
X208112561Y-93549834D01*
X208185000Y-93185656D01*
X208185000Y-92814344D01*
X208167368Y-92725701D01*
X211815000Y-92725701D01*
X211815000Y-93274299D01*
X211922026Y-93812354D01*
X212131965Y-94319192D01*
X212436750Y-94775334D01*
X212824666Y-95163250D01*
X213280808Y-95468035D01*
X213787646Y-95677974D01*
X214325701Y-95785000D01*
X214874299Y-95785000D01*
X215412354Y-95677974D01*
X215622982Y-95590729D01*
X218216299Y-95590729D01*
X218263543Y-95968951D01*
X218383667Y-96330690D01*
X218515688Y-96577683D01*
X218810776Y-96709619D01*
X219980395Y-95540000D01*
X218810776Y-94370381D01*
X218515688Y-94502317D01*
X218344841Y-94843045D01*
X218243750Y-95210557D01*
X218216299Y-95590729D01*
X215622982Y-95590729D01*
X215919192Y-95468035D01*
X216375334Y-95163250D01*
X216763250Y-94775334D01*
X217068035Y-94319192D01*
X217277974Y-93812354D01*
X217385000Y-93274299D01*
X217385000Y-92725701D01*
X217277974Y-92187646D01*
X217068035Y-91680808D01*
X216763250Y-91224666D01*
X216375334Y-90836750D01*
X215919192Y-90531965D01*
X215867924Y-90510729D01*
X218216299Y-90510729D01*
X218263543Y-90888951D01*
X218383667Y-91250690D01*
X218515688Y-91497683D01*
X218810776Y-91629619D01*
X219980395Y-90460000D01*
X218810776Y-89290381D01*
X218515688Y-89422317D01*
X218344841Y-89763045D01*
X218243750Y-90130557D01*
X218216299Y-90510729D01*
X215867924Y-90510729D01*
X215412354Y-90322026D01*
X214874299Y-90215000D01*
X214325701Y-90215000D01*
X213787646Y-90322026D01*
X213280808Y-90531965D01*
X212824666Y-90836750D01*
X212436750Y-91224666D01*
X212131965Y-91680808D01*
X211922026Y-92187646D01*
X211815000Y-92725701D01*
X208167368Y-92725701D01*
X208112561Y-92450166D01*
X208013077Y-92209991D01*
X208143045Y-92275159D01*
X208510557Y-92376250D01*
X208890729Y-92403701D01*
X209268951Y-92356457D01*
X209630690Y-92236333D01*
X209877683Y-92104312D01*
X210009619Y-91809224D01*
X208840000Y-90639605D01*
X208825858Y-90653748D01*
X208646253Y-90474143D01*
X208660395Y-90460000D01*
X209019605Y-90460000D01*
X210189224Y-91629619D01*
X210484312Y-91497683D01*
X210655159Y-91156955D01*
X210756250Y-90789443D01*
X210783701Y-90409271D01*
X210736457Y-90031049D01*
X210616333Y-89669310D01*
X210484312Y-89422317D01*
X210189224Y-89290381D01*
X209019605Y-90460000D01*
X208660395Y-90460000D01*
X207490776Y-89290381D01*
X207195688Y-89422317D01*
X207024841Y-89763045D01*
X206923750Y-90130557D01*
X206896299Y-90510729D01*
X206943543Y-90888951D01*
X207063667Y-91250690D01*
X207081050Y-91283212D01*
X206849834Y-91187439D01*
X206485656Y-91115000D01*
X206114344Y-91115000D01*
X205750166Y-91187439D01*
X205509991Y-91286923D01*
X205575159Y-91156955D01*
X205676250Y-90789443D01*
X205703701Y-90409271D01*
X205656457Y-90031049D01*
X205536333Y-89669310D01*
X205404312Y-89422317D01*
X205109224Y-89290381D01*
X203939605Y-90460000D01*
X203953748Y-90474143D01*
X203774143Y-90653748D01*
X203760000Y-90639605D01*
X202590381Y-91809224D01*
X201672090Y-91809224D01*
X201558362Y-91639018D01*
X201260982Y-91341638D01*
X200911301Y-91107989D01*
X200522756Y-90947048D01*
X200110279Y-90865001D01*
X199689721Y-90865001D01*
X199277244Y-90947048D01*
X198888699Y-91107989D01*
X198539018Y-91341638D01*
X198241638Y-91639018D01*
X198007989Y-91988699D01*
X197847048Y-92377244D01*
X197765001Y-92789721D01*
X197534999Y-92789721D01*
X197452952Y-92377244D01*
X197292011Y-91988699D01*
X197058362Y-91639018D01*
X196760982Y-91341638D01*
X196411301Y-91107989D01*
X196022756Y-90947048D01*
X195610279Y-90865001D01*
X195189721Y-90865001D01*
X194777244Y-90947048D01*
X194388699Y-91107989D01*
X194039018Y-91341638D01*
X193741638Y-91639018D01*
X193680846Y-91730000D01*
X192989608Y-91730000D01*
X192889226Y-91629618D01*
X193184312Y-91497683D01*
X193355159Y-91156955D01*
X193456250Y-90789443D01*
X193476375Y-90510729D01*
X201816299Y-90510729D01*
X201863543Y-90888951D01*
X201983667Y-91250690D01*
X202115688Y-91497683D01*
X202410776Y-91629619D01*
X203580395Y-90460000D01*
X202410776Y-89290381D01*
X202115688Y-89422317D01*
X201944841Y-89763045D01*
X201843750Y-90130557D01*
X201816299Y-90510729D01*
X193476375Y-90510729D01*
X193483701Y-90409271D01*
X193436457Y-90031049D01*
X193316333Y-89669310D01*
X193184312Y-89422317D01*
X192889224Y-89290381D01*
X191719605Y-90460000D01*
X191733748Y-90474143D01*
X191554143Y-90653748D01*
X191540000Y-90639605D01*
X191525858Y-90653748D01*
X191346253Y-90474143D01*
X191360395Y-90460000D01*
X190190776Y-89290381D01*
X189895688Y-89422317D01*
X189724841Y-89763045D01*
X189623750Y-90130557D01*
X189596299Y-90510729D01*
X189643543Y-90888951D01*
X189763667Y-91250690D01*
X189781050Y-91283212D01*
X189549834Y-91187439D01*
X189185656Y-91115000D01*
X188814344Y-91115000D01*
X188450166Y-91187439D01*
X188209991Y-91286923D01*
X188275159Y-91156955D01*
X188376250Y-90789443D01*
X188403701Y-90409271D01*
X188356457Y-90031049D01*
X188236333Y-89669310D01*
X188104312Y-89422317D01*
X187809224Y-89290381D01*
X186639605Y-90460000D01*
X186653748Y-90474143D01*
X186474143Y-90653748D01*
X186460000Y-90639605D01*
X185290381Y-91809224D01*
X185422317Y-92104312D01*
X185763045Y-92275159D01*
X186130557Y-92376250D01*
X186510729Y-92403701D01*
X186888951Y-92356457D01*
X187250690Y-92236333D01*
X187283212Y-92218950D01*
X187187439Y-92450166D01*
X187115000Y-92814344D01*
X187115000Y-93185656D01*
X187187439Y-93549834D01*
X187286923Y-93790009D01*
X187156955Y-93724841D01*
X186789443Y-93623750D01*
X186409271Y-93596299D01*
X186031049Y-93643543D01*
X185669310Y-93763667D01*
X185422317Y-93895688D01*
X185290381Y-94190776D01*
X186460000Y-95360395D01*
X186474143Y-95346253D01*
X186653748Y-95525858D01*
X186639605Y-95540000D01*
X186653748Y-95554143D01*
X186474143Y-95733748D01*
X186460000Y-95719605D01*
X185290381Y-96889224D01*
X185422317Y-97184312D01*
X185763045Y-97355159D01*
X186130557Y-97456250D01*
X186510729Y-97483701D01*
X186888951Y-97436457D01*
X187250690Y-97316333D01*
X187497683Y-97184312D01*
X187629618Y-96889226D01*
X187730001Y-96989609D01*
X187730001Y-98151662D01*
X187503399Y-98000252D01*
X186887368Y-97745083D01*
X186233393Y-97615000D01*
X185566607Y-97615000D01*
X184912632Y-97745083D01*
X184296601Y-98000252D01*
X183742188Y-98370698D01*
X183270698Y-98842188D01*
X183127000Y-99057248D01*
X183127000Y-95590729D01*
X184516299Y-95590729D01*
X184563543Y-95968951D01*
X184683667Y-96330690D01*
X184815688Y-96577683D01*
X185110776Y-96709619D01*
X186280395Y-95540000D01*
X185110776Y-94370381D01*
X184815688Y-94502317D01*
X184644841Y-94843045D01*
X184543750Y-95210557D01*
X184516299Y-95590729D01*
X183127000Y-95590729D01*
X183127000Y-90510729D01*
X184516299Y-90510729D01*
X184563543Y-90888951D01*
X184683667Y-91250690D01*
X184815688Y-91497683D01*
X185110776Y-91629619D01*
X186280395Y-90460000D01*
X185110776Y-89290381D01*
X184815688Y-89422317D01*
X184644841Y-89763045D01*
X184543750Y-90130557D01*
X184516299Y-90510729D01*
X183127000Y-90510729D01*
X183127000Y-89110776D01*
X185290381Y-89110776D01*
X186460000Y-90280395D01*
X187629619Y-89110776D01*
X190370381Y-89110776D01*
X191540000Y-90280395D01*
X192709619Y-89110776D01*
X202590381Y-89110776D01*
X203760000Y-90280395D01*
X204929619Y-89110776D01*
X207670381Y-89110776D01*
X208840000Y-90280395D01*
X210009619Y-89110776D01*
X218990381Y-89110776D01*
X220160000Y-90280395D01*
X221329619Y-89110776D01*
X224070381Y-89110776D01*
X225240000Y-90280395D01*
X226409619Y-89110776D01*
X226277683Y-88815688D01*
X225936955Y-88644841D01*
X225569443Y-88543750D01*
X225189271Y-88516299D01*
X224811049Y-88563543D01*
X224449310Y-88683667D01*
X224202317Y-88815688D01*
X224070381Y-89110776D01*
X221329619Y-89110776D01*
X221197683Y-88815688D01*
X220856955Y-88644841D01*
X220489443Y-88543750D01*
X220109271Y-88516299D01*
X219731049Y-88563543D01*
X219369310Y-88683667D01*
X219122317Y-88815688D01*
X218990381Y-89110776D01*
X210009619Y-89110776D01*
X209877683Y-88815688D01*
X209536955Y-88644841D01*
X209169443Y-88543750D01*
X208789271Y-88516299D01*
X208411049Y-88563543D01*
X208049310Y-88683667D01*
X207802317Y-88815688D01*
X207670381Y-89110776D01*
X204929619Y-89110776D01*
X204797683Y-88815688D01*
X204456955Y-88644841D01*
X204089443Y-88543750D01*
X203709271Y-88516299D01*
X203331049Y-88563543D01*
X202969310Y-88683667D01*
X202722317Y-88815688D01*
X202590381Y-89110776D01*
X192709619Y-89110776D01*
X192577683Y-88815688D01*
X192236955Y-88644841D01*
X191869443Y-88543750D01*
X191489271Y-88516299D01*
X191111049Y-88563543D01*
X190749310Y-88683667D01*
X190502317Y-88815688D01*
X190370381Y-89110776D01*
X187629619Y-89110776D01*
X187497683Y-88815688D01*
X187156955Y-88644841D01*
X186789443Y-88543750D01*
X186409271Y-88516299D01*
X186031049Y-88563543D01*
X185669310Y-88683667D01*
X185422317Y-88815688D01*
X185290381Y-89110776D01*
X183127000Y-89110776D01*
X183127000Y-88289535D01*
X183208895Y-88189121D01*
X183283986Y-88127000D01*
X245873000Y-88127000D01*
X245873000Y-98785886D01*
G36*
X221265001Y-82265000D02*
G01*
X220963895Y-82265000D01*
X220932496Y-82268093D01*
X220926402Y-82268050D01*
X220916188Y-82269051D01*
X220722091Y-82289452D01*
X220656843Y-82302845D01*
X220591402Y-82315329D01*
X220581577Y-82318295D01*
X220395139Y-82376007D01*
X220333720Y-82401825D01*
X220271962Y-82426777D01*
X220262901Y-82431595D01*
X220186324Y-82473000D01*
X219700000Y-82473000D01*
X219675224Y-82475440D01*
X219651399Y-82482667D01*
X219629443Y-82494403D01*
X219610197Y-82510197D01*
X219594403Y-82529443D01*
X219582667Y-82551399D01*
X219575440Y-82575224D01*
X219573000Y-82600000D01*
X219573000Y-83018934D01*
X219560608Y-83037585D01*
X219522994Y-83092520D01*
X219518112Y-83101547D01*
X219426487Y-83273869D01*
X219401086Y-83335496D01*
X219374859Y-83396689D01*
X219371824Y-83406492D01*
X219315415Y-83593328D01*
X219302467Y-83658720D01*
X219288626Y-83723836D01*
X219287553Y-83734042D01*
X219281402Y-83796779D01*
X219121637Y-83765000D01*
X218878363Y-83765000D01*
X218639764Y-83812460D01*
X218415008Y-83905557D01*
X218250000Y-84015812D01*
X218084992Y-83905557D01*
X217860236Y-83812460D01*
X217621637Y-83765000D01*
X217378363Y-83765000D01*
X217139764Y-83812460D01*
X216915008Y-83905557D01*
X216750000Y-84015812D01*
X216584992Y-83905557D01*
X216360236Y-83812460D01*
X216121637Y-83765000D01*
X215878363Y-83765000D01*
X215639764Y-83812460D01*
X215415008Y-83905557D01*
X215250000Y-84015812D01*
X215084992Y-83905557D01*
X214860236Y-83812460D01*
X214621637Y-83765000D01*
X214378363Y-83765000D01*
X214139764Y-83812460D01*
X213915008Y-83905557D01*
X213750000Y-84015812D01*
X213584992Y-83905557D01*
X213360236Y-83812460D01*
X213121637Y-83765000D01*
X212878363Y-83765000D01*
X212718402Y-83796818D01*
X212710548Y-83722091D01*
X212697155Y-83656843D01*
X212684671Y-83591402D01*
X212681705Y-83581577D01*
X212623993Y-83395139D01*
X212598175Y-83333720D01*
X212573223Y-83271962D01*
X212568405Y-83262901D01*
X212475580Y-83091224D01*
X212438315Y-83035977D01*
X212401850Y-82980252D01*
X212395364Y-82972299D01*
X212270960Y-82821921D01*
X212243675Y-82794826D01*
X212226561Y-82589453D01*
X212222072Y-82564965D01*
X212212891Y-82541823D01*
X212199372Y-82520917D01*
X212182035Y-82503050D01*
X212161544Y-82488909D01*
X212138689Y-82479037D01*
X212114347Y-82473813D01*
X212100000Y-82473000D01*
X211813609Y-82473000D01*
X211726131Y-82426487D01*
X211664504Y-82401086D01*
X211603311Y-82374859D01*
X211593508Y-82371824D01*
X211406672Y-82315415D01*
X211341280Y-82302467D01*
X211276164Y-82288626D01*
X211265958Y-82287553D01*
X211071724Y-82268508D01*
X211071723Y-82268508D01*
X211036105Y-82265000D01*
X210735000Y-82265000D01*
X210735000Y-79735000D01*
X221265000Y-79735000D01*
X221265001Y-82265000D01*
X221265001Y-82265000D01*
G37*
X221265001Y-82265000D02*
X220963895Y-82265000D01*
X220932496Y-82268093D01*
X220926402Y-82268050D01*
X220916188Y-82269051D01*
X220722091Y-82289452D01*
X220656843Y-82302845D01*
X220591402Y-82315329D01*
X220581577Y-82318295D01*
X220395139Y-82376007D01*
X220333720Y-82401825D01*
X220271962Y-82426777D01*
X220262901Y-82431595D01*
X220186324Y-82473000D01*
X219700000Y-82473000D01*
X219675224Y-82475440D01*
X219651399Y-82482667D01*
X219629443Y-82494403D01*
X219610197Y-82510197D01*
X219594403Y-82529443D01*
X219582667Y-82551399D01*
X219575440Y-82575224D01*
X219573000Y-82600000D01*
X219573000Y-83018934D01*
X219560608Y-83037585D01*
X219522994Y-83092520D01*
X219518112Y-83101547D01*
X219426487Y-83273869D01*
X219401086Y-83335496D01*
X219374859Y-83396689D01*
X219371824Y-83406492D01*
X219315415Y-83593328D01*
X219302467Y-83658720D01*
X219288626Y-83723836D01*
X219287553Y-83734042D01*
X219281402Y-83796779D01*
X219121637Y-83765000D01*
X218878363Y-83765000D01*
X218639764Y-83812460D01*
X218415008Y-83905557D01*
X218250000Y-84015812D01*
X218084992Y-83905557D01*
X217860236Y-83812460D01*
X217621637Y-83765000D01*
X217378363Y-83765000D01*
X217139764Y-83812460D01*
X216915008Y-83905557D01*
X216750000Y-84015812D01*
X216584992Y-83905557D01*
X216360236Y-83812460D01*
X216121637Y-83765000D01*
X215878363Y-83765000D01*
X215639764Y-83812460D01*
X215415008Y-83905557D01*
X215250000Y-84015812D01*
X215084992Y-83905557D01*
X214860236Y-83812460D01*
X214621637Y-83765000D01*
X214378363Y-83765000D01*
X214139764Y-83812460D01*
X213915008Y-83905557D01*
X213750000Y-84015812D01*
X213584992Y-83905557D01*
X213360236Y-83812460D01*
X213121637Y-83765000D01*
X212878363Y-83765000D01*
X212718402Y-83796818D01*
X212710548Y-83722091D01*
X212697155Y-83656843D01*
X212684671Y-83591402D01*
X212681705Y-83581577D01*
X212623993Y-83395139D01*
X212598175Y-83333720D01*
X212573223Y-83271962D01*
X212568405Y-83262901D01*
X212475580Y-83091224D01*
X212438315Y-83035977D01*
X212401850Y-82980252D01*
X212395364Y-82972299D01*
X212270960Y-82821921D01*
X212243675Y-82794826D01*
X212226561Y-82589453D01*
X212222072Y-82564965D01*
X212212891Y-82541823D01*
X212199372Y-82520917D01*
X212182035Y-82503050D01*
X212161544Y-82488909D01*
X212138689Y-82479037D01*
X212114347Y-82473813D01*
X212100000Y-82473000D01*
X211813609Y-82473000D01*
X211726131Y-82426487D01*
X211664504Y-82401086D01*
X211603311Y-82374859D01*
X211593508Y-82371824D01*
X211406672Y-82315415D01*
X211341280Y-82302467D01*
X211276164Y-82288626D01*
X211265958Y-82287553D01*
X211071724Y-82268508D01*
X211071723Y-82268508D01*
X211036105Y-82265000D01*
X210735000Y-82265000D01*
X210735000Y-79735000D01*
X221265000Y-79735000D01*
X221265001Y-82265000D01*
M02*
