G04 #@! TF.GenerationSoftware,KiCad,Pcbnew,(5.1.0)-1*
G04 #@! TF.CreationDate,2019-08-14T22:30:10+08:00*
G04 #@! TF.ProjectId,Kelvin Connector for Handheld LCR Meter,4b656c76-696e-4204-936f-6e6e6563746f,1.01*
G04 #@! TF.SameCoordinates,Original*
G04 #@! TF.FileFunction,Soldermask,Top*
G04 #@! TF.FilePolarity,Negative*
%FSLAX46Y46*%
G04 Gerber Fmt 4.6, Leading zero omitted, Abs format (unit mm)*
G04 Created by KiCad (PCBNEW (5.1.0)-1) date 2019-08-14 22:30:10*
%MOMM*%
%LPD*%
G04 APERTURE LIST*
%ADD10C,0.100000*%
G04 APERTURE END LIST*
D10*
G36*
X229100000Y-106900000D02*
G01*
X229100000Y-123800000D01*
X229100000Y-123900000D01*
X240900000Y-123900000D01*
X241100000Y-123900000D01*
X241100000Y-106900000D01*
X229100000Y-106900000D01*
G37*
X229100000Y-106900000D02*
X229100000Y-123800000D01*
X229100000Y-123900000D01*
X240900000Y-123900000D01*
X241100000Y-123900000D01*
X241100000Y-106900000D01*
X229100000Y-106900000D01*
G36*
X207450000Y-106900000D02*
G01*
X207350000Y-123800000D01*
X222350000Y-123900000D01*
X222350000Y-106900000D01*
X207450000Y-106900000D01*
G37*
X207450000Y-106900000D02*
X207350000Y-123800000D01*
X222350000Y-123900000D01*
X222350000Y-106900000D01*
X207450000Y-106900000D01*
G36*
X187950000Y-106900000D02*
G01*
X187850000Y-123800000D01*
X202850000Y-123900000D01*
X202850000Y-106900000D01*
X187950000Y-106900000D01*
G37*
X187950000Y-106900000D02*
X187850000Y-123800000D01*
X202850000Y-123900000D01*
X202850000Y-106900000D01*
X187950000Y-106900000D01*
G36*
X199797654Y-104831293D02*
G01*
X200363773Y-105003022D01*
X200885506Y-105281895D01*
X201342808Y-105657192D01*
X201718105Y-106114494D01*
X201996978Y-106636227D01*
X202168707Y-107202346D01*
X202227000Y-107794199D01*
X202227000Y-121005801D01*
X202168707Y-121597654D01*
X201996978Y-122163773D01*
X201718105Y-122685506D01*
X201342808Y-123142808D01*
X200885506Y-123518105D01*
X200363773Y-123796978D01*
X199797654Y-123968707D01*
X199205801Y-124027000D01*
X191494199Y-124027000D01*
X190902346Y-123968707D01*
X190336227Y-123796978D01*
X189814494Y-123518105D01*
X189357192Y-123142808D01*
X188981895Y-122685506D01*
X188703022Y-122163773D01*
X188531293Y-121597654D01*
X188473000Y-121005801D01*
X188473000Y-107794199D01*
X188531293Y-107202346D01*
X188703022Y-106636227D01*
X188981895Y-106114494D01*
X189357192Y-105657192D01*
X189814494Y-105281895D01*
X190336227Y-105003022D01*
X190902346Y-104831293D01*
X191494199Y-104773000D01*
X199205801Y-104773000D01*
X199797654Y-104831293D01*
X199797654Y-104831293D01*
G37*
G36*
X219297654Y-104831293D02*
G01*
X219863773Y-105003022D01*
X220385506Y-105281895D01*
X220842808Y-105657192D01*
X221218105Y-106114494D01*
X221496978Y-106636227D01*
X221668707Y-107202346D01*
X221727000Y-107794199D01*
X221727000Y-121005801D01*
X221668707Y-121597654D01*
X221496978Y-122163773D01*
X221218105Y-122685506D01*
X220842808Y-123142808D01*
X220385506Y-123518105D01*
X219863773Y-123796978D01*
X219297654Y-123968707D01*
X218705801Y-124027000D01*
X210994199Y-124027000D01*
X210402346Y-123968707D01*
X209836227Y-123796978D01*
X209314494Y-123518105D01*
X208857192Y-123142808D01*
X208481895Y-122685506D01*
X208203022Y-122163773D01*
X208031293Y-121597654D01*
X207973000Y-121005801D01*
X207973000Y-107794199D01*
X208031293Y-107202346D01*
X208203022Y-106636227D01*
X208481895Y-106114494D01*
X208857192Y-105657192D01*
X209314494Y-105281895D01*
X209836227Y-105003022D01*
X210402346Y-104831293D01*
X210994199Y-104773000D01*
X218705801Y-104773000D01*
X219297654Y-104831293D01*
X219297654Y-104831293D01*
G37*
G36*
X238744379Y-104820629D02*
G01*
X239206384Y-104960776D01*
X239632164Y-105188361D01*
X240005364Y-105494636D01*
X240311639Y-105867836D01*
X240539224Y-106293616D01*
X240679371Y-106755621D01*
X240727000Y-107239199D01*
X240727000Y-121560801D01*
X240679371Y-122044379D01*
X240539224Y-122506384D01*
X240311639Y-122932164D01*
X240005364Y-123305364D01*
X239632164Y-123611639D01*
X239206384Y-123839224D01*
X238744379Y-123979371D01*
X238260801Y-124027000D01*
X231939199Y-124027000D01*
X231455621Y-123979371D01*
X230993616Y-123839224D01*
X230567836Y-123611639D01*
X230194636Y-123305364D01*
X229888361Y-122932164D01*
X229660776Y-122506384D01*
X229520629Y-122044379D01*
X229473000Y-121560801D01*
X229473000Y-107239199D01*
X229520629Y-106755621D01*
X229660776Y-106293616D01*
X229888361Y-105867836D01*
X230194636Y-105494636D01*
X230567836Y-105188361D01*
X230993616Y-104960776D01*
X231455621Y-104820629D01*
X231939199Y-104773000D01*
X238260801Y-104773000D01*
X238744379Y-104820629D01*
X238744379Y-104820629D01*
G37*
G36*
X186739190Y-98233561D02*
G01*
X186739192Y-98233562D01*
X186739193Y-98233562D01*
X187262772Y-98450435D01*
X187733976Y-98765284D01*
X187733978Y-98765286D01*
X187733981Y-98765288D01*
X188134712Y-99166019D01*
X188134714Y-99166022D01*
X188134716Y-99166024D01*
X188449565Y-99637228D01*
X188666438Y-100160807D01*
X188777000Y-100716641D01*
X188777000Y-101283359D01*
X188666438Y-101839193D01*
X188449565Y-102362772D01*
X188134716Y-102833976D01*
X188134714Y-102833978D01*
X188134712Y-102833981D01*
X187733981Y-103234712D01*
X187733978Y-103234714D01*
X187733976Y-103234716D01*
X187262772Y-103549565D01*
X186739193Y-103766438D01*
X186739192Y-103766438D01*
X186739190Y-103766439D01*
X186183360Y-103877000D01*
X185616640Y-103877000D01*
X185060810Y-103766439D01*
X185060808Y-103766438D01*
X185060807Y-103766438D01*
X184537228Y-103549565D01*
X184066024Y-103234716D01*
X184066022Y-103234714D01*
X184066019Y-103234712D01*
X183665288Y-102833981D01*
X183665286Y-102833978D01*
X183665284Y-102833976D01*
X183350435Y-102362772D01*
X183133562Y-101839193D01*
X183023000Y-101283359D01*
X183023000Y-100716641D01*
X183133562Y-100160807D01*
X183350435Y-99637228D01*
X183665284Y-99166024D01*
X183665286Y-99166022D01*
X183665288Y-99166019D01*
X184066019Y-98765288D01*
X184066022Y-98765286D01*
X184066024Y-98765284D01*
X184537228Y-98450435D01*
X185060807Y-98233562D01*
X185060808Y-98233562D01*
X185060810Y-98233561D01*
X185616640Y-98123000D01*
X186183360Y-98123000D01*
X186739190Y-98233561D01*
X186739190Y-98233561D01*
G37*
G36*
X244139190Y-98233561D02*
G01*
X244139192Y-98233562D01*
X244139193Y-98233562D01*
X244662772Y-98450435D01*
X245133976Y-98765284D01*
X245133978Y-98765286D01*
X245133981Y-98765288D01*
X245534712Y-99166019D01*
X245534714Y-99166022D01*
X245534716Y-99166024D01*
X245849565Y-99637228D01*
X246066438Y-100160807D01*
X246177000Y-100716641D01*
X246177000Y-101283359D01*
X246066438Y-101839193D01*
X245849565Y-102362772D01*
X245534716Y-102833976D01*
X245534714Y-102833978D01*
X245534712Y-102833981D01*
X245133981Y-103234712D01*
X245133978Y-103234714D01*
X245133976Y-103234716D01*
X244662772Y-103549565D01*
X244139193Y-103766438D01*
X244139192Y-103766438D01*
X244139190Y-103766439D01*
X243583360Y-103877000D01*
X243016640Y-103877000D01*
X242460810Y-103766439D01*
X242460808Y-103766438D01*
X242460807Y-103766438D01*
X241937228Y-103549565D01*
X241466024Y-103234716D01*
X241466022Y-103234714D01*
X241466019Y-103234712D01*
X241065288Y-102833981D01*
X241065286Y-102833978D01*
X241065284Y-102833976D01*
X240750435Y-102362772D01*
X240533562Y-101839193D01*
X240423000Y-101283359D01*
X240423000Y-100716641D01*
X240533562Y-100160807D01*
X240750435Y-99637228D01*
X241065284Y-99166024D01*
X241065286Y-99166022D01*
X241065288Y-99166019D01*
X241466019Y-98765288D01*
X241466022Y-98765286D01*
X241466024Y-98765284D01*
X241937228Y-98450435D01*
X242460807Y-98233562D01*
X242460808Y-98233562D01*
X242460810Y-98233561D01*
X243016640Y-98123000D01*
X243583360Y-98123000D01*
X244139190Y-98233561D01*
X244139190Y-98233561D01*
G37*
G36*
X198167581Y-96560526D02*
G01*
X198463670Y-96683170D01*
X198730150Y-96861226D01*
X198956774Y-97087850D01*
X199134830Y-97354330D01*
X199257474Y-97650419D01*
X199319999Y-97964755D01*
X199319999Y-98285245D01*
X199257474Y-98599581D01*
X199134830Y-98895670D01*
X198956774Y-99162150D01*
X198730150Y-99388774D01*
X198463670Y-99566830D01*
X198167581Y-99689474D01*
X197853245Y-99751999D01*
X197532755Y-99751999D01*
X197218419Y-99689474D01*
X196922330Y-99566830D01*
X196655850Y-99388774D01*
X196429226Y-99162150D01*
X196251170Y-98895670D01*
X196128526Y-98599581D01*
X196066001Y-98285245D01*
X196066001Y-97964755D01*
X196128526Y-97650419D01*
X196251170Y-97354330D01*
X196429226Y-97087850D01*
X196655850Y-96861226D01*
X196922330Y-96683170D01*
X197218419Y-96560526D01*
X197532755Y-96498001D01*
X197853245Y-96498001D01*
X198167581Y-96560526D01*
X198167581Y-96560526D01*
G37*
G36*
X231774581Y-94135526D02*
G01*
X232070670Y-94258170D01*
X232337150Y-94436226D01*
X232563774Y-94662850D01*
X232741830Y-94929330D01*
X232864474Y-95225419D01*
X232926999Y-95539755D01*
X232926999Y-95860245D01*
X232864474Y-96174581D01*
X232741830Y-96470670D01*
X232563774Y-96737150D01*
X232337150Y-96963774D01*
X232070670Y-97141830D01*
X231774581Y-97264474D01*
X231460245Y-97326999D01*
X231139755Y-97326999D01*
X230825419Y-97264474D01*
X230529330Y-97141830D01*
X230262850Y-96963774D01*
X230036226Y-96737150D01*
X229858170Y-96470670D01*
X229735526Y-96174581D01*
X229673001Y-95860245D01*
X229673001Y-95539755D01*
X229735526Y-95225419D01*
X229858170Y-94929330D01*
X230036226Y-94662850D01*
X230262850Y-94436226D01*
X230529330Y-94258170D01*
X230825419Y-94135526D01*
X231139755Y-94073001D01*
X231460245Y-94073001D01*
X231774581Y-94135526D01*
X231774581Y-94135526D01*
G37*
G36*
X220576241Y-94167838D02*
G01*
X220576243Y-94167839D01*
X220576244Y-94167839D01*
X220835939Y-94275409D01*
X220987981Y-94377000D01*
X221069660Y-94431576D01*
X221268424Y-94630340D01*
X221290146Y-94662850D01*
X221424591Y-94864061D01*
X221532161Y-95123756D01*
X221532162Y-95123759D01*
X221562643Y-95277000D01*
X221587000Y-95399454D01*
X221587000Y-95680546D01*
X221532161Y-95956244D01*
X221424591Y-96215939D01*
X221321182Y-96370702D01*
X221268424Y-96449660D01*
X221069660Y-96648424D01*
X221017654Y-96683173D01*
X220835939Y-96804591D01*
X220576244Y-96912161D01*
X220576243Y-96912161D01*
X220576241Y-96912162D01*
X220300547Y-96967000D01*
X220019453Y-96967000D01*
X219743759Y-96912162D01*
X219743757Y-96912161D01*
X219743756Y-96912161D01*
X219484061Y-96804591D01*
X219302346Y-96683173D01*
X219250340Y-96648424D01*
X219051576Y-96449660D01*
X218998818Y-96370702D01*
X218895409Y-96215939D01*
X218787839Y-95956244D01*
X218733000Y-95680546D01*
X218733000Y-95399454D01*
X218757357Y-95277000D01*
X218787838Y-95123759D01*
X218787839Y-95123756D01*
X218895409Y-94864061D01*
X219029854Y-94662850D01*
X219051576Y-94630340D01*
X219250340Y-94431576D01*
X219332019Y-94377000D01*
X219484061Y-94275409D01*
X219743756Y-94167839D01*
X219743757Y-94167839D01*
X219743759Y-94167838D01*
X220019453Y-94113000D01*
X220300547Y-94113000D01*
X220576241Y-94167838D01*
X220576241Y-94167838D01*
G37*
G36*
X225656241Y-94167838D02*
G01*
X225656243Y-94167839D01*
X225656244Y-94167839D01*
X225915939Y-94275409D01*
X226067981Y-94377000D01*
X226149660Y-94431576D01*
X226348424Y-94630340D01*
X226370146Y-94662850D01*
X226504591Y-94864061D01*
X226612161Y-95123756D01*
X226612162Y-95123759D01*
X226642643Y-95277000D01*
X226667000Y-95399454D01*
X226667000Y-95680546D01*
X226612161Y-95956244D01*
X226504591Y-96215939D01*
X226401182Y-96370702D01*
X226348424Y-96449660D01*
X226149660Y-96648424D01*
X226097654Y-96683173D01*
X225915939Y-96804591D01*
X225656244Y-96912161D01*
X225656243Y-96912161D01*
X225656241Y-96912162D01*
X225380547Y-96967000D01*
X225099453Y-96967000D01*
X224823759Y-96912162D01*
X224823757Y-96912161D01*
X224823756Y-96912161D01*
X224564061Y-96804591D01*
X224382346Y-96683173D01*
X224330340Y-96648424D01*
X224131576Y-96449660D01*
X224078818Y-96370702D01*
X223975409Y-96215939D01*
X223867839Y-95956244D01*
X223813000Y-95680546D01*
X223813000Y-95399454D01*
X223837357Y-95277000D01*
X223867838Y-95123759D01*
X223867839Y-95123756D01*
X223975409Y-94864061D01*
X224109854Y-94662850D01*
X224131576Y-94630340D01*
X224330340Y-94431576D01*
X224412019Y-94377000D01*
X224564061Y-94275409D01*
X224823756Y-94167839D01*
X224823757Y-94167839D01*
X224823759Y-94167838D01*
X225099453Y-94113000D01*
X225380547Y-94113000D01*
X225656241Y-94167838D01*
X225656241Y-94167838D01*
G37*
G36*
X237876241Y-94167838D02*
G01*
X237876243Y-94167839D01*
X237876244Y-94167839D01*
X238135939Y-94275409D01*
X238287981Y-94377000D01*
X238369660Y-94431576D01*
X238568424Y-94630340D01*
X238590146Y-94662850D01*
X238724591Y-94864061D01*
X238832161Y-95123756D01*
X238832162Y-95123759D01*
X238862643Y-95277000D01*
X238887000Y-95399454D01*
X238887000Y-95680546D01*
X238832161Y-95956244D01*
X238724591Y-96215939D01*
X238621182Y-96370702D01*
X238568424Y-96449660D01*
X238369660Y-96648424D01*
X238317654Y-96683173D01*
X238135939Y-96804591D01*
X237876244Y-96912161D01*
X237876243Y-96912161D01*
X237876241Y-96912162D01*
X237600547Y-96967000D01*
X237319453Y-96967000D01*
X237043759Y-96912162D01*
X237043757Y-96912161D01*
X237043756Y-96912161D01*
X236784061Y-96804591D01*
X236602346Y-96683173D01*
X236550340Y-96648424D01*
X236351576Y-96449660D01*
X236298818Y-96370702D01*
X236195409Y-96215939D01*
X236087839Y-95956244D01*
X236033000Y-95680546D01*
X236033000Y-95399454D01*
X236057357Y-95277000D01*
X236087838Y-95123759D01*
X236087839Y-95123756D01*
X236195409Y-94864061D01*
X236329854Y-94662850D01*
X236351576Y-94630340D01*
X236550340Y-94431576D01*
X236632019Y-94377000D01*
X236784061Y-94275409D01*
X237043756Y-94167839D01*
X237043757Y-94167839D01*
X237043759Y-94167838D01*
X237319453Y-94113000D01*
X237600547Y-94113000D01*
X237876241Y-94167838D01*
X237876241Y-94167838D01*
G37*
G36*
X204176241Y-94167838D02*
G01*
X204176243Y-94167839D01*
X204176244Y-94167839D01*
X204435939Y-94275409D01*
X204587981Y-94377000D01*
X204669660Y-94431576D01*
X204868424Y-94630340D01*
X204890146Y-94662850D01*
X205024591Y-94864061D01*
X205132161Y-95123756D01*
X205132162Y-95123759D01*
X205162643Y-95277000D01*
X205187000Y-95399454D01*
X205187000Y-95680546D01*
X205132161Y-95956244D01*
X205024591Y-96215939D01*
X204921182Y-96370702D01*
X204868424Y-96449660D01*
X204669660Y-96648424D01*
X204617654Y-96683173D01*
X204435939Y-96804591D01*
X204176244Y-96912161D01*
X204176243Y-96912161D01*
X204176241Y-96912162D01*
X203900547Y-96967000D01*
X203619453Y-96967000D01*
X203343759Y-96912162D01*
X203343757Y-96912161D01*
X203343756Y-96912161D01*
X203084061Y-96804591D01*
X202902346Y-96683173D01*
X202850340Y-96648424D01*
X202651576Y-96449660D01*
X202598818Y-96370702D01*
X202495409Y-96215939D01*
X202387839Y-95956244D01*
X202333000Y-95680546D01*
X202333000Y-95399454D01*
X202357357Y-95277000D01*
X202387838Y-95123759D01*
X202387839Y-95123756D01*
X202495409Y-94864061D01*
X202629854Y-94662850D01*
X202651576Y-94630340D01*
X202850340Y-94431576D01*
X202932019Y-94377000D01*
X203084061Y-94275409D01*
X203343756Y-94167839D01*
X203343757Y-94167839D01*
X203343759Y-94167838D01*
X203619453Y-94113000D01*
X203900547Y-94113000D01*
X204176241Y-94167838D01*
X204176241Y-94167838D01*
G37*
G36*
X209256241Y-94167838D02*
G01*
X209256243Y-94167839D01*
X209256244Y-94167839D01*
X209515939Y-94275409D01*
X209667981Y-94377000D01*
X209749660Y-94431576D01*
X209948424Y-94630340D01*
X209970146Y-94662850D01*
X210104591Y-94864061D01*
X210212161Y-95123756D01*
X210212162Y-95123759D01*
X210242643Y-95277000D01*
X210267000Y-95399454D01*
X210267000Y-95680546D01*
X210212161Y-95956244D01*
X210104591Y-96215939D01*
X210001182Y-96370702D01*
X209948424Y-96449660D01*
X209749660Y-96648424D01*
X209697654Y-96683173D01*
X209515939Y-96804591D01*
X209256244Y-96912161D01*
X209256243Y-96912161D01*
X209256241Y-96912162D01*
X208980547Y-96967000D01*
X208699453Y-96967000D01*
X208423759Y-96912162D01*
X208423757Y-96912161D01*
X208423756Y-96912161D01*
X208164061Y-96804591D01*
X207982346Y-96683173D01*
X207930340Y-96648424D01*
X207731576Y-96449660D01*
X207678818Y-96370702D01*
X207575409Y-96215939D01*
X207467839Y-95956244D01*
X207413000Y-95680546D01*
X207413000Y-95399454D01*
X207437357Y-95277000D01*
X207467838Y-95123759D01*
X207467839Y-95123756D01*
X207575409Y-94864061D01*
X207709854Y-94662850D01*
X207731576Y-94630340D01*
X207930340Y-94431576D01*
X208012019Y-94377000D01*
X208164061Y-94275409D01*
X208423756Y-94167839D01*
X208423757Y-94167839D01*
X208423759Y-94167838D01*
X208699453Y-94113000D01*
X208980547Y-94113000D01*
X209256241Y-94167838D01*
X209256241Y-94167838D01*
G37*
G36*
X191956241Y-94167838D02*
G01*
X191956243Y-94167839D01*
X191956244Y-94167839D01*
X192215939Y-94275409D01*
X192367981Y-94377000D01*
X192449660Y-94431576D01*
X192648424Y-94630340D01*
X192670146Y-94662850D01*
X192804591Y-94864061D01*
X192912161Y-95123756D01*
X192912162Y-95123759D01*
X192942643Y-95277000D01*
X192967000Y-95399454D01*
X192967000Y-95680546D01*
X192912161Y-95956244D01*
X192804591Y-96215939D01*
X192701182Y-96370702D01*
X192648424Y-96449660D01*
X192449660Y-96648424D01*
X192397654Y-96683173D01*
X192215939Y-96804591D01*
X191956244Y-96912161D01*
X191956243Y-96912161D01*
X191956241Y-96912162D01*
X191680547Y-96967000D01*
X191399453Y-96967000D01*
X191123759Y-96912162D01*
X191123757Y-96912161D01*
X191123756Y-96912161D01*
X190864061Y-96804591D01*
X190682346Y-96683173D01*
X190630340Y-96648424D01*
X190431576Y-96449660D01*
X190378818Y-96370702D01*
X190275409Y-96215939D01*
X190167839Y-95956244D01*
X190113000Y-95680546D01*
X190113000Y-95399454D01*
X190137357Y-95277000D01*
X190167838Y-95123759D01*
X190167839Y-95123756D01*
X190275409Y-94864061D01*
X190409854Y-94662850D01*
X190431576Y-94630340D01*
X190630340Y-94431576D01*
X190712019Y-94377000D01*
X190864061Y-94275409D01*
X191123756Y-94167839D01*
X191123757Y-94167839D01*
X191123759Y-94167838D01*
X191399453Y-94113000D01*
X191680547Y-94113000D01*
X191956241Y-94167838D01*
X191956241Y-94167838D01*
G37*
G36*
X186876241Y-94167838D02*
G01*
X186876243Y-94167839D01*
X186876244Y-94167839D01*
X187135939Y-94275409D01*
X187287981Y-94377000D01*
X187369660Y-94431576D01*
X187568424Y-94630340D01*
X187590146Y-94662850D01*
X187724591Y-94864061D01*
X187832161Y-95123756D01*
X187832162Y-95123759D01*
X187862643Y-95277000D01*
X187887000Y-95399454D01*
X187887000Y-95680546D01*
X187832161Y-95956244D01*
X187724591Y-96215939D01*
X187621182Y-96370702D01*
X187568424Y-96449660D01*
X187369660Y-96648424D01*
X187317654Y-96683173D01*
X187135939Y-96804591D01*
X186876244Y-96912161D01*
X186876243Y-96912161D01*
X186876241Y-96912162D01*
X186600547Y-96967000D01*
X186319453Y-96967000D01*
X186043759Y-96912162D01*
X186043757Y-96912161D01*
X186043756Y-96912161D01*
X185784061Y-96804591D01*
X185602346Y-96683173D01*
X185550340Y-96648424D01*
X185351576Y-96449660D01*
X185298818Y-96370702D01*
X185195409Y-96215939D01*
X185087839Y-95956244D01*
X185033000Y-95680546D01*
X185033000Y-95399454D01*
X185057357Y-95277000D01*
X185087838Y-95123759D01*
X185087839Y-95123756D01*
X185195409Y-94864061D01*
X185329854Y-94662850D01*
X185351576Y-94630340D01*
X185550340Y-94431576D01*
X185632019Y-94377000D01*
X185784061Y-94275409D01*
X186043756Y-94167839D01*
X186043757Y-94167839D01*
X186043759Y-94167838D01*
X186319453Y-94113000D01*
X186600547Y-94113000D01*
X186876241Y-94167838D01*
X186876241Y-94167838D01*
G37*
G36*
X242956241Y-94167838D02*
G01*
X242956243Y-94167839D01*
X242956244Y-94167839D01*
X243215939Y-94275409D01*
X243367981Y-94377000D01*
X243449660Y-94431576D01*
X243648424Y-94630340D01*
X243670146Y-94662850D01*
X243804591Y-94864061D01*
X243912161Y-95123756D01*
X243912162Y-95123759D01*
X243942643Y-95277000D01*
X243967000Y-95399454D01*
X243967000Y-95680546D01*
X243912161Y-95956244D01*
X243804591Y-96215939D01*
X243701182Y-96370702D01*
X243648424Y-96449660D01*
X243449660Y-96648424D01*
X243397654Y-96683173D01*
X243215939Y-96804591D01*
X242956244Y-96912161D01*
X242956243Y-96912161D01*
X242956241Y-96912162D01*
X242680547Y-96967000D01*
X242399453Y-96967000D01*
X242123759Y-96912162D01*
X242123757Y-96912161D01*
X242123756Y-96912161D01*
X241864061Y-96804591D01*
X241682346Y-96683173D01*
X241630340Y-96648424D01*
X241431576Y-96449660D01*
X241378818Y-96370702D01*
X241275409Y-96215939D01*
X241167839Y-95956244D01*
X241113000Y-95680546D01*
X241113000Y-95399454D01*
X241137357Y-95277000D01*
X241167838Y-95123759D01*
X241167839Y-95123756D01*
X241275409Y-94864061D01*
X241409854Y-94662850D01*
X241431576Y-94630340D01*
X241630340Y-94431576D01*
X241712019Y-94377000D01*
X241864061Y-94275409D01*
X242123756Y-94167839D01*
X242123757Y-94167839D01*
X242123759Y-94167838D01*
X242399453Y-94113000D01*
X242680547Y-94113000D01*
X242956241Y-94167838D01*
X242956241Y-94167838D01*
G37*
G36*
X214934243Y-90744876D02*
G01*
X215264179Y-90810504D01*
X215678565Y-90982148D01*
X216051498Y-91231334D01*
X216368666Y-91548502D01*
X216617852Y-91921435D01*
X216789496Y-92335821D01*
X216877000Y-92775736D01*
X216877000Y-93224264D01*
X216789496Y-93664179D01*
X216617852Y-94078565D01*
X216368666Y-94451498D01*
X216051498Y-94768666D01*
X215678565Y-95017852D01*
X215264179Y-95189496D01*
X214934243Y-95255124D01*
X214824265Y-95277000D01*
X214375735Y-95277000D01*
X214265757Y-95255124D01*
X213935821Y-95189496D01*
X213521435Y-95017852D01*
X213148502Y-94768666D01*
X212831334Y-94451498D01*
X212582148Y-94078565D01*
X212410504Y-93664179D01*
X212323000Y-93224264D01*
X212323000Y-92775736D01*
X212410504Y-92335821D01*
X212582148Y-91921435D01*
X212831334Y-91548502D01*
X213148502Y-91231334D01*
X213521435Y-90982148D01*
X213935821Y-90810504D01*
X214265757Y-90744876D01*
X214375735Y-90723000D01*
X214824265Y-90723000D01*
X214934243Y-90744876D01*
X214934243Y-90744876D01*
G37*
G36*
X200374581Y-91435526D02*
G01*
X200670670Y-91558170D01*
X200937150Y-91736226D01*
X201163774Y-91962850D01*
X201341830Y-92229330D01*
X201464474Y-92525419D01*
X201526999Y-92839755D01*
X201526999Y-93160245D01*
X201464474Y-93474581D01*
X201341830Y-93770670D01*
X201163774Y-94037150D01*
X200937150Y-94263774D01*
X200670670Y-94441830D01*
X200374581Y-94564474D01*
X200060245Y-94626999D01*
X199739755Y-94626999D01*
X199425419Y-94564474D01*
X199129330Y-94441830D01*
X198862850Y-94263774D01*
X198636226Y-94037150D01*
X198458170Y-93770670D01*
X198335526Y-93474581D01*
X198273001Y-93160245D01*
X198273001Y-92839755D01*
X198335526Y-92525419D01*
X198458170Y-92229330D01*
X198636226Y-91962850D01*
X198862850Y-91736226D01*
X199129330Y-91558170D01*
X199425419Y-91435526D01*
X199739755Y-91373001D01*
X200060245Y-91373001D01*
X200374581Y-91435526D01*
X200374581Y-91435526D01*
G37*
G36*
X195874581Y-91435526D02*
G01*
X196170670Y-91558170D01*
X196437150Y-91736226D01*
X196663774Y-91962850D01*
X196841830Y-92229330D01*
X196964474Y-92525419D01*
X197026999Y-92839755D01*
X197026999Y-93160245D01*
X196964474Y-93474581D01*
X196841830Y-93770670D01*
X196663774Y-94037150D01*
X196437150Y-94263774D01*
X196170670Y-94441830D01*
X195874581Y-94564474D01*
X195560245Y-94626999D01*
X195239755Y-94626999D01*
X194925419Y-94564474D01*
X194629330Y-94441830D01*
X194362850Y-94263774D01*
X194136226Y-94037150D01*
X193958170Y-93770670D01*
X193835526Y-93474581D01*
X193773001Y-93160245D01*
X193773001Y-92839755D01*
X193835526Y-92525419D01*
X193958170Y-92229330D01*
X194136226Y-91962850D01*
X194362850Y-91736226D01*
X194629330Y-91558170D01*
X194925419Y-91435526D01*
X195239755Y-91373001D01*
X195560245Y-91373001D01*
X195874581Y-91435526D01*
X195874581Y-91435526D01*
G37*
G36*
X240401656Y-91675917D02*
G01*
X240401658Y-91675918D01*
X240401659Y-91675918D01*
X240652251Y-91779716D01*
X240652254Y-91779718D01*
X240877787Y-91930414D01*
X241069586Y-92122213D01*
X241069587Y-92122215D01*
X241220284Y-92347749D01*
X241293877Y-92525419D01*
X241324083Y-92598344D01*
X241357128Y-92764474D01*
X241377000Y-92864378D01*
X241377000Y-93135622D01*
X241324082Y-93401659D01*
X241220284Y-93652251D01*
X241220282Y-93652254D01*
X241069586Y-93877787D01*
X240877787Y-94069586D01*
X240652254Y-94220282D01*
X240652251Y-94220284D01*
X240401659Y-94324082D01*
X240401658Y-94324082D01*
X240401656Y-94324083D01*
X240135623Y-94377000D01*
X239864377Y-94377000D01*
X239598344Y-94324083D01*
X239598342Y-94324082D01*
X239598341Y-94324082D01*
X239347749Y-94220284D01*
X239347746Y-94220282D01*
X239122213Y-94069586D01*
X238930414Y-93877787D01*
X238779718Y-93652254D01*
X238779716Y-93652251D01*
X238675918Y-93401659D01*
X238623000Y-93135622D01*
X238623000Y-92864378D01*
X238642872Y-92764474D01*
X238675917Y-92598344D01*
X238706123Y-92525419D01*
X238779716Y-92347749D01*
X238930413Y-92122215D01*
X238930414Y-92122213D01*
X239122213Y-91930414D01*
X239347746Y-91779718D01*
X239347749Y-91779716D01*
X239598341Y-91675918D01*
X239598342Y-91675918D01*
X239598344Y-91675917D01*
X239864377Y-91623000D01*
X240135623Y-91623000D01*
X240401656Y-91675917D01*
X240401656Y-91675917D01*
G37*
G36*
X206701656Y-91675917D02*
G01*
X206701658Y-91675918D01*
X206701659Y-91675918D01*
X206952251Y-91779716D01*
X206952254Y-91779718D01*
X207177787Y-91930414D01*
X207369586Y-92122213D01*
X207369587Y-92122215D01*
X207520284Y-92347749D01*
X207593877Y-92525419D01*
X207624083Y-92598344D01*
X207657128Y-92764474D01*
X207677000Y-92864378D01*
X207677000Y-93135622D01*
X207624082Y-93401659D01*
X207520284Y-93652251D01*
X207520282Y-93652254D01*
X207369586Y-93877787D01*
X207177787Y-94069586D01*
X206952254Y-94220282D01*
X206952251Y-94220284D01*
X206701659Y-94324082D01*
X206701658Y-94324082D01*
X206701656Y-94324083D01*
X206435623Y-94377000D01*
X206164377Y-94377000D01*
X205898344Y-94324083D01*
X205898342Y-94324082D01*
X205898341Y-94324082D01*
X205647749Y-94220284D01*
X205647746Y-94220282D01*
X205422213Y-94069586D01*
X205230414Y-93877787D01*
X205079718Y-93652254D01*
X205079716Y-93652251D01*
X204975918Y-93401659D01*
X204923000Y-93135622D01*
X204923000Y-92864378D01*
X204942872Y-92764474D01*
X204975917Y-92598344D01*
X205006123Y-92525419D01*
X205079716Y-92347749D01*
X205230413Y-92122215D01*
X205230414Y-92122213D01*
X205422213Y-91930414D01*
X205647746Y-91779718D01*
X205647749Y-91779716D01*
X205898341Y-91675918D01*
X205898342Y-91675918D01*
X205898344Y-91675917D01*
X206164377Y-91623000D01*
X206435623Y-91623000D01*
X206701656Y-91675917D01*
X206701656Y-91675917D01*
G37*
G36*
X189401656Y-91675917D02*
G01*
X189401658Y-91675918D01*
X189401659Y-91675918D01*
X189652251Y-91779716D01*
X189652254Y-91779718D01*
X189877787Y-91930414D01*
X190069586Y-92122213D01*
X190069587Y-92122215D01*
X190220284Y-92347749D01*
X190293877Y-92525419D01*
X190324083Y-92598344D01*
X190357128Y-92764474D01*
X190377000Y-92864378D01*
X190377000Y-93135622D01*
X190324082Y-93401659D01*
X190220284Y-93652251D01*
X190220282Y-93652254D01*
X190069586Y-93877787D01*
X189877787Y-94069586D01*
X189652254Y-94220282D01*
X189652251Y-94220284D01*
X189401659Y-94324082D01*
X189401658Y-94324082D01*
X189401656Y-94324083D01*
X189135623Y-94377000D01*
X188864377Y-94377000D01*
X188598344Y-94324083D01*
X188598342Y-94324082D01*
X188598341Y-94324082D01*
X188347749Y-94220284D01*
X188347746Y-94220282D01*
X188122213Y-94069586D01*
X187930414Y-93877787D01*
X187779718Y-93652254D01*
X187779716Y-93652251D01*
X187675918Y-93401659D01*
X187623000Y-93135622D01*
X187623000Y-92864378D01*
X187642872Y-92764474D01*
X187675917Y-92598344D01*
X187706123Y-92525419D01*
X187779716Y-92347749D01*
X187930413Y-92122215D01*
X187930414Y-92122213D01*
X188122213Y-91930414D01*
X188347746Y-91779718D01*
X188347749Y-91779716D01*
X188598341Y-91675918D01*
X188598342Y-91675918D01*
X188598344Y-91675917D01*
X188864377Y-91623000D01*
X189135623Y-91623000D01*
X189401656Y-91675917D01*
X189401656Y-91675917D01*
G37*
G36*
X223101656Y-91675917D02*
G01*
X223101658Y-91675918D01*
X223101659Y-91675918D01*
X223352251Y-91779716D01*
X223352254Y-91779718D01*
X223577787Y-91930414D01*
X223769586Y-92122213D01*
X223769587Y-92122215D01*
X223920284Y-92347749D01*
X223993877Y-92525419D01*
X224024083Y-92598344D01*
X224057128Y-92764474D01*
X224077000Y-92864378D01*
X224077000Y-93135622D01*
X224024082Y-93401659D01*
X223920284Y-93652251D01*
X223920282Y-93652254D01*
X223769586Y-93877787D01*
X223577787Y-94069586D01*
X223352254Y-94220282D01*
X223352251Y-94220284D01*
X223101659Y-94324082D01*
X223101658Y-94324082D01*
X223101656Y-94324083D01*
X222835623Y-94377000D01*
X222564377Y-94377000D01*
X222298344Y-94324083D01*
X222298342Y-94324082D01*
X222298341Y-94324082D01*
X222047749Y-94220284D01*
X222047746Y-94220282D01*
X221822213Y-94069586D01*
X221630414Y-93877787D01*
X221479718Y-93652254D01*
X221479716Y-93652251D01*
X221375918Y-93401659D01*
X221323000Y-93135622D01*
X221323000Y-92864378D01*
X221342872Y-92764474D01*
X221375917Y-92598344D01*
X221406123Y-92525419D01*
X221479716Y-92347749D01*
X221630413Y-92122215D01*
X221630414Y-92122213D01*
X221822213Y-91930414D01*
X222047746Y-91779718D01*
X222047749Y-91779716D01*
X222298341Y-91675918D01*
X222298342Y-91675918D01*
X222298344Y-91675917D01*
X222564377Y-91623000D01*
X222835623Y-91623000D01*
X223101656Y-91675917D01*
X223101656Y-91675917D01*
G37*
G36*
X229574581Y-89635526D02*
G01*
X229870670Y-89758170D01*
X230137150Y-89936226D01*
X230363774Y-90162850D01*
X230541830Y-90429330D01*
X230664474Y-90725419D01*
X230726999Y-91039755D01*
X230726999Y-91360245D01*
X230664474Y-91674581D01*
X230541830Y-91970670D01*
X230363774Y-92237150D01*
X230137150Y-92463774D01*
X229870670Y-92641830D01*
X229574581Y-92764474D01*
X229260245Y-92826999D01*
X228939755Y-92826999D01*
X228625419Y-92764474D01*
X228329330Y-92641830D01*
X228062850Y-92463774D01*
X227836226Y-92237150D01*
X227658170Y-91970670D01*
X227535526Y-91674581D01*
X227473001Y-91360245D01*
X227473001Y-91039755D01*
X227535526Y-90725419D01*
X227658170Y-90429330D01*
X227836226Y-90162850D01*
X228062850Y-89936226D01*
X228329330Y-89758170D01*
X228625419Y-89635526D01*
X228939755Y-89573001D01*
X229260245Y-89573001D01*
X229574581Y-89635526D01*
X229574581Y-89635526D01*
G37*
G36*
X234108581Y-89635526D02*
G01*
X234404670Y-89758170D01*
X234671150Y-89936226D01*
X234897774Y-90162850D01*
X235075830Y-90429330D01*
X235198474Y-90725419D01*
X235260999Y-91039755D01*
X235260999Y-91360245D01*
X235198474Y-91674581D01*
X235075830Y-91970670D01*
X234897774Y-92237150D01*
X234671150Y-92463774D01*
X234404670Y-92641830D01*
X234108581Y-92764474D01*
X233794245Y-92826999D01*
X233473755Y-92826999D01*
X233159419Y-92764474D01*
X232863330Y-92641830D01*
X232596850Y-92463774D01*
X232370226Y-92237150D01*
X232192170Y-91970670D01*
X232069526Y-91674581D01*
X232007001Y-91360245D01*
X232007001Y-91039755D01*
X232069526Y-90725419D01*
X232192170Y-90429330D01*
X232370226Y-90162850D01*
X232596850Y-89936226D01*
X232863330Y-89758170D01*
X233159419Y-89635526D01*
X233473755Y-89573001D01*
X233794245Y-89573001D01*
X234108581Y-89635526D01*
X234108581Y-89635526D01*
G37*
G36*
X225656241Y-89087838D02*
G01*
X225656243Y-89087839D01*
X225656244Y-89087839D01*
X225915939Y-89195409D01*
X226070702Y-89298818D01*
X226149660Y-89351576D01*
X226348424Y-89550340D01*
X226348427Y-89550345D01*
X226504591Y-89784061D01*
X226504591Y-89784062D01*
X226612162Y-90043759D01*
X226667000Y-90319453D01*
X226667000Y-90600547D01*
X226625238Y-90810504D01*
X226612161Y-90876244D01*
X226504591Y-91135939D01*
X226440850Y-91231334D01*
X226348424Y-91369660D01*
X226149660Y-91568424D01*
X226070702Y-91621182D01*
X225915939Y-91724591D01*
X225656244Y-91832161D01*
X225656243Y-91832161D01*
X225656241Y-91832162D01*
X225380547Y-91887000D01*
X225099453Y-91887000D01*
X224823759Y-91832162D01*
X224823757Y-91832161D01*
X224823756Y-91832161D01*
X224564061Y-91724591D01*
X224409298Y-91621182D01*
X224330340Y-91568424D01*
X224131576Y-91369660D01*
X224039150Y-91231334D01*
X223975409Y-91135939D01*
X223867839Y-90876244D01*
X223854763Y-90810504D01*
X223813000Y-90600547D01*
X223813000Y-90319453D01*
X223867838Y-90043759D01*
X223975409Y-89784062D01*
X223975409Y-89784061D01*
X224131573Y-89550345D01*
X224131576Y-89550340D01*
X224330340Y-89351576D01*
X224409298Y-89298818D01*
X224564061Y-89195409D01*
X224823756Y-89087839D01*
X224823757Y-89087839D01*
X224823759Y-89087838D01*
X225099453Y-89033000D01*
X225380547Y-89033000D01*
X225656241Y-89087838D01*
X225656241Y-89087838D01*
G37*
G36*
X209256241Y-89087838D02*
G01*
X209256243Y-89087839D01*
X209256244Y-89087839D01*
X209515939Y-89195409D01*
X209670702Y-89298818D01*
X209749660Y-89351576D01*
X209948424Y-89550340D01*
X209948427Y-89550345D01*
X210104591Y-89784061D01*
X210104591Y-89784062D01*
X210212162Y-90043759D01*
X210267000Y-90319453D01*
X210267000Y-90600547D01*
X210225238Y-90810504D01*
X210212161Y-90876244D01*
X210104591Y-91135939D01*
X210040850Y-91231334D01*
X209948424Y-91369660D01*
X209749660Y-91568424D01*
X209670702Y-91621182D01*
X209515939Y-91724591D01*
X209256244Y-91832161D01*
X209256243Y-91832161D01*
X209256241Y-91832162D01*
X208980547Y-91887000D01*
X208699453Y-91887000D01*
X208423759Y-91832162D01*
X208423757Y-91832161D01*
X208423756Y-91832161D01*
X208164061Y-91724591D01*
X208009298Y-91621182D01*
X207930340Y-91568424D01*
X207731576Y-91369660D01*
X207639150Y-91231334D01*
X207575409Y-91135939D01*
X207467839Y-90876244D01*
X207454763Y-90810504D01*
X207413000Y-90600547D01*
X207413000Y-90319453D01*
X207467838Y-90043759D01*
X207575409Y-89784062D01*
X207575409Y-89784061D01*
X207731573Y-89550345D01*
X207731576Y-89550340D01*
X207930340Y-89351576D01*
X208009298Y-89298818D01*
X208164061Y-89195409D01*
X208423756Y-89087839D01*
X208423757Y-89087839D01*
X208423759Y-89087838D01*
X208699453Y-89033000D01*
X208980547Y-89033000D01*
X209256241Y-89087838D01*
X209256241Y-89087838D01*
G37*
G36*
X237876241Y-89087838D02*
G01*
X237876243Y-89087839D01*
X237876244Y-89087839D01*
X238135939Y-89195409D01*
X238290702Y-89298818D01*
X238369660Y-89351576D01*
X238568424Y-89550340D01*
X238568427Y-89550345D01*
X238724591Y-89784061D01*
X238724591Y-89784062D01*
X238832162Y-90043759D01*
X238887000Y-90319453D01*
X238887000Y-90600547D01*
X238845238Y-90810504D01*
X238832161Y-90876244D01*
X238724591Y-91135939D01*
X238660850Y-91231334D01*
X238568424Y-91369660D01*
X238369660Y-91568424D01*
X238290702Y-91621182D01*
X238135939Y-91724591D01*
X237876244Y-91832161D01*
X237876243Y-91832161D01*
X237876241Y-91832162D01*
X237600547Y-91887000D01*
X237319453Y-91887000D01*
X237043759Y-91832162D01*
X237043757Y-91832161D01*
X237043756Y-91832161D01*
X236784061Y-91724591D01*
X236629298Y-91621182D01*
X236550340Y-91568424D01*
X236351576Y-91369660D01*
X236259150Y-91231334D01*
X236195409Y-91135939D01*
X236087839Y-90876244D01*
X236074763Y-90810504D01*
X236033000Y-90600547D01*
X236033000Y-90319453D01*
X236087838Y-90043759D01*
X236195409Y-89784062D01*
X236195409Y-89784061D01*
X236351573Y-89550345D01*
X236351576Y-89550340D01*
X236550340Y-89351576D01*
X236629298Y-89298818D01*
X236784061Y-89195409D01*
X237043756Y-89087839D01*
X237043757Y-89087839D01*
X237043759Y-89087838D01*
X237319453Y-89033000D01*
X237600547Y-89033000D01*
X237876241Y-89087838D01*
X237876241Y-89087838D01*
G37*
G36*
X242956241Y-89087838D02*
G01*
X242956243Y-89087839D01*
X242956244Y-89087839D01*
X243215939Y-89195409D01*
X243370702Y-89298818D01*
X243449660Y-89351576D01*
X243648424Y-89550340D01*
X243648427Y-89550345D01*
X243804591Y-89784061D01*
X243804591Y-89784062D01*
X243912162Y-90043759D01*
X243967000Y-90319453D01*
X243967000Y-90600547D01*
X243925238Y-90810504D01*
X243912161Y-90876244D01*
X243804591Y-91135939D01*
X243740850Y-91231334D01*
X243648424Y-91369660D01*
X243449660Y-91568424D01*
X243370702Y-91621182D01*
X243215939Y-91724591D01*
X242956244Y-91832161D01*
X242956243Y-91832161D01*
X242956241Y-91832162D01*
X242680547Y-91887000D01*
X242399453Y-91887000D01*
X242123759Y-91832162D01*
X242123757Y-91832161D01*
X242123756Y-91832161D01*
X241864061Y-91724591D01*
X241709298Y-91621182D01*
X241630340Y-91568424D01*
X241431576Y-91369660D01*
X241339150Y-91231334D01*
X241275409Y-91135939D01*
X241167839Y-90876244D01*
X241154763Y-90810504D01*
X241113000Y-90600547D01*
X241113000Y-90319453D01*
X241167838Y-90043759D01*
X241275409Y-89784062D01*
X241275409Y-89784061D01*
X241431573Y-89550345D01*
X241431576Y-89550340D01*
X241630340Y-89351576D01*
X241709298Y-89298818D01*
X241864061Y-89195409D01*
X242123756Y-89087839D01*
X242123757Y-89087839D01*
X242123759Y-89087838D01*
X242399453Y-89033000D01*
X242680547Y-89033000D01*
X242956241Y-89087838D01*
X242956241Y-89087838D01*
G37*
G36*
X220576241Y-89087838D02*
G01*
X220576243Y-89087839D01*
X220576244Y-89087839D01*
X220835939Y-89195409D01*
X220990702Y-89298818D01*
X221069660Y-89351576D01*
X221268424Y-89550340D01*
X221268427Y-89550345D01*
X221424591Y-89784061D01*
X221424591Y-89784062D01*
X221532162Y-90043759D01*
X221587000Y-90319453D01*
X221587000Y-90600547D01*
X221545238Y-90810504D01*
X221532161Y-90876244D01*
X221424591Y-91135939D01*
X221360850Y-91231334D01*
X221268424Y-91369660D01*
X221069660Y-91568424D01*
X220990702Y-91621182D01*
X220835939Y-91724591D01*
X220576244Y-91832161D01*
X220576243Y-91832161D01*
X220576241Y-91832162D01*
X220300547Y-91887000D01*
X220019453Y-91887000D01*
X219743759Y-91832162D01*
X219743757Y-91832161D01*
X219743756Y-91832161D01*
X219484061Y-91724591D01*
X219329298Y-91621182D01*
X219250340Y-91568424D01*
X219051576Y-91369660D01*
X218959150Y-91231334D01*
X218895409Y-91135939D01*
X218787839Y-90876244D01*
X218774763Y-90810504D01*
X218733000Y-90600547D01*
X218733000Y-90319453D01*
X218787838Y-90043759D01*
X218895409Y-89784062D01*
X218895409Y-89784061D01*
X219051573Y-89550345D01*
X219051576Y-89550340D01*
X219250340Y-89351576D01*
X219329298Y-89298818D01*
X219484061Y-89195409D01*
X219743756Y-89087839D01*
X219743757Y-89087839D01*
X219743759Y-89087838D01*
X220019453Y-89033000D01*
X220300547Y-89033000D01*
X220576241Y-89087838D01*
X220576241Y-89087838D01*
G37*
G36*
X191956241Y-89087838D02*
G01*
X191956243Y-89087839D01*
X191956244Y-89087839D01*
X192215939Y-89195409D01*
X192370702Y-89298818D01*
X192449660Y-89351576D01*
X192648424Y-89550340D01*
X192648427Y-89550345D01*
X192804591Y-89784061D01*
X192804591Y-89784062D01*
X192912162Y-90043759D01*
X192967000Y-90319453D01*
X192967000Y-90600547D01*
X192925238Y-90810504D01*
X192912161Y-90876244D01*
X192804591Y-91135939D01*
X192740850Y-91231334D01*
X192648424Y-91369660D01*
X192449660Y-91568424D01*
X192370702Y-91621182D01*
X192215939Y-91724591D01*
X191956244Y-91832161D01*
X191956243Y-91832161D01*
X191956241Y-91832162D01*
X191680547Y-91887000D01*
X191399453Y-91887000D01*
X191123759Y-91832162D01*
X191123757Y-91832161D01*
X191123756Y-91832161D01*
X190864061Y-91724591D01*
X190709298Y-91621182D01*
X190630340Y-91568424D01*
X190431576Y-91369660D01*
X190339150Y-91231334D01*
X190275409Y-91135939D01*
X190167839Y-90876244D01*
X190154763Y-90810504D01*
X190113000Y-90600547D01*
X190113000Y-90319453D01*
X190167838Y-90043759D01*
X190275409Y-89784062D01*
X190275409Y-89784061D01*
X190431573Y-89550345D01*
X190431576Y-89550340D01*
X190630340Y-89351576D01*
X190709298Y-89298818D01*
X190864061Y-89195409D01*
X191123756Y-89087839D01*
X191123757Y-89087839D01*
X191123759Y-89087838D01*
X191399453Y-89033000D01*
X191680547Y-89033000D01*
X191956241Y-89087838D01*
X191956241Y-89087838D01*
G37*
G36*
X204176241Y-89087838D02*
G01*
X204176243Y-89087839D01*
X204176244Y-89087839D01*
X204435939Y-89195409D01*
X204590702Y-89298818D01*
X204669660Y-89351576D01*
X204868424Y-89550340D01*
X204868427Y-89550345D01*
X205024591Y-89784061D01*
X205024591Y-89784062D01*
X205132162Y-90043759D01*
X205187000Y-90319453D01*
X205187000Y-90600547D01*
X205145238Y-90810504D01*
X205132161Y-90876244D01*
X205024591Y-91135939D01*
X204960850Y-91231334D01*
X204868424Y-91369660D01*
X204669660Y-91568424D01*
X204590702Y-91621182D01*
X204435939Y-91724591D01*
X204176244Y-91832161D01*
X204176243Y-91832161D01*
X204176241Y-91832162D01*
X203900547Y-91887000D01*
X203619453Y-91887000D01*
X203343759Y-91832162D01*
X203343757Y-91832161D01*
X203343756Y-91832161D01*
X203084061Y-91724591D01*
X202929298Y-91621182D01*
X202850340Y-91568424D01*
X202651576Y-91369660D01*
X202559150Y-91231334D01*
X202495409Y-91135939D01*
X202387839Y-90876244D01*
X202374763Y-90810504D01*
X202333000Y-90600547D01*
X202333000Y-90319453D01*
X202387838Y-90043759D01*
X202495409Y-89784062D01*
X202495409Y-89784061D01*
X202651573Y-89550345D01*
X202651576Y-89550340D01*
X202850340Y-89351576D01*
X202929298Y-89298818D01*
X203084061Y-89195409D01*
X203343756Y-89087839D01*
X203343757Y-89087839D01*
X203343759Y-89087838D01*
X203619453Y-89033000D01*
X203900547Y-89033000D01*
X204176241Y-89087838D01*
X204176241Y-89087838D01*
G37*
G36*
X186876241Y-89087838D02*
G01*
X186876243Y-89087839D01*
X186876244Y-89087839D01*
X187135939Y-89195409D01*
X187290702Y-89298818D01*
X187369660Y-89351576D01*
X187568424Y-89550340D01*
X187568427Y-89550345D01*
X187724591Y-89784061D01*
X187724591Y-89784062D01*
X187832162Y-90043759D01*
X187887000Y-90319453D01*
X187887000Y-90600547D01*
X187845238Y-90810504D01*
X187832161Y-90876244D01*
X187724591Y-91135939D01*
X187660850Y-91231334D01*
X187568424Y-91369660D01*
X187369660Y-91568424D01*
X187290702Y-91621182D01*
X187135939Y-91724591D01*
X186876244Y-91832161D01*
X186876243Y-91832161D01*
X186876241Y-91832162D01*
X186600547Y-91887000D01*
X186319453Y-91887000D01*
X186043759Y-91832162D01*
X186043757Y-91832161D01*
X186043756Y-91832161D01*
X185784061Y-91724591D01*
X185629298Y-91621182D01*
X185550340Y-91568424D01*
X185351576Y-91369660D01*
X185259150Y-91231334D01*
X185195409Y-91135939D01*
X185087839Y-90876244D01*
X185074763Y-90810504D01*
X185033000Y-90600547D01*
X185033000Y-90319453D01*
X185087838Y-90043759D01*
X185195409Y-89784062D01*
X185195409Y-89784061D01*
X185351573Y-89550345D01*
X185351576Y-89550340D01*
X185550340Y-89351576D01*
X185629298Y-89298818D01*
X185784061Y-89195409D01*
X186043756Y-89087839D01*
X186043757Y-89087839D01*
X186043759Y-89087838D01*
X186319453Y-89033000D01*
X186600547Y-89033000D01*
X186876241Y-89087838D01*
X186876241Y-89087838D01*
G37*
M02*
