G04 #@! TF.GenerationSoftware,KiCad,Pcbnew,(5.1.0)-1*
G04 #@! TF.CreationDate,2019-08-14T22:30:10+08:00*
G04 #@! TF.ProjectId,Kelvin Connector for Handheld LCR Meter,4b656c76-696e-4204-936f-6e6e6563746f,1.01*
G04 #@! TF.SameCoordinates,Original*
G04 #@! TF.FileFunction,Copper,L2,Bot*
G04 #@! TF.FilePolarity,Positive*
%FSLAX46Y46*%
G04 Gerber Fmt 4.6, Leading zero omitted, Abs format (unit mm)*
G04 Created by KiCad (PCBNEW (5.1.0)-1) date 2019-08-14 22:30:10*
%MOMM*%
%LPD*%
G04 APERTURE LIST*
%ADD10C,0.177800*%
%ADD11C,0.010000*%
%ADD12C,2.500000*%
%ADD13C,2.600000*%
%ADD14C,5.500000*%
%ADD15C,0.100000*%
%ADD16C,11.000000*%
%ADD17C,13.500000*%
%ADD18C,2.999999*%
%ADD19C,1.200000*%
%ADD20C,0.600000*%
%ADD21C,10.160000*%
%ADD22C,2.540000*%
%ADD23C,1.270000*%
%ADD24C,0.254000*%
G04 APERTURE END LIST*
D10*
X230128800Y-102399257D02*
X229824000Y-103313657D01*
X229519200Y-102399257D01*
X228735428Y-103313657D02*
X229257942Y-103313657D01*
X228996685Y-103313657D02*
X228996685Y-102399257D01*
X229083771Y-102529885D01*
X229170857Y-102616971D01*
X229257942Y-102660514D01*
X228343542Y-103226571D02*
X228300000Y-103270114D01*
X228343542Y-103313657D01*
X228387085Y-103270114D01*
X228343542Y-103226571D01*
X228343542Y-103313657D01*
X227733942Y-102399257D02*
X227646857Y-102399257D01*
X227559771Y-102442800D01*
X227516228Y-102486342D01*
X227472685Y-102573428D01*
X227429142Y-102747600D01*
X227429142Y-102965314D01*
X227472685Y-103139485D01*
X227516228Y-103226571D01*
X227559771Y-103270114D01*
X227646857Y-103313657D01*
X227733942Y-103313657D01*
X227821028Y-103270114D01*
X227864571Y-103226571D01*
X227908114Y-103139485D01*
X227951657Y-102965314D01*
X227951657Y-102747600D01*
X227908114Y-102573428D01*
X227864571Y-102486342D01*
X227821028Y-102442800D01*
X227733942Y-102399257D01*
X226558285Y-103313657D02*
X227080800Y-103313657D01*
X226819542Y-103313657D02*
X226819542Y-102399257D01*
X226906628Y-102529885D01*
X226993714Y-102616971D01*
X227080800Y-102660514D01*
X229672342Y-101413657D02*
X230107771Y-101413657D01*
X230107771Y-100499257D01*
X229367542Y-101413657D02*
X229367542Y-100499257D01*
X229367542Y-100934685D02*
X228845028Y-100934685D01*
X228845028Y-101413657D02*
X228845028Y-100499257D01*
X228453142Y-101152400D02*
X228017714Y-101152400D01*
X228540228Y-101413657D02*
X228235428Y-100499257D01*
X227930628Y-101413657D01*
X227712914Y-100499257D02*
X227103314Y-100499257D01*
X227495200Y-101413657D01*
X226754971Y-100934685D02*
X226450171Y-100934685D01*
X226319542Y-101413657D02*
X226754971Y-101413657D01*
X226754971Y-100499257D01*
X226319542Y-100499257D01*
X225884114Y-101413657D02*
X225709942Y-101413657D01*
X225622857Y-101370114D01*
X225579314Y-101326571D01*
X225492228Y-101195942D01*
X225448685Y-101021771D01*
X225448685Y-100673428D01*
X225492228Y-100586342D01*
X225535771Y-100542800D01*
X225622857Y-100499257D01*
X225797028Y-100499257D01*
X225884114Y-100542800D01*
X225927657Y-100586342D01*
X225971200Y-100673428D01*
X225971200Y-100891142D01*
X225927657Y-100978228D01*
X225884114Y-101021771D01*
X225797028Y-101065314D01*
X225622857Y-101065314D01*
X225535771Y-101021771D01*
X225492228Y-100978228D01*
X225448685Y-100891142D01*
D11*
G36*
X193808759Y-102669184D02*
G01*
X193782247Y-102682282D01*
X193749553Y-102705106D01*
X193725725Y-102729996D01*
X193709406Y-102761249D01*
X193699240Y-102803166D01*
X193693872Y-102860044D01*
X193691944Y-102936184D01*
X193691831Y-102968917D01*
X193692161Y-103040656D01*
X193693527Y-103091927D01*
X193696500Y-103127404D01*
X193701649Y-103151763D01*
X193709543Y-103169680D01*
X193717757Y-103181902D01*
X193770187Y-103233905D01*
X193831930Y-103265184D01*
X193898536Y-103274592D01*
X193965558Y-103260980D01*
X193986792Y-103251354D01*
X194037624Y-103224859D01*
X194037624Y-103640052D01*
X194000525Y-103620868D01*
X193951643Y-103606025D01*
X193891561Y-103602222D01*
X193831564Y-103609243D01*
X193786256Y-103625013D01*
X193748675Y-103655047D01*
X193716564Y-103698024D01*
X193714150Y-103702436D01*
X193703967Y-103723221D01*
X193696530Y-103744170D01*
X193691411Y-103769548D01*
X193688181Y-103803618D01*
X193686413Y-103850641D01*
X193685677Y-103914882D01*
X193685544Y-103987176D01*
X193685544Y-104217822D01*
X193823861Y-104217822D01*
X193823861Y-103792533D01*
X193862549Y-103759979D01*
X193902738Y-103733940D01*
X193940797Y-103729205D01*
X193979066Y-103741389D01*
X193999462Y-103753320D01*
X194014642Y-103770313D01*
X194025438Y-103795995D01*
X194032683Y-103833991D01*
X194037208Y-103887926D01*
X194039844Y-103961425D01*
X194040772Y-104010347D01*
X194043911Y-104211535D01*
X194109926Y-104215336D01*
X194175940Y-104219136D01*
X194175940Y-102970650D01*
X194037624Y-102970650D01*
X194034097Y-103040254D01*
X194022215Y-103088569D01*
X194000020Y-103118631D01*
X193965559Y-103133471D01*
X193930742Y-103136436D01*
X193891329Y-103133028D01*
X193865171Y-103119617D01*
X193848814Y-103101896D01*
X193835937Y-103082835D01*
X193828272Y-103061601D01*
X193824861Y-103031849D01*
X193824749Y-102987236D01*
X193825897Y-102949880D01*
X193828532Y-102893604D01*
X193832456Y-102856658D01*
X193839063Y-102833223D01*
X193849749Y-102817480D01*
X193859833Y-102808380D01*
X193901970Y-102788537D01*
X193951840Y-102785332D01*
X193980476Y-102792168D01*
X194008828Y-102816464D01*
X194027609Y-102863728D01*
X194036712Y-102933624D01*
X194037624Y-102970650D01*
X194175940Y-102970650D01*
X194175940Y-102658614D01*
X194106782Y-102658614D01*
X194065260Y-102660256D01*
X194043838Y-102666087D01*
X194037626Y-102677461D01*
X194037624Y-102677798D01*
X194034742Y-102688938D01*
X194022030Y-102687673D01*
X193996757Y-102675433D01*
X193937869Y-102656707D01*
X193871615Y-102654739D01*
X193808759Y-102669184D01*
X193808759Y-102669184D01*
G37*
X193808759Y-102669184D02*
X193782247Y-102682282D01*
X193749553Y-102705106D01*
X193725725Y-102729996D01*
X193709406Y-102761249D01*
X193699240Y-102803166D01*
X193693872Y-102860044D01*
X193691944Y-102936184D01*
X193691831Y-102968917D01*
X193692161Y-103040656D01*
X193693527Y-103091927D01*
X193696500Y-103127404D01*
X193701649Y-103151763D01*
X193709543Y-103169680D01*
X193717757Y-103181902D01*
X193770187Y-103233905D01*
X193831930Y-103265184D01*
X193898536Y-103274592D01*
X193965558Y-103260980D01*
X193986792Y-103251354D01*
X194037624Y-103224859D01*
X194037624Y-103640052D01*
X194000525Y-103620868D01*
X193951643Y-103606025D01*
X193891561Y-103602222D01*
X193831564Y-103609243D01*
X193786256Y-103625013D01*
X193748675Y-103655047D01*
X193716564Y-103698024D01*
X193714150Y-103702436D01*
X193703967Y-103723221D01*
X193696530Y-103744170D01*
X193691411Y-103769548D01*
X193688181Y-103803618D01*
X193686413Y-103850641D01*
X193685677Y-103914882D01*
X193685544Y-103987176D01*
X193685544Y-104217822D01*
X193823861Y-104217822D01*
X193823861Y-103792533D01*
X193862549Y-103759979D01*
X193902738Y-103733940D01*
X193940797Y-103729205D01*
X193979066Y-103741389D01*
X193999462Y-103753320D01*
X194014642Y-103770313D01*
X194025438Y-103795995D01*
X194032683Y-103833991D01*
X194037208Y-103887926D01*
X194039844Y-103961425D01*
X194040772Y-104010347D01*
X194043911Y-104211535D01*
X194109926Y-104215336D01*
X194175940Y-104219136D01*
X194175940Y-102970650D01*
X194037624Y-102970650D01*
X194034097Y-103040254D01*
X194022215Y-103088569D01*
X194000020Y-103118631D01*
X193965559Y-103133471D01*
X193930742Y-103136436D01*
X193891329Y-103133028D01*
X193865171Y-103119617D01*
X193848814Y-103101896D01*
X193835937Y-103082835D01*
X193828272Y-103061601D01*
X193824861Y-103031849D01*
X193824749Y-102987236D01*
X193825897Y-102949880D01*
X193828532Y-102893604D01*
X193832456Y-102856658D01*
X193839063Y-102833223D01*
X193849749Y-102817480D01*
X193859833Y-102808380D01*
X193901970Y-102788537D01*
X193951840Y-102785332D01*
X193980476Y-102792168D01*
X194008828Y-102816464D01*
X194027609Y-102863728D01*
X194036712Y-102933624D01*
X194037624Y-102970650D01*
X194175940Y-102970650D01*
X194175940Y-102658614D01*
X194106782Y-102658614D01*
X194065260Y-102660256D01*
X194043838Y-102666087D01*
X194037626Y-102677461D01*
X194037624Y-102677798D01*
X194034742Y-102688938D01*
X194022030Y-102687673D01*
X193996757Y-102675433D01*
X193937869Y-102656707D01*
X193871615Y-102654739D01*
X193808759Y-102669184D01*
G36*
X192893356Y-103603020D02*
G01*
X192874539Y-103608660D01*
X192868473Y-103621053D01*
X192868218Y-103626647D01*
X192867129Y-103642230D01*
X192859632Y-103644676D01*
X192839381Y-103633993D01*
X192827351Y-103626694D01*
X192789400Y-103611063D01*
X192744072Y-103603334D01*
X192696544Y-103602740D01*
X192651995Y-103608513D01*
X192615602Y-103619884D01*
X192592543Y-103636088D01*
X192587996Y-103656355D01*
X192590291Y-103661843D01*
X192607020Y-103684626D01*
X192632963Y-103712647D01*
X192637655Y-103717177D01*
X192662383Y-103738005D01*
X192683718Y-103744735D01*
X192713555Y-103740038D01*
X192725508Y-103736917D01*
X192762705Y-103729421D01*
X192788859Y-103732792D01*
X192810946Y-103744681D01*
X192831178Y-103760635D01*
X192846079Y-103780700D01*
X192856434Y-103808702D01*
X192863029Y-103848467D01*
X192866649Y-103903823D01*
X192868078Y-103978594D01*
X192868218Y-104023740D01*
X192868218Y-104217822D01*
X192993960Y-104217822D01*
X192993960Y-103601683D01*
X192931089Y-103601683D01*
X192893356Y-103603020D01*
X192893356Y-103603020D01*
G37*
X192893356Y-103603020D02*
X192874539Y-103608660D01*
X192868473Y-103621053D01*
X192868218Y-103626647D01*
X192867129Y-103642230D01*
X192859632Y-103644676D01*
X192839381Y-103633993D01*
X192827351Y-103626694D01*
X192789400Y-103611063D01*
X192744072Y-103603334D01*
X192696544Y-103602740D01*
X192651995Y-103608513D01*
X192615602Y-103619884D01*
X192592543Y-103636088D01*
X192587996Y-103656355D01*
X192590291Y-103661843D01*
X192607020Y-103684626D01*
X192632963Y-103712647D01*
X192637655Y-103717177D01*
X192662383Y-103738005D01*
X192683718Y-103744735D01*
X192713555Y-103740038D01*
X192725508Y-103736917D01*
X192762705Y-103729421D01*
X192788859Y-103732792D01*
X192810946Y-103744681D01*
X192831178Y-103760635D01*
X192846079Y-103780700D01*
X192856434Y-103808702D01*
X192863029Y-103848467D01*
X192866649Y-103903823D01*
X192868078Y-103978594D01*
X192868218Y-104023740D01*
X192868218Y-104217822D01*
X192993960Y-104217822D01*
X192993960Y-103601683D01*
X192931089Y-103601683D01*
X192893356Y-103603020D01*
G36*
X192101188Y-104217822D02*
G01*
X192170346Y-104217822D01*
X192210488Y-104216645D01*
X192231394Y-104211772D01*
X192238922Y-104201186D01*
X192239505Y-104194029D01*
X192240774Y-104179676D01*
X192248779Y-104176923D01*
X192269815Y-104185771D01*
X192286173Y-104194029D01*
X192348977Y-104213597D01*
X192417248Y-104214729D01*
X192472752Y-104200135D01*
X192524438Y-104164877D01*
X192563838Y-104112835D01*
X192585413Y-104051450D01*
X192585962Y-104048018D01*
X192589167Y-104010571D01*
X192590761Y-103956813D01*
X192590633Y-103916155D01*
X192453279Y-103916155D01*
X192450097Y-103970194D01*
X192442859Y-104014735D01*
X192433060Y-104039888D01*
X192395989Y-104074260D01*
X192351974Y-104086582D01*
X192306584Y-104076618D01*
X192267797Y-104046895D01*
X192253108Y-104026905D01*
X192244519Y-104003050D01*
X192240496Y-103968230D01*
X192239505Y-103915930D01*
X192241278Y-103864139D01*
X192245963Y-103818634D01*
X192252603Y-103788181D01*
X192253710Y-103785452D01*
X192280491Y-103753000D01*
X192319579Y-103735183D01*
X192363315Y-103732306D01*
X192404038Y-103744674D01*
X192434087Y-103772593D01*
X192437204Y-103778148D01*
X192446961Y-103812022D01*
X192452277Y-103860728D01*
X192453279Y-103916155D01*
X192590633Y-103916155D01*
X192590568Y-103895540D01*
X192589664Y-103862563D01*
X192583514Y-103780981D01*
X192570733Y-103719730D01*
X192549471Y-103674449D01*
X192517878Y-103640779D01*
X192487207Y-103621014D01*
X192444354Y-103607120D01*
X192391056Y-103602354D01*
X192336480Y-103606236D01*
X192289792Y-103618282D01*
X192265124Y-103632693D01*
X192239505Y-103655878D01*
X192239505Y-103362773D01*
X192101188Y-103362773D01*
X192101188Y-104217822D01*
X192101188Y-104217822D01*
G37*
X192101188Y-104217822D02*
X192170346Y-104217822D01*
X192210488Y-104216645D01*
X192231394Y-104211772D01*
X192238922Y-104201186D01*
X192239505Y-104194029D01*
X192240774Y-104179676D01*
X192248779Y-104176923D01*
X192269815Y-104185771D01*
X192286173Y-104194029D01*
X192348977Y-104213597D01*
X192417248Y-104214729D01*
X192472752Y-104200135D01*
X192524438Y-104164877D01*
X192563838Y-104112835D01*
X192585413Y-104051450D01*
X192585962Y-104048018D01*
X192589167Y-104010571D01*
X192590761Y-103956813D01*
X192590633Y-103916155D01*
X192453279Y-103916155D01*
X192450097Y-103970194D01*
X192442859Y-104014735D01*
X192433060Y-104039888D01*
X192395989Y-104074260D01*
X192351974Y-104086582D01*
X192306584Y-104076618D01*
X192267797Y-104046895D01*
X192253108Y-104026905D01*
X192244519Y-104003050D01*
X192240496Y-103968230D01*
X192239505Y-103915930D01*
X192241278Y-103864139D01*
X192245963Y-103818634D01*
X192252603Y-103788181D01*
X192253710Y-103785452D01*
X192280491Y-103753000D01*
X192319579Y-103735183D01*
X192363315Y-103732306D01*
X192404038Y-103744674D01*
X192434087Y-103772593D01*
X192437204Y-103778148D01*
X192446961Y-103812022D01*
X192452277Y-103860728D01*
X192453279Y-103916155D01*
X192590633Y-103916155D01*
X192590568Y-103895540D01*
X192589664Y-103862563D01*
X192583514Y-103780981D01*
X192570733Y-103719730D01*
X192549471Y-103674449D01*
X192517878Y-103640779D01*
X192487207Y-103621014D01*
X192444354Y-103607120D01*
X192391056Y-103602354D01*
X192336480Y-103606236D01*
X192289792Y-103618282D01*
X192265124Y-103632693D01*
X192239505Y-103655878D01*
X192239505Y-103362773D01*
X192101188Y-103362773D01*
X192101188Y-104217822D01*
G36*
X191523036Y-98490018D02*
G01*
X191466188Y-98791570D01*
X191046662Y-98964512D01*
X190795016Y-98793395D01*
X190724542Y-98745750D01*
X190660837Y-98703210D01*
X190606874Y-98667715D01*
X190565627Y-98641210D01*
X190540066Y-98625636D01*
X190533105Y-98622278D01*
X190520565Y-98630914D01*
X190493769Y-98654792D01*
X190455720Y-98690859D01*
X190409421Y-98736067D01*
X190357877Y-98787364D01*
X190304091Y-98841701D01*
X190251065Y-98896028D01*
X190201805Y-98947295D01*
X190159313Y-98992451D01*
X190126593Y-99028446D01*
X190106649Y-99052230D01*
X190101881Y-99060190D01*
X190108743Y-99074865D01*
X190127980Y-99107014D01*
X190157570Y-99153492D01*
X190195490Y-99211156D01*
X190239718Y-99276860D01*
X190265346Y-99314336D01*
X190312059Y-99382768D01*
X190353568Y-99444520D01*
X190387860Y-99496519D01*
X190412920Y-99535692D01*
X190426736Y-99558965D01*
X190428812Y-99563855D01*
X190424105Y-99577755D01*
X190411277Y-99610150D01*
X190392262Y-99656485D01*
X190368997Y-99712206D01*
X190343416Y-99772758D01*
X190317455Y-99833586D01*
X190293050Y-99890136D01*
X190272137Y-99937852D01*
X190256651Y-99972181D01*
X190248528Y-99988568D01*
X190248048Y-99989212D01*
X190235293Y-99992341D01*
X190201323Y-99999321D01*
X190149660Y-100009467D01*
X190083824Y-100022092D01*
X190007336Y-100036509D01*
X189962710Y-100044823D01*
X189880979Y-100060384D01*
X189807157Y-100075192D01*
X189744979Y-100088436D01*
X189698178Y-100099305D01*
X189670491Y-100106989D01*
X189664926Y-100109427D01*
X189659474Y-100125930D01*
X189655076Y-100163200D01*
X189651728Y-100216880D01*
X189649426Y-100282612D01*
X189648168Y-100356037D01*
X189647952Y-100432796D01*
X189648773Y-100508532D01*
X189650629Y-100578886D01*
X189653518Y-100639500D01*
X189657435Y-100686016D01*
X189662378Y-100714075D01*
X189665343Y-100719916D01*
X189683066Y-100726917D01*
X189720619Y-100736927D01*
X189773036Y-100748769D01*
X189835348Y-100761267D01*
X189857100Y-100765310D01*
X189961976Y-100784520D01*
X190044820Y-100799991D01*
X190108370Y-100812337D01*
X190155363Y-100822173D01*
X190188537Y-100830114D01*
X190210629Y-100836776D01*
X190224376Y-100842773D01*
X190232516Y-100848719D01*
X190233655Y-100849894D01*
X190245023Y-100868826D01*
X190262365Y-100905669D01*
X190283950Y-100955913D01*
X190308046Y-101015046D01*
X190332921Y-101078556D01*
X190356843Y-101141932D01*
X190378081Y-101200662D01*
X190394903Y-101250235D01*
X190405578Y-101286139D01*
X190408373Y-101303862D01*
X190408140Y-101304483D01*
X190398669Y-101318970D01*
X190377182Y-101350844D01*
X190345937Y-101396789D01*
X190307193Y-101453485D01*
X190263207Y-101517617D01*
X190250681Y-101535842D01*
X190206016Y-101601914D01*
X190166712Y-101662200D01*
X190134912Y-101713235D01*
X190112755Y-101751560D01*
X190102383Y-101773711D01*
X190101881Y-101776432D01*
X190110595Y-101790736D01*
X190134675Y-101819072D01*
X190171024Y-101858396D01*
X190216547Y-101905661D01*
X190268148Y-101957823D01*
X190322733Y-102011835D01*
X190377206Y-102064653D01*
X190428471Y-102113231D01*
X190473433Y-102154523D01*
X190508996Y-102185485D01*
X190532065Y-102203070D01*
X190538446Y-102205941D01*
X190553301Y-102199178D01*
X190583714Y-102180939D01*
X190624732Y-102154297D01*
X190656291Y-102132852D01*
X190713475Y-102093503D01*
X190781194Y-102047171D01*
X190849120Y-102000913D01*
X190885639Y-101976155D01*
X191009248Y-101892547D01*
X191113009Y-101948650D01*
X191160280Y-101973228D01*
X191200477Y-101992331D01*
X191227674Y-102003227D01*
X191234598Y-102004743D01*
X191242923Y-101993549D01*
X191259346Y-101961917D01*
X191282643Y-101912765D01*
X191311586Y-101849010D01*
X191344950Y-101773571D01*
X191381509Y-101689364D01*
X191420036Y-101599308D01*
X191459306Y-101506321D01*
X191498092Y-101413320D01*
X191535170Y-101323223D01*
X191569311Y-101238948D01*
X191599292Y-101163413D01*
X191623884Y-101099534D01*
X191641864Y-101050231D01*
X191652003Y-101018421D01*
X191653634Y-101007496D01*
X191640709Y-100993561D01*
X191612411Y-100970940D01*
X191574654Y-100944333D01*
X191571485Y-100942228D01*
X191473900Y-100864114D01*
X191395214Y-100772982D01*
X191336109Y-100671745D01*
X191297268Y-100563318D01*
X191279372Y-100450614D01*
X191283103Y-100336548D01*
X191309143Y-100224034D01*
X191358175Y-100115985D01*
X191372600Y-100092345D01*
X191447631Y-99996887D01*
X191536270Y-99920232D01*
X191635451Y-99862780D01*
X191742105Y-99824929D01*
X191853164Y-99807078D01*
X191965561Y-99809625D01*
X192076227Y-99832970D01*
X192182094Y-99877510D01*
X192280095Y-99943645D01*
X192310410Y-99970487D01*
X192387562Y-100054512D01*
X192443782Y-100142966D01*
X192482347Y-100242115D01*
X192503826Y-100340303D01*
X192509128Y-100450697D01*
X192491448Y-100561640D01*
X192452581Y-100669381D01*
X192394323Y-100770169D01*
X192318469Y-100860256D01*
X192226817Y-100935892D01*
X192214772Y-100943864D01*
X192176611Y-100969974D01*
X192147601Y-100992595D01*
X192133732Y-101007039D01*
X192133531Y-101007496D01*
X192136508Y-101023121D01*
X192148311Y-101058582D01*
X192167714Y-101110962D01*
X192193488Y-101177345D01*
X192224409Y-101254814D01*
X192259249Y-101340450D01*
X192296783Y-101431337D01*
X192335783Y-101524559D01*
X192375023Y-101617197D01*
X192413276Y-101706335D01*
X192449317Y-101789055D01*
X192481917Y-101862441D01*
X192509852Y-101923575D01*
X192531895Y-101969541D01*
X192546818Y-101997421D01*
X192552828Y-102004743D01*
X192571191Y-101999041D01*
X192605552Y-101983749D01*
X192649984Y-101961599D01*
X192674417Y-101948650D01*
X192778178Y-101892547D01*
X192901787Y-101976155D01*
X192964886Y-102018987D01*
X193033970Y-102066122D01*
X193098707Y-102110503D01*
X193131134Y-102132852D01*
X193176741Y-102163477D01*
X193215360Y-102187747D01*
X193241952Y-102202587D01*
X193250590Y-102205724D01*
X193263161Y-102197261D01*
X193290984Y-102173636D01*
X193331361Y-102137302D01*
X193381595Y-102090711D01*
X193438988Y-102036317D01*
X193475286Y-102001392D01*
X193538790Y-101938996D01*
X193593673Y-101883188D01*
X193637714Y-101836354D01*
X193668695Y-101800882D01*
X193684398Y-101779161D01*
X193685905Y-101774752D01*
X193678914Y-101757985D01*
X193659594Y-101724082D01*
X193630091Y-101676476D01*
X193592545Y-101618599D01*
X193549100Y-101553884D01*
X193536745Y-101535842D01*
X193491727Y-101470267D01*
X193451340Y-101411228D01*
X193417840Y-101362042D01*
X193393486Y-101326028D01*
X193380536Y-101306502D01*
X193379285Y-101304483D01*
X193381156Y-101288922D01*
X193391087Y-101254709D01*
X193407347Y-101206355D01*
X193428205Y-101148371D01*
X193451927Y-101085270D01*
X193476784Y-101021563D01*
X193501042Y-100961761D01*
X193522971Y-100910376D01*
X193540838Y-100871919D01*
X193552913Y-100850902D01*
X193553771Y-100849894D01*
X193561154Y-100843888D01*
X193573625Y-100837948D01*
X193593920Y-100831460D01*
X193624778Y-100823809D01*
X193668934Y-100814380D01*
X193729126Y-100802559D01*
X193808093Y-100787729D01*
X193908570Y-100769277D01*
X193930325Y-100765310D01*
X193994802Y-100752853D01*
X194051011Y-100740666D01*
X194093987Y-100729926D01*
X194118760Y-100721809D01*
X194122082Y-100719916D01*
X194127556Y-100703138D01*
X194132006Y-100665645D01*
X194135428Y-100611794D01*
X194137819Y-100545944D01*
X194139177Y-100472453D01*
X194139499Y-100395680D01*
X194138781Y-100319983D01*
X194137021Y-100249720D01*
X194134216Y-100189250D01*
X194130362Y-100142930D01*
X194125457Y-100115119D01*
X194122500Y-100109427D01*
X194106037Y-100103686D01*
X194068551Y-100094345D01*
X194013775Y-100082215D01*
X193945445Y-100068107D01*
X193867294Y-100052830D01*
X193824716Y-100044823D01*
X193743929Y-100029721D01*
X193671887Y-100016040D01*
X193612111Y-100004467D01*
X193568121Y-99995687D01*
X193543439Y-99990387D01*
X193539377Y-99989212D01*
X193532511Y-99975965D01*
X193517998Y-99944057D01*
X193497771Y-99898047D01*
X193473766Y-99842492D01*
X193447918Y-99781953D01*
X193422160Y-99720986D01*
X193398427Y-99664151D01*
X193378654Y-99616006D01*
X193364776Y-99581110D01*
X193358726Y-99564021D01*
X193358614Y-99563274D01*
X193365472Y-99549793D01*
X193384698Y-99518770D01*
X193414272Y-99473289D01*
X193452173Y-99416432D01*
X193496380Y-99351283D01*
X193522079Y-99313862D01*
X193568907Y-99245247D01*
X193610499Y-99182952D01*
X193644825Y-99130129D01*
X193669857Y-99089927D01*
X193683565Y-99065500D01*
X193685544Y-99060024D01*
X193677034Y-99047278D01*
X193653507Y-99020063D01*
X193617968Y-98981428D01*
X193573423Y-98934423D01*
X193522877Y-98882095D01*
X193469336Y-98827495D01*
X193415805Y-98773670D01*
X193365289Y-98723670D01*
X193320794Y-98680543D01*
X193285325Y-98647339D01*
X193261887Y-98627106D01*
X193254046Y-98622278D01*
X193241280Y-98629067D01*
X193210744Y-98648142D01*
X193165410Y-98677561D01*
X193108244Y-98715381D01*
X193042216Y-98759661D01*
X192992410Y-98793395D01*
X192740764Y-98964512D01*
X192531001Y-98878041D01*
X192321237Y-98791570D01*
X192264389Y-98490018D01*
X192207540Y-98188466D01*
X191579885Y-98188466D01*
X191523036Y-98490018D01*
X191523036Y-98490018D01*
G37*
X191523036Y-98490018D02*
X191466188Y-98791570D01*
X191046662Y-98964512D01*
X190795016Y-98793395D01*
X190724542Y-98745750D01*
X190660837Y-98703210D01*
X190606874Y-98667715D01*
X190565627Y-98641210D01*
X190540066Y-98625636D01*
X190533105Y-98622278D01*
X190520565Y-98630914D01*
X190493769Y-98654792D01*
X190455720Y-98690859D01*
X190409421Y-98736067D01*
X190357877Y-98787364D01*
X190304091Y-98841701D01*
X190251065Y-98896028D01*
X190201805Y-98947295D01*
X190159313Y-98992451D01*
X190126593Y-99028446D01*
X190106649Y-99052230D01*
X190101881Y-99060190D01*
X190108743Y-99074865D01*
X190127980Y-99107014D01*
X190157570Y-99153492D01*
X190195490Y-99211156D01*
X190239718Y-99276860D01*
X190265346Y-99314336D01*
X190312059Y-99382768D01*
X190353568Y-99444520D01*
X190387860Y-99496519D01*
X190412920Y-99535692D01*
X190426736Y-99558965D01*
X190428812Y-99563855D01*
X190424105Y-99577755D01*
X190411277Y-99610150D01*
X190392262Y-99656485D01*
X190368997Y-99712206D01*
X190343416Y-99772758D01*
X190317455Y-99833586D01*
X190293050Y-99890136D01*
X190272137Y-99937852D01*
X190256651Y-99972181D01*
X190248528Y-99988568D01*
X190248048Y-99989212D01*
X190235293Y-99992341D01*
X190201323Y-99999321D01*
X190149660Y-100009467D01*
X190083824Y-100022092D01*
X190007336Y-100036509D01*
X189962710Y-100044823D01*
X189880979Y-100060384D01*
X189807157Y-100075192D01*
X189744979Y-100088436D01*
X189698178Y-100099305D01*
X189670491Y-100106989D01*
X189664926Y-100109427D01*
X189659474Y-100125930D01*
X189655076Y-100163200D01*
X189651728Y-100216880D01*
X189649426Y-100282612D01*
X189648168Y-100356037D01*
X189647952Y-100432796D01*
X189648773Y-100508532D01*
X189650629Y-100578886D01*
X189653518Y-100639500D01*
X189657435Y-100686016D01*
X189662378Y-100714075D01*
X189665343Y-100719916D01*
X189683066Y-100726917D01*
X189720619Y-100736927D01*
X189773036Y-100748769D01*
X189835348Y-100761267D01*
X189857100Y-100765310D01*
X189961976Y-100784520D01*
X190044820Y-100799991D01*
X190108370Y-100812337D01*
X190155363Y-100822173D01*
X190188537Y-100830114D01*
X190210629Y-100836776D01*
X190224376Y-100842773D01*
X190232516Y-100848719D01*
X190233655Y-100849894D01*
X190245023Y-100868826D01*
X190262365Y-100905669D01*
X190283950Y-100955913D01*
X190308046Y-101015046D01*
X190332921Y-101078556D01*
X190356843Y-101141932D01*
X190378081Y-101200662D01*
X190394903Y-101250235D01*
X190405578Y-101286139D01*
X190408373Y-101303862D01*
X190408140Y-101304483D01*
X190398669Y-101318970D01*
X190377182Y-101350844D01*
X190345937Y-101396789D01*
X190307193Y-101453485D01*
X190263207Y-101517617D01*
X190250681Y-101535842D01*
X190206016Y-101601914D01*
X190166712Y-101662200D01*
X190134912Y-101713235D01*
X190112755Y-101751560D01*
X190102383Y-101773711D01*
X190101881Y-101776432D01*
X190110595Y-101790736D01*
X190134675Y-101819072D01*
X190171024Y-101858396D01*
X190216547Y-101905661D01*
X190268148Y-101957823D01*
X190322733Y-102011835D01*
X190377206Y-102064653D01*
X190428471Y-102113231D01*
X190473433Y-102154523D01*
X190508996Y-102185485D01*
X190532065Y-102203070D01*
X190538446Y-102205941D01*
X190553301Y-102199178D01*
X190583714Y-102180939D01*
X190624732Y-102154297D01*
X190656291Y-102132852D01*
X190713475Y-102093503D01*
X190781194Y-102047171D01*
X190849120Y-102000913D01*
X190885639Y-101976155D01*
X191009248Y-101892547D01*
X191113009Y-101948650D01*
X191160280Y-101973228D01*
X191200477Y-101992331D01*
X191227674Y-102003227D01*
X191234598Y-102004743D01*
X191242923Y-101993549D01*
X191259346Y-101961917D01*
X191282643Y-101912765D01*
X191311586Y-101849010D01*
X191344950Y-101773571D01*
X191381509Y-101689364D01*
X191420036Y-101599308D01*
X191459306Y-101506321D01*
X191498092Y-101413320D01*
X191535170Y-101323223D01*
X191569311Y-101238948D01*
X191599292Y-101163413D01*
X191623884Y-101099534D01*
X191641864Y-101050231D01*
X191652003Y-101018421D01*
X191653634Y-101007496D01*
X191640709Y-100993561D01*
X191612411Y-100970940D01*
X191574654Y-100944333D01*
X191571485Y-100942228D01*
X191473900Y-100864114D01*
X191395214Y-100772982D01*
X191336109Y-100671745D01*
X191297268Y-100563318D01*
X191279372Y-100450614D01*
X191283103Y-100336548D01*
X191309143Y-100224034D01*
X191358175Y-100115985D01*
X191372600Y-100092345D01*
X191447631Y-99996887D01*
X191536270Y-99920232D01*
X191635451Y-99862780D01*
X191742105Y-99824929D01*
X191853164Y-99807078D01*
X191965561Y-99809625D01*
X192076227Y-99832970D01*
X192182094Y-99877510D01*
X192280095Y-99943645D01*
X192310410Y-99970487D01*
X192387562Y-100054512D01*
X192443782Y-100142966D01*
X192482347Y-100242115D01*
X192503826Y-100340303D01*
X192509128Y-100450697D01*
X192491448Y-100561640D01*
X192452581Y-100669381D01*
X192394323Y-100770169D01*
X192318469Y-100860256D01*
X192226817Y-100935892D01*
X192214772Y-100943864D01*
X192176611Y-100969974D01*
X192147601Y-100992595D01*
X192133732Y-101007039D01*
X192133531Y-101007496D01*
X192136508Y-101023121D01*
X192148311Y-101058582D01*
X192167714Y-101110962D01*
X192193488Y-101177345D01*
X192224409Y-101254814D01*
X192259249Y-101340450D01*
X192296783Y-101431337D01*
X192335783Y-101524559D01*
X192375023Y-101617197D01*
X192413276Y-101706335D01*
X192449317Y-101789055D01*
X192481917Y-101862441D01*
X192509852Y-101923575D01*
X192531895Y-101969541D01*
X192546818Y-101997421D01*
X192552828Y-102004743D01*
X192571191Y-101999041D01*
X192605552Y-101983749D01*
X192649984Y-101961599D01*
X192674417Y-101948650D01*
X192778178Y-101892547D01*
X192901787Y-101976155D01*
X192964886Y-102018987D01*
X193033970Y-102066122D01*
X193098707Y-102110503D01*
X193131134Y-102132852D01*
X193176741Y-102163477D01*
X193215360Y-102187747D01*
X193241952Y-102202587D01*
X193250590Y-102205724D01*
X193263161Y-102197261D01*
X193290984Y-102173636D01*
X193331361Y-102137302D01*
X193381595Y-102090711D01*
X193438988Y-102036317D01*
X193475286Y-102001392D01*
X193538790Y-101938996D01*
X193593673Y-101883188D01*
X193637714Y-101836354D01*
X193668695Y-101800882D01*
X193684398Y-101779161D01*
X193685905Y-101774752D01*
X193678914Y-101757985D01*
X193659594Y-101724082D01*
X193630091Y-101676476D01*
X193592545Y-101618599D01*
X193549100Y-101553884D01*
X193536745Y-101535842D01*
X193491727Y-101470267D01*
X193451340Y-101411228D01*
X193417840Y-101362042D01*
X193393486Y-101326028D01*
X193380536Y-101306502D01*
X193379285Y-101304483D01*
X193381156Y-101288922D01*
X193391087Y-101254709D01*
X193407347Y-101206355D01*
X193428205Y-101148371D01*
X193451927Y-101085270D01*
X193476784Y-101021563D01*
X193501042Y-100961761D01*
X193522971Y-100910376D01*
X193540838Y-100871919D01*
X193552913Y-100850902D01*
X193553771Y-100849894D01*
X193561154Y-100843888D01*
X193573625Y-100837948D01*
X193593920Y-100831460D01*
X193624778Y-100823809D01*
X193668934Y-100814380D01*
X193729126Y-100802559D01*
X193808093Y-100787729D01*
X193908570Y-100769277D01*
X193930325Y-100765310D01*
X193994802Y-100752853D01*
X194051011Y-100740666D01*
X194093987Y-100729926D01*
X194118760Y-100721809D01*
X194122082Y-100719916D01*
X194127556Y-100703138D01*
X194132006Y-100665645D01*
X194135428Y-100611794D01*
X194137819Y-100545944D01*
X194139177Y-100472453D01*
X194139499Y-100395680D01*
X194138781Y-100319983D01*
X194137021Y-100249720D01*
X194134216Y-100189250D01*
X194130362Y-100142930D01*
X194125457Y-100115119D01*
X194122500Y-100109427D01*
X194106037Y-100103686D01*
X194068551Y-100094345D01*
X194013775Y-100082215D01*
X193945445Y-100068107D01*
X193867294Y-100052830D01*
X193824716Y-100044823D01*
X193743929Y-100029721D01*
X193671887Y-100016040D01*
X193612111Y-100004467D01*
X193568121Y-99995687D01*
X193543439Y-99990387D01*
X193539377Y-99989212D01*
X193532511Y-99975965D01*
X193517998Y-99944057D01*
X193497771Y-99898047D01*
X193473766Y-99842492D01*
X193447918Y-99781953D01*
X193422160Y-99720986D01*
X193398427Y-99664151D01*
X193378654Y-99616006D01*
X193364776Y-99581110D01*
X193358726Y-99564021D01*
X193358614Y-99563274D01*
X193365472Y-99549793D01*
X193384698Y-99518770D01*
X193414272Y-99473289D01*
X193452173Y-99416432D01*
X193496380Y-99351283D01*
X193522079Y-99313862D01*
X193568907Y-99245247D01*
X193610499Y-99182952D01*
X193644825Y-99130129D01*
X193669857Y-99089927D01*
X193683565Y-99065500D01*
X193685544Y-99060024D01*
X193677034Y-99047278D01*
X193653507Y-99020063D01*
X193617968Y-98981428D01*
X193573423Y-98934423D01*
X193522877Y-98882095D01*
X193469336Y-98827495D01*
X193415805Y-98773670D01*
X193365289Y-98723670D01*
X193320794Y-98680543D01*
X193285325Y-98647339D01*
X193261887Y-98627106D01*
X193254046Y-98622278D01*
X193241280Y-98629067D01*
X193210744Y-98648142D01*
X193165410Y-98677561D01*
X193108244Y-98715381D01*
X193042216Y-98759661D01*
X192992410Y-98793395D01*
X192740764Y-98964512D01*
X192531001Y-98878041D01*
X192321237Y-98791570D01*
X192264389Y-98490018D01*
X192207540Y-98188466D01*
X191579885Y-98188466D01*
X191523036Y-98490018D01*
G36*
X193284210Y-103606555D02*
G01*
X193225055Y-103622339D01*
X193180023Y-103650948D01*
X193148246Y-103688419D01*
X193138366Y-103704411D01*
X193131073Y-103721163D01*
X193125974Y-103742592D01*
X193122679Y-103772616D01*
X193120797Y-103815154D01*
X193119937Y-103874122D01*
X193119707Y-103953440D01*
X193119703Y-103974484D01*
X193119703Y-104217822D01*
X193180059Y-104217822D01*
X193218557Y-104215126D01*
X193247023Y-104208295D01*
X193254155Y-104204083D01*
X193273652Y-104196813D01*
X193293566Y-104204083D01*
X193326353Y-104213160D01*
X193373978Y-104216813D01*
X193426764Y-104215228D01*
X193475036Y-104208589D01*
X193503218Y-104200072D01*
X193557753Y-104165063D01*
X193591835Y-104116479D01*
X193607157Y-104051882D01*
X193607299Y-104050223D01*
X193605955Y-104021566D01*
X193484356Y-104021566D01*
X193473726Y-104054161D01*
X193456410Y-104072505D01*
X193421652Y-104086379D01*
X193375773Y-104091917D01*
X193328988Y-104089191D01*
X193291514Y-104078274D01*
X193281015Y-104071269D01*
X193262668Y-104038904D01*
X193258020Y-104002111D01*
X193258020Y-103953763D01*
X193327582Y-103953763D01*
X193393667Y-103958850D01*
X193443764Y-103973263D01*
X193474929Y-103995729D01*
X193484356Y-104021566D01*
X193605955Y-104021566D01*
X193603987Y-103979647D01*
X193580710Y-103923845D01*
X193536948Y-103881647D01*
X193530899Y-103877808D01*
X193504907Y-103865309D01*
X193472735Y-103857740D01*
X193427760Y-103854061D01*
X193374331Y-103853216D01*
X193258020Y-103853169D01*
X193258020Y-103804411D01*
X193262953Y-103766581D01*
X193275543Y-103741236D01*
X193277017Y-103739887D01*
X193305034Y-103728800D01*
X193347326Y-103724503D01*
X193394064Y-103726615D01*
X193435418Y-103734756D01*
X193459957Y-103746965D01*
X193473253Y-103756746D01*
X193487294Y-103758613D01*
X193506671Y-103750600D01*
X193535976Y-103730739D01*
X193579803Y-103697063D01*
X193583825Y-103693909D01*
X193581764Y-103682236D01*
X193564568Y-103662822D01*
X193538433Y-103641248D01*
X193509552Y-103623096D01*
X193500478Y-103618809D01*
X193467380Y-103610256D01*
X193418880Y-103604155D01*
X193364695Y-103601708D01*
X193362161Y-103601703D01*
X193284210Y-103606555D01*
X193284210Y-103606555D01*
G37*
X193284210Y-103606555D02*
X193225055Y-103622339D01*
X193180023Y-103650948D01*
X193148246Y-103688419D01*
X193138366Y-103704411D01*
X193131073Y-103721163D01*
X193125974Y-103742592D01*
X193122679Y-103772616D01*
X193120797Y-103815154D01*
X193119937Y-103874122D01*
X193119707Y-103953440D01*
X193119703Y-103974484D01*
X193119703Y-104217822D01*
X193180059Y-104217822D01*
X193218557Y-104215126D01*
X193247023Y-104208295D01*
X193254155Y-104204083D01*
X193273652Y-104196813D01*
X193293566Y-104204083D01*
X193326353Y-104213160D01*
X193373978Y-104216813D01*
X193426764Y-104215228D01*
X193475036Y-104208589D01*
X193503218Y-104200072D01*
X193557753Y-104165063D01*
X193591835Y-104116479D01*
X193607157Y-104051882D01*
X193607299Y-104050223D01*
X193605955Y-104021566D01*
X193484356Y-104021566D01*
X193473726Y-104054161D01*
X193456410Y-104072505D01*
X193421652Y-104086379D01*
X193375773Y-104091917D01*
X193328988Y-104089191D01*
X193291514Y-104078274D01*
X193281015Y-104071269D01*
X193262668Y-104038904D01*
X193258020Y-104002111D01*
X193258020Y-103953763D01*
X193327582Y-103953763D01*
X193393667Y-103958850D01*
X193443764Y-103973263D01*
X193474929Y-103995729D01*
X193484356Y-104021566D01*
X193605955Y-104021566D01*
X193603987Y-103979647D01*
X193580710Y-103923845D01*
X193536948Y-103881647D01*
X193530899Y-103877808D01*
X193504907Y-103865309D01*
X193472735Y-103857740D01*
X193427760Y-103854061D01*
X193374331Y-103853216D01*
X193258020Y-103853169D01*
X193258020Y-103804411D01*
X193262953Y-103766581D01*
X193275543Y-103741236D01*
X193277017Y-103739887D01*
X193305034Y-103728800D01*
X193347326Y-103724503D01*
X193394064Y-103726615D01*
X193435418Y-103734756D01*
X193459957Y-103746965D01*
X193473253Y-103756746D01*
X193487294Y-103758613D01*
X193506671Y-103750600D01*
X193535976Y-103730739D01*
X193579803Y-103697063D01*
X193583825Y-103693909D01*
X193581764Y-103682236D01*
X193564568Y-103662822D01*
X193538433Y-103641248D01*
X193509552Y-103623096D01*
X193500478Y-103618809D01*
X193467380Y-103610256D01*
X193418880Y-103604155D01*
X193364695Y-103601708D01*
X193362161Y-103601703D01*
X193284210Y-103606555D01*
G36*
X191618476Y-103604237D02*
G01*
X191568745Y-103607971D01*
X191438709Y-103997773D01*
X191418322Y-103928614D01*
X191406054Y-103885874D01*
X191389915Y-103828115D01*
X191372488Y-103764625D01*
X191363274Y-103730570D01*
X191328612Y-103601683D01*
X191185609Y-103601683D01*
X191228354Y-103736857D01*
X191249404Y-103803342D01*
X191274833Y-103883539D01*
X191301390Y-103967193D01*
X191325098Y-104041782D01*
X191379098Y-104211535D01*
X191437402Y-104215328D01*
X191495705Y-104219122D01*
X191527321Y-104114734D01*
X191546818Y-104049889D01*
X191568096Y-103978400D01*
X191586692Y-103915263D01*
X191587426Y-103912750D01*
X191601316Y-103869969D01*
X191613571Y-103840779D01*
X191622154Y-103829741D01*
X191623918Y-103831018D01*
X191630109Y-103848130D01*
X191641872Y-103884787D01*
X191657775Y-103936378D01*
X191676386Y-103998294D01*
X191686457Y-104032352D01*
X191740993Y-104217822D01*
X191856736Y-104217822D01*
X191949263Y-103925471D01*
X191975256Y-103843462D01*
X191998934Y-103768987D01*
X192019180Y-103705544D01*
X192034874Y-103656632D01*
X192044898Y-103625749D01*
X192047945Y-103616726D01*
X192045533Y-103607487D01*
X192026592Y-103603441D01*
X191987177Y-103603846D01*
X191981007Y-103604152D01*
X191907914Y-103607971D01*
X191860043Y-103784010D01*
X191842447Y-103848211D01*
X191826723Y-103904649D01*
X191814254Y-103948422D01*
X191806426Y-103974630D01*
X191804980Y-103978903D01*
X191798986Y-103973990D01*
X191786899Y-103948532D01*
X191770107Y-103905997D01*
X191749997Y-103849850D01*
X191732997Y-103799130D01*
X191668206Y-103600504D01*
X191618476Y-103604237D01*
X191618476Y-103604237D01*
G37*
X191618476Y-103604237D02*
X191568745Y-103607971D01*
X191438709Y-103997773D01*
X191418322Y-103928614D01*
X191406054Y-103885874D01*
X191389915Y-103828115D01*
X191372488Y-103764625D01*
X191363274Y-103730570D01*
X191328612Y-103601683D01*
X191185609Y-103601683D01*
X191228354Y-103736857D01*
X191249404Y-103803342D01*
X191274833Y-103883539D01*
X191301390Y-103967193D01*
X191325098Y-104041782D01*
X191379098Y-104211535D01*
X191437402Y-104215328D01*
X191495705Y-104219122D01*
X191527321Y-104114734D01*
X191546818Y-104049889D01*
X191568096Y-103978400D01*
X191586692Y-103915263D01*
X191587426Y-103912750D01*
X191601316Y-103869969D01*
X191613571Y-103840779D01*
X191622154Y-103829741D01*
X191623918Y-103831018D01*
X191630109Y-103848130D01*
X191641872Y-103884787D01*
X191657775Y-103936378D01*
X191676386Y-103998294D01*
X191686457Y-104032352D01*
X191740993Y-104217822D01*
X191856736Y-104217822D01*
X191949263Y-103925471D01*
X191975256Y-103843462D01*
X191998934Y-103768987D01*
X192019180Y-103705544D01*
X192034874Y-103656632D01*
X192044898Y-103625749D01*
X192047945Y-103616726D01*
X192045533Y-103607487D01*
X192026592Y-103603441D01*
X191987177Y-103603846D01*
X191981007Y-103604152D01*
X191907914Y-103607971D01*
X191860043Y-103784010D01*
X191842447Y-103848211D01*
X191826723Y-103904649D01*
X191814254Y-103948422D01*
X191806426Y-103974630D01*
X191804980Y-103978903D01*
X191798986Y-103973990D01*
X191786899Y-103948532D01*
X191770107Y-103905997D01*
X191749997Y-103849850D01*
X191732997Y-103799130D01*
X191668206Y-103600504D01*
X191618476Y-103604237D01*
G36*
X190861589Y-103605417D02*
G01*
X190808589Y-103618290D01*
X190793269Y-103625110D01*
X190763572Y-103642974D01*
X190740780Y-103663093D01*
X190723917Y-103688962D01*
X190712002Y-103724073D01*
X190704058Y-103771920D01*
X190699106Y-103835996D01*
X190696169Y-103919794D01*
X190695053Y-103975768D01*
X190690948Y-104217822D01*
X190761068Y-104217822D01*
X190803607Y-104216038D01*
X190825524Y-104209942D01*
X190831188Y-104199706D01*
X190834179Y-104188637D01*
X190847549Y-104190754D01*
X190865767Y-104199629D01*
X190911376Y-104213233D01*
X190969993Y-104216899D01*
X191031646Y-104210903D01*
X191086362Y-104195521D01*
X191091270Y-104193386D01*
X191141277Y-104158255D01*
X191174244Y-104109419D01*
X191189413Y-104052333D01*
X191188254Y-104031824D01*
X191064492Y-104031824D01*
X191053587Y-104059425D01*
X191021255Y-104079204D01*
X190969090Y-104089819D01*
X190941213Y-104091228D01*
X190894753Y-104087620D01*
X190863871Y-104073597D01*
X190856336Y-104066931D01*
X190835924Y-104030666D01*
X190831188Y-103997773D01*
X190831188Y-103953763D01*
X190892487Y-103953763D01*
X190963744Y-103957395D01*
X191013724Y-103968818D01*
X191045304Y-103988824D01*
X191052374Y-103997743D01*
X191064492Y-104031824D01*
X191188254Y-104031824D01*
X191186029Y-103992456D01*
X191163337Y-103935244D01*
X191132376Y-103896580D01*
X191113624Y-103879864D01*
X191095267Y-103868878D01*
X191071381Y-103862180D01*
X191036043Y-103858326D01*
X190983331Y-103855873D01*
X190962423Y-103855168D01*
X190831188Y-103850879D01*
X190831380Y-103811158D01*
X190836463Y-103769405D01*
X190854838Y-103744158D01*
X190891961Y-103728030D01*
X190892957Y-103727742D01*
X190945590Y-103721400D01*
X190997094Y-103729684D01*
X191035370Y-103749827D01*
X191050728Y-103759773D01*
X191067270Y-103758397D01*
X191092725Y-103743987D01*
X191107672Y-103733817D01*
X191136909Y-103712088D01*
X191155020Y-103695800D01*
X191157926Y-103691137D01*
X191145960Y-103667005D01*
X191110604Y-103638185D01*
X191095247Y-103628461D01*
X191051099Y-103611714D01*
X190991602Y-103602227D01*
X190925513Y-103600095D01*
X190861589Y-103605417D01*
X190861589Y-103605417D01*
G37*
X190861589Y-103605417D02*
X190808589Y-103618290D01*
X190793269Y-103625110D01*
X190763572Y-103642974D01*
X190740780Y-103663093D01*
X190723917Y-103688962D01*
X190712002Y-103724073D01*
X190704058Y-103771920D01*
X190699106Y-103835996D01*
X190696169Y-103919794D01*
X190695053Y-103975768D01*
X190690948Y-104217822D01*
X190761068Y-104217822D01*
X190803607Y-104216038D01*
X190825524Y-104209942D01*
X190831188Y-104199706D01*
X190834179Y-104188637D01*
X190847549Y-104190754D01*
X190865767Y-104199629D01*
X190911376Y-104213233D01*
X190969993Y-104216899D01*
X191031646Y-104210903D01*
X191086362Y-104195521D01*
X191091270Y-104193386D01*
X191141277Y-104158255D01*
X191174244Y-104109419D01*
X191189413Y-104052333D01*
X191188254Y-104031824D01*
X191064492Y-104031824D01*
X191053587Y-104059425D01*
X191021255Y-104079204D01*
X190969090Y-104089819D01*
X190941213Y-104091228D01*
X190894753Y-104087620D01*
X190863871Y-104073597D01*
X190856336Y-104066931D01*
X190835924Y-104030666D01*
X190831188Y-103997773D01*
X190831188Y-103953763D01*
X190892487Y-103953763D01*
X190963744Y-103957395D01*
X191013724Y-103968818D01*
X191045304Y-103988824D01*
X191052374Y-103997743D01*
X191064492Y-104031824D01*
X191188254Y-104031824D01*
X191186029Y-103992456D01*
X191163337Y-103935244D01*
X191132376Y-103896580D01*
X191113624Y-103879864D01*
X191095267Y-103868878D01*
X191071381Y-103862180D01*
X191036043Y-103858326D01*
X190983331Y-103855873D01*
X190962423Y-103855168D01*
X190831188Y-103850879D01*
X190831380Y-103811158D01*
X190836463Y-103769405D01*
X190854838Y-103744158D01*
X190891961Y-103728030D01*
X190892957Y-103727742D01*
X190945590Y-103721400D01*
X190997094Y-103729684D01*
X191035370Y-103749827D01*
X191050728Y-103759773D01*
X191067270Y-103758397D01*
X191092725Y-103743987D01*
X191107672Y-103733817D01*
X191136909Y-103712088D01*
X191155020Y-103695800D01*
X191157926Y-103691137D01*
X191145960Y-103667005D01*
X191110604Y-103638185D01*
X191095247Y-103628461D01*
X191051099Y-103611714D01*
X190991602Y-103602227D01*
X190925513Y-103600095D01*
X190861589Y-103605417D01*
G36*
X190264745Y-103601486D02*
G01*
X190216405Y-103611015D01*
X190188886Y-103625125D01*
X190159936Y-103648568D01*
X190201124Y-103700571D01*
X190226518Y-103732064D01*
X190243762Y-103747428D01*
X190260898Y-103749776D01*
X190285973Y-103742217D01*
X190297743Y-103737941D01*
X190345730Y-103731631D01*
X190389676Y-103745156D01*
X190421940Y-103775710D01*
X190427181Y-103785452D01*
X190432888Y-103811258D01*
X190437294Y-103858817D01*
X190440189Y-103924758D01*
X190441369Y-104005710D01*
X190441386Y-104017226D01*
X190441386Y-104217822D01*
X190579703Y-104217822D01*
X190579703Y-103601683D01*
X190510544Y-103601683D01*
X190470667Y-103602725D01*
X190449893Y-103607358D01*
X190442211Y-103617849D01*
X190441386Y-103627745D01*
X190441386Y-103653806D01*
X190408255Y-103627745D01*
X190370265Y-103609965D01*
X190319230Y-103601174D01*
X190264745Y-103601486D01*
X190264745Y-103601486D01*
G37*
X190264745Y-103601486D02*
X190216405Y-103611015D01*
X190188886Y-103625125D01*
X190159936Y-103648568D01*
X190201124Y-103700571D01*
X190226518Y-103732064D01*
X190243762Y-103747428D01*
X190260898Y-103749776D01*
X190285973Y-103742217D01*
X190297743Y-103737941D01*
X190345730Y-103731631D01*
X190389676Y-103745156D01*
X190421940Y-103775710D01*
X190427181Y-103785452D01*
X190432888Y-103811258D01*
X190437294Y-103858817D01*
X190440189Y-103924758D01*
X190441369Y-104005710D01*
X190441386Y-104017226D01*
X190441386Y-104217822D01*
X190579703Y-104217822D01*
X190579703Y-103601683D01*
X190510544Y-103601683D01*
X190470667Y-103602725D01*
X190449893Y-103607358D01*
X190442211Y-103617849D01*
X190441386Y-103627745D01*
X190441386Y-103653806D01*
X190408255Y-103627745D01*
X190370265Y-103609965D01*
X190319230Y-103601174D01*
X190264745Y-103601486D01*
G36*
X189867419Y-103604970D02*
G01*
X189807315Y-103620597D01*
X189756979Y-103652848D01*
X189732607Y-103676940D01*
X189692655Y-103733895D01*
X189669758Y-103799965D01*
X189661892Y-103881182D01*
X189661852Y-103887748D01*
X189661782Y-103953763D01*
X190041736Y-103953763D01*
X190033637Y-103988342D01*
X190019013Y-104019659D01*
X189993419Y-104052291D01*
X189988065Y-104057500D01*
X189942057Y-104085694D01*
X189889590Y-104090475D01*
X189829197Y-104071926D01*
X189818960Y-104066931D01*
X189787561Y-104051745D01*
X189766530Y-104043094D01*
X189762861Y-104042293D01*
X189750052Y-104050063D01*
X189725622Y-104069072D01*
X189713221Y-104079460D01*
X189687524Y-104103321D01*
X189679085Y-104119077D01*
X189684942Y-104133571D01*
X189688072Y-104137534D01*
X189709275Y-104154879D01*
X189744262Y-104175959D01*
X189768663Y-104188265D01*
X189837928Y-104209946D01*
X189914612Y-104216971D01*
X189987235Y-104208647D01*
X190007574Y-104202686D01*
X190070524Y-104168952D01*
X190117185Y-104117045D01*
X190147827Y-104046459D01*
X190162718Y-103956692D01*
X190164353Y-103909753D01*
X190159579Y-103841413D01*
X190039010Y-103841413D01*
X190027348Y-103846465D01*
X189996002Y-103850429D01*
X189950429Y-103852768D01*
X189919554Y-103853169D01*
X189864019Y-103852783D01*
X189828967Y-103850975D01*
X189809738Y-103846773D01*
X189801670Y-103839203D01*
X189800099Y-103828218D01*
X189810879Y-103794381D01*
X189838020Y-103760940D01*
X189873723Y-103735272D01*
X189909440Y-103724772D01*
X189957952Y-103734086D01*
X189999947Y-103761013D01*
X190029064Y-103799827D01*
X190039010Y-103841413D01*
X190159579Y-103841413D01*
X190157401Y-103810236D01*
X190135945Y-103730949D01*
X190099530Y-103671263D01*
X190047703Y-103630549D01*
X189980010Y-103608179D01*
X189943338Y-103603871D01*
X189867419Y-103604970D01*
X189867419Y-103604970D01*
G37*
X189867419Y-103604970D02*
X189807315Y-103620597D01*
X189756979Y-103652848D01*
X189732607Y-103676940D01*
X189692655Y-103733895D01*
X189669758Y-103799965D01*
X189661892Y-103881182D01*
X189661852Y-103887748D01*
X189661782Y-103953763D01*
X190041736Y-103953763D01*
X190033637Y-103988342D01*
X190019013Y-104019659D01*
X189993419Y-104052291D01*
X189988065Y-104057500D01*
X189942057Y-104085694D01*
X189889590Y-104090475D01*
X189829197Y-104071926D01*
X189818960Y-104066931D01*
X189787561Y-104051745D01*
X189766530Y-104043094D01*
X189762861Y-104042293D01*
X189750052Y-104050063D01*
X189725622Y-104069072D01*
X189713221Y-104079460D01*
X189687524Y-104103321D01*
X189679085Y-104119077D01*
X189684942Y-104133571D01*
X189688072Y-104137534D01*
X189709275Y-104154879D01*
X189744262Y-104175959D01*
X189768663Y-104188265D01*
X189837928Y-104209946D01*
X189914612Y-104216971D01*
X189987235Y-104208647D01*
X190007574Y-104202686D01*
X190070524Y-104168952D01*
X190117185Y-104117045D01*
X190147827Y-104046459D01*
X190162718Y-103956692D01*
X190164353Y-103909753D01*
X190159579Y-103841413D01*
X190039010Y-103841413D01*
X190027348Y-103846465D01*
X189996002Y-103850429D01*
X189950429Y-103852768D01*
X189919554Y-103853169D01*
X189864019Y-103852783D01*
X189828967Y-103850975D01*
X189809738Y-103846773D01*
X189801670Y-103839203D01*
X189800099Y-103828218D01*
X189810879Y-103794381D01*
X189838020Y-103760940D01*
X189873723Y-103735272D01*
X189909440Y-103724772D01*
X189957952Y-103734086D01*
X189999947Y-103761013D01*
X190029064Y-103799827D01*
X190039010Y-103841413D01*
X190159579Y-103841413D01*
X190157401Y-103810236D01*
X190135945Y-103730949D01*
X190099530Y-103671263D01*
X190047703Y-103630549D01*
X189980010Y-103608179D01*
X189943338Y-103603871D01*
X189867419Y-103604970D01*
G36*
X194438261Y-102665148D02*
G01*
X194372479Y-102694231D01*
X194322540Y-102742793D01*
X194288374Y-102810908D01*
X194269907Y-102898651D01*
X194268583Y-102912351D01*
X194267546Y-103008939D01*
X194280993Y-103093602D01*
X194308108Y-103162221D01*
X194322627Y-103184294D01*
X194373201Y-103231011D01*
X194437609Y-103261268D01*
X194509666Y-103273824D01*
X194583185Y-103267439D01*
X194639072Y-103247772D01*
X194687132Y-103214629D01*
X194726412Y-103171175D01*
X194727092Y-103170158D01*
X194743044Y-103143338D01*
X194753410Y-103116368D01*
X194759688Y-103082332D01*
X194763373Y-103034310D01*
X194764997Y-102994931D01*
X194765672Y-102959219D01*
X194639955Y-102959219D01*
X194638726Y-102994770D01*
X194634266Y-103042094D01*
X194626397Y-103072465D01*
X194612207Y-103094072D01*
X194598917Y-103106694D01*
X194551802Y-103133122D01*
X194502505Y-103136653D01*
X194456593Y-103117639D01*
X194433638Y-103096331D01*
X194417096Y-103074859D01*
X194407421Y-103054313D01*
X194403174Y-103027574D01*
X194402920Y-102987523D01*
X194404228Y-102950638D01*
X194407043Y-102897947D01*
X194411505Y-102863772D01*
X194419548Y-102841480D01*
X194433103Y-102824442D01*
X194443845Y-102814703D01*
X194488777Y-102789123D01*
X194537249Y-102787847D01*
X194577894Y-102802999D01*
X194612567Y-102834642D01*
X194633224Y-102886620D01*
X194639955Y-102959219D01*
X194765672Y-102959219D01*
X194766479Y-102916621D01*
X194763948Y-102858056D01*
X194756362Y-102814007D01*
X194742681Y-102779248D01*
X194721865Y-102748551D01*
X194714147Y-102739436D01*
X194665889Y-102694021D01*
X194614128Y-102667493D01*
X194550828Y-102656379D01*
X194519961Y-102655471D01*
X194438261Y-102665148D01*
X194438261Y-102665148D01*
G37*
X194438261Y-102665148D02*
X194372479Y-102694231D01*
X194322540Y-102742793D01*
X194288374Y-102810908D01*
X194269907Y-102898651D01*
X194268583Y-102912351D01*
X194267546Y-103008939D01*
X194280993Y-103093602D01*
X194308108Y-103162221D01*
X194322627Y-103184294D01*
X194373201Y-103231011D01*
X194437609Y-103261268D01*
X194509666Y-103273824D01*
X194583185Y-103267439D01*
X194639072Y-103247772D01*
X194687132Y-103214629D01*
X194726412Y-103171175D01*
X194727092Y-103170158D01*
X194743044Y-103143338D01*
X194753410Y-103116368D01*
X194759688Y-103082332D01*
X194763373Y-103034310D01*
X194764997Y-102994931D01*
X194765672Y-102959219D01*
X194639955Y-102959219D01*
X194638726Y-102994770D01*
X194634266Y-103042094D01*
X194626397Y-103072465D01*
X194612207Y-103094072D01*
X194598917Y-103106694D01*
X194551802Y-103133122D01*
X194502505Y-103136653D01*
X194456593Y-103117639D01*
X194433638Y-103096331D01*
X194417096Y-103074859D01*
X194407421Y-103054313D01*
X194403174Y-103027574D01*
X194402920Y-102987523D01*
X194404228Y-102950638D01*
X194407043Y-102897947D01*
X194411505Y-102863772D01*
X194419548Y-102841480D01*
X194433103Y-102824442D01*
X194443845Y-102814703D01*
X194488777Y-102789123D01*
X194537249Y-102787847D01*
X194577894Y-102802999D01*
X194612567Y-102834642D01*
X194633224Y-102886620D01*
X194639955Y-102959219D01*
X194765672Y-102959219D01*
X194766479Y-102916621D01*
X194763948Y-102858056D01*
X194756362Y-102814007D01*
X194742681Y-102779248D01*
X194721865Y-102748551D01*
X194714147Y-102739436D01*
X194665889Y-102694021D01*
X194614128Y-102667493D01*
X194550828Y-102656379D01*
X194519961Y-102655471D01*
X194438261Y-102665148D01*
G36*
X193256699Y-102672614D02*
G01*
X193244168Y-102678514D01*
X193200799Y-102710283D01*
X193159790Y-102756646D01*
X193129168Y-102807696D01*
X193120459Y-102831166D01*
X193112512Y-102873091D01*
X193107774Y-102923757D01*
X193107199Y-102944679D01*
X193107129Y-103010693D01*
X193487083Y-103010693D01*
X193478983Y-103045273D01*
X193459104Y-103086170D01*
X193424347Y-103121514D01*
X193382998Y-103144282D01*
X193356649Y-103149010D01*
X193320916Y-103143273D01*
X193278282Y-103128882D01*
X193263799Y-103122262D01*
X193210240Y-103095513D01*
X193164533Y-103130376D01*
X193138158Y-103153955D01*
X193124124Y-103173417D01*
X193123414Y-103179129D01*
X193135951Y-103192973D01*
X193163428Y-103214012D01*
X193188366Y-103230425D01*
X193255664Y-103259930D01*
X193331110Y-103273284D01*
X193405888Y-103269812D01*
X193465495Y-103251663D01*
X193526941Y-103212784D01*
X193570608Y-103161595D01*
X193597926Y-103095367D01*
X193610322Y-103011371D01*
X193611421Y-102972936D01*
X193607022Y-102884861D01*
X193606482Y-102882299D01*
X193480582Y-102882299D01*
X193477115Y-102890558D01*
X193462863Y-102895113D01*
X193433470Y-102897065D01*
X193384575Y-102897517D01*
X193365748Y-102897525D01*
X193308467Y-102896843D01*
X193272141Y-102894364D01*
X193252604Y-102889443D01*
X193245690Y-102881434D01*
X193245445Y-102878862D01*
X193253336Y-102858423D01*
X193273085Y-102829789D01*
X193281575Y-102819763D01*
X193313094Y-102791408D01*
X193345949Y-102780259D01*
X193363651Y-102779327D01*
X193411539Y-102790981D01*
X193451699Y-102822285D01*
X193477173Y-102867752D01*
X193477625Y-102869233D01*
X193480582Y-102882299D01*
X193606482Y-102882299D01*
X193592392Y-102815510D01*
X193566038Y-102760025D01*
X193533807Y-102720639D01*
X193474217Y-102677931D01*
X193404168Y-102655109D01*
X193329661Y-102653046D01*
X193256699Y-102672614D01*
X193256699Y-102672614D01*
G37*
X193256699Y-102672614D02*
X193244168Y-102678514D01*
X193200799Y-102710283D01*
X193159790Y-102756646D01*
X193129168Y-102807696D01*
X193120459Y-102831166D01*
X193112512Y-102873091D01*
X193107774Y-102923757D01*
X193107199Y-102944679D01*
X193107129Y-103010693D01*
X193487083Y-103010693D01*
X193478983Y-103045273D01*
X193459104Y-103086170D01*
X193424347Y-103121514D01*
X193382998Y-103144282D01*
X193356649Y-103149010D01*
X193320916Y-103143273D01*
X193278282Y-103128882D01*
X193263799Y-103122262D01*
X193210240Y-103095513D01*
X193164533Y-103130376D01*
X193138158Y-103153955D01*
X193124124Y-103173417D01*
X193123414Y-103179129D01*
X193135951Y-103192973D01*
X193163428Y-103214012D01*
X193188366Y-103230425D01*
X193255664Y-103259930D01*
X193331110Y-103273284D01*
X193405888Y-103269812D01*
X193465495Y-103251663D01*
X193526941Y-103212784D01*
X193570608Y-103161595D01*
X193597926Y-103095367D01*
X193610322Y-103011371D01*
X193611421Y-102972936D01*
X193607022Y-102884861D01*
X193606482Y-102882299D01*
X193480582Y-102882299D01*
X193477115Y-102890558D01*
X193462863Y-102895113D01*
X193433470Y-102897065D01*
X193384575Y-102897517D01*
X193365748Y-102897525D01*
X193308467Y-102896843D01*
X193272141Y-102894364D01*
X193252604Y-102889443D01*
X193245690Y-102881434D01*
X193245445Y-102878862D01*
X193253336Y-102858423D01*
X193273085Y-102829789D01*
X193281575Y-102819763D01*
X193313094Y-102791408D01*
X193345949Y-102780259D01*
X193363651Y-102779327D01*
X193411539Y-102790981D01*
X193451699Y-102822285D01*
X193477173Y-102867752D01*
X193477625Y-102869233D01*
X193480582Y-102882299D01*
X193606482Y-102882299D01*
X193592392Y-102815510D01*
X193566038Y-102760025D01*
X193533807Y-102720639D01*
X193474217Y-102677931D01*
X193404168Y-102655109D01*
X193329661Y-102653046D01*
X193256699Y-102672614D01*
G36*
X191885983Y-102656452D02*
G01*
X191838366Y-102665482D01*
X191788966Y-102684370D01*
X191783688Y-102686777D01*
X191746226Y-102706476D01*
X191720283Y-102724781D01*
X191711897Y-102736508D01*
X191719883Y-102755632D01*
X191739280Y-102783850D01*
X191747890Y-102794384D01*
X191783372Y-102835847D01*
X191829115Y-102808858D01*
X191872650Y-102790878D01*
X191922950Y-102781267D01*
X191971188Y-102780660D01*
X192008533Y-102789691D01*
X192017495Y-102795327D01*
X192034563Y-102821171D01*
X192036637Y-102850941D01*
X192023866Y-102874197D01*
X192016312Y-102878708D01*
X191993675Y-102884309D01*
X191953885Y-102890892D01*
X191904834Y-102897183D01*
X191895785Y-102898170D01*
X191817004Y-102911798D01*
X191759864Y-102934946D01*
X191721970Y-102969752D01*
X191700921Y-103018354D01*
X191694365Y-103077718D01*
X191703423Y-103145198D01*
X191732836Y-103198188D01*
X191782722Y-103236783D01*
X191853200Y-103261081D01*
X191931435Y-103270667D01*
X191995234Y-103270552D01*
X192046984Y-103261845D01*
X192082327Y-103249825D01*
X192126983Y-103228880D01*
X192168253Y-103204574D01*
X192182921Y-103193876D01*
X192220643Y-103163084D01*
X192175148Y-103117049D01*
X192129653Y-103071013D01*
X192077928Y-103105243D01*
X192026048Y-103130952D01*
X191970649Y-103144399D01*
X191917395Y-103145818D01*
X191871951Y-103135443D01*
X191839984Y-103113507D01*
X191829662Y-103094998D01*
X191831211Y-103065314D01*
X191856860Y-103042615D01*
X191906540Y-103026940D01*
X191960969Y-103019695D01*
X192044736Y-103005873D01*
X192106967Y-102979796D01*
X192148493Y-102940699D01*
X192170147Y-102887820D01*
X192173147Y-102825126D01*
X192158329Y-102759642D01*
X192124546Y-102710144D01*
X192071495Y-102676408D01*
X191998874Y-102658207D01*
X191945072Y-102654639D01*
X191885983Y-102656452D01*
X191885983Y-102656452D01*
G37*
X191885983Y-102656452D02*
X191838366Y-102665482D01*
X191788966Y-102684370D01*
X191783688Y-102686777D01*
X191746226Y-102706476D01*
X191720283Y-102724781D01*
X191711897Y-102736508D01*
X191719883Y-102755632D01*
X191739280Y-102783850D01*
X191747890Y-102794384D01*
X191783372Y-102835847D01*
X191829115Y-102808858D01*
X191872650Y-102790878D01*
X191922950Y-102781267D01*
X191971188Y-102780660D01*
X192008533Y-102789691D01*
X192017495Y-102795327D01*
X192034563Y-102821171D01*
X192036637Y-102850941D01*
X192023866Y-102874197D01*
X192016312Y-102878708D01*
X191993675Y-102884309D01*
X191953885Y-102890892D01*
X191904834Y-102897183D01*
X191895785Y-102898170D01*
X191817004Y-102911798D01*
X191759864Y-102934946D01*
X191721970Y-102969752D01*
X191700921Y-103018354D01*
X191694365Y-103077718D01*
X191703423Y-103145198D01*
X191732836Y-103198188D01*
X191782722Y-103236783D01*
X191853200Y-103261081D01*
X191931435Y-103270667D01*
X191995234Y-103270552D01*
X192046984Y-103261845D01*
X192082327Y-103249825D01*
X192126983Y-103228880D01*
X192168253Y-103204574D01*
X192182921Y-103193876D01*
X192220643Y-103163084D01*
X192175148Y-103117049D01*
X192129653Y-103071013D01*
X192077928Y-103105243D01*
X192026048Y-103130952D01*
X191970649Y-103144399D01*
X191917395Y-103145818D01*
X191871951Y-103135443D01*
X191839984Y-103113507D01*
X191829662Y-103094998D01*
X191831211Y-103065314D01*
X191856860Y-103042615D01*
X191906540Y-103026940D01*
X191960969Y-103019695D01*
X192044736Y-103005873D01*
X192106967Y-102979796D01*
X192148493Y-102940699D01*
X192170147Y-102887820D01*
X192173147Y-102825126D01*
X192158329Y-102759642D01*
X192124546Y-102710144D01*
X192071495Y-102676408D01*
X191998874Y-102658207D01*
X191945072Y-102654639D01*
X191885983Y-102656452D01*
G36*
X191289238Y-102666055D02*
G01*
X191225637Y-102700692D01*
X191175877Y-102755372D01*
X191152432Y-102799842D01*
X191142366Y-102839121D01*
X191135844Y-102895116D01*
X191133049Y-102959621D01*
X191134164Y-103024429D01*
X191139374Y-103081334D01*
X191145459Y-103111727D01*
X191165986Y-103153306D01*
X191201537Y-103197468D01*
X191244381Y-103236087D01*
X191286789Y-103261034D01*
X191287823Y-103261430D01*
X191340447Y-103272331D01*
X191402812Y-103272601D01*
X191462076Y-103262676D01*
X191484960Y-103254722D01*
X191543898Y-103221300D01*
X191586110Y-103177511D01*
X191613844Y-103119538D01*
X191629349Y-103043565D01*
X191632857Y-103003771D01*
X191632410Y-102953766D01*
X191497624Y-102953766D01*
X191493083Y-103026732D01*
X191480014Y-103082334D01*
X191459244Y-103117861D01*
X191444448Y-103128020D01*
X191406536Y-103135104D01*
X191361473Y-103133007D01*
X191322513Y-103122812D01*
X191312296Y-103117204D01*
X191285341Y-103084538D01*
X191267549Y-103034545D01*
X191259976Y-102973705D01*
X191263675Y-102908497D01*
X191271943Y-102869253D01*
X191295680Y-102823805D01*
X191333151Y-102795396D01*
X191378280Y-102785573D01*
X191424989Y-102795887D01*
X191460868Y-102821112D01*
X191479723Y-102841925D01*
X191490728Y-102862439D01*
X191495974Y-102890203D01*
X191497551Y-102932762D01*
X191497624Y-102953766D01*
X191632410Y-102953766D01*
X191631906Y-102897580D01*
X191614612Y-102810501D01*
X191580971Y-102742530D01*
X191530982Y-102693664D01*
X191464644Y-102663899D01*
X191450399Y-102660448D01*
X191364790Y-102652345D01*
X191289238Y-102666055D01*
X191289238Y-102666055D01*
G37*
X191289238Y-102666055D02*
X191225637Y-102700692D01*
X191175877Y-102755372D01*
X191152432Y-102799842D01*
X191142366Y-102839121D01*
X191135844Y-102895116D01*
X191133049Y-102959621D01*
X191134164Y-103024429D01*
X191139374Y-103081334D01*
X191145459Y-103111727D01*
X191165986Y-103153306D01*
X191201537Y-103197468D01*
X191244381Y-103236087D01*
X191286789Y-103261034D01*
X191287823Y-103261430D01*
X191340447Y-103272331D01*
X191402812Y-103272601D01*
X191462076Y-103262676D01*
X191484960Y-103254722D01*
X191543898Y-103221300D01*
X191586110Y-103177511D01*
X191613844Y-103119538D01*
X191629349Y-103043565D01*
X191632857Y-103003771D01*
X191632410Y-102953766D01*
X191497624Y-102953766D01*
X191493083Y-103026732D01*
X191480014Y-103082334D01*
X191459244Y-103117861D01*
X191444448Y-103128020D01*
X191406536Y-103135104D01*
X191361473Y-103133007D01*
X191322513Y-103122812D01*
X191312296Y-103117204D01*
X191285341Y-103084538D01*
X191267549Y-103034545D01*
X191259976Y-102973705D01*
X191263675Y-102908497D01*
X191271943Y-102869253D01*
X191295680Y-102823805D01*
X191333151Y-102795396D01*
X191378280Y-102785573D01*
X191424989Y-102795887D01*
X191460868Y-102821112D01*
X191479723Y-102841925D01*
X191490728Y-102862439D01*
X191495974Y-102890203D01*
X191497551Y-102932762D01*
X191497624Y-102953766D01*
X191632410Y-102953766D01*
X191631906Y-102897580D01*
X191614612Y-102810501D01*
X191580971Y-102742530D01*
X191530982Y-102693664D01*
X191464644Y-102663899D01*
X191450399Y-102660448D01*
X191364790Y-102652345D01*
X191289238Y-102666055D01*
G36*
X190906633Y-102854342D02*
G01*
X190905445Y-102946563D01*
X190901103Y-103016610D01*
X190892442Y-103067381D01*
X190878296Y-103101772D01*
X190857500Y-103122679D01*
X190828890Y-103133000D01*
X190793465Y-103135636D01*
X190756364Y-103132682D01*
X190728182Y-103121889D01*
X190707757Y-103100360D01*
X190693921Y-103065199D01*
X190685509Y-103013510D01*
X190681357Y-102942394D01*
X190680297Y-102854342D01*
X190680297Y-102658614D01*
X190541980Y-102658614D01*
X190541980Y-103262179D01*
X190611138Y-103262179D01*
X190652830Y-103260489D01*
X190674299Y-103254556D01*
X190680297Y-103243293D01*
X190683909Y-103233261D01*
X190698286Y-103235383D01*
X190727264Y-103249580D01*
X190793681Y-103271480D01*
X190864125Y-103269928D01*
X190931623Y-103246147D01*
X190963767Y-103227362D01*
X190988285Y-103207022D01*
X191006196Y-103181573D01*
X191018521Y-103147458D01*
X191026277Y-103101121D01*
X191030484Y-103039007D01*
X191032160Y-102957561D01*
X191032376Y-102894578D01*
X191032376Y-102658614D01*
X190906633Y-102658614D01*
X190906633Y-102854342D01*
X190906633Y-102854342D01*
G37*
X190906633Y-102854342D02*
X190905445Y-102946563D01*
X190901103Y-103016610D01*
X190892442Y-103067381D01*
X190878296Y-103101772D01*
X190857500Y-103122679D01*
X190828890Y-103133000D01*
X190793465Y-103135636D01*
X190756364Y-103132682D01*
X190728182Y-103121889D01*
X190707757Y-103100360D01*
X190693921Y-103065199D01*
X190685509Y-103013510D01*
X190681357Y-102942394D01*
X190680297Y-102854342D01*
X190680297Y-102658614D01*
X190541980Y-102658614D01*
X190541980Y-103262179D01*
X190611138Y-103262179D01*
X190652830Y-103260489D01*
X190674299Y-103254556D01*
X190680297Y-103243293D01*
X190683909Y-103233261D01*
X190698286Y-103235383D01*
X190727264Y-103249580D01*
X190793681Y-103271480D01*
X190864125Y-103269928D01*
X190931623Y-103246147D01*
X190963767Y-103227362D01*
X190988285Y-103207022D01*
X191006196Y-103181573D01*
X191018521Y-103147458D01*
X191026277Y-103101121D01*
X191030484Y-103039007D01*
X191032160Y-102957561D01*
X191032376Y-102894578D01*
X191032376Y-102658614D01*
X190906633Y-102658614D01*
X190906633Y-102854342D01*
G36*
X189682774Y-102663880D02*
G01*
X189609920Y-102694830D01*
X189586973Y-102709895D01*
X189557646Y-102733048D01*
X189539236Y-102751253D01*
X189536039Y-102757183D01*
X189545065Y-102770340D01*
X189568163Y-102792667D01*
X189586656Y-102808250D01*
X189637272Y-102848926D01*
X189677240Y-102815295D01*
X189708126Y-102793584D01*
X189738241Y-102786090D01*
X189772708Y-102787920D01*
X189827439Y-102801528D01*
X189865114Y-102829772D01*
X189888009Y-102875433D01*
X189898403Y-102941289D01*
X189898405Y-102941331D01*
X189897506Y-103014939D01*
X189883537Y-103068946D01*
X189855672Y-103105716D01*
X189836675Y-103118168D01*
X189786224Y-103133673D01*
X189732337Y-103133683D01*
X189685454Y-103118638D01*
X189674356Y-103111287D01*
X189646524Y-103092511D01*
X189624764Y-103089434D01*
X189601296Y-103103409D01*
X189575351Y-103128510D01*
X189534284Y-103170880D01*
X189579879Y-103208464D01*
X189650326Y-103250882D01*
X189729767Y-103271785D01*
X189812785Y-103270272D01*
X189867306Y-103256411D01*
X189931030Y-103222135D01*
X189981995Y-103168212D01*
X190005149Y-103130149D01*
X190023901Y-103075536D01*
X190033285Y-103006369D01*
X190033357Y-102931407D01*
X190024176Y-102859409D01*
X190005801Y-102799137D01*
X190002907Y-102792958D01*
X189960048Y-102732351D01*
X189902021Y-102688224D01*
X189833409Y-102661493D01*
X189758799Y-102653073D01*
X189682774Y-102663880D01*
X189682774Y-102663880D01*
G37*
X189682774Y-102663880D02*
X189609920Y-102694830D01*
X189586973Y-102709895D01*
X189557646Y-102733048D01*
X189539236Y-102751253D01*
X189536039Y-102757183D01*
X189545065Y-102770340D01*
X189568163Y-102792667D01*
X189586656Y-102808250D01*
X189637272Y-102848926D01*
X189677240Y-102815295D01*
X189708126Y-102793584D01*
X189738241Y-102786090D01*
X189772708Y-102787920D01*
X189827439Y-102801528D01*
X189865114Y-102829772D01*
X189888009Y-102875433D01*
X189898403Y-102941289D01*
X189898405Y-102941331D01*
X189897506Y-103014939D01*
X189883537Y-103068946D01*
X189855672Y-103105716D01*
X189836675Y-103118168D01*
X189786224Y-103133673D01*
X189732337Y-103133683D01*
X189685454Y-103118638D01*
X189674356Y-103111287D01*
X189646524Y-103092511D01*
X189624764Y-103089434D01*
X189601296Y-103103409D01*
X189575351Y-103128510D01*
X189534284Y-103170880D01*
X189579879Y-103208464D01*
X189650326Y-103250882D01*
X189729767Y-103271785D01*
X189812785Y-103270272D01*
X189867306Y-103256411D01*
X189931030Y-103222135D01*
X189981995Y-103168212D01*
X190005149Y-103130149D01*
X190023901Y-103075536D01*
X190033285Y-103006369D01*
X190033357Y-102931407D01*
X190024176Y-102859409D01*
X190005801Y-102799137D01*
X190002907Y-102792958D01*
X189960048Y-102732351D01*
X189902021Y-102688224D01*
X189833409Y-102661493D01*
X189758799Y-102653073D01*
X189682774Y-102663880D01*
G36*
X189222102Y-102656457D02*
G01*
X189189904Y-102664279D01*
X189128175Y-102692921D01*
X189075390Y-102736667D01*
X189038859Y-102789117D01*
X189033840Y-102800893D01*
X189026955Y-102831740D01*
X189022136Y-102877371D01*
X189020495Y-102923492D01*
X189020495Y-103010693D01*
X189202822Y-103010693D01*
X189278021Y-103010978D01*
X189330997Y-103012704D01*
X189364675Y-103017181D01*
X189381980Y-103025720D01*
X189385837Y-103039630D01*
X189379171Y-103060222D01*
X189367230Y-103084315D01*
X189333920Y-103124525D01*
X189287632Y-103144558D01*
X189231056Y-103143905D01*
X189166969Y-103122101D01*
X189111583Y-103095193D01*
X189065625Y-103131532D01*
X189019667Y-103167872D01*
X189062904Y-103207819D01*
X189120626Y-103245563D01*
X189191614Y-103268320D01*
X189267971Y-103274688D01*
X189341801Y-103263268D01*
X189353713Y-103259393D01*
X189418601Y-103225506D01*
X189466870Y-103174986D01*
X189499535Y-103106325D01*
X189517615Y-103018014D01*
X189517825Y-103016121D01*
X189519444Y-102919878D01*
X189512900Y-102885542D01*
X189385148Y-102885542D01*
X189373416Y-102890822D01*
X189341562Y-102894867D01*
X189294603Y-102897176D01*
X189264846Y-102897525D01*
X189209352Y-102897306D01*
X189174654Y-102895916D01*
X189156399Y-102892251D01*
X189150234Y-102885210D01*
X189151805Y-102873690D01*
X189153122Y-102869233D01*
X189175618Y-102827355D01*
X189210997Y-102793604D01*
X189242220Y-102778773D01*
X189283699Y-102779668D01*
X189325731Y-102798164D01*
X189360988Y-102828786D01*
X189382146Y-102866062D01*
X189385148Y-102885542D01*
X189512900Y-102885542D01*
X189503310Y-102835229D01*
X189471302Y-102764191D01*
X189425299Y-102708779D01*
X189367179Y-102671009D01*
X189298820Y-102652896D01*
X189222102Y-102656457D01*
X189222102Y-102656457D01*
G37*
X189222102Y-102656457D02*
X189189904Y-102664279D01*
X189128175Y-102692921D01*
X189075390Y-102736667D01*
X189038859Y-102789117D01*
X189033840Y-102800893D01*
X189026955Y-102831740D01*
X189022136Y-102877371D01*
X189020495Y-102923492D01*
X189020495Y-103010693D01*
X189202822Y-103010693D01*
X189278021Y-103010978D01*
X189330997Y-103012704D01*
X189364675Y-103017181D01*
X189381980Y-103025720D01*
X189385837Y-103039630D01*
X189379171Y-103060222D01*
X189367230Y-103084315D01*
X189333920Y-103124525D01*
X189287632Y-103144558D01*
X189231056Y-103143905D01*
X189166969Y-103122101D01*
X189111583Y-103095193D01*
X189065625Y-103131532D01*
X189019667Y-103167872D01*
X189062904Y-103207819D01*
X189120626Y-103245563D01*
X189191614Y-103268320D01*
X189267971Y-103274688D01*
X189341801Y-103263268D01*
X189353713Y-103259393D01*
X189418601Y-103225506D01*
X189466870Y-103174986D01*
X189499535Y-103106325D01*
X189517615Y-103018014D01*
X189517825Y-103016121D01*
X189519444Y-102919878D01*
X189512900Y-102885542D01*
X189385148Y-102885542D01*
X189373416Y-102890822D01*
X189341562Y-102894867D01*
X189294603Y-102897176D01*
X189264846Y-102897525D01*
X189209352Y-102897306D01*
X189174654Y-102895916D01*
X189156399Y-102892251D01*
X189150234Y-102885210D01*
X189151805Y-102873690D01*
X189153122Y-102869233D01*
X189175618Y-102827355D01*
X189210997Y-102793604D01*
X189242220Y-102778773D01*
X189283699Y-102779668D01*
X189325731Y-102798164D01*
X189360988Y-102828786D01*
X189382146Y-102866062D01*
X189385148Y-102885542D01*
X189512900Y-102885542D01*
X189503310Y-102835229D01*
X189471302Y-102764191D01*
X189425299Y-102708779D01*
X189367179Y-102671009D01*
X189298820Y-102652896D01*
X189222102Y-102656457D01*
G36*
X192654012Y-102669002D02*
G01*
X192622717Y-102683950D01*
X192592409Y-102705541D01*
X192569318Y-102730391D01*
X192552500Y-102762087D01*
X192541006Y-102804214D01*
X192533891Y-102860358D01*
X192530207Y-102934106D01*
X192529008Y-103029044D01*
X192528989Y-103038985D01*
X192528713Y-103262179D01*
X192667030Y-103262179D01*
X192667030Y-103056418D01*
X192667128Y-102980189D01*
X192667809Y-102924939D01*
X192669651Y-102886501D01*
X192673233Y-102860706D01*
X192679132Y-102843384D01*
X192687927Y-102830368D01*
X192700180Y-102817507D01*
X192743047Y-102789873D01*
X192789843Y-102784745D01*
X192834424Y-102802217D01*
X192849928Y-102815221D01*
X192861310Y-102827447D01*
X192869481Y-102840540D01*
X192874974Y-102858615D01*
X192878320Y-102885787D01*
X192880051Y-102926170D01*
X192880697Y-102983879D01*
X192880792Y-103054132D01*
X192880792Y-103262179D01*
X193019109Y-103262179D01*
X193019109Y-102658614D01*
X192949950Y-102658614D01*
X192908428Y-102660256D01*
X192887006Y-102666087D01*
X192880795Y-102677461D01*
X192880792Y-102677798D01*
X192877910Y-102688938D01*
X192865199Y-102687674D01*
X192839926Y-102675434D01*
X192782605Y-102657424D01*
X192717037Y-102655421D01*
X192654012Y-102669002D01*
X192654012Y-102669002D01*
G37*
X192654012Y-102669002D02*
X192622717Y-102683950D01*
X192592409Y-102705541D01*
X192569318Y-102730391D01*
X192552500Y-102762087D01*
X192541006Y-102804214D01*
X192533891Y-102860358D01*
X192530207Y-102934106D01*
X192529008Y-103029044D01*
X192528989Y-103038985D01*
X192528713Y-103262179D01*
X192667030Y-103262179D01*
X192667030Y-103056418D01*
X192667128Y-102980189D01*
X192667809Y-102924939D01*
X192669651Y-102886501D01*
X192673233Y-102860706D01*
X192679132Y-102843384D01*
X192687927Y-102830368D01*
X192700180Y-102817507D01*
X192743047Y-102789873D01*
X192789843Y-102784745D01*
X192834424Y-102802217D01*
X192849928Y-102815221D01*
X192861310Y-102827447D01*
X192869481Y-102840540D01*
X192874974Y-102858615D01*
X192878320Y-102885787D01*
X192880051Y-102926170D01*
X192880697Y-102983879D01*
X192880792Y-103054132D01*
X192880792Y-103262179D01*
X193019109Y-103262179D01*
X193019109Y-102658614D01*
X192949950Y-102658614D01*
X192908428Y-102660256D01*
X192887006Y-102666087D01*
X192880795Y-102677461D01*
X192880792Y-102677798D01*
X192877910Y-102688938D01*
X192865199Y-102687674D01*
X192839926Y-102675434D01*
X192782605Y-102657424D01*
X192717037Y-102655421D01*
X192654012Y-102669002D01*
G36*
X190100540Y-102658030D02*
G01*
X190057289Y-102671245D01*
X190029442Y-102687941D01*
X190020371Y-102701145D01*
X190022868Y-102716797D01*
X190039069Y-102741385D01*
X190052768Y-102758800D01*
X190081008Y-102790283D01*
X190102225Y-102803529D01*
X190120312Y-102802664D01*
X190173965Y-102789010D01*
X190213370Y-102789630D01*
X190245368Y-102805104D01*
X190256110Y-102814161D01*
X190290495Y-102846027D01*
X190290495Y-103262179D01*
X190428812Y-103262179D01*
X190428812Y-102658614D01*
X190359653Y-102658614D01*
X190318131Y-102660256D01*
X190296709Y-102666087D01*
X190290498Y-102677461D01*
X190290495Y-102677798D01*
X190287561Y-102689713D01*
X190274296Y-102688159D01*
X190255916Y-102679563D01*
X190217954Y-102663568D01*
X190187128Y-102653945D01*
X190147464Y-102651478D01*
X190100540Y-102658030D01*
X190100540Y-102658030D01*
G37*
X190100540Y-102658030D02*
X190057289Y-102671245D01*
X190029442Y-102687941D01*
X190020371Y-102701145D01*
X190022868Y-102716797D01*
X190039069Y-102741385D01*
X190052768Y-102758800D01*
X190081008Y-102790283D01*
X190102225Y-102803529D01*
X190120312Y-102802664D01*
X190173965Y-102789010D01*
X190213370Y-102789630D01*
X190245368Y-102805104D01*
X190256110Y-102814161D01*
X190290495Y-102846027D01*
X190290495Y-103262179D01*
X190428812Y-103262179D01*
X190428812Y-102658614D01*
X190359653Y-102658614D01*
X190318131Y-102660256D01*
X190296709Y-102666087D01*
X190290498Y-102677461D01*
X190290495Y-102677798D01*
X190287561Y-102689713D01*
X190274296Y-102688159D01*
X190255916Y-102679563D01*
X190217954Y-102663568D01*
X190187128Y-102653945D01*
X190147464Y-102651478D01*
X190100540Y-102658030D01*
D12*
X222700000Y-93000000D03*
D13*
X225240000Y-90460000D03*
X225240000Y-95540000D03*
X220160000Y-90460000D03*
X220160000Y-95540000D03*
D14*
X243300000Y-101000000D03*
X185900000Y-101000000D03*
D15*
G36*
X238397358Y-104911759D02*
G01*
X238634411Y-104946922D01*
X238866875Y-105005152D01*
X239092513Y-105085886D01*
X239309151Y-105188348D01*
X239514703Y-105311551D01*
X239707188Y-105454308D01*
X239884755Y-105615245D01*
X240045692Y-105792812D01*
X240188449Y-105985297D01*
X240311652Y-106190849D01*
X240414114Y-106407487D01*
X240494848Y-106633125D01*
X240553078Y-106865589D01*
X240588241Y-107102642D01*
X240600000Y-107342000D01*
X240600000Y-121458000D01*
X240588241Y-121697358D01*
X240553078Y-121934411D01*
X240494848Y-122166875D01*
X240414114Y-122392513D01*
X240311652Y-122609151D01*
X240188449Y-122814703D01*
X240045692Y-123007188D01*
X239884755Y-123184755D01*
X239707188Y-123345692D01*
X239514703Y-123488449D01*
X239309151Y-123611652D01*
X239092513Y-123714114D01*
X238866875Y-123794848D01*
X238634411Y-123853078D01*
X238397358Y-123888241D01*
X238158000Y-123900000D01*
X232042000Y-123900000D01*
X231802642Y-123888241D01*
X231565589Y-123853078D01*
X231333125Y-123794848D01*
X231107487Y-123714114D01*
X230890849Y-123611652D01*
X230685297Y-123488449D01*
X230492812Y-123345692D01*
X230315245Y-123184755D01*
X230154308Y-123007188D01*
X230011551Y-122814703D01*
X229888348Y-122609151D01*
X229785886Y-122392513D01*
X229705152Y-122166875D01*
X229646922Y-121934411D01*
X229611759Y-121697358D01*
X229600000Y-121458000D01*
X229600000Y-107342000D01*
X229611759Y-107102642D01*
X229646922Y-106865589D01*
X229705152Y-106633125D01*
X229785886Y-106407487D01*
X229888348Y-106190849D01*
X230011551Y-105985297D01*
X230154308Y-105792812D01*
X230315245Y-105615245D01*
X230492812Y-105454308D01*
X230685297Y-105311551D01*
X230890849Y-105188348D01*
X231107487Y-105085886D01*
X231333125Y-105005152D01*
X231565589Y-104946922D01*
X231802642Y-104911759D01*
X232042000Y-104900000D01*
X238158000Y-104900000D01*
X238397358Y-104911759D01*
X238397358Y-104911759D01*
G37*
D16*
X235100000Y-114400000D03*
D15*
G36*
X218896757Y-104914431D02*
G01*
X219187686Y-104957587D01*
X219472983Y-105029050D01*
X219749902Y-105128133D01*
X220015776Y-105253882D01*
X220268044Y-105405086D01*
X220504277Y-105580288D01*
X220722199Y-105777801D01*
X220919712Y-105995723D01*
X221094914Y-106231956D01*
X221246118Y-106484224D01*
X221371867Y-106750098D01*
X221470950Y-107027017D01*
X221542413Y-107312314D01*
X221585569Y-107603243D01*
X221600000Y-107897000D01*
X221600000Y-120903000D01*
X221585569Y-121196757D01*
X221542413Y-121487686D01*
X221470950Y-121772983D01*
X221371867Y-122049902D01*
X221246118Y-122315776D01*
X221094914Y-122568044D01*
X220919712Y-122804277D01*
X220722199Y-123022199D01*
X220504277Y-123219712D01*
X220268044Y-123394914D01*
X220015776Y-123546118D01*
X219749902Y-123671867D01*
X219472983Y-123770950D01*
X219187686Y-123842413D01*
X218896757Y-123885569D01*
X218603000Y-123900000D01*
X211097000Y-123900000D01*
X210803243Y-123885569D01*
X210512314Y-123842413D01*
X210227017Y-123770950D01*
X209950098Y-123671867D01*
X209684224Y-123546118D01*
X209431956Y-123394914D01*
X209195723Y-123219712D01*
X208977801Y-123022199D01*
X208780288Y-122804277D01*
X208605086Y-122568044D01*
X208453882Y-122315776D01*
X208328133Y-122049902D01*
X208229050Y-121772983D01*
X208157587Y-121487686D01*
X208114431Y-121196757D01*
X208100000Y-120903000D01*
X208100000Y-107897000D01*
X208114431Y-107603243D01*
X208157587Y-107312314D01*
X208229050Y-107027017D01*
X208328133Y-106750098D01*
X208453882Y-106484224D01*
X208605086Y-106231956D01*
X208780288Y-105995723D01*
X208977801Y-105777801D01*
X209195723Y-105580288D01*
X209431956Y-105405086D01*
X209684224Y-105253882D01*
X209950098Y-105128133D01*
X210227017Y-105029050D01*
X210512314Y-104957587D01*
X210803243Y-104914431D01*
X211097000Y-104900000D01*
X218603000Y-104900000D01*
X218896757Y-104914431D01*
X218896757Y-104914431D01*
G37*
D17*
X214850000Y-114400000D03*
D15*
G36*
X199396757Y-104914431D02*
G01*
X199687686Y-104957587D01*
X199972983Y-105029050D01*
X200249902Y-105128133D01*
X200515776Y-105253882D01*
X200768044Y-105405086D01*
X201004277Y-105580288D01*
X201222199Y-105777801D01*
X201419712Y-105995723D01*
X201594914Y-106231956D01*
X201746118Y-106484224D01*
X201871867Y-106750098D01*
X201970950Y-107027017D01*
X202042413Y-107312314D01*
X202085569Y-107603243D01*
X202100000Y-107897000D01*
X202100000Y-120903000D01*
X202085569Y-121196757D01*
X202042413Y-121487686D01*
X201970950Y-121772983D01*
X201871867Y-122049902D01*
X201746118Y-122315776D01*
X201594914Y-122568044D01*
X201419712Y-122804277D01*
X201222199Y-123022199D01*
X201004277Y-123219712D01*
X200768044Y-123394914D01*
X200515776Y-123546118D01*
X200249902Y-123671867D01*
X199972983Y-123770950D01*
X199687686Y-123842413D01*
X199396757Y-123885569D01*
X199103000Y-123900000D01*
X191597000Y-123900000D01*
X191303243Y-123885569D01*
X191012314Y-123842413D01*
X190727017Y-123770950D01*
X190450098Y-123671867D01*
X190184224Y-123546118D01*
X189931956Y-123394914D01*
X189695723Y-123219712D01*
X189477801Y-123022199D01*
X189280288Y-122804277D01*
X189105086Y-122568044D01*
X188953882Y-122315776D01*
X188828133Y-122049902D01*
X188729050Y-121772983D01*
X188657587Y-121487686D01*
X188614431Y-121196757D01*
X188600000Y-120903000D01*
X188600000Y-107897000D01*
X188614431Y-107603243D01*
X188657587Y-107312314D01*
X188729050Y-107027017D01*
X188828133Y-106750098D01*
X188953882Y-106484224D01*
X189105086Y-106231956D01*
X189280288Y-105995723D01*
X189477801Y-105777801D01*
X189695723Y-105580288D01*
X189931956Y-105405086D01*
X190184224Y-105253882D01*
X190450098Y-105128133D01*
X190727017Y-105029050D01*
X191012314Y-104957587D01*
X191303243Y-104914431D01*
X191597000Y-104900000D01*
X199103000Y-104900000D01*
X199396757Y-104914431D01*
X199396757Y-104914431D01*
G37*
D17*
X195350000Y-114400000D03*
D18*
X231300000Y-95700000D03*
X197693000Y-98125000D03*
X195400000Y-93000000D03*
D13*
X203760000Y-95540000D03*
X203760000Y-90460000D03*
X208840000Y-95540000D03*
X208840000Y-90460000D03*
D12*
X206300000Y-93000000D03*
D18*
X199900000Y-93000000D03*
D12*
X189000000Y-93000000D03*
D13*
X191540000Y-90460000D03*
X191540000Y-95540000D03*
X186460000Y-90460000D03*
X186460000Y-95540000D03*
D18*
X229100000Y-91200000D03*
D13*
X237460000Y-95540000D03*
X237460000Y-90460000D03*
X242540000Y-95540000D03*
X242540000Y-90460000D03*
D12*
X240000000Y-93000000D03*
D18*
X233634000Y-91200000D03*
D19*
X213000000Y-85000000D03*
X214500000Y-85000000D03*
X216000000Y-85000000D03*
X217500000Y-85000000D03*
X219000000Y-85000000D03*
D20*
X233000000Y-100500000D03*
X234000000Y-100500000D03*
X235000000Y-100500000D03*
X236000000Y-100500000D03*
X237000000Y-100500000D03*
X238000000Y-100500000D03*
X239000000Y-100500000D03*
X232000000Y-101700000D03*
X233000000Y-101700000D03*
X234000000Y-101700000D03*
X235000000Y-101700000D03*
X236000000Y-101700000D03*
X237000000Y-101700000D03*
X238000000Y-101700000D03*
X239000000Y-101700000D03*
X232000000Y-102900000D03*
X233000000Y-102900000D03*
X234000000Y-102900000D03*
X235000000Y-102900000D03*
X236000000Y-102900000D03*
X237000000Y-102900000D03*
X238000000Y-102900000D03*
X239000000Y-102900000D03*
X232000000Y-104100000D03*
X233000000Y-104100000D03*
X234000000Y-104100000D03*
X235000000Y-104100000D03*
X236000000Y-104100000D03*
X237000000Y-104100000D03*
X238000000Y-104100000D03*
X239000000Y-104100000D03*
X183600000Y-97800000D03*
X183600000Y-96900000D03*
X184400000Y-97300000D03*
X245500000Y-97700000D03*
X245500000Y-96900000D03*
X244800000Y-97300000D03*
X232000000Y-100500000D03*
X207000000Y-99300000D03*
X206000000Y-100500000D03*
X207000000Y-100500000D03*
X205000000Y-101700000D03*
X206000000Y-101700000D03*
X207000000Y-101700000D03*
X204000000Y-102900000D03*
X205000000Y-102900000D03*
X206000000Y-102900000D03*
X207000000Y-102900000D03*
X202000000Y-99300000D03*
X201000000Y-99300000D03*
X203000000Y-98100000D03*
X202000000Y-98100000D03*
X201000000Y-98100000D03*
X200000000Y-98100000D03*
X201000000Y-96900000D03*
X200000000Y-96900000D03*
D21*
X235100000Y-114400000D02*
X235280010Y-114219990D01*
D22*
X235100000Y-104800000D02*
X235100000Y-114400000D01*
X235100000Y-102800000D02*
X235100000Y-103700000D01*
X238200000Y-101600000D02*
X236700000Y-101600000D01*
X236300000Y-101600000D02*
X235100000Y-102800000D01*
X236700000Y-101600000D02*
X236300000Y-101600000D01*
X235100000Y-103700000D02*
X235100000Y-104600000D01*
X235100000Y-104600000D02*
X235100000Y-104800000D01*
X239000000Y-110500000D02*
X235100000Y-114400000D01*
X239000000Y-102100000D02*
X239000000Y-110500000D01*
X237500000Y-112000000D02*
X235100000Y-114400000D01*
X237500000Y-103500000D02*
X237500000Y-112000000D01*
X233000000Y-112300000D02*
X235100000Y-114400000D01*
X233000000Y-102000000D02*
X233000000Y-112300000D01*
X238750000Y-101050000D02*
X238200000Y-101600000D01*
D23*
X206300000Y-93000000D02*
X206300000Y-98000000D01*
X206300000Y-98000000D02*
X202800000Y-101500000D01*
X195350000Y-104800000D02*
X195350000Y-114400000D01*
X198650000Y-101500000D02*
X195350000Y-104800000D01*
X202800000Y-101500000D02*
X198650000Y-101500000D01*
X206300000Y-93000000D02*
X199900000Y-93000000D01*
X214850000Y-104800000D02*
X214850000Y-114400000D01*
X220765010Y-98884990D02*
X214850000Y-104800000D01*
X237550077Y-98884990D02*
X220765010Y-98884990D01*
X240000000Y-96435067D02*
X237550077Y-98884990D01*
X240000000Y-93000000D02*
X240000000Y-96435067D01*
X235434000Y-93000000D02*
X233634000Y-91200000D01*
X240000000Y-93000000D02*
X235434000Y-93000000D01*
D24*
G36*
X245873000Y-98785886D02*
G01*
X245457812Y-98370698D01*
X244903399Y-98000252D01*
X244287368Y-97745083D01*
X243633393Y-97615000D01*
X242966607Y-97615000D01*
X242312632Y-97745083D01*
X241696601Y-98000252D01*
X241142188Y-98370698D01*
X240670698Y-98842188D01*
X240300252Y-99396601D01*
X240045083Y-100012632D01*
X239915000Y-100666607D01*
X239915000Y-101333393D01*
X240045083Y-101987368D01*
X240300252Y-102603399D01*
X240670698Y-103157812D01*
X241142188Y-103629302D01*
X241506909Y-103873000D01*
X231727000Y-103873000D01*
X231727000Y-100154990D01*
X237487704Y-100154990D01*
X237550077Y-100161133D01*
X237612450Y-100154990D01*
X237612457Y-100154990D01*
X237799040Y-100136613D01*
X238038436Y-100063993D01*
X238259065Y-99946065D01*
X238452447Y-99787360D01*
X238492218Y-99738899D01*
X240853914Y-97377204D01*
X240902370Y-97337437D01*
X241061075Y-97144055D01*
X241177453Y-96926327D01*
X241255367Y-97004241D01*
X241370382Y-96889226D01*
X241502317Y-97184312D01*
X241843045Y-97355159D01*
X242210557Y-97456250D01*
X242590729Y-97483701D01*
X242968951Y-97436457D01*
X243330690Y-97316333D01*
X243577683Y-97184312D01*
X243709619Y-96889224D01*
X242540000Y-95719605D01*
X242525858Y-95733748D01*
X242346253Y-95554143D01*
X242360395Y-95540000D01*
X242719605Y-95540000D01*
X243889224Y-96709619D01*
X244184312Y-96577683D01*
X244355159Y-96236955D01*
X244456250Y-95869443D01*
X244483701Y-95489271D01*
X244436457Y-95111049D01*
X244316333Y-94749310D01*
X244184312Y-94502317D01*
X243889224Y-94370381D01*
X242719605Y-95540000D01*
X242360395Y-95540000D01*
X242346253Y-95525858D01*
X242525858Y-95346253D01*
X242540000Y-95360395D01*
X243709619Y-94190776D01*
X243577683Y-93895688D01*
X243236955Y-93724841D01*
X242869443Y-93623750D01*
X242489271Y-93596299D01*
X242111049Y-93643543D01*
X241749310Y-93763667D01*
X241716788Y-93781050D01*
X241812561Y-93549834D01*
X241885000Y-93185656D01*
X241885000Y-92814344D01*
X241812561Y-92450166D01*
X241713077Y-92209991D01*
X241843045Y-92275159D01*
X242210557Y-92376250D01*
X242590729Y-92403701D01*
X242968951Y-92356457D01*
X243330690Y-92236333D01*
X243577683Y-92104312D01*
X243709619Y-91809224D01*
X242540000Y-90639605D01*
X242525858Y-90653748D01*
X242346253Y-90474143D01*
X242360395Y-90460000D01*
X242719605Y-90460000D01*
X243889224Y-91629619D01*
X244184312Y-91497683D01*
X244355159Y-91156955D01*
X244456250Y-90789443D01*
X244483701Y-90409271D01*
X244436457Y-90031049D01*
X244316333Y-89669310D01*
X244184312Y-89422317D01*
X243889224Y-89290381D01*
X242719605Y-90460000D01*
X242360395Y-90460000D01*
X241190776Y-89290381D01*
X240895688Y-89422317D01*
X240724841Y-89763045D01*
X240623750Y-90130557D01*
X240596299Y-90510729D01*
X240643543Y-90888951D01*
X240763667Y-91250690D01*
X240781050Y-91283212D01*
X240549834Y-91187439D01*
X240185656Y-91115000D01*
X239814344Y-91115000D01*
X239450166Y-91187439D01*
X239209991Y-91286923D01*
X239275159Y-91156955D01*
X239376250Y-90789443D01*
X239403701Y-90409271D01*
X239356457Y-90031049D01*
X239236333Y-89669310D01*
X239104312Y-89422317D01*
X238809224Y-89290381D01*
X237639605Y-90460000D01*
X237653748Y-90474143D01*
X237474143Y-90653748D01*
X237460000Y-90639605D01*
X237445858Y-90653748D01*
X237266253Y-90474143D01*
X237280395Y-90460000D01*
X236110776Y-89290381D01*
X235815688Y-89422317D01*
X235644841Y-89763045D01*
X235543750Y-90130557D01*
X235537542Y-90216536D01*
X235526011Y-90188699D01*
X235292362Y-89839018D01*
X234994982Y-89541638D01*
X234645301Y-89307989D01*
X234256756Y-89147048D01*
X234074405Y-89110776D01*
X236290381Y-89110776D01*
X237460000Y-90280395D01*
X238629619Y-89110776D01*
X241370381Y-89110776D01*
X242540000Y-90280395D01*
X243709619Y-89110776D01*
X243577683Y-88815688D01*
X243236955Y-88644841D01*
X242869443Y-88543750D01*
X242489271Y-88516299D01*
X242111049Y-88563543D01*
X241749310Y-88683667D01*
X241502317Y-88815688D01*
X241370381Y-89110776D01*
X238629619Y-89110776D01*
X238497683Y-88815688D01*
X238156955Y-88644841D01*
X237789443Y-88543750D01*
X237409271Y-88516299D01*
X237031049Y-88563543D01*
X236669310Y-88683667D01*
X236422317Y-88815688D01*
X236290381Y-89110776D01*
X234074405Y-89110776D01*
X233844279Y-89065001D01*
X233423721Y-89065001D01*
X233011244Y-89147048D01*
X232622699Y-89307989D01*
X232273018Y-89541638D01*
X231975638Y-89839018D01*
X231741989Y-90188699D01*
X231581048Y-90577244D01*
X231499001Y-90989721D01*
X231499001Y-91410279D01*
X231581048Y-91822756D01*
X231741989Y-92211301D01*
X231975638Y-92560982D01*
X232273018Y-92858362D01*
X232622699Y-93092011D01*
X233011244Y-93252952D01*
X233423721Y-93334999D01*
X233844279Y-93334999D01*
X233951601Y-93313651D01*
X234491863Y-93853914D01*
X234531630Y-93902370D01*
X234725012Y-94061075D01*
X234945641Y-94179003D01*
X235112416Y-94229594D01*
X235185036Y-94251623D01*
X235210755Y-94254156D01*
X235371620Y-94270000D01*
X235371626Y-94270000D01*
X235433999Y-94276143D01*
X235496372Y-94270000D01*
X236010392Y-94270000D01*
X236110774Y-94370382D01*
X235815688Y-94502317D01*
X235644841Y-94843045D01*
X235543750Y-95210557D01*
X235516299Y-95590729D01*
X235563543Y-95968951D01*
X235683667Y-96330690D01*
X235815688Y-96577683D01*
X236110776Y-96709619D01*
X237280395Y-95540000D01*
X237266253Y-95525858D01*
X237445858Y-95346253D01*
X237460000Y-95360395D01*
X237474143Y-95346253D01*
X237653748Y-95525858D01*
X237639605Y-95540000D01*
X237653748Y-95554143D01*
X237474143Y-95733748D01*
X237460000Y-95719605D01*
X236290381Y-96889224D01*
X236422317Y-97184312D01*
X236763045Y-97355159D01*
X237130557Y-97456250D01*
X237179251Y-97459766D01*
X237024027Y-97614990D01*
X232254399Y-97614990D01*
X232456037Y-97507213D01*
X232612047Y-97191652D01*
X231300000Y-95879605D01*
X229987953Y-97191652D01*
X230143963Y-97507213D01*
X230355660Y-97614990D01*
X223327000Y-97614990D01*
X223327000Y-97200000D01*
X223324560Y-97175224D01*
X223317333Y-97151399D01*
X223305597Y-97129443D01*
X223289803Y-97110197D01*
X223270557Y-97094403D01*
X223248601Y-97082667D01*
X223224776Y-97075440D01*
X223200000Y-97073000D01*
X223175224Y-97075440D01*
X223151399Y-97082667D01*
X223129443Y-97094403D01*
X223110197Y-97110197D01*
X222605404Y-97614990D01*
X220827382Y-97614990D01*
X220765009Y-97608847D01*
X220702636Y-97614990D01*
X220702630Y-97614990D01*
X220541765Y-97630834D01*
X220516046Y-97633367D01*
X220462023Y-97649755D01*
X220276651Y-97705987D01*
X220056022Y-97823915D01*
X219862640Y-97982620D01*
X219822875Y-98031074D01*
X213996091Y-103857859D01*
X213977642Y-103873000D01*
X198073051Y-103873000D01*
X199176052Y-102770000D01*
X202737627Y-102770000D01*
X202800000Y-102776143D01*
X202862373Y-102770000D01*
X202862380Y-102770000D01*
X203048963Y-102751623D01*
X203288359Y-102679003D01*
X203508988Y-102561075D01*
X203702370Y-102402370D01*
X203742141Y-102353909D01*
X207153914Y-98942137D01*
X207202370Y-98902370D01*
X207361075Y-98708988D01*
X207479003Y-98488359D01*
X207531904Y-98313968D01*
X207551623Y-98248964D01*
X207554697Y-98217757D01*
X207570000Y-98062380D01*
X207570000Y-98062374D01*
X207576143Y-98000001D01*
X207570000Y-97937628D01*
X207570000Y-96989608D01*
X207670382Y-96889226D01*
X207802317Y-97184312D01*
X208143045Y-97355159D01*
X208510557Y-97456250D01*
X208890729Y-97483701D01*
X209268951Y-97436457D01*
X209630690Y-97316333D01*
X209877683Y-97184312D01*
X210009619Y-96889224D01*
X218990381Y-96889224D01*
X219122317Y-97184312D01*
X219463045Y-97355159D01*
X219830557Y-97456250D01*
X220210729Y-97483701D01*
X220588951Y-97436457D01*
X220950690Y-97316333D01*
X221197683Y-97184312D01*
X221329619Y-96889224D01*
X224070381Y-96889224D01*
X224202317Y-97184312D01*
X224543045Y-97355159D01*
X224910557Y-97456250D01*
X225290729Y-97483701D01*
X225668951Y-97436457D01*
X226030690Y-97316333D01*
X226277683Y-97184312D01*
X226409619Y-96889224D01*
X225240000Y-95719605D01*
X224070381Y-96889224D01*
X221329619Y-96889224D01*
X220160000Y-95719605D01*
X218990381Y-96889224D01*
X210009619Y-96889224D01*
X208840000Y-95719605D01*
X208825858Y-95733748D01*
X208646253Y-95554143D01*
X208660395Y-95540000D01*
X209019605Y-95540000D01*
X210189224Y-96709619D01*
X210484312Y-96577683D01*
X210655159Y-96236955D01*
X210756250Y-95869443D01*
X210783701Y-95489271D01*
X210736457Y-95111049D01*
X210616333Y-94749310D01*
X210484312Y-94502317D01*
X210189224Y-94370381D01*
X209019605Y-95540000D01*
X208660395Y-95540000D01*
X208646253Y-95525858D01*
X208825858Y-95346253D01*
X208840000Y-95360395D01*
X210009619Y-94190776D01*
X209877683Y-93895688D01*
X209536955Y-93724841D01*
X209169443Y-93623750D01*
X208789271Y-93596299D01*
X208411049Y-93643543D01*
X208049310Y-93763667D01*
X208016788Y-93781050D01*
X208112561Y-93549834D01*
X208185000Y-93185656D01*
X208185000Y-92814344D01*
X208167368Y-92725701D01*
X211815000Y-92725701D01*
X211815000Y-93274299D01*
X211922026Y-93812354D01*
X212131965Y-94319192D01*
X212436750Y-94775334D01*
X212824666Y-95163250D01*
X213280808Y-95468035D01*
X213787646Y-95677974D01*
X214325701Y-95785000D01*
X214874299Y-95785000D01*
X215412354Y-95677974D01*
X215622982Y-95590729D01*
X218216299Y-95590729D01*
X218263543Y-95968951D01*
X218383667Y-96330690D01*
X218515688Y-96577683D01*
X218810776Y-96709619D01*
X219980395Y-95540000D01*
X218810776Y-94370381D01*
X218515688Y-94502317D01*
X218344841Y-94843045D01*
X218243750Y-95210557D01*
X218216299Y-95590729D01*
X215622982Y-95590729D01*
X215919192Y-95468035D01*
X216375334Y-95163250D01*
X216763250Y-94775334D01*
X217068035Y-94319192D01*
X217277974Y-93812354D01*
X217385000Y-93274299D01*
X217385000Y-92725701D01*
X217277974Y-92187646D01*
X217121227Y-91809224D01*
X218990381Y-91809224D01*
X219122317Y-92104312D01*
X219463045Y-92275159D01*
X219830557Y-92376250D01*
X220210729Y-92403701D01*
X220588951Y-92356457D01*
X220950690Y-92236333D01*
X220983212Y-92218950D01*
X220887439Y-92450166D01*
X220815000Y-92814344D01*
X220815000Y-93185656D01*
X220887439Y-93549834D01*
X220986923Y-93790009D01*
X220856955Y-93724841D01*
X220489443Y-93623750D01*
X220109271Y-93596299D01*
X219731049Y-93643543D01*
X219369310Y-93763667D01*
X219122317Y-93895688D01*
X218990381Y-94190776D01*
X220160000Y-95360395D01*
X220174143Y-95346253D01*
X220353748Y-95525858D01*
X220339605Y-95540000D01*
X221509224Y-96709619D01*
X221804312Y-96577683D01*
X221975159Y-96236955D01*
X222076250Y-95869443D01*
X222103701Y-95489271D01*
X222056457Y-95111049D01*
X221936333Y-94749310D01*
X221918950Y-94716788D01*
X222150166Y-94812561D01*
X222514344Y-94885000D01*
X222885656Y-94885000D01*
X223249834Y-94812561D01*
X223490009Y-94713077D01*
X223424841Y-94843045D01*
X223323750Y-95210557D01*
X223296299Y-95590729D01*
X223343543Y-95968951D01*
X223463667Y-96330690D01*
X223595688Y-96577683D01*
X223890776Y-96709619D01*
X225060395Y-95540000D01*
X225419605Y-95540000D01*
X226589224Y-96709619D01*
X226884312Y-96577683D01*
X227055159Y-96236955D01*
X227156250Y-95869443D01*
X227165392Y-95742825D01*
X229155098Y-95742825D01*
X229204667Y-96160452D01*
X229334758Y-96560383D01*
X229492787Y-96856037D01*
X229808348Y-97012047D01*
X231120395Y-95700000D01*
X231479605Y-95700000D01*
X232791652Y-97012047D01*
X233107213Y-96856037D01*
X233298019Y-96481254D01*
X233412043Y-96076448D01*
X233444902Y-95657175D01*
X233395333Y-95239548D01*
X233265242Y-94839617D01*
X233107213Y-94543963D01*
X232791652Y-94387953D01*
X231479605Y-95700000D01*
X231120395Y-95700000D01*
X229808348Y-94387953D01*
X229492787Y-94543963D01*
X229301981Y-94918746D01*
X229187957Y-95323552D01*
X229155098Y-95742825D01*
X227165392Y-95742825D01*
X227183701Y-95489271D01*
X227136457Y-95111049D01*
X227016333Y-94749310D01*
X226884312Y-94502317D01*
X226589224Y-94370381D01*
X225419605Y-95540000D01*
X225060395Y-95540000D01*
X225046253Y-95525858D01*
X225225858Y-95346253D01*
X225240000Y-95360395D01*
X226392047Y-94208348D01*
X229987953Y-94208348D01*
X231300000Y-95520395D01*
X232612047Y-94208348D01*
X232456037Y-93892787D01*
X232081254Y-93701981D01*
X231676448Y-93587957D01*
X231257175Y-93555098D01*
X230839548Y-93604667D01*
X230439617Y-93734758D01*
X230143963Y-93892787D01*
X229987953Y-94208348D01*
X226392047Y-94208348D01*
X226409619Y-94190776D01*
X226277683Y-93895688D01*
X225936955Y-93724841D01*
X225569443Y-93623750D01*
X225189271Y-93596299D01*
X224811049Y-93643543D01*
X224449310Y-93763667D01*
X224416788Y-93781050D01*
X224512561Y-93549834D01*
X224585000Y-93185656D01*
X224585000Y-92814344D01*
X224512561Y-92450166D01*
X224413077Y-92209991D01*
X224543045Y-92275159D01*
X224910557Y-92376250D01*
X225290729Y-92403701D01*
X225668951Y-92356457D01*
X226030690Y-92236333D01*
X226277683Y-92104312D01*
X226409619Y-91809224D01*
X225240000Y-90639605D01*
X225225858Y-90653748D01*
X225046253Y-90474143D01*
X225060395Y-90460000D01*
X225419605Y-90460000D01*
X226589224Y-91629619D01*
X226884312Y-91497683D01*
X226965001Y-91336761D01*
X226965001Y-91410279D01*
X227047048Y-91822756D01*
X227207989Y-92211301D01*
X227441638Y-92560982D01*
X227739018Y-92858362D01*
X228088699Y-93092011D01*
X228477244Y-93252952D01*
X228889721Y-93334999D01*
X229310279Y-93334999D01*
X229722756Y-93252952D01*
X230111301Y-93092011D01*
X230460982Y-92858362D01*
X230758362Y-92560982D01*
X230992011Y-92211301D01*
X231152952Y-91822756D01*
X231234999Y-91410279D01*
X231234999Y-90989721D01*
X231152952Y-90577244D01*
X230992011Y-90188699D01*
X230758362Y-89839018D01*
X230460982Y-89541638D01*
X230111301Y-89307989D01*
X229722756Y-89147048D01*
X229310279Y-89065001D01*
X228889721Y-89065001D01*
X228477244Y-89147048D01*
X228088699Y-89307989D01*
X227739018Y-89541638D01*
X227441638Y-89839018D01*
X227207989Y-90188699D01*
X227168160Y-90284854D01*
X227136457Y-90031049D01*
X227016333Y-89669310D01*
X226884312Y-89422317D01*
X226589224Y-89290381D01*
X225419605Y-90460000D01*
X225060395Y-90460000D01*
X223890776Y-89290381D01*
X223595688Y-89422317D01*
X223424841Y-89763045D01*
X223323750Y-90130557D01*
X223296299Y-90510729D01*
X223343543Y-90888951D01*
X223463667Y-91250690D01*
X223481050Y-91283212D01*
X223249834Y-91187439D01*
X222885656Y-91115000D01*
X222514344Y-91115000D01*
X222150166Y-91187439D01*
X221909991Y-91286923D01*
X221975159Y-91156955D01*
X222076250Y-90789443D01*
X222103701Y-90409271D01*
X222056457Y-90031049D01*
X221936333Y-89669310D01*
X221804312Y-89422317D01*
X221509224Y-89290381D01*
X220339605Y-90460000D01*
X220353748Y-90474143D01*
X220174143Y-90653748D01*
X220160000Y-90639605D01*
X218990381Y-91809224D01*
X217121227Y-91809224D01*
X217068035Y-91680808D01*
X216763250Y-91224666D01*
X216375334Y-90836750D01*
X215919192Y-90531965D01*
X215867924Y-90510729D01*
X218216299Y-90510729D01*
X218263543Y-90888951D01*
X218383667Y-91250690D01*
X218515688Y-91497683D01*
X218810776Y-91629619D01*
X219980395Y-90460000D01*
X218810776Y-89290381D01*
X218515688Y-89422317D01*
X218344841Y-89763045D01*
X218243750Y-90130557D01*
X218216299Y-90510729D01*
X215867924Y-90510729D01*
X215412354Y-90322026D01*
X214874299Y-90215000D01*
X214325701Y-90215000D01*
X213787646Y-90322026D01*
X213280808Y-90531965D01*
X212824666Y-90836750D01*
X212436750Y-91224666D01*
X212131965Y-91680808D01*
X211922026Y-92187646D01*
X211815000Y-92725701D01*
X208167368Y-92725701D01*
X208112561Y-92450166D01*
X208013077Y-92209991D01*
X208143045Y-92275159D01*
X208510557Y-92376250D01*
X208890729Y-92403701D01*
X209268951Y-92356457D01*
X209630690Y-92236333D01*
X209877683Y-92104312D01*
X210009619Y-91809224D01*
X208840000Y-90639605D01*
X208825858Y-90653748D01*
X208646253Y-90474143D01*
X208660395Y-90460000D01*
X209019605Y-90460000D01*
X210189224Y-91629619D01*
X210484312Y-91497683D01*
X210655159Y-91156955D01*
X210756250Y-90789443D01*
X210783701Y-90409271D01*
X210736457Y-90031049D01*
X210616333Y-89669310D01*
X210484312Y-89422317D01*
X210189224Y-89290381D01*
X209019605Y-90460000D01*
X208660395Y-90460000D01*
X207490776Y-89290381D01*
X207195688Y-89422317D01*
X207024841Y-89763045D01*
X206923750Y-90130557D01*
X206896299Y-90510729D01*
X206943543Y-90888951D01*
X207063667Y-91250690D01*
X207081050Y-91283212D01*
X206849834Y-91187439D01*
X206485656Y-91115000D01*
X206114344Y-91115000D01*
X205750166Y-91187439D01*
X205509991Y-91286923D01*
X205575159Y-91156955D01*
X205676250Y-90789443D01*
X205703701Y-90409271D01*
X205656457Y-90031049D01*
X205536333Y-89669310D01*
X205404312Y-89422317D01*
X205109224Y-89290381D01*
X203939605Y-90460000D01*
X203953748Y-90474143D01*
X203774143Y-90653748D01*
X203760000Y-90639605D01*
X203745858Y-90653748D01*
X203566253Y-90474143D01*
X203580395Y-90460000D01*
X202410776Y-89290381D01*
X202115688Y-89422317D01*
X201944841Y-89763045D01*
X201843750Y-90130557D01*
X201816299Y-90510729D01*
X201863543Y-90888951D01*
X201983667Y-91250690D01*
X202115688Y-91497683D01*
X202410774Y-91629618D01*
X202310392Y-91730000D01*
X201619154Y-91730000D01*
X201558362Y-91639018D01*
X201260982Y-91341638D01*
X200911301Y-91107989D01*
X200522756Y-90947048D01*
X200110279Y-90865001D01*
X199689721Y-90865001D01*
X199277244Y-90947048D01*
X198888699Y-91107989D01*
X198539018Y-91341638D01*
X198241638Y-91639018D01*
X198007989Y-91988699D01*
X197847048Y-92377244D01*
X197765001Y-92789721D01*
X197765001Y-93210279D01*
X197847048Y-93622756D01*
X198007989Y-94011301D01*
X198241638Y-94360982D01*
X198539018Y-94658362D01*
X198888699Y-94892011D01*
X199277244Y-95052952D01*
X199689721Y-95134999D01*
X200110279Y-95134999D01*
X200522756Y-95052952D01*
X200911301Y-94892011D01*
X201260982Y-94658362D01*
X201558362Y-94360982D01*
X201619154Y-94270000D01*
X202310392Y-94270000D01*
X202410774Y-94370382D01*
X202115688Y-94502317D01*
X201944841Y-94843045D01*
X201843750Y-95210557D01*
X201816299Y-95590729D01*
X201863543Y-95968951D01*
X201983667Y-96330690D01*
X202115688Y-96577683D01*
X202410776Y-96709619D01*
X203580395Y-95540000D01*
X203566253Y-95525858D01*
X203745858Y-95346253D01*
X203760000Y-95360395D01*
X203774143Y-95346253D01*
X203953748Y-95525858D01*
X203939605Y-95540000D01*
X203953748Y-95554143D01*
X203774143Y-95733748D01*
X203760000Y-95719605D01*
X202590381Y-96889224D01*
X202722317Y-97184312D01*
X203063045Y-97355159D01*
X203430557Y-97456250D01*
X203810729Y-97483701D01*
X204188951Y-97436457D01*
X204550690Y-97316333D01*
X204797683Y-97184312D01*
X204929618Y-96889226D01*
X205030001Y-96989609D01*
X205030001Y-97473948D01*
X202273950Y-100230000D01*
X198712380Y-100230000D01*
X198650000Y-100223856D01*
X198459407Y-100242628D01*
X198401037Y-100248377D01*
X198161641Y-100320997D01*
X197941012Y-100438925D01*
X197859024Y-100506211D01*
X197796083Y-100557865D01*
X197796080Y-100557868D01*
X197747630Y-100597630D01*
X197707868Y-100646080D01*
X195406000Y-102947949D01*
X195406364Y-102928743D01*
X195405148Y-102913339D01*
X195406206Y-102897919D01*
X195405882Y-102888988D01*
X195403351Y-102830423D01*
X195398254Y-102794493D01*
X195396119Y-102758252D01*
X195394663Y-102749435D01*
X195387077Y-102705387D01*
X195370963Y-102646771D01*
X195355108Y-102587946D01*
X195354003Y-102585081D01*
X195353967Y-102584949D01*
X195353903Y-102584822D01*
X195351893Y-102579608D01*
X195338212Y-102544849D01*
X195336531Y-102541562D01*
X195335483Y-102538033D01*
X195308113Y-102485991D01*
X195281342Y-102433641D01*
X195279059Y-102430749D01*
X195277342Y-102427484D01*
X195272378Y-102420054D01*
X195251563Y-102389357D01*
X195241419Y-102377157D01*
X195240074Y-102374744D01*
X195230633Y-102363626D01*
X195216019Y-102341842D01*
X195210292Y-102334983D01*
X195202574Y-102325867D01*
X195182887Y-102306760D01*
X195171706Y-102293312D01*
X195169183Y-102291265D01*
X195159223Y-102279536D01*
X195152758Y-102273367D01*
X195104500Y-102227952D01*
X195086225Y-102213847D01*
X195069829Y-102197602D01*
X195036899Y-102175776D01*
X195005620Y-102151635D01*
X194984957Y-102141350D01*
X194965715Y-102128597D01*
X194957791Y-102124466D01*
X194906030Y-102097938D01*
X194879104Y-102087312D01*
X194853443Y-102073921D01*
X194821150Y-102064442D01*
X194789844Y-102052088D01*
X194761371Y-102046895D01*
X194733594Y-102038742D01*
X194724804Y-102037135D01*
X194661504Y-102026021D01*
X194619899Y-102022851D01*
X194578576Y-102016980D01*
X194569646Y-102016656D01*
X194538779Y-102015748D01*
X194496229Y-102018660D01*
X194453563Y-102018924D01*
X194444682Y-102019914D01*
X194362982Y-102029591D01*
X194335148Y-102035688D01*
X194322950Y-102037024D01*
X194309003Y-102032600D01*
X194306775Y-102032350D01*
X194304630Y-102031686D01*
X194273056Y-102028368D01*
X194275176Y-102024474D01*
X194279556Y-102010470D01*
X194287051Y-101994592D01*
X194289999Y-101986156D01*
X194291506Y-101981747D01*
X194298408Y-101952484D01*
X194306806Y-101928182D01*
X194308006Y-101919493D01*
X194312457Y-101905261D01*
X194314919Y-101882477D01*
X194320178Y-101860177D01*
X194321587Y-101821183D01*
X194323899Y-101804451D01*
X194323706Y-101801143D01*
X194325874Y-101781078D01*
X194323863Y-101758243D01*
X194324690Y-101735352D01*
X194318396Y-101696184D01*
X194314914Y-101656653D01*
X194308509Y-101634655D01*
X194304873Y-101612028D01*
X194291088Y-101574821D01*
X194291078Y-101574787D01*
X194288694Y-101563647D01*
X194286033Y-101557462D01*
X194279996Y-101536727D01*
X194276615Y-101528455D01*
X194269624Y-101511689D01*
X194263407Y-101500110D01*
X194261477Y-101494902D01*
X194254529Y-101483578D01*
X194253123Y-101480958D01*
X194239335Y-101448907D01*
X194234964Y-101441113D01*
X194215645Y-101407210D01*
X194211400Y-101401210D01*
X194208251Y-101394574D01*
X194203597Y-101386946D01*
X194190021Y-101365040D01*
X194191945Y-101364421D01*
X194197495Y-101363677D01*
X194206179Y-101361571D01*
X194249156Y-101350831D01*
X194266608Y-101344606D01*
X194284751Y-101340835D01*
X194293262Y-101338111D01*
X194318035Y-101329994D01*
X194362933Y-101310246D01*
X194366802Y-101308866D01*
X194368850Y-101307643D01*
X194370220Y-101307041D01*
X194405954Y-101293517D01*
X194415652Y-101287473D01*
X194427827Y-101282236D01*
X194432234Y-101279765D01*
X194432370Y-101279705D01*
X194432489Y-101279622D01*
X194435622Y-101277865D01*
X194438943Y-101275973D01*
X194474733Y-101250654D01*
X194511960Y-101227455D01*
X194525630Y-101214649D01*
X194540914Y-101203837D01*
X194571106Y-101172048D01*
X194603116Y-101142061D01*
X194614038Y-101126844D01*
X194626931Y-101113269D01*
X194650378Y-101076214D01*
X194675950Y-101040587D01*
X194683705Y-101023546D01*
X194693720Y-101007719D01*
X194709525Y-100966810D01*
X194727687Y-100926901D01*
X194730518Y-100918425D01*
X194735992Y-100901647D01*
X194737721Y-100893828D01*
X194738734Y-100891206D01*
X194740375Y-100881825D01*
X194748635Y-100844474D01*
X194761980Y-100787436D01*
X194762946Y-100779756D01*
X194762961Y-100779687D01*
X194762962Y-100779623D01*
X194763095Y-100778569D01*
X194767545Y-100741077D01*
X194767812Y-100728014D01*
X194770089Y-100715146D01*
X194770718Y-100706232D01*
X194774140Y-100652381D01*
X194773995Y-100648140D01*
X194774620Y-100643945D01*
X194775007Y-100635017D01*
X194777398Y-100569167D01*
X194777322Y-100567932D01*
X194777483Y-100566702D01*
X194777710Y-100557768D01*
X194779068Y-100484277D01*
X194779060Y-100484176D01*
X194779072Y-100484073D01*
X194779171Y-100475137D01*
X194779492Y-100398554D01*
X194779493Y-100398546D01*
X194779470Y-100389609D01*
X194778752Y-100313913D01*
X194778697Y-100313406D01*
X194778742Y-100312892D01*
X194778580Y-100303957D01*
X194776820Y-100233694D01*
X194776531Y-100231356D01*
X194776686Y-100228994D01*
X194776334Y-100220064D01*
X194773529Y-100159594D01*
X194772482Y-100152378D01*
X194772691Y-100145093D01*
X194772012Y-100136183D01*
X194768158Y-100089863D01*
X194763687Y-100065399D01*
X194762125Y-100040580D01*
X194760634Y-100031769D01*
X194755729Y-100003958D01*
X194747536Y-99974617D01*
X194742323Y-99944604D01*
X194730778Y-99914608D01*
X194722134Y-99883655D01*
X194708963Y-99857584D01*
X194701707Y-99837178D01*
X194699639Y-99833705D01*
X194697456Y-99828034D01*
X194693392Y-99820076D01*
X194690435Y-99814384D01*
X194675696Y-99791734D01*
X194665812Y-99772168D01*
X194653950Y-99756987D01*
X194637796Y-99729861D01*
X194629266Y-99720379D01*
X194622311Y-99709691D01*
X194595470Y-99682140D01*
X194588909Y-99673743D01*
X194581760Y-99667573D01*
X194554258Y-99637002D01*
X194544044Y-99629354D01*
X194535149Y-99620224D01*
X194529962Y-99616652D01*
X196380953Y-99616652D01*
X196536963Y-99932213D01*
X196911746Y-100123019D01*
X197316552Y-100237043D01*
X197735825Y-100269902D01*
X198153452Y-100220333D01*
X198553383Y-100090242D01*
X198849037Y-99932213D01*
X199005047Y-99616652D01*
X197693000Y-98304605D01*
X196380953Y-99616652D01*
X194529962Y-99616652D01*
X194494368Y-99592145D01*
X194494352Y-99592131D01*
X194494328Y-99592117D01*
X194494140Y-99591988D01*
X194454273Y-99562137D01*
X194442778Y-99556623D01*
X194432271Y-99549389D01*
X194393160Y-99532506D01*
X194386517Y-99528421D01*
X194375244Y-99524230D01*
X194341653Y-99508118D01*
X194333235Y-99505117D01*
X194316773Y-99499376D01*
X194292678Y-99493536D01*
X194269440Y-99484897D01*
X194260784Y-99482676D01*
X194223298Y-99473335D01*
X194219385Y-99472758D01*
X194215636Y-99471475D01*
X194206925Y-99469483D01*
X194189809Y-99465693D01*
X194213147Y-99428210D01*
X194217636Y-99419131D01*
X194223552Y-99410898D01*
X194227979Y-99403135D01*
X194241687Y-99378709D01*
X194259814Y-99337416D01*
X194274358Y-99310817D01*
X194277120Y-99302042D01*
X194282369Y-99291407D01*
X194285465Y-99283024D01*
X194287444Y-99277547D01*
X194289303Y-99270237D01*
X194291893Y-99264337D01*
X194298818Y-99233103D01*
X194311858Y-99191673D01*
X194313816Y-99173855D01*
X194318231Y-99156495D01*
X194320622Y-99111920D01*
X194325501Y-99067514D01*
X194323961Y-99049655D01*
X194324920Y-99031768D01*
X194318606Y-98987568D01*
X194314768Y-98943070D01*
X194309790Y-98925858D01*
X194307256Y-98908117D01*
X194292471Y-98865970D01*
X194280067Y-98823080D01*
X194271841Y-98807162D01*
X194265909Y-98790253D01*
X194243615Y-98752452D01*
X194237638Y-98738535D01*
X194232514Y-98731063D01*
X194222722Y-98712116D01*
X194217812Y-98704650D01*
X194209302Y-98691904D01*
X194204321Y-98685825D01*
X194202457Y-98682664D01*
X194193537Y-98672663D01*
X194186943Y-98664616D01*
X194166994Y-98635527D01*
X194161197Y-98628726D01*
X194137670Y-98601511D01*
X194133745Y-98597779D01*
X194130539Y-98593400D01*
X194124535Y-98586781D01*
X194088995Y-98548146D01*
X194088785Y-98547958D01*
X194088611Y-98547728D01*
X194082509Y-98541199D01*
X194037964Y-98494194D01*
X194037858Y-98494102D01*
X194033742Y-98489781D01*
X193983195Y-98437452D01*
X193983071Y-98437347D01*
X193979835Y-98434000D01*
X193926294Y-98379400D01*
X193926176Y-98379302D01*
X193923122Y-98376187D01*
X193869591Y-98322363D01*
X193869473Y-98322265D01*
X193866024Y-98318804D01*
X193815508Y-98268804D01*
X193815413Y-98268727D01*
X193810718Y-98264112D01*
X193766223Y-98220985D01*
X193765369Y-98220306D01*
X193764660Y-98219475D01*
X193758179Y-98213323D01*
X193722709Y-98180119D01*
X193716008Y-98174975D01*
X193710260Y-98168767D01*
X193709184Y-98167825D01*
X195548098Y-98167825D01*
X195597667Y-98585452D01*
X195727758Y-98985383D01*
X195885787Y-99281037D01*
X196201348Y-99437047D01*
X197513395Y-98125000D01*
X197872605Y-98125000D01*
X199184652Y-99437047D01*
X199500213Y-99281037D01*
X199691019Y-98906254D01*
X199805043Y-98501448D01*
X199837902Y-98082175D01*
X199788333Y-97664548D01*
X199658242Y-97264617D01*
X199500213Y-96968963D01*
X199184652Y-96812953D01*
X197872605Y-98125000D01*
X197513395Y-98125000D01*
X196201348Y-96812953D01*
X195885787Y-96968963D01*
X195694981Y-97343746D01*
X195580957Y-97748552D01*
X195548098Y-98167825D01*
X193709184Y-98167825D01*
X193703536Y-98162881D01*
X193680098Y-98142648D01*
X193666334Y-98132938D01*
X193665395Y-98131979D01*
X193651220Y-98122275D01*
X193641871Y-98115679D01*
X193605025Y-98086869D01*
X193597449Y-98082131D01*
X193589608Y-98077303D01*
X193582679Y-98073920D01*
X193578035Y-98070644D01*
X193571644Y-98067798D01*
X193562327Y-98061420D01*
X193519367Y-98043010D01*
X193477364Y-98022504D01*
X193462070Y-98018457D01*
X193447518Y-98012221D01*
X193401777Y-98002502D01*
X193356614Y-97990551D01*
X193340826Y-97989551D01*
X193325340Y-97986261D01*
X193278596Y-97985612D01*
X193231958Y-97982659D01*
X193216272Y-97984746D01*
X193200446Y-97984526D01*
X193154476Y-97992967D01*
X193108142Y-97999131D01*
X193093156Y-98004226D01*
X193077593Y-98007084D01*
X193034129Y-98024296D01*
X193029981Y-98025706D01*
X193022472Y-98027633D01*
X193017965Y-98029792D01*
X192989885Y-98039339D01*
X192976185Y-98047242D01*
X192961462Y-98053072D01*
X192953543Y-98057213D01*
X192940777Y-98064003D01*
X192925917Y-98073877D01*
X192909820Y-98081587D01*
X192902208Y-98086268D01*
X192871673Y-98105343D01*
X192870831Y-98105991D01*
X192869882Y-98106466D01*
X192862352Y-98111278D01*
X192846234Y-98121737D01*
X192836462Y-98069901D01*
X192836267Y-98069233D01*
X192836204Y-98068542D01*
X192818734Y-98009185D01*
X192801454Y-97950001D01*
X192801135Y-97949388D01*
X192800938Y-97948718D01*
X192772249Y-97893842D01*
X192743825Y-97839184D01*
X192743391Y-97838642D01*
X192743069Y-97838026D01*
X192704323Y-97789835D01*
X192665769Y-97741670D01*
X192665239Y-97741223D01*
X192664803Y-97740681D01*
X192617354Y-97700867D01*
X192570259Y-97661176D01*
X192569653Y-97660841D01*
X192569119Y-97660393D01*
X192514691Y-97630471D01*
X192460933Y-97600766D01*
X192460276Y-97600556D01*
X192459663Y-97600219D01*
X192400616Y-97581489D01*
X192341956Y-97562741D01*
X192341265Y-97562662D01*
X192340603Y-97562452D01*
X192279201Y-97555564D01*
X192217859Y-97548549D01*
X192217167Y-97548606D01*
X192216476Y-97548528D01*
X192207540Y-97548466D01*
X191579885Y-97548466D01*
X191579196Y-97548534D01*
X191578502Y-97548467D01*
X191516689Y-97554663D01*
X191455575Y-97560655D01*
X191454915Y-97560854D01*
X191454219Y-97560924D01*
X191394839Y-97578992D01*
X191336000Y-97596757D01*
X191335388Y-97597082D01*
X191334722Y-97597285D01*
X191280094Y-97626482D01*
X191225714Y-97655396D01*
X191225177Y-97655834D01*
X191224563Y-97656162D01*
X191176551Y-97695493D01*
X191128919Y-97734341D01*
X191128479Y-97734873D01*
X191127938Y-97735316D01*
X191088399Y-97783321D01*
X191049301Y-97830583D01*
X191048973Y-97831190D01*
X191048528Y-97831730D01*
X191019146Y-97886354D01*
X190989893Y-97940456D01*
X190989688Y-97941119D01*
X190989358Y-97941732D01*
X190971177Y-98000916D01*
X190952957Y-98059776D01*
X190952885Y-98060465D01*
X190952680Y-98061131D01*
X190950963Y-98069901D01*
X190941180Y-98121792D01*
X190911611Y-98102791D01*
X190908763Y-98101332D01*
X190906228Y-98099369D01*
X190898629Y-98094667D01*
X190873068Y-98079093D01*
X190848895Y-98067431D01*
X190826161Y-98053141D01*
X190818139Y-98049203D01*
X190811178Y-98045844D01*
X190792744Y-98039079D01*
X190775396Y-98029915D01*
X190764169Y-98026558D01*
X190760568Y-98024821D01*
X190743797Y-98020467D01*
X190734245Y-98017611D01*
X190693918Y-98002812D01*
X190674535Y-97999758D01*
X190655724Y-97994134D01*
X190612949Y-97990056D01*
X190570534Y-97983374D01*
X190550927Y-97984143D01*
X190531382Y-97982280D01*
X190488637Y-97986587D01*
X190445724Y-97988271D01*
X190426637Y-97992835D01*
X190407105Y-97994803D01*
X190366019Y-98007329D01*
X190324242Y-98017318D01*
X190306397Y-98025506D01*
X190287628Y-98031228D01*
X190249759Y-98051494D01*
X190210716Y-98069408D01*
X190194811Y-98080899D01*
X190177500Y-98090163D01*
X190170106Y-98095181D01*
X190157566Y-98103817D01*
X190130453Y-98126692D01*
X190101494Y-98147199D01*
X190094781Y-98153098D01*
X190067985Y-98176976D01*
X190064322Y-98180946D01*
X190060008Y-98184205D01*
X190053480Y-98190307D01*
X190015431Y-98226375D01*
X190015254Y-98226579D01*
X190015036Y-98226749D01*
X190008599Y-98232948D01*
X189962300Y-98278156D01*
X189962212Y-98278261D01*
X189957961Y-98282433D01*
X189906417Y-98333730D01*
X189906318Y-98333850D01*
X189903028Y-98337128D01*
X189849242Y-98391465D01*
X189849142Y-98391588D01*
X189846092Y-98394670D01*
X189793066Y-98448997D01*
X189792971Y-98449116D01*
X189789573Y-98452603D01*
X189740314Y-98503870D01*
X189740239Y-98503965D01*
X189735717Y-98508704D01*
X189693225Y-98553860D01*
X189692584Y-98554691D01*
X189691790Y-98555389D01*
X189685733Y-98561960D01*
X189653013Y-98597955D01*
X189648026Y-98604653D01*
X189641980Y-98610414D01*
X189636191Y-98617221D01*
X189616247Y-98641005D01*
X189590214Y-98679052D01*
X189562255Y-98715724D01*
X189557610Y-98723358D01*
X189552842Y-98731319D01*
X189549235Y-98738943D01*
X189545713Y-98744090D01*
X189535360Y-98768267D01*
X189528088Y-98783637D01*
X189502564Y-98835646D01*
X189501380Y-98840084D01*
X189499421Y-98844224D01*
X189485315Y-98900295D01*
X189470364Y-98956330D01*
X189470064Y-98960915D01*
X189468947Y-98965356D01*
X189465998Y-99023134D01*
X189462218Y-99080971D01*
X189462814Y-99085520D01*
X189462580Y-99090100D01*
X189470923Y-99147439D01*
X189478438Y-99204819D01*
X189479904Y-99209159D01*
X189480565Y-99213704D01*
X189499875Y-99268298D01*
X189500174Y-99269182D01*
X189503231Y-99282120D01*
X189508300Y-99293247D01*
X189518402Y-99323159D01*
X189522131Y-99331280D01*
X189528993Y-99345955D01*
X189543346Y-99370166D01*
X189555018Y-99395784D01*
X189559553Y-99403484D01*
X189578790Y-99435633D01*
X189581417Y-99439184D01*
X189583359Y-99443151D01*
X189588106Y-99450723D01*
X189597597Y-99465631D01*
X189553398Y-99475896D01*
X189544714Y-99478831D01*
X189535654Y-99480284D01*
X189527027Y-99482614D01*
X189499340Y-99490298D01*
X189461069Y-99505074D01*
X189421884Y-99517247D01*
X189413674Y-99520776D01*
X189408109Y-99523215D01*
X189396092Y-99529947D01*
X189383181Y-99534779D01*
X189341671Y-99560434D01*
X189299138Y-99584262D01*
X189288658Y-99593200D01*
X189276930Y-99600448D01*
X189241198Y-99633674D01*
X189204099Y-99665312D01*
X189195552Y-99676118D01*
X189185459Y-99685503D01*
X189156881Y-99725010D01*
X189126612Y-99763278D01*
X189120321Y-99775549D01*
X189112250Y-99786707D01*
X189091886Y-99831017D01*
X189085140Y-99844176D01*
X188899748Y-99396601D01*
X188529302Y-98842188D01*
X188057812Y-98370698D01*
X187503399Y-98000252D01*
X186887368Y-97745083D01*
X186233393Y-97615000D01*
X185566607Y-97615000D01*
X184912632Y-97745083D01*
X184296601Y-98000252D01*
X183742188Y-98370698D01*
X183270698Y-98842188D01*
X183127000Y-99057248D01*
X183127000Y-96889224D01*
X185290381Y-96889224D01*
X185422317Y-97184312D01*
X185763045Y-97355159D01*
X186130557Y-97456250D01*
X186510729Y-97483701D01*
X186888951Y-97436457D01*
X187250690Y-97316333D01*
X187497683Y-97184312D01*
X187629619Y-96889224D01*
X190370381Y-96889224D01*
X190502317Y-97184312D01*
X190843045Y-97355159D01*
X191210557Y-97456250D01*
X191590729Y-97483701D01*
X191968951Y-97436457D01*
X192330690Y-97316333D01*
X192577683Y-97184312D01*
X192709619Y-96889224D01*
X191540000Y-95719605D01*
X190370381Y-96889224D01*
X187629619Y-96889224D01*
X186460000Y-95719605D01*
X185290381Y-96889224D01*
X183127000Y-96889224D01*
X183127000Y-95590729D01*
X184516299Y-95590729D01*
X184563543Y-95968951D01*
X184683667Y-96330690D01*
X184815688Y-96577683D01*
X185110776Y-96709619D01*
X186280395Y-95540000D01*
X185110776Y-94370381D01*
X184815688Y-94502317D01*
X184644841Y-94843045D01*
X184543750Y-95210557D01*
X184516299Y-95590729D01*
X183127000Y-95590729D01*
X183127000Y-91809224D01*
X185290381Y-91809224D01*
X185422317Y-92104312D01*
X185763045Y-92275159D01*
X186130557Y-92376250D01*
X186510729Y-92403701D01*
X186888951Y-92356457D01*
X187250690Y-92236333D01*
X187283212Y-92218950D01*
X187187439Y-92450166D01*
X187115000Y-92814344D01*
X187115000Y-93185656D01*
X187187439Y-93549834D01*
X187286923Y-93790009D01*
X187156955Y-93724841D01*
X186789443Y-93623750D01*
X186409271Y-93596299D01*
X186031049Y-93643543D01*
X185669310Y-93763667D01*
X185422317Y-93895688D01*
X185290381Y-94190776D01*
X186460000Y-95360395D01*
X186474143Y-95346253D01*
X186653748Y-95525858D01*
X186639605Y-95540000D01*
X187809224Y-96709619D01*
X188104312Y-96577683D01*
X188275159Y-96236955D01*
X188376250Y-95869443D01*
X188403701Y-95489271D01*
X188356457Y-95111049D01*
X188236333Y-94749310D01*
X188218950Y-94716788D01*
X188450166Y-94812561D01*
X188814344Y-94885000D01*
X189185656Y-94885000D01*
X189549834Y-94812561D01*
X189790009Y-94713077D01*
X189724841Y-94843045D01*
X189623750Y-95210557D01*
X189596299Y-95590729D01*
X189643543Y-95968951D01*
X189763667Y-96330690D01*
X189895688Y-96577683D01*
X190190776Y-96709619D01*
X191360395Y-95540000D01*
X191719605Y-95540000D01*
X192889224Y-96709619D01*
X193059811Y-96633348D01*
X196380953Y-96633348D01*
X197693000Y-97945395D01*
X199005047Y-96633348D01*
X198849037Y-96317787D01*
X198474254Y-96126981D01*
X198069448Y-96012957D01*
X197650175Y-95980098D01*
X197232548Y-96029667D01*
X196832617Y-96159758D01*
X196536963Y-96317787D01*
X196380953Y-96633348D01*
X193059811Y-96633348D01*
X193184312Y-96577683D01*
X193355159Y-96236955D01*
X193456250Y-95869443D01*
X193483701Y-95489271D01*
X193436457Y-95111049D01*
X193316333Y-94749310D01*
X193184312Y-94502317D01*
X192889224Y-94370381D01*
X191719605Y-95540000D01*
X191360395Y-95540000D01*
X191346253Y-95525858D01*
X191525858Y-95346253D01*
X191540000Y-95360395D01*
X192709619Y-94190776D01*
X192577683Y-93895688D01*
X192236955Y-93724841D01*
X191869443Y-93623750D01*
X191489271Y-93596299D01*
X191111049Y-93643543D01*
X190749310Y-93763667D01*
X190716788Y-93781050D01*
X190812561Y-93549834D01*
X190885000Y-93185656D01*
X190885000Y-92814344D01*
X190880103Y-92789721D01*
X193265001Y-92789721D01*
X193265001Y-93210279D01*
X193347048Y-93622756D01*
X193507989Y-94011301D01*
X193741638Y-94360982D01*
X194039018Y-94658362D01*
X194388699Y-94892011D01*
X194777244Y-95052952D01*
X195189721Y-95134999D01*
X195610279Y-95134999D01*
X196022756Y-95052952D01*
X196411301Y-94892011D01*
X196760982Y-94658362D01*
X197058362Y-94360982D01*
X197292011Y-94011301D01*
X197452952Y-93622756D01*
X197534999Y-93210279D01*
X197534999Y-92789721D01*
X197452952Y-92377244D01*
X197292011Y-91988699D01*
X197058362Y-91639018D01*
X196760982Y-91341638D01*
X196411301Y-91107989D01*
X196022756Y-90947048D01*
X195610279Y-90865001D01*
X195189721Y-90865001D01*
X194777244Y-90947048D01*
X194388699Y-91107989D01*
X194039018Y-91341638D01*
X193741638Y-91639018D01*
X193507989Y-91988699D01*
X193347048Y-92377244D01*
X193265001Y-92789721D01*
X190880103Y-92789721D01*
X190812561Y-92450166D01*
X190713077Y-92209991D01*
X190843045Y-92275159D01*
X191210557Y-92376250D01*
X191590729Y-92403701D01*
X191968951Y-92356457D01*
X192330690Y-92236333D01*
X192577683Y-92104312D01*
X192709619Y-91809224D01*
X191540000Y-90639605D01*
X191525858Y-90653748D01*
X191346253Y-90474143D01*
X191360395Y-90460000D01*
X191719605Y-90460000D01*
X192889224Y-91629619D01*
X193184312Y-91497683D01*
X193355159Y-91156955D01*
X193456250Y-90789443D01*
X193483701Y-90409271D01*
X193436457Y-90031049D01*
X193316333Y-89669310D01*
X193184312Y-89422317D01*
X192889224Y-89290381D01*
X191719605Y-90460000D01*
X191360395Y-90460000D01*
X190190776Y-89290381D01*
X189895688Y-89422317D01*
X189724841Y-89763045D01*
X189623750Y-90130557D01*
X189596299Y-90510729D01*
X189643543Y-90888951D01*
X189763667Y-91250690D01*
X189781050Y-91283212D01*
X189549834Y-91187439D01*
X189185656Y-91115000D01*
X188814344Y-91115000D01*
X188450166Y-91187439D01*
X188209991Y-91286923D01*
X188275159Y-91156955D01*
X188376250Y-90789443D01*
X188403701Y-90409271D01*
X188356457Y-90031049D01*
X188236333Y-89669310D01*
X188104312Y-89422317D01*
X187809224Y-89290381D01*
X186639605Y-90460000D01*
X186653748Y-90474143D01*
X186474143Y-90653748D01*
X186460000Y-90639605D01*
X185290381Y-91809224D01*
X183127000Y-91809224D01*
X183127000Y-90510729D01*
X184516299Y-90510729D01*
X184563543Y-90888951D01*
X184683667Y-91250690D01*
X184815688Y-91497683D01*
X185110776Y-91629619D01*
X186280395Y-90460000D01*
X185110776Y-89290381D01*
X184815688Y-89422317D01*
X184644841Y-89763045D01*
X184543750Y-90130557D01*
X184516299Y-90510729D01*
X183127000Y-90510729D01*
X183127000Y-89110776D01*
X185290381Y-89110776D01*
X186460000Y-90280395D01*
X187629619Y-89110776D01*
X190370381Y-89110776D01*
X191540000Y-90280395D01*
X192709619Y-89110776D01*
X202590381Y-89110776D01*
X203760000Y-90280395D01*
X204929619Y-89110776D01*
X207670381Y-89110776D01*
X208840000Y-90280395D01*
X210009619Y-89110776D01*
X218990381Y-89110776D01*
X220160000Y-90280395D01*
X221329619Y-89110776D01*
X224070381Y-89110776D01*
X225240000Y-90280395D01*
X226409619Y-89110776D01*
X226277683Y-88815688D01*
X225936955Y-88644841D01*
X225569443Y-88543750D01*
X225189271Y-88516299D01*
X224811049Y-88563543D01*
X224449310Y-88683667D01*
X224202317Y-88815688D01*
X224070381Y-89110776D01*
X221329619Y-89110776D01*
X221197683Y-88815688D01*
X220856955Y-88644841D01*
X220489443Y-88543750D01*
X220109271Y-88516299D01*
X219731049Y-88563543D01*
X219369310Y-88683667D01*
X219122317Y-88815688D01*
X218990381Y-89110776D01*
X210009619Y-89110776D01*
X209877683Y-88815688D01*
X209536955Y-88644841D01*
X209169443Y-88543750D01*
X208789271Y-88516299D01*
X208411049Y-88563543D01*
X208049310Y-88683667D01*
X207802317Y-88815688D01*
X207670381Y-89110776D01*
X204929619Y-89110776D01*
X204797683Y-88815688D01*
X204456955Y-88644841D01*
X204089443Y-88543750D01*
X203709271Y-88516299D01*
X203331049Y-88563543D01*
X202969310Y-88683667D01*
X202722317Y-88815688D01*
X202590381Y-89110776D01*
X192709619Y-89110776D01*
X192577683Y-88815688D01*
X192236955Y-88644841D01*
X191869443Y-88543750D01*
X191489271Y-88516299D01*
X191111049Y-88563543D01*
X190749310Y-88683667D01*
X190502317Y-88815688D01*
X190370381Y-89110776D01*
X187629619Y-89110776D01*
X187497683Y-88815688D01*
X187156955Y-88644841D01*
X186789443Y-88543750D01*
X186409271Y-88516299D01*
X186031049Y-88563543D01*
X185669310Y-88683667D01*
X185422317Y-88815688D01*
X185290381Y-89110776D01*
X183127000Y-89110776D01*
X183127000Y-88289535D01*
X183208895Y-88189121D01*
X183283986Y-88127000D01*
X245873000Y-88127000D01*
X245873000Y-98785886D01*
X245873000Y-98785886D01*
G37*
X245873000Y-98785886D02*
X245457812Y-98370698D01*
X244903399Y-98000252D01*
X244287368Y-97745083D01*
X243633393Y-97615000D01*
X242966607Y-97615000D01*
X242312632Y-97745083D01*
X241696601Y-98000252D01*
X241142188Y-98370698D01*
X240670698Y-98842188D01*
X240300252Y-99396601D01*
X240045083Y-100012632D01*
X239915000Y-100666607D01*
X239915000Y-101333393D01*
X240045083Y-101987368D01*
X240300252Y-102603399D01*
X240670698Y-103157812D01*
X241142188Y-103629302D01*
X241506909Y-103873000D01*
X231727000Y-103873000D01*
X231727000Y-100154990D01*
X237487704Y-100154990D01*
X237550077Y-100161133D01*
X237612450Y-100154990D01*
X237612457Y-100154990D01*
X237799040Y-100136613D01*
X238038436Y-100063993D01*
X238259065Y-99946065D01*
X238452447Y-99787360D01*
X238492218Y-99738899D01*
X240853914Y-97377204D01*
X240902370Y-97337437D01*
X241061075Y-97144055D01*
X241177453Y-96926327D01*
X241255367Y-97004241D01*
X241370382Y-96889226D01*
X241502317Y-97184312D01*
X241843045Y-97355159D01*
X242210557Y-97456250D01*
X242590729Y-97483701D01*
X242968951Y-97436457D01*
X243330690Y-97316333D01*
X243577683Y-97184312D01*
X243709619Y-96889224D01*
X242540000Y-95719605D01*
X242525858Y-95733748D01*
X242346253Y-95554143D01*
X242360395Y-95540000D01*
X242719605Y-95540000D01*
X243889224Y-96709619D01*
X244184312Y-96577683D01*
X244355159Y-96236955D01*
X244456250Y-95869443D01*
X244483701Y-95489271D01*
X244436457Y-95111049D01*
X244316333Y-94749310D01*
X244184312Y-94502317D01*
X243889224Y-94370381D01*
X242719605Y-95540000D01*
X242360395Y-95540000D01*
X242346253Y-95525858D01*
X242525858Y-95346253D01*
X242540000Y-95360395D01*
X243709619Y-94190776D01*
X243577683Y-93895688D01*
X243236955Y-93724841D01*
X242869443Y-93623750D01*
X242489271Y-93596299D01*
X242111049Y-93643543D01*
X241749310Y-93763667D01*
X241716788Y-93781050D01*
X241812561Y-93549834D01*
X241885000Y-93185656D01*
X241885000Y-92814344D01*
X241812561Y-92450166D01*
X241713077Y-92209991D01*
X241843045Y-92275159D01*
X242210557Y-92376250D01*
X242590729Y-92403701D01*
X242968951Y-92356457D01*
X243330690Y-92236333D01*
X243577683Y-92104312D01*
X243709619Y-91809224D01*
X242540000Y-90639605D01*
X242525858Y-90653748D01*
X242346253Y-90474143D01*
X242360395Y-90460000D01*
X242719605Y-90460000D01*
X243889224Y-91629619D01*
X244184312Y-91497683D01*
X244355159Y-91156955D01*
X244456250Y-90789443D01*
X244483701Y-90409271D01*
X244436457Y-90031049D01*
X244316333Y-89669310D01*
X244184312Y-89422317D01*
X243889224Y-89290381D01*
X242719605Y-90460000D01*
X242360395Y-90460000D01*
X241190776Y-89290381D01*
X240895688Y-89422317D01*
X240724841Y-89763045D01*
X240623750Y-90130557D01*
X240596299Y-90510729D01*
X240643543Y-90888951D01*
X240763667Y-91250690D01*
X240781050Y-91283212D01*
X240549834Y-91187439D01*
X240185656Y-91115000D01*
X239814344Y-91115000D01*
X239450166Y-91187439D01*
X239209991Y-91286923D01*
X239275159Y-91156955D01*
X239376250Y-90789443D01*
X239403701Y-90409271D01*
X239356457Y-90031049D01*
X239236333Y-89669310D01*
X239104312Y-89422317D01*
X238809224Y-89290381D01*
X237639605Y-90460000D01*
X237653748Y-90474143D01*
X237474143Y-90653748D01*
X237460000Y-90639605D01*
X237445858Y-90653748D01*
X237266253Y-90474143D01*
X237280395Y-90460000D01*
X236110776Y-89290381D01*
X235815688Y-89422317D01*
X235644841Y-89763045D01*
X235543750Y-90130557D01*
X235537542Y-90216536D01*
X235526011Y-90188699D01*
X235292362Y-89839018D01*
X234994982Y-89541638D01*
X234645301Y-89307989D01*
X234256756Y-89147048D01*
X234074405Y-89110776D01*
X236290381Y-89110776D01*
X237460000Y-90280395D01*
X238629619Y-89110776D01*
X241370381Y-89110776D01*
X242540000Y-90280395D01*
X243709619Y-89110776D01*
X243577683Y-88815688D01*
X243236955Y-88644841D01*
X242869443Y-88543750D01*
X242489271Y-88516299D01*
X242111049Y-88563543D01*
X241749310Y-88683667D01*
X241502317Y-88815688D01*
X241370381Y-89110776D01*
X238629619Y-89110776D01*
X238497683Y-88815688D01*
X238156955Y-88644841D01*
X237789443Y-88543750D01*
X237409271Y-88516299D01*
X237031049Y-88563543D01*
X236669310Y-88683667D01*
X236422317Y-88815688D01*
X236290381Y-89110776D01*
X234074405Y-89110776D01*
X233844279Y-89065001D01*
X233423721Y-89065001D01*
X233011244Y-89147048D01*
X232622699Y-89307989D01*
X232273018Y-89541638D01*
X231975638Y-89839018D01*
X231741989Y-90188699D01*
X231581048Y-90577244D01*
X231499001Y-90989721D01*
X231499001Y-91410279D01*
X231581048Y-91822756D01*
X231741989Y-92211301D01*
X231975638Y-92560982D01*
X232273018Y-92858362D01*
X232622699Y-93092011D01*
X233011244Y-93252952D01*
X233423721Y-93334999D01*
X233844279Y-93334999D01*
X233951601Y-93313651D01*
X234491863Y-93853914D01*
X234531630Y-93902370D01*
X234725012Y-94061075D01*
X234945641Y-94179003D01*
X235112416Y-94229594D01*
X235185036Y-94251623D01*
X235210755Y-94254156D01*
X235371620Y-94270000D01*
X235371626Y-94270000D01*
X235433999Y-94276143D01*
X235496372Y-94270000D01*
X236010392Y-94270000D01*
X236110774Y-94370382D01*
X235815688Y-94502317D01*
X235644841Y-94843045D01*
X235543750Y-95210557D01*
X235516299Y-95590729D01*
X235563543Y-95968951D01*
X235683667Y-96330690D01*
X235815688Y-96577683D01*
X236110776Y-96709619D01*
X237280395Y-95540000D01*
X237266253Y-95525858D01*
X237445858Y-95346253D01*
X237460000Y-95360395D01*
X237474143Y-95346253D01*
X237653748Y-95525858D01*
X237639605Y-95540000D01*
X237653748Y-95554143D01*
X237474143Y-95733748D01*
X237460000Y-95719605D01*
X236290381Y-96889224D01*
X236422317Y-97184312D01*
X236763045Y-97355159D01*
X237130557Y-97456250D01*
X237179251Y-97459766D01*
X237024027Y-97614990D01*
X232254399Y-97614990D01*
X232456037Y-97507213D01*
X232612047Y-97191652D01*
X231300000Y-95879605D01*
X229987953Y-97191652D01*
X230143963Y-97507213D01*
X230355660Y-97614990D01*
X223327000Y-97614990D01*
X223327000Y-97200000D01*
X223324560Y-97175224D01*
X223317333Y-97151399D01*
X223305597Y-97129443D01*
X223289803Y-97110197D01*
X223270557Y-97094403D01*
X223248601Y-97082667D01*
X223224776Y-97075440D01*
X223200000Y-97073000D01*
X223175224Y-97075440D01*
X223151399Y-97082667D01*
X223129443Y-97094403D01*
X223110197Y-97110197D01*
X222605404Y-97614990D01*
X220827382Y-97614990D01*
X220765009Y-97608847D01*
X220702636Y-97614990D01*
X220702630Y-97614990D01*
X220541765Y-97630834D01*
X220516046Y-97633367D01*
X220462023Y-97649755D01*
X220276651Y-97705987D01*
X220056022Y-97823915D01*
X219862640Y-97982620D01*
X219822875Y-98031074D01*
X213996091Y-103857859D01*
X213977642Y-103873000D01*
X198073051Y-103873000D01*
X199176052Y-102770000D01*
X202737627Y-102770000D01*
X202800000Y-102776143D01*
X202862373Y-102770000D01*
X202862380Y-102770000D01*
X203048963Y-102751623D01*
X203288359Y-102679003D01*
X203508988Y-102561075D01*
X203702370Y-102402370D01*
X203742141Y-102353909D01*
X207153914Y-98942137D01*
X207202370Y-98902370D01*
X207361075Y-98708988D01*
X207479003Y-98488359D01*
X207531904Y-98313968D01*
X207551623Y-98248964D01*
X207554697Y-98217757D01*
X207570000Y-98062380D01*
X207570000Y-98062374D01*
X207576143Y-98000001D01*
X207570000Y-97937628D01*
X207570000Y-96989608D01*
X207670382Y-96889226D01*
X207802317Y-97184312D01*
X208143045Y-97355159D01*
X208510557Y-97456250D01*
X208890729Y-97483701D01*
X209268951Y-97436457D01*
X209630690Y-97316333D01*
X209877683Y-97184312D01*
X210009619Y-96889224D01*
X218990381Y-96889224D01*
X219122317Y-97184312D01*
X219463045Y-97355159D01*
X219830557Y-97456250D01*
X220210729Y-97483701D01*
X220588951Y-97436457D01*
X220950690Y-97316333D01*
X221197683Y-97184312D01*
X221329619Y-96889224D01*
X224070381Y-96889224D01*
X224202317Y-97184312D01*
X224543045Y-97355159D01*
X224910557Y-97456250D01*
X225290729Y-97483701D01*
X225668951Y-97436457D01*
X226030690Y-97316333D01*
X226277683Y-97184312D01*
X226409619Y-96889224D01*
X225240000Y-95719605D01*
X224070381Y-96889224D01*
X221329619Y-96889224D01*
X220160000Y-95719605D01*
X218990381Y-96889224D01*
X210009619Y-96889224D01*
X208840000Y-95719605D01*
X208825858Y-95733748D01*
X208646253Y-95554143D01*
X208660395Y-95540000D01*
X209019605Y-95540000D01*
X210189224Y-96709619D01*
X210484312Y-96577683D01*
X210655159Y-96236955D01*
X210756250Y-95869443D01*
X210783701Y-95489271D01*
X210736457Y-95111049D01*
X210616333Y-94749310D01*
X210484312Y-94502317D01*
X210189224Y-94370381D01*
X209019605Y-95540000D01*
X208660395Y-95540000D01*
X208646253Y-95525858D01*
X208825858Y-95346253D01*
X208840000Y-95360395D01*
X210009619Y-94190776D01*
X209877683Y-93895688D01*
X209536955Y-93724841D01*
X209169443Y-93623750D01*
X208789271Y-93596299D01*
X208411049Y-93643543D01*
X208049310Y-93763667D01*
X208016788Y-93781050D01*
X208112561Y-93549834D01*
X208185000Y-93185656D01*
X208185000Y-92814344D01*
X208167368Y-92725701D01*
X211815000Y-92725701D01*
X211815000Y-93274299D01*
X211922026Y-93812354D01*
X212131965Y-94319192D01*
X212436750Y-94775334D01*
X212824666Y-95163250D01*
X213280808Y-95468035D01*
X213787646Y-95677974D01*
X214325701Y-95785000D01*
X214874299Y-95785000D01*
X215412354Y-95677974D01*
X215622982Y-95590729D01*
X218216299Y-95590729D01*
X218263543Y-95968951D01*
X218383667Y-96330690D01*
X218515688Y-96577683D01*
X218810776Y-96709619D01*
X219980395Y-95540000D01*
X218810776Y-94370381D01*
X218515688Y-94502317D01*
X218344841Y-94843045D01*
X218243750Y-95210557D01*
X218216299Y-95590729D01*
X215622982Y-95590729D01*
X215919192Y-95468035D01*
X216375334Y-95163250D01*
X216763250Y-94775334D01*
X217068035Y-94319192D01*
X217277974Y-93812354D01*
X217385000Y-93274299D01*
X217385000Y-92725701D01*
X217277974Y-92187646D01*
X217121227Y-91809224D01*
X218990381Y-91809224D01*
X219122317Y-92104312D01*
X219463045Y-92275159D01*
X219830557Y-92376250D01*
X220210729Y-92403701D01*
X220588951Y-92356457D01*
X220950690Y-92236333D01*
X220983212Y-92218950D01*
X220887439Y-92450166D01*
X220815000Y-92814344D01*
X220815000Y-93185656D01*
X220887439Y-93549834D01*
X220986923Y-93790009D01*
X220856955Y-93724841D01*
X220489443Y-93623750D01*
X220109271Y-93596299D01*
X219731049Y-93643543D01*
X219369310Y-93763667D01*
X219122317Y-93895688D01*
X218990381Y-94190776D01*
X220160000Y-95360395D01*
X220174143Y-95346253D01*
X220353748Y-95525858D01*
X220339605Y-95540000D01*
X221509224Y-96709619D01*
X221804312Y-96577683D01*
X221975159Y-96236955D01*
X222076250Y-95869443D01*
X222103701Y-95489271D01*
X222056457Y-95111049D01*
X221936333Y-94749310D01*
X221918950Y-94716788D01*
X222150166Y-94812561D01*
X222514344Y-94885000D01*
X222885656Y-94885000D01*
X223249834Y-94812561D01*
X223490009Y-94713077D01*
X223424841Y-94843045D01*
X223323750Y-95210557D01*
X223296299Y-95590729D01*
X223343543Y-95968951D01*
X223463667Y-96330690D01*
X223595688Y-96577683D01*
X223890776Y-96709619D01*
X225060395Y-95540000D01*
X225419605Y-95540000D01*
X226589224Y-96709619D01*
X226884312Y-96577683D01*
X227055159Y-96236955D01*
X227156250Y-95869443D01*
X227165392Y-95742825D01*
X229155098Y-95742825D01*
X229204667Y-96160452D01*
X229334758Y-96560383D01*
X229492787Y-96856037D01*
X229808348Y-97012047D01*
X231120395Y-95700000D01*
X231479605Y-95700000D01*
X232791652Y-97012047D01*
X233107213Y-96856037D01*
X233298019Y-96481254D01*
X233412043Y-96076448D01*
X233444902Y-95657175D01*
X233395333Y-95239548D01*
X233265242Y-94839617D01*
X233107213Y-94543963D01*
X232791652Y-94387953D01*
X231479605Y-95700000D01*
X231120395Y-95700000D01*
X229808348Y-94387953D01*
X229492787Y-94543963D01*
X229301981Y-94918746D01*
X229187957Y-95323552D01*
X229155098Y-95742825D01*
X227165392Y-95742825D01*
X227183701Y-95489271D01*
X227136457Y-95111049D01*
X227016333Y-94749310D01*
X226884312Y-94502317D01*
X226589224Y-94370381D01*
X225419605Y-95540000D01*
X225060395Y-95540000D01*
X225046253Y-95525858D01*
X225225858Y-95346253D01*
X225240000Y-95360395D01*
X226392047Y-94208348D01*
X229987953Y-94208348D01*
X231300000Y-95520395D01*
X232612047Y-94208348D01*
X232456037Y-93892787D01*
X232081254Y-93701981D01*
X231676448Y-93587957D01*
X231257175Y-93555098D01*
X230839548Y-93604667D01*
X230439617Y-93734758D01*
X230143963Y-93892787D01*
X229987953Y-94208348D01*
X226392047Y-94208348D01*
X226409619Y-94190776D01*
X226277683Y-93895688D01*
X225936955Y-93724841D01*
X225569443Y-93623750D01*
X225189271Y-93596299D01*
X224811049Y-93643543D01*
X224449310Y-93763667D01*
X224416788Y-93781050D01*
X224512561Y-93549834D01*
X224585000Y-93185656D01*
X224585000Y-92814344D01*
X224512561Y-92450166D01*
X224413077Y-92209991D01*
X224543045Y-92275159D01*
X224910557Y-92376250D01*
X225290729Y-92403701D01*
X225668951Y-92356457D01*
X226030690Y-92236333D01*
X226277683Y-92104312D01*
X226409619Y-91809224D01*
X225240000Y-90639605D01*
X225225858Y-90653748D01*
X225046253Y-90474143D01*
X225060395Y-90460000D01*
X225419605Y-90460000D01*
X226589224Y-91629619D01*
X226884312Y-91497683D01*
X226965001Y-91336761D01*
X226965001Y-91410279D01*
X227047048Y-91822756D01*
X227207989Y-92211301D01*
X227441638Y-92560982D01*
X227739018Y-92858362D01*
X228088699Y-93092011D01*
X228477244Y-93252952D01*
X228889721Y-93334999D01*
X229310279Y-93334999D01*
X229722756Y-93252952D01*
X230111301Y-93092011D01*
X230460982Y-92858362D01*
X230758362Y-92560982D01*
X230992011Y-92211301D01*
X231152952Y-91822756D01*
X231234999Y-91410279D01*
X231234999Y-90989721D01*
X231152952Y-90577244D01*
X230992011Y-90188699D01*
X230758362Y-89839018D01*
X230460982Y-89541638D01*
X230111301Y-89307989D01*
X229722756Y-89147048D01*
X229310279Y-89065001D01*
X228889721Y-89065001D01*
X228477244Y-89147048D01*
X228088699Y-89307989D01*
X227739018Y-89541638D01*
X227441638Y-89839018D01*
X227207989Y-90188699D01*
X227168160Y-90284854D01*
X227136457Y-90031049D01*
X227016333Y-89669310D01*
X226884312Y-89422317D01*
X226589224Y-89290381D01*
X225419605Y-90460000D01*
X225060395Y-90460000D01*
X223890776Y-89290381D01*
X223595688Y-89422317D01*
X223424841Y-89763045D01*
X223323750Y-90130557D01*
X223296299Y-90510729D01*
X223343543Y-90888951D01*
X223463667Y-91250690D01*
X223481050Y-91283212D01*
X223249834Y-91187439D01*
X222885656Y-91115000D01*
X222514344Y-91115000D01*
X222150166Y-91187439D01*
X221909991Y-91286923D01*
X221975159Y-91156955D01*
X222076250Y-90789443D01*
X222103701Y-90409271D01*
X222056457Y-90031049D01*
X221936333Y-89669310D01*
X221804312Y-89422317D01*
X221509224Y-89290381D01*
X220339605Y-90460000D01*
X220353748Y-90474143D01*
X220174143Y-90653748D01*
X220160000Y-90639605D01*
X218990381Y-91809224D01*
X217121227Y-91809224D01*
X217068035Y-91680808D01*
X216763250Y-91224666D01*
X216375334Y-90836750D01*
X215919192Y-90531965D01*
X215867924Y-90510729D01*
X218216299Y-90510729D01*
X218263543Y-90888951D01*
X218383667Y-91250690D01*
X218515688Y-91497683D01*
X218810776Y-91629619D01*
X219980395Y-90460000D01*
X218810776Y-89290381D01*
X218515688Y-89422317D01*
X218344841Y-89763045D01*
X218243750Y-90130557D01*
X218216299Y-90510729D01*
X215867924Y-90510729D01*
X215412354Y-90322026D01*
X214874299Y-90215000D01*
X214325701Y-90215000D01*
X213787646Y-90322026D01*
X213280808Y-90531965D01*
X212824666Y-90836750D01*
X212436750Y-91224666D01*
X212131965Y-91680808D01*
X211922026Y-92187646D01*
X211815000Y-92725701D01*
X208167368Y-92725701D01*
X208112561Y-92450166D01*
X208013077Y-92209991D01*
X208143045Y-92275159D01*
X208510557Y-92376250D01*
X208890729Y-92403701D01*
X209268951Y-92356457D01*
X209630690Y-92236333D01*
X209877683Y-92104312D01*
X210009619Y-91809224D01*
X208840000Y-90639605D01*
X208825858Y-90653748D01*
X208646253Y-90474143D01*
X208660395Y-90460000D01*
X209019605Y-90460000D01*
X210189224Y-91629619D01*
X210484312Y-91497683D01*
X210655159Y-91156955D01*
X210756250Y-90789443D01*
X210783701Y-90409271D01*
X210736457Y-90031049D01*
X210616333Y-89669310D01*
X210484312Y-89422317D01*
X210189224Y-89290381D01*
X209019605Y-90460000D01*
X208660395Y-90460000D01*
X207490776Y-89290381D01*
X207195688Y-89422317D01*
X207024841Y-89763045D01*
X206923750Y-90130557D01*
X206896299Y-90510729D01*
X206943543Y-90888951D01*
X207063667Y-91250690D01*
X207081050Y-91283212D01*
X206849834Y-91187439D01*
X206485656Y-91115000D01*
X206114344Y-91115000D01*
X205750166Y-91187439D01*
X205509991Y-91286923D01*
X205575159Y-91156955D01*
X205676250Y-90789443D01*
X205703701Y-90409271D01*
X205656457Y-90031049D01*
X205536333Y-89669310D01*
X205404312Y-89422317D01*
X205109224Y-89290381D01*
X203939605Y-90460000D01*
X203953748Y-90474143D01*
X203774143Y-90653748D01*
X203760000Y-90639605D01*
X203745858Y-90653748D01*
X203566253Y-90474143D01*
X203580395Y-90460000D01*
X202410776Y-89290381D01*
X202115688Y-89422317D01*
X201944841Y-89763045D01*
X201843750Y-90130557D01*
X201816299Y-90510729D01*
X201863543Y-90888951D01*
X201983667Y-91250690D01*
X202115688Y-91497683D01*
X202410774Y-91629618D01*
X202310392Y-91730000D01*
X201619154Y-91730000D01*
X201558362Y-91639018D01*
X201260982Y-91341638D01*
X200911301Y-91107989D01*
X200522756Y-90947048D01*
X200110279Y-90865001D01*
X199689721Y-90865001D01*
X199277244Y-90947048D01*
X198888699Y-91107989D01*
X198539018Y-91341638D01*
X198241638Y-91639018D01*
X198007989Y-91988699D01*
X197847048Y-92377244D01*
X197765001Y-92789721D01*
X197765001Y-93210279D01*
X197847048Y-93622756D01*
X198007989Y-94011301D01*
X198241638Y-94360982D01*
X198539018Y-94658362D01*
X198888699Y-94892011D01*
X199277244Y-95052952D01*
X199689721Y-95134999D01*
X200110279Y-95134999D01*
X200522756Y-95052952D01*
X200911301Y-94892011D01*
X201260982Y-94658362D01*
X201558362Y-94360982D01*
X201619154Y-94270000D01*
X202310392Y-94270000D01*
X202410774Y-94370382D01*
X202115688Y-94502317D01*
X201944841Y-94843045D01*
X201843750Y-95210557D01*
X201816299Y-95590729D01*
X201863543Y-95968951D01*
X201983667Y-96330690D01*
X202115688Y-96577683D01*
X202410776Y-96709619D01*
X203580395Y-95540000D01*
X203566253Y-95525858D01*
X203745858Y-95346253D01*
X203760000Y-95360395D01*
X203774143Y-95346253D01*
X203953748Y-95525858D01*
X203939605Y-95540000D01*
X203953748Y-95554143D01*
X203774143Y-95733748D01*
X203760000Y-95719605D01*
X202590381Y-96889224D01*
X202722317Y-97184312D01*
X203063045Y-97355159D01*
X203430557Y-97456250D01*
X203810729Y-97483701D01*
X204188951Y-97436457D01*
X204550690Y-97316333D01*
X204797683Y-97184312D01*
X204929618Y-96889226D01*
X205030001Y-96989609D01*
X205030001Y-97473948D01*
X202273950Y-100230000D01*
X198712380Y-100230000D01*
X198650000Y-100223856D01*
X198459407Y-100242628D01*
X198401037Y-100248377D01*
X198161641Y-100320997D01*
X197941012Y-100438925D01*
X197859024Y-100506211D01*
X197796083Y-100557865D01*
X197796080Y-100557868D01*
X197747630Y-100597630D01*
X197707868Y-100646080D01*
X195406000Y-102947949D01*
X195406364Y-102928743D01*
X195405148Y-102913339D01*
X195406206Y-102897919D01*
X195405882Y-102888988D01*
X195403351Y-102830423D01*
X195398254Y-102794493D01*
X195396119Y-102758252D01*
X195394663Y-102749435D01*
X195387077Y-102705387D01*
X195370963Y-102646771D01*
X195355108Y-102587946D01*
X195354003Y-102585081D01*
X195353967Y-102584949D01*
X195353903Y-102584822D01*
X195351893Y-102579608D01*
X195338212Y-102544849D01*
X195336531Y-102541562D01*
X195335483Y-102538033D01*
X195308113Y-102485991D01*
X195281342Y-102433641D01*
X195279059Y-102430749D01*
X195277342Y-102427484D01*
X195272378Y-102420054D01*
X195251563Y-102389357D01*
X195241419Y-102377157D01*
X195240074Y-102374744D01*
X195230633Y-102363626D01*
X195216019Y-102341842D01*
X195210292Y-102334983D01*
X195202574Y-102325867D01*
X195182887Y-102306760D01*
X195171706Y-102293312D01*
X195169183Y-102291265D01*
X195159223Y-102279536D01*
X195152758Y-102273367D01*
X195104500Y-102227952D01*
X195086225Y-102213847D01*
X195069829Y-102197602D01*
X195036899Y-102175776D01*
X195005620Y-102151635D01*
X194984957Y-102141350D01*
X194965715Y-102128597D01*
X194957791Y-102124466D01*
X194906030Y-102097938D01*
X194879104Y-102087312D01*
X194853443Y-102073921D01*
X194821150Y-102064442D01*
X194789844Y-102052088D01*
X194761371Y-102046895D01*
X194733594Y-102038742D01*
X194724804Y-102037135D01*
X194661504Y-102026021D01*
X194619899Y-102022851D01*
X194578576Y-102016980D01*
X194569646Y-102016656D01*
X194538779Y-102015748D01*
X194496229Y-102018660D01*
X194453563Y-102018924D01*
X194444682Y-102019914D01*
X194362982Y-102029591D01*
X194335148Y-102035688D01*
X194322950Y-102037024D01*
X194309003Y-102032600D01*
X194306775Y-102032350D01*
X194304630Y-102031686D01*
X194273056Y-102028368D01*
X194275176Y-102024474D01*
X194279556Y-102010470D01*
X194287051Y-101994592D01*
X194289999Y-101986156D01*
X194291506Y-101981747D01*
X194298408Y-101952484D01*
X194306806Y-101928182D01*
X194308006Y-101919493D01*
X194312457Y-101905261D01*
X194314919Y-101882477D01*
X194320178Y-101860177D01*
X194321587Y-101821183D01*
X194323899Y-101804451D01*
X194323706Y-101801143D01*
X194325874Y-101781078D01*
X194323863Y-101758243D01*
X194324690Y-101735352D01*
X194318396Y-101696184D01*
X194314914Y-101656653D01*
X194308509Y-101634655D01*
X194304873Y-101612028D01*
X194291088Y-101574821D01*
X194291078Y-101574787D01*
X194288694Y-101563647D01*
X194286033Y-101557462D01*
X194279996Y-101536727D01*
X194276615Y-101528455D01*
X194269624Y-101511689D01*
X194263407Y-101500110D01*
X194261477Y-101494902D01*
X194254529Y-101483578D01*
X194253123Y-101480958D01*
X194239335Y-101448907D01*
X194234964Y-101441113D01*
X194215645Y-101407210D01*
X194211400Y-101401210D01*
X194208251Y-101394574D01*
X194203597Y-101386946D01*
X194190021Y-101365040D01*
X194191945Y-101364421D01*
X194197495Y-101363677D01*
X194206179Y-101361571D01*
X194249156Y-101350831D01*
X194266608Y-101344606D01*
X194284751Y-101340835D01*
X194293262Y-101338111D01*
X194318035Y-101329994D01*
X194362933Y-101310246D01*
X194366802Y-101308866D01*
X194368850Y-101307643D01*
X194370220Y-101307041D01*
X194405954Y-101293517D01*
X194415652Y-101287473D01*
X194427827Y-101282236D01*
X194432234Y-101279765D01*
X194432370Y-101279705D01*
X194432489Y-101279622D01*
X194435622Y-101277865D01*
X194438943Y-101275973D01*
X194474733Y-101250654D01*
X194511960Y-101227455D01*
X194525630Y-101214649D01*
X194540914Y-101203837D01*
X194571106Y-101172048D01*
X194603116Y-101142061D01*
X194614038Y-101126844D01*
X194626931Y-101113269D01*
X194650378Y-101076214D01*
X194675950Y-101040587D01*
X194683705Y-101023546D01*
X194693720Y-101007719D01*
X194709525Y-100966810D01*
X194727687Y-100926901D01*
X194730518Y-100918425D01*
X194735992Y-100901647D01*
X194737721Y-100893828D01*
X194738734Y-100891206D01*
X194740375Y-100881825D01*
X194748635Y-100844474D01*
X194761980Y-100787436D01*
X194762946Y-100779756D01*
X194762961Y-100779687D01*
X194762962Y-100779623D01*
X194763095Y-100778569D01*
X194767545Y-100741077D01*
X194767812Y-100728014D01*
X194770089Y-100715146D01*
X194770718Y-100706232D01*
X194774140Y-100652381D01*
X194773995Y-100648140D01*
X194774620Y-100643945D01*
X194775007Y-100635017D01*
X194777398Y-100569167D01*
X194777322Y-100567932D01*
X194777483Y-100566702D01*
X194777710Y-100557768D01*
X194779068Y-100484277D01*
X194779060Y-100484176D01*
X194779072Y-100484073D01*
X194779171Y-100475137D01*
X194779492Y-100398554D01*
X194779493Y-100398546D01*
X194779470Y-100389609D01*
X194778752Y-100313913D01*
X194778697Y-100313406D01*
X194778742Y-100312892D01*
X194778580Y-100303957D01*
X194776820Y-100233694D01*
X194776531Y-100231356D01*
X194776686Y-100228994D01*
X194776334Y-100220064D01*
X194773529Y-100159594D01*
X194772482Y-100152378D01*
X194772691Y-100145093D01*
X194772012Y-100136183D01*
X194768158Y-100089863D01*
X194763687Y-100065399D01*
X194762125Y-100040580D01*
X194760634Y-100031769D01*
X194755729Y-100003958D01*
X194747536Y-99974617D01*
X194742323Y-99944604D01*
X194730778Y-99914608D01*
X194722134Y-99883655D01*
X194708963Y-99857584D01*
X194701707Y-99837178D01*
X194699639Y-99833705D01*
X194697456Y-99828034D01*
X194693392Y-99820076D01*
X194690435Y-99814384D01*
X194675696Y-99791734D01*
X194665812Y-99772168D01*
X194653950Y-99756987D01*
X194637796Y-99729861D01*
X194629266Y-99720379D01*
X194622311Y-99709691D01*
X194595470Y-99682140D01*
X194588909Y-99673743D01*
X194581760Y-99667573D01*
X194554258Y-99637002D01*
X194544044Y-99629354D01*
X194535149Y-99620224D01*
X194529962Y-99616652D01*
X196380953Y-99616652D01*
X196536963Y-99932213D01*
X196911746Y-100123019D01*
X197316552Y-100237043D01*
X197735825Y-100269902D01*
X198153452Y-100220333D01*
X198553383Y-100090242D01*
X198849037Y-99932213D01*
X199005047Y-99616652D01*
X197693000Y-98304605D01*
X196380953Y-99616652D01*
X194529962Y-99616652D01*
X194494368Y-99592145D01*
X194494352Y-99592131D01*
X194494328Y-99592117D01*
X194494140Y-99591988D01*
X194454273Y-99562137D01*
X194442778Y-99556623D01*
X194432271Y-99549389D01*
X194393160Y-99532506D01*
X194386517Y-99528421D01*
X194375244Y-99524230D01*
X194341653Y-99508118D01*
X194333235Y-99505117D01*
X194316773Y-99499376D01*
X194292678Y-99493536D01*
X194269440Y-99484897D01*
X194260784Y-99482676D01*
X194223298Y-99473335D01*
X194219385Y-99472758D01*
X194215636Y-99471475D01*
X194206925Y-99469483D01*
X194189809Y-99465693D01*
X194213147Y-99428210D01*
X194217636Y-99419131D01*
X194223552Y-99410898D01*
X194227979Y-99403135D01*
X194241687Y-99378709D01*
X194259814Y-99337416D01*
X194274358Y-99310817D01*
X194277120Y-99302042D01*
X194282369Y-99291407D01*
X194285465Y-99283024D01*
X194287444Y-99277547D01*
X194289303Y-99270237D01*
X194291893Y-99264337D01*
X194298818Y-99233103D01*
X194311858Y-99191673D01*
X194313816Y-99173855D01*
X194318231Y-99156495D01*
X194320622Y-99111920D01*
X194325501Y-99067514D01*
X194323961Y-99049655D01*
X194324920Y-99031768D01*
X194318606Y-98987568D01*
X194314768Y-98943070D01*
X194309790Y-98925858D01*
X194307256Y-98908117D01*
X194292471Y-98865970D01*
X194280067Y-98823080D01*
X194271841Y-98807162D01*
X194265909Y-98790253D01*
X194243615Y-98752452D01*
X194237638Y-98738535D01*
X194232514Y-98731063D01*
X194222722Y-98712116D01*
X194217812Y-98704650D01*
X194209302Y-98691904D01*
X194204321Y-98685825D01*
X194202457Y-98682664D01*
X194193537Y-98672663D01*
X194186943Y-98664616D01*
X194166994Y-98635527D01*
X194161197Y-98628726D01*
X194137670Y-98601511D01*
X194133745Y-98597779D01*
X194130539Y-98593400D01*
X194124535Y-98586781D01*
X194088995Y-98548146D01*
X194088785Y-98547958D01*
X194088611Y-98547728D01*
X194082509Y-98541199D01*
X194037964Y-98494194D01*
X194037858Y-98494102D01*
X194033742Y-98489781D01*
X193983195Y-98437452D01*
X193983071Y-98437347D01*
X193979835Y-98434000D01*
X193926294Y-98379400D01*
X193926176Y-98379302D01*
X193923122Y-98376187D01*
X193869591Y-98322363D01*
X193869473Y-98322265D01*
X193866024Y-98318804D01*
X193815508Y-98268804D01*
X193815413Y-98268727D01*
X193810718Y-98264112D01*
X193766223Y-98220985D01*
X193765369Y-98220306D01*
X193764660Y-98219475D01*
X193758179Y-98213323D01*
X193722709Y-98180119D01*
X193716008Y-98174975D01*
X193710260Y-98168767D01*
X193709184Y-98167825D01*
X195548098Y-98167825D01*
X195597667Y-98585452D01*
X195727758Y-98985383D01*
X195885787Y-99281037D01*
X196201348Y-99437047D01*
X197513395Y-98125000D01*
X197872605Y-98125000D01*
X199184652Y-99437047D01*
X199500213Y-99281037D01*
X199691019Y-98906254D01*
X199805043Y-98501448D01*
X199837902Y-98082175D01*
X199788333Y-97664548D01*
X199658242Y-97264617D01*
X199500213Y-96968963D01*
X199184652Y-96812953D01*
X197872605Y-98125000D01*
X197513395Y-98125000D01*
X196201348Y-96812953D01*
X195885787Y-96968963D01*
X195694981Y-97343746D01*
X195580957Y-97748552D01*
X195548098Y-98167825D01*
X193709184Y-98167825D01*
X193703536Y-98162881D01*
X193680098Y-98142648D01*
X193666334Y-98132938D01*
X193665395Y-98131979D01*
X193651220Y-98122275D01*
X193641871Y-98115679D01*
X193605025Y-98086869D01*
X193597449Y-98082131D01*
X193589608Y-98077303D01*
X193582679Y-98073920D01*
X193578035Y-98070644D01*
X193571644Y-98067798D01*
X193562327Y-98061420D01*
X193519367Y-98043010D01*
X193477364Y-98022504D01*
X193462070Y-98018457D01*
X193447518Y-98012221D01*
X193401777Y-98002502D01*
X193356614Y-97990551D01*
X193340826Y-97989551D01*
X193325340Y-97986261D01*
X193278596Y-97985612D01*
X193231958Y-97982659D01*
X193216272Y-97984746D01*
X193200446Y-97984526D01*
X193154476Y-97992967D01*
X193108142Y-97999131D01*
X193093156Y-98004226D01*
X193077593Y-98007084D01*
X193034129Y-98024296D01*
X193029981Y-98025706D01*
X193022472Y-98027633D01*
X193017965Y-98029792D01*
X192989885Y-98039339D01*
X192976185Y-98047242D01*
X192961462Y-98053072D01*
X192953543Y-98057213D01*
X192940777Y-98064003D01*
X192925917Y-98073877D01*
X192909820Y-98081587D01*
X192902208Y-98086268D01*
X192871673Y-98105343D01*
X192870831Y-98105991D01*
X192869882Y-98106466D01*
X192862352Y-98111278D01*
X192846234Y-98121737D01*
X192836462Y-98069901D01*
X192836267Y-98069233D01*
X192836204Y-98068542D01*
X192818734Y-98009185D01*
X192801454Y-97950001D01*
X192801135Y-97949388D01*
X192800938Y-97948718D01*
X192772249Y-97893842D01*
X192743825Y-97839184D01*
X192743391Y-97838642D01*
X192743069Y-97838026D01*
X192704323Y-97789835D01*
X192665769Y-97741670D01*
X192665239Y-97741223D01*
X192664803Y-97740681D01*
X192617354Y-97700867D01*
X192570259Y-97661176D01*
X192569653Y-97660841D01*
X192569119Y-97660393D01*
X192514691Y-97630471D01*
X192460933Y-97600766D01*
X192460276Y-97600556D01*
X192459663Y-97600219D01*
X192400616Y-97581489D01*
X192341956Y-97562741D01*
X192341265Y-97562662D01*
X192340603Y-97562452D01*
X192279201Y-97555564D01*
X192217859Y-97548549D01*
X192217167Y-97548606D01*
X192216476Y-97548528D01*
X192207540Y-97548466D01*
X191579885Y-97548466D01*
X191579196Y-97548534D01*
X191578502Y-97548467D01*
X191516689Y-97554663D01*
X191455575Y-97560655D01*
X191454915Y-97560854D01*
X191454219Y-97560924D01*
X191394839Y-97578992D01*
X191336000Y-97596757D01*
X191335388Y-97597082D01*
X191334722Y-97597285D01*
X191280094Y-97626482D01*
X191225714Y-97655396D01*
X191225177Y-97655834D01*
X191224563Y-97656162D01*
X191176551Y-97695493D01*
X191128919Y-97734341D01*
X191128479Y-97734873D01*
X191127938Y-97735316D01*
X191088399Y-97783321D01*
X191049301Y-97830583D01*
X191048973Y-97831190D01*
X191048528Y-97831730D01*
X191019146Y-97886354D01*
X190989893Y-97940456D01*
X190989688Y-97941119D01*
X190989358Y-97941732D01*
X190971177Y-98000916D01*
X190952957Y-98059776D01*
X190952885Y-98060465D01*
X190952680Y-98061131D01*
X190950963Y-98069901D01*
X190941180Y-98121792D01*
X190911611Y-98102791D01*
X190908763Y-98101332D01*
X190906228Y-98099369D01*
X190898629Y-98094667D01*
X190873068Y-98079093D01*
X190848895Y-98067431D01*
X190826161Y-98053141D01*
X190818139Y-98049203D01*
X190811178Y-98045844D01*
X190792744Y-98039079D01*
X190775396Y-98029915D01*
X190764169Y-98026558D01*
X190760568Y-98024821D01*
X190743797Y-98020467D01*
X190734245Y-98017611D01*
X190693918Y-98002812D01*
X190674535Y-97999758D01*
X190655724Y-97994134D01*
X190612949Y-97990056D01*
X190570534Y-97983374D01*
X190550927Y-97984143D01*
X190531382Y-97982280D01*
X190488637Y-97986587D01*
X190445724Y-97988271D01*
X190426637Y-97992835D01*
X190407105Y-97994803D01*
X190366019Y-98007329D01*
X190324242Y-98017318D01*
X190306397Y-98025506D01*
X190287628Y-98031228D01*
X190249759Y-98051494D01*
X190210716Y-98069408D01*
X190194811Y-98080899D01*
X190177500Y-98090163D01*
X190170106Y-98095181D01*
X190157566Y-98103817D01*
X190130453Y-98126692D01*
X190101494Y-98147199D01*
X190094781Y-98153098D01*
X190067985Y-98176976D01*
X190064322Y-98180946D01*
X190060008Y-98184205D01*
X190053480Y-98190307D01*
X190015431Y-98226375D01*
X190015254Y-98226579D01*
X190015036Y-98226749D01*
X190008599Y-98232948D01*
X189962300Y-98278156D01*
X189962212Y-98278261D01*
X189957961Y-98282433D01*
X189906417Y-98333730D01*
X189906318Y-98333850D01*
X189903028Y-98337128D01*
X189849242Y-98391465D01*
X189849142Y-98391588D01*
X189846092Y-98394670D01*
X189793066Y-98448997D01*
X189792971Y-98449116D01*
X189789573Y-98452603D01*
X189740314Y-98503870D01*
X189740239Y-98503965D01*
X189735717Y-98508704D01*
X189693225Y-98553860D01*
X189692584Y-98554691D01*
X189691790Y-98555389D01*
X189685733Y-98561960D01*
X189653013Y-98597955D01*
X189648026Y-98604653D01*
X189641980Y-98610414D01*
X189636191Y-98617221D01*
X189616247Y-98641005D01*
X189590214Y-98679052D01*
X189562255Y-98715724D01*
X189557610Y-98723358D01*
X189552842Y-98731319D01*
X189549235Y-98738943D01*
X189545713Y-98744090D01*
X189535360Y-98768267D01*
X189528088Y-98783637D01*
X189502564Y-98835646D01*
X189501380Y-98840084D01*
X189499421Y-98844224D01*
X189485315Y-98900295D01*
X189470364Y-98956330D01*
X189470064Y-98960915D01*
X189468947Y-98965356D01*
X189465998Y-99023134D01*
X189462218Y-99080971D01*
X189462814Y-99085520D01*
X189462580Y-99090100D01*
X189470923Y-99147439D01*
X189478438Y-99204819D01*
X189479904Y-99209159D01*
X189480565Y-99213704D01*
X189499875Y-99268298D01*
X189500174Y-99269182D01*
X189503231Y-99282120D01*
X189508300Y-99293247D01*
X189518402Y-99323159D01*
X189522131Y-99331280D01*
X189528993Y-99345955D01*
X189543346Y-99370166D01*
X189555018Y-99395784D01*
X189559553Y-99403484D01*
X189578790Y-99435633D01*
X189581417Y-99439184D01*
X189583359Y-99443151D01*
X189588106Y-99450723D01*
X189597597Y-99465631D01*
X189553398Y-99475896D01*
X189544714Y-99478831D01*
X189535654Y-99480284D01*
X189527027Y-99482614D01*
X189499340Y-99490298D01*
X189461069Y-99505074D01*
X189421884Y-99517247D01*
X189413674Y-99520776D01*
X189408109Y-99523215D01*
X189396092Y-99529947D01*
X189383181Y-99534779D01*
X189341671Y-99560434D01*
X189299138Y-99584262D01*
X189288658Y-99593200D01*
X189276930Y-99600448D01*
X189241198Y-99633674D01*
X189204099Y-99665312D01*
X189195552Y-99676118D01*
X189185459Y-99685503D01*
X189156881Y-99725010D01*
X189126612Y-99763278D01*
X189120321Y-99775549D01*
X189112250Y-99786707D01*
X189091886Y-99831017D01*
X189085140Y-99844176D01*
X188899748Y-99396601D01*
X188529302Y-98842188D01*
X188057812Y-98370698D01*
X187503399Y-98000252D01*
X186887368Y-97745083D01*
X186233393Y-97615000D01*
X185566607Y-97615000D01*
X184912632Y-97745083D01*
X184296601Y-98000252D01*
X183742188Y-98370698D01*
X183270698Y-98842188D01*
X183127000Y-99057248D01*
X183127000Y-96889224D01*
X185290381Y-96889224D01*
X185422317Y-97184312D01*
X185763045Y-97355159D01*
X186130557Y-97456250D01*
X186510729Y-97483701D01*
X186888951Y-97436457D01*
X187250690Y-97316333D01*
X187497683Y-97184312D01*
X187629619Y-96889224D01*
X190370381Y-96889224D01*
X190502317Y-97184312D01*
X190843045Y-97355159D01*
X191210557Y-97456250D01*
X191590729Y-97483701D01*
X191968951Y-97436457D01*
X192330690Y-97316333D01*
X192577683Y-97184312D01*
X192709619Y-96889224D01*
X191540000Y-95719605D01*
X190370381Y-96889224D01*
X187629619Y-96889224D01*
X186460000Y-95719605D01*
X185290381Y-96889224D01*
X183127000Y-96889224D01*
X183127000Y-95590729D01*
X184516299Y-95590729D01*
X184563543Y-95968951D01*
X184683667Y-96330690D01*
X184815688Y-96577683D01*
X185110776Y-96709619D01*
X186280395Y-95540000D01*
X185110776Y-94370381D01*
X184815688Y-94502317D01*
X184644841Y-94843045D01*
X184543750Y-95210557D01*
X184516299Y-95590729D01*
X183127000Y-95590729D01*
X183127000Y-91809224D01*
X185290381Y-91809224D01*
X185422317Y-92104312D01*
X185763045Y-92275159D01*
X186130557Y-92376250D01*
X186510729Y-92403701D01*
X186888951Y-92356457D01*
X187250690Y-92236333D01*
X187283212Y-92218950D01*
X187187439Y-92450166D01*
X187115000Y-92814344D01*
X187115000Y-93185656D01*
X187187439Y-93549834D01*
X187286923Y-93790009D01*
X187156955Y-93724841D01*
X186789443Y-93623750D01*
X186409271Y-93596299D01*
X186031049Y-93643543D01*
X185669310Y-93763667D01*
X185422317Y-93895688D01*
X185290381Y-94190776D01*
X186460000Y-95360395D01*
X186474143Y-95346253D01*
X186653748Y-95525858D01*
X186639605Y-95540000D01*
X187809224Y-96709619D01*
X188104312Y-96577683D01*
X188275159Y-96236955D01*
X188376250Y-95869443D01*
X188403701Y-95489271D01*
X188356457Y-95111049D01*
X188236333Y-94749310D01*
X188218950Y-94716788D01*
X188450166Y-94812561D01*
X188814344Y-94885000D01*
X189185656Y-94885000D01*
X189549834Y-94812561D01*
X189790009Y-94713077D01*
X189724841Y-94843045D01*
X189623750Y-95210557D01*
X189596299Y-95590729D01*
X189643543Y-95968951D01*
X189763667Y-96330690D01*
X189895688Y-96577683D01*
X190190776Y-96709619D01*
X191360395Y-95540000D01*
X191719605Y-95540000D01*
X192889224Y-96709619D01*
X193059811Y-96633348D01*
X196380953Y-96633348D01*
X197693000Y-97945395D01*
X199005047Y-96633348D01*
X198849037Y-96317787D01*
X198474254Y-96126981D01*
X198069448Y-96012957D01*
X197650175Y-95980098D01*
X197232548Y-96029667D01*
X196832617Y-96159758D01*
X196536963Y-96317787D01*
X196380953Y-96633348D01*
X193059811Y-96633348D01*
X193184312Y-96577683D01*
X193355159Y-96236955D01*
X193456250Y-95869443D01*
X193483701Y-95489271D01*
X193436457Y-95111049D01*
X193316333Y-94749310D01*
X193184312Y-94502317D01*
X192889224Y-94370381D01*
X191719605Y-95540000D01*
X191360395Y-95540000D01*
X191346253Y-95525858D01*
X191525858Y-95346253D01*
X191540000Y-95360395D01*
X192709619Y-94190776D01*
X192577683Y-93895688D01*
X192236955Y-93724841D01*
X191869443Y-93623750D01*
X191489271Y-93596299D01*
X191111049Y-93643543D01*
X190749310Y-93763667D01*
X190716788Y-93781050D01*
X190812561Y-93549834D01*
X190885000Y-93185656D01*
X190885000Y-92814344D01*
X190880103Y-92789721D01*
X193265001Y-92789721D01*
X193265001Y-93210279D01*
X193347048Y-93622756D01*
X193507989Y-94011301D01*
X193741638Y-94360982D01*
X194039018Y-94658362D01*
X194388699Y-94892011D01*
X194777244Y-95052952D01*
X195189721Y-95134999D01*
X195610279Y-95134999D01*
X196022756Y-95052952D01*
X196411301Y-94892011D01*
X196760982Y-94658362D01*
X197058362Y-94360982D01*
X197292011Y-94011301D01*
X197452952Y-93622756D01*
X197534999Y-93210279D01*
X197534999Y-92789721D01*
X197452952Y-92377244D01*
X197292011Y-91988699D01*
X197058362Y-91639018D01*
X196760982Y-91341638D01*
X196411301Y-91107989D01*
X196022756Y-90947048D01*
X195610279Y-90865001D01*
X195189721Y-90865001D01*
X194777244Y-90947048D01*
X194388699Y-91107989D01*
X194039018Y-91341638D01*
X193741638Y-91639018D01*
X193507989Y-91988699D01*
X193347048Y-92377244D01*
X193265001Y-92789721D01*
X190880103Y-92789721D01*
X190812561Y-92450166D01*
X190713077Y-92209991D01*
X190843045Y-92275159D01*
X191210557Y-92376250D01*
X191590729Y-92403701D01*
X191968951Y-92356457D01*
X192330690Y-92236333D01*
X192577683Y-92104312D01*
X192709619Y-91809224D01*
X191540000Y-90639605D01*
X191525858Y-90653748D01*
X191346253Y-90474143D01*
X191360395Y-90460000D01*
X191719605Y-90460000D01*
X192889224Y-91629619D01*
X193184312Y-91497683D01*
X193355159Y-91156955D01*
X193456250Y-90789443D01*
X193483701Y-90409271D01*
X193436457Y-90031049D01*
X193316333Y-89669310D01*
X193184312Y-89422317D01*
X192889224Y-89290381D01*
X191719605Y-90460000D01*
X191360395Y-90460000D01*
X190190776Y-89290381D01*
X189895688Y-89422317D01*
X189724841Y-89763045D01*
X189623750Y-90130557D01*
X189596299Y-90510729D01*
X189643543Y-90888951D01*
X189763667Y-91250690D01*
X189781050Y-91283212D01*
X189549834Y-91187439D01*
X189185656Y-91115000D01*
X188814344Y-91115000D01*
X188450166Y-91187439D01*
X188209991Y-91286923D01*
X188275159Y-91156955D01*
X188376250Y-90789443D01*
X188403701Y-90409271D01*
X188356457Y-90031049D01*
X188236333Y-89669310D01*
X188104312Y-89422317D01*
X187809224Y-89290381D01*
X186639605Y-90460000D01*
X186653748Y-90474143D01*
X186474143Y-90653748D01*
X186460000Y-90639605D01*
X185290381Y-91809224D01*
X183127000Y-91809224D01*
X183127000Y-90510729D01*
X184516299Y-90510729D01*
X184563543Y-90888951D01*
X184683667Y-91250690D01*
X184815688Y-91497683D01*
X185110776Y-91629619D01*
X186280395Y-90460000D01*
X185110776Y-89290381D01*
X184815688Y-89422317D01*
X184644841Y-89763045D01*
X184543750Y-90130557D01*
X184516299Y-90510729D01*
X183127000Y-90510729D01*
X183127000Y-89110776D01*
X185290381Y-89110776D01*
X186460000Y-90280395D01*
X187629619Y-89110776D01*
X190370381Y-89110776D01*
X191540000Y-90280395D01*
X192709619Y-89110776D01*
X202590381Y-89110776D01*
X203760000Y-90280395D01*
X204929619Y-89110776D01*
X207670381Y-89110776D01*
X208840000Y-90280395D01*
X210009619Y-89110776D01*
X218990381Y-89110776D01*
X220160000Y-90280395D01*
X221329619Y-89110776D01*
X224070381Y-89110776D01*
X225240000Y-90280395D01*
X226409619Y-89110776D01*
X226277683Y-88815688D01*
X225936955Y-88644841D01*
X225569443Y-88543750D01*
X225189271Y-88516299D01*
X224811049Y-88563543D01*
X224449310Y-88683667D01*
X224202317Y-88815688D01*
X224070381Y-89110776D01*
X221329619Y-89110776D01*
X221197683Y-88815688D01*
X220856955Y-88644841D01*
X220489443Y-88543750D01*
X220109271Y-88516299D01*
X219731049Y-88563543D01*
X219369310Y-88683667D01*
X219122317Y-88815688D01*
X218990381Y-89110776D01*
X210009619Y-89110776D01*
X209877683Y-88815688D01*
X209536955Y-88644841D01*
X209169443Y-88543750D01*
X208789271Y-88516299D01*
X208411049Y-88563543D01*
X208049310Y-88683667D01*
X207802317Y-88815688D01*
X207670381Y-89110776D01*
X204929619Y-89110776D01*
X204797683Y-88815688D01*
X204456955Y-88644841D01*
X204089443Y-88543750D01*
X203709271Y-88516299D01*
X203331049Y-88563543D01*
X202969310Y-88683667D01*
X202722317Y-88815688D01*
X202590381Y-89110776D01*
X192709619Y-89110776D01*
X192577683Y-88815688D01*
X192236955Y-88644841D01*
X191869443Y-88543750D01*
X191489271Y-88516299D01*
X191111049Y-88563543D01*
X190749310Y-88683667D01*
X190502317Y-88815688D01*
X190370381Y-89110776D01*
X187629619Y-89110776D01*
X187497683Y-88815688D01*
X187156955Y-88644841D01*
X186789443Y-88543750D01*
X186409271Y-88516299D01*
X186031049Y-88563543D01*
X185669310Y-88683667D01*
X185422317Y-88815688D01*
X185290381Y-89110776D01*
X183127000Y-89110776D01*
X183127000Y-88289535D01*
X183208895Y-88189121D01*
X183283986Y-88127000D01*
X245873000Y-88127000D01*
X245873000Y-98785886D01*
G36*
X221265001Y-82265000D02*
G01*
X220963895Y-82265000D01*
X220932496Y-82268093D01*
X220926402Y-82268050D01*
X220916188Y-82269051D01*
X220722091Y-82289452D01*
X220656843Y-82302845D01*
X220591402Y-82315329D01*
X220581577Y-82318295D01*
X220395139Y-82376007D01*
X220333720Y-82401825D01*
X220271962Y-82426777D01*
X220262901Y-82431595D01*
X220186324Y-82473000D01*
X219700000Y-82473000D01*
X219675224Y-82475440D01*
X219651399Y-82482667D01*
X219629443Y-82494403D01*
X219610197Y-82510197D01*
X219594403Y-82529443D01*
X219582667Y-82551399D01*
X219575440Y-82575224D01*
X219573000Y-82600000D01*
X219573000Y-83018934D01*
X219560608Y-83037585D01*
X219522994Y-83092520D01*
X219518112Y-83101547D01*
X219426487Y-83273869D01*
X219401086Y-83335496D01*
X219374859Y-83396689D01*
X219371824Y-83406492D01*
X219315415Y-83593328D01*
X219302467Y-83658720D01*
X219288626Y-83723836D01*
X219287553Y-83734042D01*
X219281402Y-83796779D01*
X219121637Y-83765000D01*
X218878363Y-83765000D01*
X218639764Y-83812460D01*
X218415008Y-83905557D01*
X218250000Y-84015812D01*
X218084992Y-83905557D01*
X217860236Y-83812460D01*
X217621637Y-83765000D01*
X217378363Y-83765000D01*
X217139764Y-83812460D01*
X216915008Y-83905557D01*
X216750000Y-84015812D01*
X216584992Y-83905557D01*
X216360236Y-83812460D01*
X216121637Y-83765000D01*
X215878363Y-83765000D01*
X215639764Y-83812460D01*
X215415008Y-83905557D01*
X215250000Y-84015812D01*
X215084992Y-83905557D01*
X214860236Y-83812460D01*
X214621637Y-83765000D01*
X214378363Y-83765000D01*
X214139764Y-83812460D01*
X213915008Y-83905557D01*
X213750000Y-84015812D01*
X213584992Y-83905557D01*
X213360236Y-83812460D01*
X213121637Y-83765000D01*
X212878363Y-83765000D01*
X212718402Y-83796818D01*
X212710548Y-83722091D01*
X212697155Y-83656843D01*
X212684671Y-83591402D01*
X212681705Y-83581577D01*
X212623993Y-83395139D01*
X212598175Y-83333720D01*
X212573223Y-83271962D01*
X212568405Y-83262901D01*
X212475580Y-83091224D01*
X212438315Y-83035977D01*
X212401850Y-82980252D01*
X212395364Y-82972299D01*
X212270960Y-82821921D01*
X212243675Y-82794826D01*
X212226561Y-82589453D01*
X212222072Y-82564965D01*
X212212891Y-82541823D01*
X212199372Y-82520917D01*
X212182035Y-82503050D01*
X212161544Y-82488909D01*
X212138689Y-82479037D01*
X212114347Y-82473813D01*
X212100000Y-82473000D01*
X211813609Y-82473000D01*
X211726131Y-82426487D01*
X211664504Y-82401086D01*
X211603311Y-82374859D01*
X211593508Y-82371824D01*
X211406672Y-82315415D01*
X211341280Y-82302467D01*
X211276164Y-82288626D01*
X211265958Y-82287553D01*
X211071724Y-82268508D01*
X211071723Y-82268508D01*
X211036105Y-82265000D01*
X210735000Y-82265000D01*
X210735000Y-79735000D01*
X221265000Y-79735000D01*
X221265001Y-82265000D01*
X221265001Y-82265000D01*
G37*
X221265001Y-82265000D02*
X220963895Y-82265000D01*
X220932496Y-82268093D01*
X220926402Y-82268050D01*
X220916188Y-82269051D01*
X220722091Y-82289452D01*
X220656843Y-82302845D01*
X220591402Y-82315329D01*
X220581577Y-82318295D01*
X220395139Y-82376007D01*
X220333720Y-82401825D01*
X220271962Y-82426777D01*
X220262901Y-82431595D01*
X220186324Y-82473000D01*
X219700000Y-82473000D01*
X219675224Y-82475440D01*
X219651399Y-82482667D01*
X219629443Y-82494403D01*
X219610197Y-82510197D01*
X219594403Y-82529443D01*
X219582667Y-82551399D01*
X219575440Y-82575224D01*
X219573000Y-82600000D01*
X219573000Y-83018934D01*
X219560608Y-83037585D01*
X219522994Y-83092520D01*
X219518112Y-83101547D01*
X219426487Y-83273869D01*
X219401086Y-83335496D01*
X219374859Y-83396689D01*
X219371824Y-83406492D01*
X219315415Y-83593328D01*
X219302467Y-83658720D01*
X219288626Y-83723836D01*
X219287553Y-83734042D01*
X219281402Y-83796779D01*
X219121637Y-83765000D01*
X218878363Y-83765000D01*
X218639764Y-83812460D01*
X218415008Y-83905557D01*
X218250000Y-84015812D01*
X218084992Y-83905557D01*
X217860236Y-83812460D01*
X217621637Y-83765000D01*
X217378363Y-83765000D01*
X217139764Y-83812460D01*
X216915008Y-83905557D01*
X216750000Y-84015812D01*
X216584992Y-83905557D01*
X216360236Y-83812460D01*
X216121637Y-83765000D01*
X215878363Y-83765000D01*
X215639764Y-83812460D01*
X215415008Y-83905557D01*
X215250000Y-84015812D01*
X215084992Y-83905557D01*
X214860236Y-83812460D01*
X214621637Y-83765000D01*
X214378363Y-83765000D01*
X214139764Y-83812460D01*
X213915008Y-83905557D01*
X213750000Y-84015812D01*
X213584992Y-83905557D01*
X213360236Y-83812460D01*
X213121637Y-83765000D01*
X212878363Y-83765000D01*
X212718402Y-83796818D01*
X212710548Y-83722091D01*
X212697155Y-83656843D01*
X212684671Y-83591402D01*
X212681705Y-83581577D01*
X212623993Y-83395139D01*
X212598175Y-83333720D01*
X212573223Y-83271962D01*
X212568405Y-83262901D01*
X212475580Y-83091224D01*
X212438315Y-83035977D01*
X212401850Y-82980252D01*
X212395364Y-82972299D01*
X212270960Y-82821921D01*
X212243675Y-82794826D01*
X212226561Y-82589453D01*
X212222072Y-82564965D01*
X212212891Y-82541823D01*
X212199372Y-82520917D01*
X212182035Y-82503050D01*
X212161544Y-82488909D01*
X212138689Y-82479037D01*
X212114347Y-82473813D01*
X212100000Y-82473000D01*
X211813609Y-82473000D01*
X211726131Y-82426487D01*
X211664504Y-82401086D01*
X211603311Y-82374859D01*
X211593508Y-82371824D01*
X211406672Y-82315415D01*
X211341280Y-82302467D01*
X211276164Y-82288626D01*
X211265958Y-82287553D01*
X211071724Y-82268508D01*
X211071723Y-82268508D01*
X211036105Y-82265000D01*
X210735000Y-82265000D01*
X210735000Y-79735000D01*
X221265000Y-79735000D01*
X221265001Y-82265000D01*
M02*
