M48
; DRILL file {KiCad (5.1.0)-1} date 14/08/2019 22:30:14
; FORMAT={-:-/ absolute / metric / decimal}
; #@! TF.CreationDate,2019-08-14T22:30:14+08:00
; #@! TF.GenerationSoftware,Kicad,Pcbnew,(5.1.0)-1
; #@! TF.FileFunction,Plated,1,2,PTH
FMAT,2
METRIC
T1C0.300
T2C1.000
T3C1.199
T4C1.500
T5C1.600
T6C3.200
%
G90
G05
T1
X183.6Y-96.9
X183.6Y-97.8
X184.4Y-97.3
X200.0Y-96.9
X200.0Y-98.1
X201.0Y-96.9
X201.0Y-98.1
X201.0Y-99.3
X202.0Y-98.1
X202.0Y-99.3
X203.0Y-98.1
X204.0Y-102.9
X205.0Y-101.7
X205.0Y-102.9
X206.0Y-100.5
X206.0Y-101.7
X206.0Y-102.9
X207.0Y-99.3
X207.0Y-100.5
X207.0Y-101.7
X207.0Y-102.9
X232.0Y-100.5
X232.0Y-101.7
X232.0Y-102.9
X232.0Y-104.1
X233.0Y-100.5
X233.0Y-101.7
X233.0Y-102.9
X233.0Y-104.1
X234.0Y-100.5
X234.0Y-101.7
X234.0Y-102.9
X234.0Y-104.1
X235.0Y-100.5
X235.0Y-101.7
X235.0Y-102.9
X235.0Y-104.1
X236.0Y-100.5
X236.0Y-101.7
X236.0Y-102.9
X236.0Y-104.1
X237.0Y-100.5
X237.0Y-101.7
X237.0Y-102.9
X237.0Y-104.1
X238.0Y-100.5
X238.0Y-101.7
X238.0Y-102.9
X238.0Y-104.1
X239.0Y-100.5
X239.0Y-101.7
X239.0Y-102.9
X239.0Y-104.1
X244.8Y-97.3
X245.5Y-96.9
X245.5Y-97.7
T2
X213.0Y-85.0
X214.5Y-85.0
X216.0Y-85.0
X217.5Y-85.0
X219.0Y-85.0
T3
X229.1Y-91.2
X195.4Y-93.0
X233.634Y-91.2
X197.693Y-98.125
X199.9Y-93.0
X231.3Y-95.7
T4
X240.0Y-93.0
X206.3Y-93.0
X222.7Y-93.0
X189.0Y-93.0
T5
X237.46Y-90.46
X237.46Y-95.54
X242.54Y-90.46
X242.54Y-95.54
X203.76Y-90.46
X203.76Y-95.54
X208.84Y-90.46
X208.84Y-95.54
X220.16Y-90.46
X220.16Y-95.54
X225.24Y-90.46
X225.24Y-95.54
X186.46Y-90.46
X186.46Y-95.54
X191.54Y-90.46
X191.54Y-95.54
T6
X185.9Y-101.0
X243.3Y-101.0
T0
M30
