G04 #@! TF.GenerationSoftware,KiCad,Pcbnew,(5.1.0)-1*
G04 #@! TF.CreationDate,2019-08-14T22:30:10+08:00*
G04 #@! TF.ProjectId,Kelvin Connector for Handheld LCR Meter,4b656c76-696e-4204-936f-6e6e6563746f,1.01*
G04 #@! TF.SameCoordinates,Original*
G04 #@! TF.FileFunction,Soldermask,Bot*
G04 #@! TF.FilePolarity,Negative*
%FSLAX46Y46*%
G04 Gerber Fmt 4.6, Leading zero omitted, Abs format (unit mm)*
G04 Created by KiCad (PCBNEW (5.1.0)-1) date 2019-08-14 22:30:10*
%MOMM*%
%LPD*%
G04 APERTURE LIST*
%ADD10C,0.177800*%
%ADD11C,0.010000*%
%ADD12C,0.100000*%
G04 APERTURE END LIST*
D10*
X230128800Y-102399257D02*
X229824000Y-103313657D01*
X229519200Y-102399257D01*
X228735428Y-103313657D02*
X229257942Y-103313657D01*
X228996685Y-103313657D02*
X228996685Y-102399257D01*
X229083771Y-102529885D01*
X229170857Y-102616971D01*
X229257942Y-102660514D01*
X228343542Y-103226571D02*
X228300000Y-103270114D01*
X228343542Y-103313657D01*
X228387085Y-103270114D01*
X228343542Y-103226571D01*
X228343542Y-103313657D01*
X227733942Y-102399257D02*
X227646857Y-102399257D01*
X227559771Y-102442800D01*
X227516228Y-102486342D01*
X227472685Y-102573428D01*
X227429142Y-102747600D01*
X227429142Y-102965314D01*
X227472685Y-103139485D01*
X227516228Y-103226571D01*
X227559771Y-103270114D01*
X227646857Y-103313657D01*
X227733942Y-103313657D01*
X227821028Y-103270114D01*
X227864571Y-103226571D01*
X227908114Y-103139485D01*
X227951657Y-102965314D01*
X227951657Y-102747600D01*
X227908114Y-102573428D01*
X227864571Y-102486342D01*
X227821028Y-102442800D01*
X227733942Y-102399257D01*
X226558285Y-103313657D02*
X227080800Y-103313657D01*
X226819542Y-103313657D02*
X226819542Y-102399257D01*
X226906628Y-102529885D01*
X226993714Y-102616971D01*
X227080800Y-102660514D01*
X229672342Y-101413657D02*
X230107771Y-101413657D01*
X230107771Y-100499257D01*
X229367542Y-101413657D02*
X229367542Y-100499257D01*
X229367542Y-100934685D02*
X228845028Y-100934685D01*
X228845028Y-101413657D02*
X228845028Y-100499257D01*
X228453142Y-101152400D02*
X228017714Y-101152400D01*
X228540228Y-101413657D02*
X228235428Y-100499257D01*
X227930628Y-101413657D01*
X227712914Y-100499257D02*
X227103314Y-100499257D01*
X227495200Y-101413657D01*
X226754971Y-100934685D02*
X226450171Y-100934685D01*
X226319542Y-101413657D02*
X226754971Y-101413657D01*
X226754971Y-100499257D01*
X226319542Y-100499257D01*
X225884114Y-101413657D02*
X225709942Y-101413657D01*
X225622857Y-101370114D01*
X225579314Y-101326571D01*
X225492228Y-101195942D01*
X225448685Y-101021771D01*
X225448685Y-100673428D01*
X225492228Y-100586342D01*
X225535771Y-100542800D01*
X225622857Y-100499257D01*
X225797028Y-100499257D01*
X225884114Y-100542800D01*
X225927657Y-100586342D01*
X225971200Y-100673428D01*
X225971200Y-100891142D01*
X225927657Y-100978228D01*
X225884114Y-101021771D01*
X225797028Y-101065314D01*
X225622857Y-101065314D01*
X225535771Y-101021771D01*
X225492228Y-100978228D01*
X225448685Y-100891142D01*
D11*
G36*
X193284210Y-103606555D02*
G01*
X193225055Y-103622339D01*
X193180023Y-103650948D01*
X193148246Y-103688419D01*
X193138366Y-103704411D01*
X193131073Y-103721163D01*
X193125974Y-103742592D01*
X193122679Y-103772616D01*
X193120797Y-103815154D01*
X193119937Y-103874122D01*
X193119707Y-103953440D01*
X193119703Y-103974484D01*
X193119703Y-104217822D01*
X193180059Y-104217822D01*
X193218557Y-104215126D01*
X193247023Y-104208295D01*
X193254155Y-104204083D01*
X193273652Y-104196813D01*
X193293566Y-104204083D01*
X193326353Y-104213160D01*
X193373978Y-104216813D01*
X193426764Y-104215228D01*
X193475036Y-104208589D01*
X193503218Y-104200072D01*
X193557753Y-104165063D01*
X193591835Y-104116479D01*
X193607157Y-104051882D01*
X193607299Y-104050223D01*
X193605955Y-104021566D01*
X193484356Y-104021566D01*
X193473726Y-104054161D01*
X193456410Y-104072505D01*
X193421652Y-104086379D01*
X193375773Y-104091917D01*
X193328988Y-104089191D01*
X193291514Y-104078274D01*
X193281015Y-104071269D01*
X193262668Y-104038904D01*
X193258020Y-104002111D01*
X193258020Y-103953763D01*
X193327582Y-103953763D01*
X193393667Y-103958850D01*
X193443764Y-103973263D01*
X193474929Y-103995729D01*
X193484356Y-104021566D01*
X193605955Y-104021566D01*
X193603987Y-103979647D01*
X193580710Y-103923845D01*
X193536948Y-103881647D01*
X193530899Y-103877808D01*
X193504907Y-103865309D01*
X193472735Y-103857740D01*
X193427760Y-103854061D01*
X193374331Y-103853216D01*
X193258020Y-103853169D01*
X193258020Y-103804411D01*
X193262953Y-103766581D01*
X193275543Y-103741236D01*
X193277017Y-103739887D01*
X193305034Y-103728800D01*
X193347326Y-103724503D01*
X193394064Y-103726615D01*
X193435418Y-103734756D01*
X193459957Y-103746965D01*
X193473253Y-103756746D01*
X193487294Y-103758613D01*
X193506671Y-103750600D01*
X193535976Y-103730739D01*
X193579803Y-103697063D01*
X193583825Y-103693909D01*
X193581764Y-103682236D01*
X193564568Y-103662822D01*
X193538433Y-103641248D01*
X193509552Y-103623096D01*
X193500478Y-103618809D01*
X193467380Y-103610256D01*
X193418880Y-103604155D01*
X193364695Y-103601708D01*
X193362161Y-103601703D01*
X193284210Y-103606555D01*
X193284210Y-103606555D01*
G37*
X193284210Y-103606555D02*
X193225055Y-103622339D01*
X193180023Y-103650948D01*
X193148246Y-103688419D01*
X193138366Y-103704411D01*
X193131073Y-103721163D01*
X193125974Y-103742592D01*
X193122679Y-103772616D01*
X193120797Y-103815154D01*
X193119937Y-103874122D01*
X193119707Y-103953440D01*
X193119703Y-103974484D01*
X193119703Y-104217822D01*
X193180059Y-104217822D01*
X193218557Y-104215126D01*
X193247023Y-104208295D01*
X193254155Y-104204083D01*
X193273652Y-104196813D01*
X193293566Y-104204083D01*
X193326353Y-104213160D01*
X193373978Y-104216813D01*
X193426764Y-104215228D01*
X193475036Y-104208589D01*
X193503218Y-104200072D01*
X193557753Y-104165063D01*
X193591835Y-104116479D01*
X193607157Y-104051882D01*
X193607299Y-104050223D01*
X193605955Y-104021566D01*
X193484356Y-104021566D01*
X193473726Y-104054161D01*
X193456410Y-104072505D01*
X193421652Y-104086379D01*
X193375773Y-104091917D01*
X193328988Y-104089191D01*
X193291514Y-104078274D01*
X193281015Y-104071269D01*
X193262668Y-104038904D01*
X193258020Y-104002111D01*
X193258020Y-103953763D01*
X193327582Y-103953763D01*
X193393667Y-103958850D01*
X193443764Y-103973263D01*
X193474929Y-103995729D01*
X193484356Y-104021566D01*
X193605955Y-104021566D01*
X193603987Y-103979647D01*
X193580710Y-103923845D01*
X193536948Y-103881647D01*
X193530899Y-103877808D01*
X193504907Y-103865309D01*
X193472735Y-103857740D01*
X193427760Y-103854061D01*
X193374331Y-103853216D01*
X193258020Y-103853169D01*
X193258020Y-103804411D01*
X193262953Y-103766581D01*
X193275543Y-103741236D01*
X193277017Y-103739887D01*
X193305034Y-103728800D01*
X193347326Y-103724503D01*
X193394064Y-103726615D01*
X193435418Y-103734756D01*
X193459957Y-103746965D01*
X193473253Y-103756746D01*
X193487294Y-103758613D01*
X193506671Y-103750600D01*
X193535976Y-103730739D01*
X193579803Y-103697063D01*
X193583825Y-103693909D01*
X193581764Y-103682236D01*
X193564568Y-103662822D01*
X193538433Y-103641248D01*
X193509552Y-103623096D01*
X193500478Y-103618809D01*
X193467380Y-103610256D01*
X193418880Y-103604155D01*
X193364695Y-103601708D01*
X193362161Y-103601703D01*
X193284210Y-103606555D01*
G36*
X191618476Y-103604237D02*
G01*
X191568745Y-103607971D01*
X191438709Y-103997773D01*
X191418322Y-103928614D01*
X191406054Y-103885874D01*
X191389915Y-103828115D01*
X191372488Y-103764625D01*
X191363274Y-103730570D01*
X191328612Y-103601683D01*
X191185609Y-103601683D01*
X191228354Y-103736857D01*
X191249404Y-103803342D01*
X191274833Y-103883539D01*
X191301390Y-103967193D01*
X191325098Y-104041782D01*
X191379098Y-104211535D01*
X191437402Y-104215328D01*
X191495705Y-104219122D01*
X191527321Y-104114734D01*
X191546818Y-104049889D01*
X191568096Y-103978400D01*
X191586692Y-103915263D01*
X191587426Y-103912750D01*
X191601316Y-103869969D01*
X191613571Y-103840779D01*
X191622154Y-103829741D01*
X191623918Y-103831018D01*
X191630109Y-103848130D01*
X191641872Y-103884787D01*
X191657775Y-103936378D01*
X191676386Y-103998294D01*
X191686457Y-104032352D01*
X191740993Y-104217822D01*
X191856736Y-104217822D01*
X191949263Y-103925471D01*
X191975256Y-103843462D01*
X191998934Y-103768987D01*
X192019180Y-103705544D01*
X192034874Y-103656632D01*
X192044898Y-103625749D01*
X192047945Y-103616726D01*
X192045533Y-103607487D01*
X192026592Y-103603441D01*
X191987177Y-103603846D01*
X191981007Y-103604152D01*
X191907914Y-103607971D01*
X191860043Y-103784010D01*
X191842447Y-103848211D01*
X191826723Y-103904649D01*
X191814254Y-103948422D01*
X191806426Y-103974630D01*
X191804980Y-103978903D01*
X191798986Y-103973990D01*
X191786899Y-103948532D01*
X191770107Y-103905997D01*
X191749997Y-103849850D01*
X191732997Y-103799130D01*
X191668206Y-103600504D01*
X191618476Y-103604237D01*
X191618476Y-103604237D01*
G37*
X191618476Y-103604237D02*
X191568745Y-103607971D01*
X191438709Y-103997773D01*
X191418322Y-103928614D01*
X191406054Y-103885874D01*
X191389915Y-103828115D01*
X191372488Y-103764625D01*
X191363274Y-103730570D01*
X191328612Y-103601683D01*
X191185609Y-103601683D01*
X191228354Y-103736857D01*
X191249404Y-103803342D01*
X191274833Y-103883539D01*
X191301390Y-103967193D01*
X191325098Y-104041782D01*
X191379098Y-104211535D01*
X191437402Y-104215328D01*
X191495705Y-104219122D01*
X191527321Y-104114734D01*
X191546818Y-104049889D01*
X191568096Y-103978400D01*
X191586692Y-103915263D01*
X191587426Y-103912750D01*
X191601316Y-103869969D01*
X191613571Y-103840779D01*
X191622154Y-103829741D01*
X191623918Y-103831018D01*
X191630109Y-103848130D01*
X191641872Y-103884787D01*
X191657775Y-103936378D01*
X191676386Y-103998294D01*
X191686457Y-104032352D01*
X191740993Y-104217822D01*
X191856736Y-104217822D01*
X191949263Y-103925471D01*
X191975256Y-103843462D01*
X191998934Y-103768987D01*
X192019180Y-103705544D01*
X192034874Y-103656632D01*
X192044898Y-103625749D01*
X192047945Y-103616726D01*
X192045533Y-103607487D01*
X192026592Y-103603441D01*
X191987177Y-103603846D01*
X191981007Y-103604152D01*
X191907914Y-103607971D01*
X191860043Y-103784010D01*
X191842447Y-103848211D01*
X191826723Y-103904649D01*
X191814254Y-103948422D01*
X191806426Y-103974630D01*
X191804980Y-103978903D01*
X191798986Y-103973990D01*
X191786899Y-103948532D01*
X191770107Y-103905997D01*
X191749997Y-103849850D01*
X191732997Y-103799130D01*
X191668206Y-103600504D01*
X191618476Y-103604237D01*
G36*
X190861589Y-103605417D02*
G01*
X190808589Y-103618290D01*
X190793269Y-103625110D01*
X190763572Y-103642974D01*
X190740780Y-103663093D01*
X190723917Y-103688962D01*
X190712002Y-103724073D01*
X190704058Y-103771920D01*
X190699106Y-103835996D01*
X190696169Y-103919794D01*
X190695053Y-103975768D01*
X190690948Y-104217822D01*
X190761068Y-104217822D01*
X190803607Y-104216038D01*
X190825524Y-104209942D01*
X190831188Y-104199706D01*
X190834179Y-104188637D01*
X190847549Y-104190754D01*
X190865767Y-104199629D01*
X190911376Y-104213233D01*
X190969993Y-104216899D01*
X191031646Y-104210903D01*
X191086362Y-104195521D01*
X191091270Y-104193386D01*
X191141277Y-104158255D01*
X191174244Y-104109419D01*
X191189413Y-104052333D01*
X191188254Y-104031824D01*
X191064492Y-104031824D01*
X191053587Y-104059425D01*
X191021255Y-104079204D01*
X190969090Y-104089819D01*
X190941213Y-104091228D01*
X190894753Y-104087620D01*
X190863871Y-104073597D01*
X190856336Y-104066931D01*
X190835924Y-104030666D01*
X190831188Y-103997773D01*
X190831188Y-103953763D01*
X190892487Y-103953763D01*
X190963744Y-103957395D01*
X191013724Y-103968818D01*
X191045304Y-103988824D01*
X191052374Y-103997743D01*
X191064492Y-104031824D01*
X191188254Y-104031824D01*
X191186029Y-103992456D01*
X191163337Y-103935244D01*
X191132376Y-103896580D01*
X191113624Y-103879864D01*
X191095267Y-103868878D01*
X191071381Y-103862180D01*
X191036043Y-103858326D01*
X190983331Y-103855873D01*
X190962423Y-103855168D01*
X190831188Y-103850879D01*
X190831380Y-103811158D01*
X190836463Y-103769405D01*
X190854838Y-103744158D01*
X190891961Y-103728030D01*
X190892957Y-103727742D01*
X190945590Y-103721400D01*
X190997094Y-103729684D01*
X191035370Y-103749827D01*
X191050728Y-103759773D01*
X191067270Y-103758397D01*
X191092725Y-103743987D01*
X191107672Y-103733817D01*
X191136909Y-103712088D01*
X191155020Y-103695800D01*
X191157926Y-103691137D01*
X191145960Y-103667005D01*
X191110604Y-103638185D01*
X191095247Y-103628461D01*
X191051099Y-103611714D01*
X190991602Y-103602227D01*
X190925513Y-103600095D01*
X190861589Y-103605417D01*
X190861589Y-103605417D01*
G37*
X190861589Y-103605417D02*
X190808589Y-103618290D01*
X190793269Y-103625110D01*
X190763572Y-103642974D01*
X190740780Y-103663093D01*
X190723917Y-103688962D01*
X190712002Y-103724073D01*
X190704058Y-103771920D01*
X190699106Y-103835996D01*
X190696169Y-103919794D01*
X190695053Y-103975768D01*
X190690948Y-104217822D01*
X190761068Y-104217822D01*
X190803607Y-104216038D01*
X190825524Y-104209942D01*
X190831188Y-104199706D01*
X190834179Y-104188637D01*
X190847549Y-104190754D01*
X190865767Y-104199629D01*
X190911376Y-104213233D01*
X190969993Y-104216899D01*
X191031646Y-104210903D01*
X191086362Y-104195521D01*
X191091270Y-104193386D01*
X191141277Y-104158255D01*
X191174244Y-104109419D01*
X191189413Y-104052333D01*
X191188254Y-104031824D01*
X191064492Y-104031824D01*
X191053587Y-104059425D01*
X191021255Y-104079204D01*
X190969090Y-104089819D01*
X190941213Y-104091228D01*
X190894753Y-104087620D01*
X190863871Y-104073597D01*
X190856336Y-104066931D01*
X190835924Y-104030666D01*
X190831188Y-103997773D01*
X190831188Y-103953763D01*
X190892487Y-103953763D01*
X190963744Y-103957395D01*
X191013724Y-103968818D01*
X191045304Y-103988824D01*
X191052374Y-103997743D01*
X191064492Y-104031824D01*
X191188254Y-104031824D01*
X191186029Y-103992456D01*
X191163337Y-103935244D01*
X191132376Y-103896580D01*
X191113624Y-103879864D01*
X191095267Y-103868878D01*
X191071381Y-103862180D01*
X191036043Y-103858326D01*
X190983331Y-103855873D01*
X190962423Y-103855168D01*
X190831188Y-103850879D01*
X190831380Y-103811158D01*
X190836463Y-103769405D01*
X190854838Y-103744158D01*
X190891961Y-103728030D01*
X190892957Y-103727742D01*
X190945590Y-103721400D01*
X190997094Y-103729684D01*
X191035370Y-103749827D01*
X191050728Y-103759773D01*
X191067270Y-103758397D01*
X191092725Y-103743987D01*
X191107672Y-103733817D01*
X191136909Y-103712088D01*
X191155020Y-103695800D01*
X191157926Y-103691137D01*
X191145960Y-103667005D01*
X191110604Y-103638185D01*
X191095247Y-103628461D01*
X191051099Y-103611714D01*
X190991602Y-103602227D01*
X190925513Y-103600095D01*
X190861589Y-103605417D01*
G36*
X190264745Y-103601486D02*
G01*
X190216405Y-103611015D01*
X190188886Y-103625125D01*
X190159936Y-103648568D01*
X190201124Y-103700571D01*
X190226518Y-103732064D01*
X190243762Y-103747428D01*
X190260898Y-103749776D01*
X190285973Y-103742217D01*
X190297743Y-103737941D01*
X190345730Y-103731631D01*
X190389676Y-103745156D01*
X190421940Y-103775710D01*
X190427181Y-103785452D01*
X190432888Y-103811258D01*
X190437294Y-103858817D01*
X190440189Y-103924758D01*
X190441369Y-104005710D01*
X190441386Y-104017226D01*
X190441386Y-104217822D01*
X190579703Y-104217822D01*
X190579703Y-103601683D01*
X190510544Y-103601683D01*
X190470667Y-103602725D01*
X190449893Y-103607358D01*
X190442211Y-103617849D01*
X190441386Y-103627745D01*
X190441386Y-103653806D01*
X190408255Y-103627745D01*
X190370265Y-103609965D01*
X190319230Y-103601174D01*
X190264745Y-103601486D01*
X190264745Y-103601486D01*
G37*
X190264745Y-103601486D02*
X190216405Y-103611015D01*
X190188886Y-103625125D01*
X190159936Y-103648568D01*
X190201124Y-103700571D01*
X190226518Y-103732064D01*
X190243762Y-103747428D01*
X190260898Y-103749776D01*
X190285973Y-103742217D01*
X190297743Y-103737941D01*
X190345730Y-103731631D01*
X190389676Y-103745156D01*
X190421940Y-103775710D01*
X190427181Y-103785452D01*
X190432888Y-103811258D01*
X190437294Y-103858817D01*
X190440189Y-103924758D01*
X190441369Y-104005710D01*
X190441386Y-104017226D01*
X190441386Y-104217822D01*
X190579703Y-104217822D01*
X190579703Y-103601683D01*
X190510544Y-103601683D01*
X190470667Y-103602725D01*
X190449893Y-103607358D01*
X190442211Y-103617849D01*
X190441386Y-103627745D01*
X190441386Y-103653806D01*
X190408255Y-103627745D01*
X190370265Y-103609965D01*
X190319230Y-103601174D01*
X190264745Y-103601486D01*
G36*
X189867419Y-103604970D02*
G01*
X189807315Y-103620597D01*
X189756979Y-103652848D01*
X189732607Y-103676940D01*
X189692655Y-103733895D01*
X189669758Y-103799965D01*
X189661892Y-103881182D01*
X189661852Y-103887748D01*
X189661782Y-103953763D01*
X190041736Y-103953763D01*
X190033637Y-103988342D01*
X190019013Y-104019659D01*
X189993419Y-104052291D01*
X189988065Y-104057500D01*
X189942057Y-104085694D01*
X189889590Y-104090475D01*
X189829197Y-104071926D01*
X189818960Y-104066931D01*
X189787561Y-104051745D01*
X189766530Y-104043094D01*
X189762861Y-104042293D01*
X189750052Y-104050063D01*
X189725622Y-104069072D01*
X189713221Y-104079460D01*
X189687524Y-104103321D01*
X189679085Y-104119077D01*
X189684942Y-104133571D01*
X189688072Y-104137534D01*
X189709275Y-104154879D01*
X189744262Y-104175959D01*
X189768663Y-104188265D01*
X189837928Y-104209946D01*
X189914612Y-104216971D01*
X189987235Y-104208647D01*
X190007574Y-104202686D01*
X190070524Y-104168952D01*
X190117185Y-104117045D01*
X190147827Y-104046459D01*
X190162718Y-103956692D01*
X190164353Y-103909753D01*
X190159579Y-103841413D01*
X190039010Y-103841413D01*
X190027348Y-103846465D01*
X189996002Y-103850429D01*
X189950429Y-103852768D01*
X189919554Y-103853169D01*
X189864019Y-103852783D01*
X189828967Y-103850975D01*
X189809738Y-103846773D01*
X189801670Y-103839203D01*
X189800099Y-103828218D01*
X189810879Y-103794381D01*
X189838020Y-103760940D01*
X189873723Y-103735272D01*
X189909440Y-103724772D01*
X189957952Y-103734086D01*
X189999947Y-103761013D01*
X190029064Y-103799827D01*
X190039010Y-103841413D01*
X190159579Y-103841413D01*
X190157401Y-103810236D01*
X190135945Y-103730949D01*
X190099530Y-103671263D01*
X190047703Y-103630549D01*
X189980010Y-103608179D01*
X189943338Y-103603871D01*
X189867419Y-103604970D01*
X189867419Y-103604970D01*
G37*
X189867419Y-103604970D02*
X189807315Y-103620597D01*
X189756979Y-103652848D01*
X189732607Y-103676940D01*
X189692655Y-103733895D01*
X189669758Y-103799965D01*
X189661892Y-103881182D01*
X189661852Y-103887748D01*
X189661782Y-103953763D01*
X190041736Y-103953763D01*
X190033637Y-103988342D01*
X190019013Y-104019659D01*
X189993419Y-104052291D01*
X189988065Y-104057500D01*
X189942057Y-104085694D01*
X189889590Y-104090475D01*
X189829197Y-104071926D01*
X189818960Y-104066931D01*
X189787561Y-104051745D01*
X189766530Y-104043094D01*
X189762861Y-104042293D01*
X189750052Y-104050063D01*
X189725622Y-104069072D01*
X189713221Y-104079460D01*
X189687524Y-104103321D01*
X189679085Y-104119077D01*
X189684942Y-104133571D01*
X189688072Y-104137534D01*
X189709275Y-104154879D01*
X189744262Y-104175959D01*
X189768663Y-104188265D01*
X189837928Y-104209946D01*
X189914612Y-104216971D01*
X189987235Y-104208647D01*
X190007574Y-104202686D01*
X190070524Y-104168952D01*
X190117185Y-104117045D01*
X190147827Y-104046459D01*
X190162718Y-103956692D01*
X190164353Y-103909753D01*
X190159579Y-103841413D01*
X190039010Y-103841413D01*
X190027348Y-103846465D01*
X189996002Y-103850429D01*
X189950429Y-103852768D01*
X189919554Y-103853169D01*
X189864019Y-103852783D01*
X189828967Y-103850975D01*
X189809738Y-103846773D01*
X189801670Y-103839203D01*
X189800099Y-103828218D01*
X189810879Y-103794381D01*
X189838020Y-103760940D01*
X189873723Y-103735272D01*
X189909440Y-103724772D01*
X189957952Y-103734086D01*
X189999947Y-103761013D01*
X190029064Y-103799827D01*
X190039010Y-103841413D01*
X190159579Y-103841413D01*
X190157401Y-103810236D01*
X190135945Y-103730949D01*
X190099530Y-103671263D01*
X190047703Y-103630549D01*
X189980010Y-103608179D01*
X189943338Y-103603871D01*
X189867419Y-103604970D01*
G36*
X194438261Y-102665148D02*
G01*
X194372479Y-102694231D01*
X194322540Y-102742793D01*
X194288374Y-102810908D01*
X194269907Y-102898651D01*
X194268583Y-102912351D01*
X194267546Y-103008939D01*
X194280993Y-103093602D01*
X194308108Y-103162221D01*
X194322627Y-103184294D01*
X194373201Y-103231011D01*
X194437609Y-103261268D01*
X194509666Y-103273824D01*
X194583185Y-103267439D01*
X194639072Y-103247772D01*
X194687132Y-103214629D01*
X194726412Y-103171175D01*
X194727092Y-103170158D01*
X194743044Y-103143338D01*
X194753410Y-103116368D01*
X194759688Y-103082332D01*
X194763373Y-103034310D01*
X194764997Y-102994931D01*
X194765672Y-102959219D01*
X194639955Y-102959219D01*
X194638726Y-102994770D01*
X194634266Y-103042094D01*
X194626397Y-103072465D01*
X194612207Y-103094072D01*
X194598917Y-103106694D01*
X194551802Y-103133122D01*
X194502505Y-103136653D01*
X194456593Y-103117639D01*
X194433638Y-103096331D01*
X194417096Y-103074859D01*
X194407421Y-103054313D01*
X194403174Y-103027574D01*
X194402920Y-102987523D01*
X194404228Y-102950638D01*
X194407043Y-102897947D01*
X194411505Y-102863772D01*
X194419548Y-102841480D01*
X194433103Y-102824442D01*
X194443845Y-102814703D01*
X194488777Y-102789123D01*
X194537249Y-102787847D01*
X194577894Y-102802999D01*
X194612567Y-102834642D01*
X194633224Y-102886620D01*
X194639955Y-102959219D01*
X194765672Y-102959219D01*
X194766479Y-102916621D01*
X194763948Y-102858056D01*
X194756362Y-102814007D01*
X194742681Y-102779248D01*
X194721865Y-102748551D01*
X194714147Y-102739436D01*
X194665889Y-102694021D01*
X194614128Y-102667493D01*
X194550828Y-102656379D01*
X194519961Y-102655471D01*
X194438261Y-102665148D01*
X194438261Y-102665148D01*
G37*
X194438261Y-102665148D02*
X194372479Y-102694231D01*
X194322540Y-102742793D01*
X194288374Y-102810908D01*
X194269907Y-102898651D01*
X194268583Y-102912351D01*
X194267546Y-103008939D01*
X194280993Y-103093602D01*
X194308108Y-103162221D01*
X194322627Y-103184294D01*
X194373201Y-103231011D01*
X194437609Y-103261268D01*
X194509666Y-103273824D01*
X194583185Y-103267439D01*
X194639072Y-103247772D01*
X194687132Y-103214629D01*
X194726412Y-103171175D01*
X194727092Y-103170158D01*
X194743044Y-103143338D01*
X194753410Y-103116368D01*
X194759688Y-103082332D01*
X194763373Y-103034310D01*
X194764997Y-102994931D01*
X194765672Y-102959219D01*
X194639955Y-102959219D01*
X194638726Y-102994770D01*
X194634266Y-103042094D01*
X194626397Y-103072465D01*
X194612207Y-103094072D01*
X194598917Y-103106694D01*
X194551802Y-103133122D01*
X194502505Y-103136653D01*
X194456593Y-103117639D01*
X194433638Y-103096331D01*
X194417096Y-103074859D01*
X194407421Y-103054313D01*
X194403174Y-103027574D01*
X194402920Y-102987523D01*
X194404228Y-102950638D01*
X194407043Y-102897947D01*
X194411505Y-102863772D01*
X194419548Y-102841480D01*
X194433103Y-102824442D01*
X194443845Y-102814703D01*
X194488777Y-102789123D01*
X194537249Y-102787847D01*
X194577894Y-102802999D01*
X194612567Y-102834642D01*
X194633224Y-102886620D01*
X194639955Y-102959219D01*
X194765672Y-102959219D01*
X194766479Y-102916621D01*
X194763948Y-102858056D01*
X194756362Y-102814007D01*
X194742681Y-102779248D01*
X194721865Y-102748551D01*
X194714147Y-102739436D01*
X194665889Y-102694021D01*
X194614128Y-102667493D01*
X194550828Y-102656379D01*
X194519961Y-102655471D01*
X194438261Y-102665148D01*
G36*
X193256699Y-102672614D02*
G01*
X193244168Y-102678514D01*
X193200799Y-102710283D01*
X193159790Y-102756646D01*
X193129168Y-102807696D01*
X193120459Y-102831166D01*
X193112512Y-102873091D01*
X193107774Y-102923757D01*
X193107199Y-102944679D01*
X193107129Y-103010693D01*
X193487083Y-103010693D01*
X193478983Y-103045273D01*
X193459104Y-103086170D01*
X193424347Y-103121514D01*
X193382998Y-103144282D01*
X193356649Y-103149010D01*
X193320916Y-103143273D01*
X193278282Y-103128882D01*
X193263799Y-103122262D01*
X193210240Y-103095513D01*
X193164533Y-103130376D01*
X193138158Y-103153955D01*
X193124124Y-103173417D01*
X193123414Y-103179129D01*
X193135951Y-103192973D01*
X193163428Y-103214012D01*
X193188366Y-103230425D01*
X193255664Y-103259930D01*
X193331110Y-103273284D01*
X193405888Y-103269812D01*
X193465495Y-103251663D01*
X193526941Y-103212784D01*
X193570608Y-103161595D01*
X193597926Y-103095367D01*
X193610322Y-103011371D01*
X193611421Y-102972936D01*
X193607022Y-102884861D01*
X193606482Y-102882299D01*
X193480582Y-102882299D01*
X193477115Y-102890558D01*
X193462863Y-102895113D01*
X193433470Y-102897065D01*
X193384575Y-102897517D01*
X193365748Y-102897525D01*
X193308467Y-102896843D01*
X193272141Y-102894364D01*
X193252604Y-102889443D01*
X193245690Y-102881434D01*
X193245445Y-102878862D01*
X193253336Y-102858423D01*
X193273085Y-102829789D01*
X193281575Y-102819763D01*
X193313094Y-102791408D01*
X193345949Y-102780259D01*
X193363651Y-102779327D01*
X193411539Y-102790981D01*
X193451699Y-102822285D01*
X193477173Y-102867752D01*
X193477625Y-102869233D01*
X193480582Y-102882299D01*
X193606482Y-102882299D01*
X193592392Y-102815510D01*
X193566038Y-102760025D01*
X193533807Y-102720639D01*
X193474217Y-102677931D01*
X193404168Y-102655109D01*
X193329661Y-102653046D01*
X193256699Y-102672614D01*
X193256699Y-102672614D01*
G37*
X193256699Y-102672614D02*
X193244168Y-102678514D01*
X193200799Y-102710283D01*
X193159790Y-102756646D01*
X193129168Y-102807696D01*
X193120459Y-102831166D01*
X193112512Y-102873091D01*
X193107774Y-102923757D01*
X193107199Y-102944679D01*
X193107129Y-103010693D01*
X193487083Y-103010693D01*
X193478983Y-103045273D01*
X193459104Y-103086170D01*
X193424347Y-103121514D01*
X193382998Y-103144282D01*
X193356649Y-103149010D01*
X193320916Y-103143273D01*
X193278282Y-103128882D01*
X193263799Y-103122262D01*
X193210240Y-103095513D01*
X193164533Y-103130376D01*
X193138158Y-103153955D01*
X193124124Y-103173417D01*
X193123414Y-103179129D01*
X193135951Y-103192973D01*
X193163428Y-103214012D01*
X193188366Y-103230425D01*
X193255664Y-103259930D01*
X193331110Y-103273284D01*
X193405888Y-103269812D01*
X193465495Y-103251663D01*
X193526941Y-103212784D01*
X193570608Y-103161595D01*
X193597926Y-103095367D01*
X193610322Y-103011371D01*
X193611421Y-102972936D01*
X193607022Y-102884861D01*
X193606482Y-102882299D01*
X193480582Y-102882299D01*
X193477115Y-102890558D01*
X193462863Y-102895113D01*
X193433470Y-102897065D01*
X193384575Y-102897517D01*
X193365748Y-102897525D01*
X193308467Y-102896843D01*
X193272141Y-102894364D01*
X193252604Y-102889443D01*
X193245690Y-102881434D01*
X193245445Y-102878862D01*
X193253336Y-102858423D01*
X193273085Y-102829789D01*
X193281575Y-102819763D01*
X193313094Y-102791408D01*
X193345949Y-102780259D01*
X193363651Y-102779327D01*
X193411539Y-102790981D01*
X193451699Y-102822285D01*
X193477173Y-102867752D01*
X193477625Y-102869233D01*
X193480582Y-102882299D01*
X193606482Y-102882299D01*
X193592392Y-102815510D01*
X193566038Y-102760025D01*
X193533807Y-102720639D01*
X193474217Y-102677931D01*
X193404168Y-102655109D01*
X193329661Y-102653046D01*
X193256699Y-102672614D01*
G36*
X191885983Y-102656452D02*
G01*
X191838366Y-102665482D01*
X191788966Y-102684370D01*
X191783688Y-102686777D01*
X191746226Y-102706476D01*
X191720283Y-102724781D01*
X191711897Y-102736508D01*
X191719883Y-102755632D01*
X191739280Y-102783850D01*
X191747890Y-102794384D01*
X191783372Y-102835847D01*
X191829115Y-102808858D01*
X191872650Y-102790878D01*
X191922950Y-102781267D01*
X191971188Y-102780660D01*
X192008533Y-102789691D01*
X192017495Y-102795327D01*
X192034563Y-102821171D01*
X192036637Y-102850941D01*
X192023866Y-102874197D01*
X192016312Y-102878708D01*
X191993675Y-102884309D01*
X191953885Y-102890892D01*
X191904834Y-102897183D01*
X191895785Y-102898170D01*
X191817004Y-102911798D01*
X191759864Y-102934946D01*
X191721970Y-102969752D01*
X191700921Y-103018354D01*
X191694365Y-103077718D01*
X191703423Y-103145198D01*
X191732836Y-103198188D01*
X191782722Y-103236783D01*
X191853200Y-103261081D01*
X191931435Y-103270667D01*
X191995234Y-103270552D01*
X192046984Y-103261845D01*
X192082327Y-103249825D01*
X192126983Y-103228880D01*
X192168253Y-103204574D01*
X192182921Y-103193876D01*
X192220643Y-103163084D01*
X192175148Y-103117049D01*
X192129653Y-103071013D01*
X192077928Y-103105243D01*
X192026048Y-103130952D01*
X191970649Y-103144399D01*
X191917395Y-103145818D01*
X191871951Y-103135443D01*
X191839984Y-103113507D01*
X191829662Y-103094998D01*
X191831211Y-103065314D01*
X191856860Y-103042615D01*
X191906540Y-103026940D01*
X191960969Y-103019695D01*
X192044736Y-103005873D01*
X192106967Y-102979796D01*
X192148493Y-102940699D01*
X192170147Y-102887820D01*
X192173147Y-102825126D01*
X192158329Y-102759642D01*
X192124546Y-102710144D01*
X192071495Y-102676408D01*
X191998874Y-102658207D01*
X191945072Y-102654639D01*
X191885983Y-102656452D01*
X191885983Y-102656452D01*
G37*
X191885983Y-102656452D02*
X191838366Y-102665482D01*
X191788966Y-102684370D01*
X191783688Y-102686777D01*
X191746226Y-102706476D01*
X191720283Y-102724781D01*
X191711897Y-102736508D01*
X191719883Y-102755632D01*
X191739280Y-102783850D01*
X191747890Y-102794384D01*
X191783372Y-102835847D01*
X191829115Y-102808858D01*
X191872650Y-102790878D01*
X191922950Y-102781267D01*
X191971188Y-102780660D01*
X192008533Y-102789691D01*
X192017495Y-102795327D01*
X192034563Y-102821171D01*
X192036637Y-102850941D01*
X192023866Y-102874197D01*
X192016312Y-102878708D01*
X191993675Y-102884309D01*
X191953885Y-102890892D01*
X191904834Y-102897183D01*
X191895785Y-102898170D01*
X191817004Y-102911798D01*
X191759864Y-102934946D01*
X191721970Y-102969752D01*
X191700921Y-103018354D01*
X191694365Y-103077718D01*
X191703423Y-103145198D01*
X191732836Y-103198188D01*
X191782722Y-103236783D01*
X191853200Y-103261081D01*
X191931435Y-103270667D01*
X191995234Y-103270552D01*
X192046984Y-103261845D01*
X192082327Y-103249825D01*
X192126983Y-103228880D01*
X192168253Y-103204574D01*
X192182921Y-103193876D01*
X192220643Y-103163084D01*
X192175148Y-103117049D01*
X192129653Y-103071013D01*
X192077928Y-103105243D01*
X192026048Y-103130952D01*
X191970649Y-103144399D01*
X191917395Y-103145818D01*
X191871951Y-103135443D01*
X191839984Y-103113507D01*
X191829662Y-103094998D01*
X191831211Y-103065314D01*
X191856860Y-103042615D01*
X191906540Y-103026940D01*
X191960969Y-103019695D01*
X192044736Y-103005873D01*
X192106967Y-102979796D01*
X192148493Y-102940699D01*
X192170147Y-102887820D01*
X192173147Y-102825126D01*
X192158329Y-102759642D01*
X192124546Y-102710144D01*
X192071495Y-102676408D01*
X191998874Y-102658207D01*
X191945072Y-102654639D01*
X191885983Y-102656452D01*
G36*
X191289238Y-102666055D02*
G01*
X191225637Y-102700692D01*
X191175877Y-102755372D01*
X191152432Y-102799842D01*
X191142366Y-102839121D01*
X191135844Y-102895116D01*
X191133049Y-102959621D01*
X191134164Y-103024429D01*
X191139374Y-103081334D01*
X191145459Y-103111727D01*
X191165986Y-103153306D01*
X191201537Y-103197468D01*
X191244381Y-103236087D01*
X191286789Y-103261034D01*
X191287823Y-103261430D01*
X191340447Y-103272331D01*
X191402812Y-103272601D01*
X191462076Y-103262676D01*
X191484960Y-103254722D01*
X191543898Y-103221300D01*
X191586110Y-103177511D01*
X191613844Y-103119538D01*
X191629349Y-103043565D01*
X191632857Y-103003771D01*
X191632410Y-102953766D01*
X191497624Y-102953766D01*
X191493083Y-103026732D01*
X191480014Y-103082334D01*
X191459244Y-103117861D01*
X191444448Y-103128020D01*
X191406536Y-103135104D01*
X191361473Y-103133007D01*
X191322513Y-103122812D01*
X191312296Y-103117204D01*
X191285341Y-103084538D01*
X191267549Y-103034545D01*
X191259976Y-102973705D01*
X191263675Y-102908497D01*
X191271943Y-102869253D01*
X191295680Y-102823805D01*
X191333151Y-102795396D01*
X191378280Y-102785573D01*
X191424989Y-102795887D01*
X191460868Y-102821112D01*
X191479723Y-102841925D01*
X191490728Y-102862439D01*
X191495974Y-102890203D01*
X191497551Y-102932762D01*
X191497624Y-102953766D01*
X191632410Y-102953766D01*
X191631906Y-102897580D01*
X191614612Y-102810501D01*
X191580971Y-102742530D01*
X191530982Y-102693664D01*
X191464644Y-102663899D01*
X191450399Y-102660448D01*
X191364790Y-102652345D01*
X191289238Y-102666055D01*
X191289238Y-102666055D01*
G37*
X191289238Y-102666055D02*
X191225637Y-102700692D01*
X191175877Y-102755372D01*
X191152432Y-102799842D01*
X191142366Y-102839121D01*
X191135844Y-102895116D01*
X191133049Y-102959621D01*
X191134164Y-103024429D01*
X191139374Y-103081334D01*
X191145459Y-103111727D01*
X191165986Y-103153306D01*
X191201537Y-103197468D01*
X191244381Y-103236087D01*
X191286789Y-103261034D01*
X191287823Y-103261430D01*
X191340447Y-103272331D01*
X191402812Y-103272601D01*
X191462076Y-103262676D01*
X191484960Y-103254722D01*
X191543898Y-103221300D01*
X191586110Y-103177511D01*
X191613844Y-103119538D01*
X191629349Y-103043565D01*
X191632857Y-103003771D01*
X191632410Y-102953766D01*
X191497624Y-102953766D01*
X191493083Y-103026732D01*
X191480014Y-103082334D01*
X191459244Y-103117861D01*
X191444448Y-103128020D01*
X191406536Y-103135104D01*
X191361473Y-103133007D01*
X191322513Y-103122812D01*
X191312296Y-103117204D01*
X191285341Y-103084538D01*
X191267549Y-103034545D01*
X191259976Y-102973705D01*
X191263675Y-102908497D01*
X191271943Y-102869253D01*
X191295680Y-102823805D01*
X191333151Y-102795396D01*
X191378280Y-102785573D01*
X191424989Y-102795887D01*
X191460868Y-102821112D01*
X191479723Y-102841925D01*
X191490728Y-102862439D01*
X191495974Y-102890203D01*
X191497551Y-102932762D01*
X191497624Y-102953766D01*
X191632410Y-102953766D01*
X191631906Y-102897580D01*
X191614612Y-102810501D01*
X191580971Y-102742530D01*
X191530982Y-102693664D01*
X191464644Y-102663899D01*
X191450399Y-102660448D01*
X191364790Y-102652345D01*
X191289238Y-102666055D01*
G36*
X190906633Y-102854342D02*
G01*
X190905445Y-102946563D01*
X190901103Y-103016610D01*
X190892442Y-103067381D01*
X190878296Y-103101772D01*
X190857500Y-103122679D01*
X190828890Y-103133000D01*
X190793465Y-103135636D01*
X190756364Y-103132682D01*
X190728182Y-103121889D01*
X190707757Y-103100360D01*
X190693921Y-103065199D01*
X190685509Y-103013510D01*
X190681357Y-102942394D01*
X190680297Y-102854342D01*
X190680297Y-102658614D01*
X190541980Y-102658614D01*
X190541980Y-103262179D01*
X190611138Y-103262179D01*
X190652830Y-103260489D01*
X190674299Y-103254556D01*
X190680297Y-103243293D01*
X190683909Y-103233261D01*
X190698286Y-103235383D01*
X190727264Y-103249580D01*
X190793681Y-103271480D01*
X190864125Y-103269928D01*
X190931623Y-103246147D01*
X190963767Y-103227362D01*
X190988285Y-103207022D01*
X191006196Y-103181573D01*
X191018521Y-103147458D01*
X191026277Y-103101121D01*
X191030484Y-103039007D01*
X191032160Y-102957561D01*
X191032376Y-102894578D01*
X191032376Y-102658614D01*
X190906633Y-102658614D01*
X190906633Y-102854342D01*
X190906633Y-102854342D01*
G37*
X190906633Y-102854342D02*
X190905445Y-102946563D01*
X190901103Y-103016610D01*
X190892442Y-103067381D01*
X190878296Y-103101772D01*
X190857500Y-103122679D01*
X190828890Y-103133000D01*
X190793465Y-103135636D01*
X190756364Y-103132682D01*
X190728182Y-103121889D01*
X190707757Y-103100360D01*
X190693921Y-103065199D01*
X190685509Y-103013510D01*
X190681357Y-102942394D01*
X190680297Y-102854342D01*
X190680297Y-102658614D01*
X190541980Y-102658614D01*
X190541980Y-103262179D01*
X190611138Y-103262179D01*
X190652830Y-103260489D01*
X190674299Y-103254556D01*
X190680297Y-103243293D01*
X190683909Y-103233261D01*
X190698286Y-103235383D01*
X190727264Y-103249580D01*
X190793681Y-103271480D01*
X190864125Y-103269928D01*
X190931623Y-103246147D01*
X190963767Y-103227362D01*
X190988285Y-103207022D01*
X191006196Y-103181573D01*
X191018521Y-103147458D01*
X191026277Y-103101121D01*
X191030484Y-103039007D01*
X191032160Y-102957561D01*
X191032376Y-102894578D01*
X191032376Y-102658614D01*
X190906633Y-102658614D01*
X190906633Y-102854342D01*
G36*
X189682774Y-102663880D02*
G01*
X189609920Y-102694830D01*
X189586973Y-102709895D01*
X189557646Y-102733048D01*
X189539236Y-102751253D01*
X189536039Y-102757183D01*
X189545065Y-102770340D01*
X189568163Y-102792667D01*
X189586656Y-102808250D01*
X189637272Y-102848926D01*
X189677240Y-102815295D01*
X189708126Y-102793584D01*
X189738241Y-102786090D01*
X189772708Y-102787920D01*
X189827439Y-102801528D01*
X189865114Y-102829772D01*
X189888009Y-102875433D01*
X189898403Y-102941289D01*
X189898405Y-102941331D01*
X189897506Y-103014939D01*
X189883537Y-103068946D01*
X189855672Y-103105716D01*
X189836675Y-103118168D01*
X189786224Y-103133673D01*
X189732337Y-103133683D01*
X189685454Y-103118638D01*
X189674356Y-103111287D01*
X189646524Y-103092511D01*
X189624764Y-103089434D01*
X189601296Y-103103409D01*
X189575351Y-103128510D01*
X189534284Y-103170880D01*
X189579879Y-103208464D01*
X189650326Y-103250882D01*
X189729767Y-103271785D01*
X189812785Y-103270272D01*
X189867306Y-103256411D01*
X189931030Y-103222135D01*
X189981995Y-103168212D01*
X190005149Y-103130149D01*
X190023901Y-103075536D01*
X190033285Y-103006369D01*
X190033357Y-102931407D01*
X190024176Y-102859409D01*
X190005801Y-102799137D01*
X190002907Y-102792958D01*
X189960048Y-102732351D01*
X189902021Y-102688224D01*
X189833409Y-102661493D01*
X189758799Y-102653073D01*
X189682774Y-102663880D01*
X189682774Y-102663880D01*
G37*
X189682774Y-102663880D02*
X189609920Y-102694830D01*
X189586973Y-102709895D01*
X189557646Y-102733048D01*
X189539236Y-102751253D01*
X189536039Y-102757183D01*
X189545065Y-102770340D01*
X189568163Y-102792667D01*
X189586656Y-102808250D01*
X189637272Y-102848926D01*
X189677240Y-102815295D01*
X189708126Y-102793584D01*
X189738241Y-102786090D01*
X189772708Y-102787920D01*
X189827439Y-102801528D01*
X189865114Y-102829772D01*
X189888009Y-102875433D01*
X189898403Y-102941289D01*
X189898405Y-102941331D01*
X189897506Y-103014939D01*
X189883537Y-103068946D01*
X189855672Y-103105716D01*
X189836675Y-103118168D01*
X189786224Y-103133673D01*
X189732337Y-103133683D01*
X189685454Y-103118638D01*
X189674356Y-103111287D01*
X189646524Y-103092511D01*
X189624764Y-103089434D01*
X189601296Y-103103409D01*
X189575351Y-103128510D01*
X189534284Y-103170880D01*
X189579879Y-103208464D01*
X189650326Y-103250882D01*
X189729767Y-103271785D01*
X189812785Y-103270272D01*
X189867306Y-103256411D01*
X189931030Y-103222135D01*
X189981995Y-103168212D01*
X190005149Y-103130149D01*
X190023901Y-103075536D01*
X190033285Y-103006369D01*
X190033357Y-102931407D01*
X190024176Y-102859409D01*
X190005801Y-102799137D01*
X190002907Y-102792958D01*
X189960048Y-102732351D01*
X189902021Y-102688224D01*
X189833409Y-102661493D01*
X189758799Y-102653073D01*
X189682774Y-102663880D01*
G36*
X189222102Y-102656457D02*
G01*
X189189904Y-102664279D01*
X189128175Y-102692921D01*
X189075390Y-102736667D01*
X189038859Y-102789117D01*
X189033840Y-102800893D01*
X189026955Y-102831740D01*
X189022136Y-102877371D01*
X189020495Y-102923492D01*
X189020495Y-103010693D01*
X189202822Y-103010693D01*
X189278021Y-103010978D01*
X189330997Y-103012704D01*
X189364675Y-103017181D01*
X189381980Y-103025720D01*
X189385837Y-103039630D01*
X189379171Y-103060222D01*
X189367230Y-103084315D01*
X189333920Y-103124525D01*
X189287632Y-103144558D01*
X189231056Y-103143905D01*
X189166969Y-103122101D01*
X189111583Y-103095193D01*
X189065625Y-103131532D01*
X189019667Y-103167872D01*
X189062904Y-103207819D01*
X189120626Y-103245563D01*
X189191614Y-103268320D01*
X189267971Y-103274688D01*
X189341801Y-103263268D01*
X189353713Y-103259393D01*
X189418601Y-103225506D01*
X189466870Y-103174986D01*
X189499535Y-103106325D01*
X189517615Y-103018014D01*
X189517825Y-103016121D01*
X189519444Y-102919878D01*
X189512900Y-102885542D01*
X189385148Y-102885542D01*
X189373416Y-102890822D01*
X189341562Y-102894867D01*
X189294603Y-102897176D01*
X189264846Y-102897525D01*
X189209352Y-102897306D01*
X189174654Y-102895916D01*
X189156399Y-102892251D01*
X189150234Y-102885210D01*
X189151805Y-102873690D01*
X189153122Y-102869233D01*
X189175618Y-102827355D01*
X189210997Y-102793604D01*
X189242220Y-102778773D01*
X189283699Y-102779668D01*
X189325731Y-102798164D01*
X189360988Y-102828786D01*
X189382146Y-102866062D01*
X189385148Y-102885542D01*
X189512900Y-102885542D01*
X189503310Y-102835229D01*
X189471302Y-102764191D01*
X189425299Y-102708779D01*
X189367179Y-102671009D01*
X189298820Y-102652896D01*
X189222102Y-102656457D01*
X189222102Y-102656457D01*
G37*
X189222102Y-102656457D02*
X189189904Y-102664279D01*
X189128175Y-102692921D01*
X189075390Y-102736667D01*
X189038859Y-102789117D01*
X189033840Y-102800893D01*
X189026955Y-102831740D01*
X189022136Y-102877371D01*
X189020495Y-102923492D01*
X189020495Y-103010693D01*
X189202822Y-103010693D01*
X189278021Y-103010978D01*
X189330997Y-103012704D01*
X189364675Y-103017181D01*
X189381980Y-103025720D01*
X189385837Y-103039630D01*
X189379171Y-103060222D01*
X189367230Y-103084315D01*
X189333920Y-103124525D01*
X189287632Y-103144558D01*
X189231056Y-103143905D01*
X189166969Y-103122101D01*
X189111583Y-103095193D01*
X189065625Y-103131532D01*
X189019667Y-103167872D01*
X189062904Y-103207819D01*
X189120626Y-103245563D01*
X189191614Y-103268320D01*
X189267971Y-103274688D01*
X189341801Y-103263268D01*
X189353713Y-103259393D01*
X189418601Y-103225506D01*
X189466870Y-103174986D01*
X189499535Y-103106325D01*
X189517615Y-103018014D01*
X189517825Y-103016121D01*
X189519444Y-102919878D01*
X189512900Y-102885542D01*
X189385148Y-102885542D01*
X189373416Y-102890822D01*
X189341562Y-102894867D01*
X189294603Y-102897176D01*
X189264846Y-102897525D01*
X189209352Y-102897306D01*
X189174654Y-102895916D01*
X189156399Y-102892251D01*
X189150234Y-102885210D01*
X189151805Y-102873690D01*
X189153122Y-102869233D01*
X189175618Y-102827355D01*
X189210997Y-102793604D01*
X189242220Y-102778773D01*
X189283699Y-102779668D01*
X189325731Y-102798164D01*
X189360988Y-102828786D01*
X189382146Y-102866062D01*
X189385148Y-102885542D01*
X189512900Y-102885542D01*
X189503310Y-102835229D01*
X189471302Y-102764191D01*
X189425299Y-102708779D01*
X189367179Y-102671009D01*
X189298820Y-102652896D01*
X189222102Y-102656457D01*
G36*
X192654012Y-102669002D02*
G01*
X192622717Y-102683950D01*
X192592409Y-102705541D01*
X192569318Y-102730391D01*
X192552500Y-102762087D01*
X192541006Y-102804214D01*
X192533891Y-102860358D01*
X192530207Y-102934106D01*
X192529008Y-103029044D01*
X192528989Y-103038985D01*
X192528713Y-103262179D01*
X192667030Y-103262179D01*
X192667030Y-103056418D01*
X192667128Y-102980189D01*
X192667809Y-102924939D01*
X192669651Y-102886501D01*
X192673233Y-102860706D01*
X192679132Y-102843384D01*
X192687927Y-102830368D01*
X192700180Y-102817507D01*
X192743047Y-102789873D01*
X192789843Y-102784745D01*
X192834424Y-102802217D01*
X192849928Y-102815221D01*
X192861310Y-102827447D01*
X192869481Y-102840540D01*
X192874974Y-102858615D01*
X192878320Y-102885787D01*
X192880051Y-102926170D01*
X192880697Y-102983879D01*
X192880792Y-103054132D01*
X192880792Y-103262179D01*
X193019109Y-103262179D01*
X193019109Y-102658614D01*
X192949950Y-102658614D01*
X192908428Y-102660256D01*
X192887006Y-102666087D01*
X192880795Y-102677461D01*
X192880792Y-102677798D01*
X192877910Y-102688938D01*
X192865199Y-102687674D01*
X192839926Y-102675434D01*
X192782605Y-102657424D01*
X192717037Y-102655421D01*
X192654012Y-102669002D01*
X192654012Y-102669002D01*
G37*
X192654012Y-102669002D02*
X192622717Y-102683950D01*
X192592409Y-102705541D01*
X192569318Y-102730391D01*
X192552500Y-102762087D01*
X192541006Y-102804214D01*
X192533891Y-102860358D01*
X192530207Y-102934106D01*
X192529008Y-103029044D01*
X192528989Y-103038985D01*
X192528713Y-103262179D01*
X192667030Y-103262179D01*
X192667030Y-103056418D01*
X192667128Y-102980189D01*
X192667809Y-102924939D01*
X192669651Y-102886501D01*
X192673233Y-102860706D01*
X192679132Y-102843384D01*
X192687927Y-102830368D01*
X192700180Y-102817507D01*
X192743047Y-102789873D01*
X192789843Y-102784745D01*
X192834424Y-102802217D01*
X192849928Y-102815221D01*
X192861310Y-102827447D01*
X192869481Y-102840540D01*
X192874974Y-102858615D01*
X192878320Y-102885787D01*
X192880051Y-102926170D01*
X192880697Y-102983879D01*
X192880792Y-103054132D01*
X192880792Y-103262179D01*
X193019109Y-103262179D01*
X193019109Y-102658614D01*
X192949950Y-102658614D01*
X192908428Y-102660256D01*
X192887006Y-102666087D01*
X192880795Y-102677461D01*
X192880792Y-102677798D01*
X192877910Y-102688938D01*
X192865199Y-102687674D01*
X192839926Y-102675434D01*
X192782605Y-102657424D01*
X192717037Y-102655421D01*
X192654012Y-102669002D01*
G36*
X190100540Y-102658030D02*
G01*
X190057289Y-102671245D01*
X190029442Y-102687941D01*
X190020371Y-102701145D01*
X190022868Y-102716797D01*
X190039069Y-102741385D01*
X190052768Y-102758800D01*
X190081008Y-102790283D01*
X190102225Y-102803529D01*
X190120312Y-102802664D01*
X190173965Y-102789010D01*
X190213370Y-102789630D01*
X190245368Y-102805104D01*
X190256110Y-102814161D01*
X190290495Y-102846027D01*
X190290495Y-103262179D01*
X190428812Y-103262179D01*
X190428812Y-102658614D01*
X190359653Y-102658614D01*
X190318131Y-102660256D01*
X190296709Y-102666087D01*
X190290498Y-102677461D01*
X190290495Y-102677798D01*
X190287561Y-102689713D01*
X190274296Y-102688159D01*
X190255916Y-102679563D01*
X190217954Y-102663568D01*
X190187128Y-102653945D01*
X190147464Y-102651478D01*
X190100540Y-102658030D01*
X190100540Y-102658030D01*
G37*
X190100540Y-102658030D02*
X190057289Y-102671245D01*
X190029442Y-102687941D01*
X190020371Y-102701145D01*
X190022868Y-102716797D01*
X190039069Y-102741385D01*
X190052768Y-102758800D01*
X190081008Y-102790283D01*
X190102225Y-102803529D01*
X190120312Y-102802664D01*
X190173965Y-102789010D01*
X190213370Y-102789630D01*
X190245368Y-102805104D01*
X190256110Y-102814161D01*
X190290495Y-102846027D01*
X190290495Y-103262179D01*
X190428812Y-103262179D01*
X190428812Y-102658614D01*
X190359653Y-102658614D01*
X190318131Y-102660256D01*
X190296709Y-102666087D01*
X190290498Y-102677461D01*
X190290495Y-102677798D01*
X190287561Y-102689713D01*
X190274296Y-102688159D01*
X190255916Y-102679563D01*
X190217954Y-102663568D01*
X190187128Y-102653945D01*
X190147464Y-102651478D01*
X190100540Y-102658030D01*
G36*
X191523036Y-98490018D02*
G01*
X191466188Y-98791570D01*
X191046662Y-98964512D01*
X190795016Y-98793395D01*
X190724542Y-98745750D01*
X190660837Y-98703210D01*
X190606874Y-98667715D01*
X190565627Y-98641210D01*
X190540066Y-98625636D01*
X190533105Y-98622278D01*
X190520565Y-98630914D01*
X190493769Y-98654792D01*
X190455720Y-98690859D01*
X190409421Y-98736067D01*
X190357877Y-98787364D01*
X190304091Y-98841701D01*
X190251065Y-98896028D01*
X190201805Y-98947295D01*
X190159313Y-98992451D01*
X190126593Y-99028446D01*
X190106649Y-99052230D01*
X190101881Y-99060190D01*
X190108743Y-99074865D01*
X190127980Y-99107014D01*
X190157570Y-99153492D01*
X190195490Y-99211156D01*
X190239718Y-99276860D01*
X190265346Y-99314336D01*
X190312059Y-99382768D01*
X190353568Y-99444520D01*
X190387860Y-99496519D01*
X190412920Y-99535692D01*
X190426736Y-99558965D01*
X190428812Y-99563855D01*
X190424105Y-99577755D01*
X190411277Y-99610150D01*
X190392262Y-99656485D01*
X190368997Y-99712206D01*
X190343416Y-99772758D01*
X190317455Y-99833586D01*
X190293050Y-99890136D01*
X190272137Y-99937852D01*
X190256651Y-99972181D01*
X190248528Y-99988568D01*
X190248048Y-99989212D01*
X190235293Y-99992341D01*
X190201323Y-99999321D01*
X190149660Y-100009467D01*
X190083824Y-100022092D01*
X190007336Y-100036509D01*
X189962710Y-100044823D01*
X189880979Y-100060384D01*
X189807157Y-100075192D01*
X189744979Y-100088436D01*
X189698178Y-100099305D01*
X189670491Y-100106989D01*
X189664926Y-100109427D01*
X189659474Y-100125930D01*
X189655076Y-100163200D01*
X189651728Y-100216880D01*
X189649426Y-100282612D01*
X189648168Y-100356037D01*
X189647952Y-100432796D01*
X189648773Y-100508532D01*
X189650629Y-100578886D01*
X189653518Y-100639500D01*
X189657435Y-100686016D01*
X189662378Y-100714075D01*
X189665343Y-100719916D01*
X189683066Y-100726917D01*
X189720619Y-100736927D01*
X189773036Y-100748769D01*
X189835348Y-100761267D01*
X189857100Y-100765310D01*
X189961976Y-100784520D01*
X190044820Y-100799991D01*
X190108370Y-100812337D01*
X190155363Y-100822173D01*
X190188537Y-100830114D01*
X190210629Y-100836776D01*
X190224376Y-100842773D01*
X190232516Y-100848719D01*
X190233655Y-100849894D01*
X190245023Y-100868826D01*
X190262365Y-100905669D01*
X190283950Y-100955913D01*
X190308046Y-101015046D01*
X190332921Y-101078556D01*
X190356843Y-101141932D01*
X190378081Y-101200662D01*
X190394903Y-101250235D01*
X190405578Y-101286139D01*
X190408373Y-101303862D01*
X190408140Y-101304483D01*
X190398669Y-101318970D01*
X190377182Y-101350844D01*
X190345937Y-101396789D01*
X190307193Y-101453485D01*
X190263207Y-101517617D01*
X190250681Y-101535842D01*
X190206016Y-101601914D01*
X190166712Y-101662200D01*
X190134912Y-101713235D01*
X190112755Y-101751560D01*
X190102383Y-101773711D01*
X190101881Y-101776432D01*
X190110595Y-101790736D01*
X190134675Y-101819072D01*
X190171024Y-101858396D01*
X190216547Y-101905661D01*
X190268148Y-101957823D01*
X190322733Y-102011835D01*
X190377206Y-102064653D01*
X190428471Y-102113231D01*
X190473433Y-102154523D01*
X190508996Y-102185485D01*
X190532065Y-102203070D01*
X190538446Y-102205941D01*
X190553301Y-102199178D01*
X190583714Y-102180939D01*
X190624732Y-102154297D01*
X190656291Y-102132852D01*
X190713475Y-102093503D01*
X190781194Y-102047171D01*
X190849120Y-102000913D01*
X190885639Y-101976155D01*
X191009248Y-101892547D01*
X191113009Y-101948650D01*
X191160280Y-101973228D01*
X191200477Y-101992331D01*
X191227674Y-102003227D01*
X191234598Y-102004743D01*
X191242923Y-101993549D01*
X191259346Y-101961917D01*
X191282643Y-101912765D01*
X191311586Y-101849010D01*
X191344950Y-101773571D01*
X191381509Y-101689364D01*
X191420036Y-101599308D01*
X191459306Y-101506321D01*
X191498092Y-101413320D01*
X191535170Y-101323223D01*
X191569311Y-101238948D01*
X191599292Y-101163413D01*
X191623884Y-101099534D01*
X191641864Y-101050231D01*
X191652003Y-101018421D01*
X191653634Y-101007496D01*
X191640709Y-100993561D01*
X191612411Y-100970940D01*
X191574654Y-100944333D01*
X191571485Y-100942228D01*
X191473900Y-100864114D01*
X191395214Y-100772982D01*
X191336109Y-100671745D01*
X191297268Y-100563318D01*
X191279372Y-100450614D01*
X191283103Y-100336548D01*
X191309143Y-100224034D01*
X191358175Y-100115985D01*
X191372600Y-100092345D01*
X191447631Y-99996887D01*
X191536270Y-99920232D01*
X191635451Y-99862780D01*
X191742105Y-99824929D01*
X191853164Y-99807078D01*
X191965561Y-99809625D01*
X192076227Y-99832970D01*
X192182094Y-99877510D01*
X192280095Y-99943645D01*
X192310410Y-99970487D01*
X192387562Y-100054512D01*
X192443782Y-100142966D01*
X192482347Y-100242115D01*
X192503826Y-100340303D01*
X192509128Y-100450697D01*
X192491448Y-100561640D01*
X192452581Y-100669381D01*
X192394323Y-100770169D01*
X192318469Y-100860256D01*
X192226817Y-100935892D01*
X192214772Y-100943864D01*
X192176611Y-100969974D01*
X192147601Y-100992595D01*
X192133732Y-101007039D01*
X192133531Y-101007496D01*
X192136508Y-101023121D01*
X192148311Y-101058582D01*
X192167714Y-101110962D01*
X192193488Y-101177345D01*
X192224409Y-101254814D01*
X192259249Y-101340450D01*
X192296783Y-101431337D01*
X192335783Y-101524559D01*
X192375023Y-101617197D01*
X192413276Y-101706335D01*
X192449317Y-101789055D01*
X192481917Y-101862441D01*
X192509852Y-101923575D01*
X192531895Y-101969541D01*
X192546818Y-101997421D01*
X192552828Y-102004743D01*
X192571191Y-101999041D01*
X192605552Y-101983749D01*
X192649984Y-101961599D01*
X192674417Y-101948650D01*
X192778178Y-101892547D01*
X192901787Y-101976155D01*
X192964886Y-102018987D01*
X193033970Y-102066122D01*
X193098707Y-102110503D01*
X193131134Y-102132852D01*
X193176741Y-102163477D01*
X193215360Y-102187747D01*
X193241952Y-102202587D01*
X193250590Y-102205724D01*
X193263161Y-102197261D01*
X193290984Y-102173636D01*
X193331361Y-102137302D01*
X193381595Y-102090711D01*
X193438988Y-102036317D01*
X193475286Y-102001392D01*
X193538790Y-101938996D01*
X193593673Y-101883188D01*
X193637714Y-101836354D01*
X193668695Y-101800882D01*
X193684398Y-101779161D01*
X193685905Y-101774752D01*
X193678914Y-101757985D01*
X193659594Y-101724082D01*
X193630091Y-101676476D01*
X193592545Y-101618599D01*
X193549100Y-101553884D01*
X193536745Y-101535842D01*
X193491727Y-101470267D01*
X193451340Y-101411228D01*
X193417840Y-101362042D01*
X193393486Y-101326028D01*
X193380536Y-101306502D01*
X193379285Y-101304483D01*
X193381156Y-101288922D01*
X193391087Y-101254709D01*
X193407347Y-101206355D01*
X193428205Y-101148371D01*
X193451927Y-101085270D01*
X193476784Y-101021563D01*
X193501042Y-100961761D01*
X193522971Y-100910376D01*
X193540838Y-100871919D01*
X193552913Y-100850902D01*
X193553771Y-100849894D01*
X193561154Y-100843888D01*
X193573625Y-100837948D01*
X193593920Y-100831460D01*
X193624778Y-100823809D01*
X193668934Y-100814380D01*
X193729126Y-100802559D01*
X193808093Y-100787729D01*
X193908570Y-100769277D01*
X193930325Y-100765310D01*
X193994802Y-100752853D01*
X194051011Y-100740666D01*
X194093987Y-100729926D01*
X194118760Y-100721809D01*
X194122082Y-100719916D01*
X194127556Y-100703138D01*
X194132006Y-100665645D01*
X194135428Y-100611794D01*
X194137819Y-100545944D01*
X194139177Y-100472453D01*
X194139499Y-100395680D01*
X194138781Y-100319983D01*
X194137021Y-100249720D01*
X194134216Y-100189250D01*
X194130362Y-100142930D01*
X194125457Y-100115119D01*
X194122500Y-100109427D01*
X194106037Y-100103686D01*
X194068551Y-100094345D01*
X194013775Y-100082215D01*
X193945445Y-100068107D01*
X193867294Y-100052830D01*
X193824716Y-100044823D01*
X193743929Y-100029721D01*
X193671887Y-100016040D01*
X193612111Y-100004467D01*
X193568121Y-99995687D01*
X193543439Y-99990387D01*
X193539377Y-99989212D01*
X193532511Y-99975965D01*
X193517998Y-99944057D01*
X193497771Y-99898047D01*
X193473766Y-99842492D01*
X193447918Y-99781953D01*
X193422160Y-99720986D01*
X193398427Y-99664151D01*
X193378654Y-99616006D01*
X193364776Y-99581110D01*
X193358726Y-99564021D01*
X193358614Y-99563274D01*
X193365472Y-99549793D01*
X193384698Y-99518770D01*
X193414272Y-99473289D01*
X193452173Y-99416432D01*
X193496380Y-99351283D01*
X193522079Y-99313862D01*
X193568907Y-99245247D01*
X193610499Y-99182952D01*
X193644825Y-99130129D01*
X193669857Y-99089927D01*
X193683565Y-99065500D01*
X193685544Y-99060024D01*
X193677034Y-99047278D01*
X193653507Y-99020063D01*
X193617968Y-98981428D01*
X193573423Y-98934423D01*
X193522877Y-98882095D01*
X193469336Y-98827495D01*
X193415805Y-98773670D01*
X193365289Y-98723670D01*
X193320794Y-98680543D01*
X193285325Y-98647339D01*
X193261887Y-98627106D01*
X193254046Y-98622278D01*
X193241280Y-98629067D01*
X193210744Y-98648142D01*
X193165410Y-98677561D01*
X193108244Y-98715381D01*
X193042216Y-98759661D01*
X192992410Y-98793395D01*
X192740764Y-98964512D01*
X192531001Y-98878041D01*
X192321237Y-98791570D01*
X192264389Y-98490018D01*
X192207540Y-98188466D01*
X191579885Y-98188466D01*
X191523036Y-98490018D01*
X191523036Y-98490018D01*
G37*
X191523036Y-98490018D02*
X191466188Y-98791570D01*
X191046662Y-98964512D01*
X190795016Y-98793395D01*
X190724542Y-98745750D01*
X190660837Y-98703210D01*
X190606874Y-98667715D01*
X190565627Y-98641210D01*
X190540066Y-98625636D01*
X190533105Y-98622278D01*
X190520565Y-98630914D01*
X190493769Y-98654792D01*
X190455720Y-98690859D01*
X190409421Y-98736067D01*
X190357877Y-98787364D01*
X190304091Y-98841701D01*
X190251065Y-98896028D01*
X190201805Y-98947295D01*
X190159313Y-98992451D01*
X190126593Y-99028446D01*
X190106649Y-99052230D01*
X190101881Y-99060190D01*
X190108743Y-99074865D01*
X190127980Y-99107014D01*
X190157570Y-99153492D01*
X190195490Y-99211156D01*
X190239718Y-99276860D01*
X190265346Y-99314336D01*
X190312059Y-99382768D01*
X190353568Y-99444520D01*
X190387860Y-99496519D01*
X190412920Y-99535692D01*
X190426736Y-99558965D01*
X190428812Y-99563855D01*
X190424105Y-99577755D01*
X190411277Y-99610150D01*
X190392262Y-99656485D01*
X190368997Y-99712206D01*
X190343416Y-99772758D01*
X190317455Y-99833586D01*
X190293050Y-99890136D01*
X190272137Y-99937852D01*
X190256651Y-99972181D01*
X190248528Y-99988568D01*
X190248048Y-99989212D01*
X190235293Y-99992341D01*
X190201323Y-99999321D01*
X190149660Y-100009467D01*
X190083824Y-100022092D01*
X190007336Y-100036509D01*
X189962710Y-100044823D01*
X189880979Y-100060384D01*
X189807157Y-100075192D01*
X189744979Y-100088436D01*
X189698178Y-100099305D01*
X189670491Y-100106989D01*
X189664926Y-100109427D01*
X189659474Y-100125930D01*
X189655076Y-100163200D01*
X189651728Y-100216880D01*
X189649426Y-100282612D01*
X189648168Y-100356037D01*
X189647952Y-100432796D01*
X189648773Y-100508532D01*
X189650629Y-100578886D01*
X189653518Y-100639500D01*
X189657435Y-100686016D01*
X189662378Y-100714075D01*
X189665343Y-100719916D01*
X189683066Y-100726917D01*
X189720619Y-100736927D01*
X189773036Y-100748769D01*
X189835348Y-100761267D01*
X189857100Y-100765310D01*
X189961976Y-100784520D01*
X190044820Y-100799991D01*
X190108370Y-100812337D01*
X190155363Y-100822173D01*
X190188537Y-100830114D01*
X190210629Y-100836776D01*
X190224376Y-100842773D01*
X190232516Y-100848719D01*
X190233655Y-100849894D01*
X190245023Y-100868826D01*
X190262365Y-100905669D01*
X190283950Y-100955913D01*
X190308046Y-101015046D01*
X190332921Y-101078556D01*
X190356843Y-101141932D01*
X190378081Y-101200662D01*
X190394903Y-101250235D01*
X190405578Y-101286139D01*
X190408373Y-101303862D01*
X190408140Y-101304483D01*
X190398669Y-101318970D01*
X190377182Y-101350844D01*
X190345937Y-101396789D01*
X190307193Y-101453485D01*
X190263207Y-101517617D01*
X190250681Y-101535842D01*
X190206016Y-101601914D01*
X190166712Y-101662200D01*
X190134912Y-101713235D01*
X190112755Y-101751560D01*
X190102383Y-101773711D01*
X190101881Y-101776432D01*
X190110595Y-101790736D01*
X190134675Y-101819072D01*
X190171024Y-101858396D01*
X190216547Y-101905661D01*
X190268148Y-101957823D01*
X190322733Y-102011835D01*
X190377206Y-102064653D01*
X190428471Y-102113231D01*
X190473433Y-102154523D01*
X190508996Y-102185485D01*
X190532065Y-102203070D01*
X190538446Y-102205941D01*
X190553301Y-102199178D01*
X190583714Y-102180939D01*
X190624732Y-102154297D01*
X190656291Y-102132852D01*
X190713475Y-102093503D01*
X190781194Y-102047171D01*
X190849120Y-102000913D01*
X190885639Y-101976155D01*
X191009248Y-101892547D01*
X191113009Y-101948650D01*
X191160280Y-101973228D01*
X191200477Y-101992331D01*
X191227674Y-102003227D01*
X191234598Y-102004743D01*
X191242923Y-101993549D01*
X191259346Y-101961917D01*
X191282643Y-101912765D01*
X191311586Y-101849010D01*
X191344950Y-101773571D01*
X191381509Y-101689364D01*
X191420036Y-101599308D01*
X191459306Y-101506321D01*
X191498092Y-101413320D01*
X191535170Y-101323223D01*
X191569311Y-101238948D01*
X191599292Y-101163413D01*
X191623884Y-101099534D01*
X191641864Y-101050231D01*
X191652003Y-101018421D01*
X191653634Y-101007496D01*
X191640709Y-100993561D01*
X191612411Y-100970940D01*
X191574654Y-100944333D01*
X191571485Y-100942228D01*
X191473900Y-100864114D01*
X191395214Y-100772982D01*
X191336109Y-100671745D01*
X191297268Y-100563318D01*
X191279372Y-100450614D01*
X191283103Y-100336548D01*
X191309143Y-100224034D01*
X191358175Y-100115985D01*
X191372600Y-100092345D01*
X191447631Y-99996887D01*
X191536270Y-99920232D01*
X191635451Y-99862780D01*
X191742105Y-99824929D01*
X191853164Y-99807078D01*
X191965561Y-99809625D01*
X192076227Y-99832970D01*
X192182094Y-99877510D01*
X192280095Y-99943645D01*
X192310410Y-99970487D01*
X192387562Y-100054512D01*
X192443782Y-100142966D01*
X192482347Y-100242115D01*
X192503826Y-100340303D01*
X192509128Y-100450697D01*
X192491448Y-100561640D01*
X192452581Y-100669381D01*
X192394323Y-100770169D01*
X192318469Y-100860256D01*
X192226817Y-100935892D01*
X192214772Y-100943864D01*
X192176611Y-100969974D01*
X192147601Y-100992595D01*
X192133732Y-101007039D01*
X192133531Y-101007496D01*
X192136508Y-101023121D01*
X192148311Y-101058582D01*
X192167714Y-101110962D01*
X192193488Y-101177345D01*
X192224409Y-101254814D01*
X192259249Y-101340450D01*
X192296783Y-101431337D01*
X192335783Y-101524559D01*
X192375023Y-101617197D01*
X192413276Y-101706335D01*
X192449317Y-101789055D01*
X192481917Y-101862441D01*
X192509852Y-101923575D01*
X192531895Y-101969541D01*
X192546818Y-101997421D01*
X192552828Y-102004743D01*
X192571191Y-101999041D01*
X192605552Y-101983749D01*
X192649984Y-101961599D01*
X192674417Y-101948650D01*
X192778178Y-101892547D01*
X192901787Y-101976155D01*
X192964886Y-102018987D01*
X193033970Y-102066122D01*
X193098707Y-102110503D01*
X193131134Y-102132852D01*
X193176741Y-102163477D01*
X193215360Y-102187747D01*
X193241952Y-102202587D01*
X193250590Y-102205724D01*
X193263161Y-102197261D01*
X193290984Y-102173636D01*
X193331361Y-102137302D01*
X193381595Y-102090711D01*
X193438988Y-102036317D01*
X193475286Y-102001392D01*
X193538790Y-101938996D01*
X193593673Y-101883188D01*
X193637714Y-101836354D01*
X193668695Y-101800882D01*
X193684398Y-101779161D01*
X193685905Y-101774752D01*
X193678914Y-101757985D01*
X193659594Y-101724082D01*
X193630091Y-101676476D01*
X193592545Y-101618599D01*
X193549100Y-101553884D01*
X193536745Y-101535842D01*
X193491727Y-101470267D01*
X193451340Y-101411228D01*
X193417840Y-101362042D01*
X193393486Y-101326028D01*
X193380536Y-101306502D01*
X193379285Y-101304483D01*
X193381156Y-101288922D01*
X193391087Y-101254709D01*
X193407347Y-101206355D01*
X193428205Y-101148371D01*
X193451927Y-101085270D01*
X193476784Y-101021563D01*
X193501042Y-100961761D01*
X193522971Y-100910376D01*
X193540838Y-100871919D01*
X193552913Y-100850902D01*
X193553771Y-100849894D01*
X193561154Y-100843888D01*
X193573625Y-100837948D01*
X193593920Y-100831460D01*
X193624778Y-100823809D01*
X193668934Y-100814380D01*
X193729126Y-100802559D01*
X193808093Y-100787729D01*
X193908570Y-100769277D01*
X193930325Y-100765310D01*
X193994802Y-100752853D01*
X194051011Y-100740666D01*
X194093987Y-100729926D01*
X194118760Y-100721809D01*
X194122082Y-100719916D01*
X194127556Y-100703138D01*
X194132006Y-100665645D01*
X194135428Y-100611794D01*
X194137819Y-100545944D01*
X194139177Y-100472453D01*
X194139499Y-100395680D01*
X194138781Y-100319983D01*
X194137021Y-100249720D01*
X194134216Y-100189250D01*
X194130362Y-100142930D01*
X194125457Y-100115119D01*
X194122500Y-100109427D01*
X194106037Y-100103686D01*
X194068551Y-100094345D01*
X194013775Y-100082215D01*
X193945445Y-100068107D01*
X193867294Y-100052830D01*
X193824716Y-100044823D01*
X193743929Y-100029721D01*
X193671887Y-100016040D01*
X193612111Y-100004467D01*
X193568121Y-99995687D01*
X193543439Y-99990387D01*
X193539377Y-99989212D01*
X193532511Y-99975965D01*
X193517998Y-99944057D01*
X193497771Y-99898047D01*
X193473766Y-99842492D01*
X193447918Y-99781953D01*
X193422160Y-99720986D01*
X193398427Y-99664151D01*
X193378654Y-99616006D01*
X193364776Y-99581110D01*
X193358726Y-99564021D01*
X193358614Y-99563274D01*
X193365472Y-99549793D01*
X193384698Y-99518770D01*
X193414272Y-99473289D01*
X193452173Y-99416432D01*
X193496380Y-99351283D01*
X193522079Y-99313862D01*
X193568907Y-99245247D01*
X193610499Y-99182952D01*
X193644825Y-99130129D01*
X193669857Y-99089927D01*
X193683565Y-99065500D01*
X193685544Y-99060024D01*
X193677034Y-99047278D01*
X193653507Y-99020063D01*
X193617968Y-98981428D01*
X193573423Y-98934423D01*
X193522877Y-98882095D01*
X193469336Y-98827495D01*
X193415805Y-98773670D01*
X193365289Y-98723670D01*
X193320794Y-98680543D01*
X193285325Y-98647339D01*
X193261887Y-98627106D01*
X193254046Y-98622278D01*
X193241280Y-98629067D01*
X193210744Y-98648142D01*
X193165410Y-98677561D01*
X193108244Y-98715381D01*
X193042216Y-98759661D01*
X192992410Y-98793395D01*
X192740764Y-98964512D01*
X192531001Y-98878041D01*
X192321237Y-98791570D01*
X192264389Y-98490018D01*
X192207540Y-98188466D01*
X191579885Y-98188466D01*
X191523036Y-98490018D01*
G36*
X193808759Y-102669184D02*
G01*
X193782247Y-102682282D01*
X193749553Y-102705106D01*
X193725725Y-102729996D01*
X193709406Y-102761249D01*
X193699240Y-102803166D01*
X193693872Y-102860044D01*
X193691944Y-102936184D01*
X193691831Y-102968917D01*
X193692161Y-103040656D01*
X193693527Y-103091927D01*
X193696500Y-103127404D01*
X193701649Y-103151763D01*
X193709543Y-103169680D01*
X193717757Y-103181902D01*
X193770187Y-103233905D01*
X193831930Y-103265184D01*
X193898536Y-103274592D01*
X193965558Y-103260980D01*
X193986792Y-103251354D01*
X194037624Y-103224859D01*
X194037624Y-103640052D01*
X194000525Y-103620868D01*
X193951643Y-103606025D01*
X193891561Y-103602222D01*
X193831564Y-103609243D01*
X193786256Y-103625013D01*
X193748675Y-103655047D01*
X193716564Y-103698024D01*
X193714150Y-103702436D01*
X193703967Y-103723221D01*
X193696530Y-103744170D01*
X193691411Y-103769548D01*
X193688181Y-103803618D01*
X193686413Y-103850641D01*
X193685677Y-103914882D01*
X193685544Y-103987176D01*
X193685544Y-104217822D01*
X193823861Y-104217822D01*
X193823861Y-103792533D01*
X193862549Y-103759979D01*
X193902738Y-103733940D01*
X193940797Y-103729205D01*
X193979066Y-103741389D01*
X193999462Y-103753320D01*
X194014642Y-103770313D01*
X194025438Y-103795995D01*
X194032683Y-103833991D01*
X194037208Y-103887926D01*
X194039844Y-103961425D01*
X194040772Y-104010347D01*
X194043911Y-104211535D01*
X194109926Y-104215336D01*
X194175940Y-104219136D01*
X194175940Y-102970650D01*
X194037624Y-102970650D01*
X194034097Y-103040254D01*
X194022215Y-103088569D01*
X194000020Y-103118631D01*
X193965559Y-103133471D01*
X193930742Y-103136436D01*
X193891329Y-103133028D01*
X193865171Y-103119617D01*
X193848814Y-103101896D01*
X193835937Y-103082835D01*
X193828272Y-103061601D01*
X193824861Y-103031849D01*
X193824749Y-102987236D01*
X193825897Y-102949880D01*
X193828532Y-102893604D01*
X193832456Y-102856658D01*
X193839063Y-102833223D01*
X193849749Y-102817480D01*
X193859833Y-102808380D01*
X193901970Y-102788537D01*
X193951840Y-102785332D01*
X193980476Y-102792168D01*
X194008828Y-102816464D01*
X194027609Y-102863728D01*
X194036712Y-102933624D01*
X194037624Y-102970650D01*
X194175940Y-102970650D01*
X194175940Y-102658614D01*
X194106782Y-102658614D01*
X194065260Y-102660256D01*
X194043838Y-102666087D01*
X194037626Y-102677461D01*
X194037624Y-102677798D01*
X194034742Y-102688938D01*
X194022030Y-102687673D01*
X193996757Y-102675433D01*
X193937869Y-102656707D01*
X193871615Y-102654739D01*
X193808759Y-102669184D01*
X193808759Y-102669184D01*
G37*
X193808759Y-102669184D02*
X193782247Y-102682282D01*
X193749553Y-102705106D01*
X193725725Y-102729996D01*
X193709406Y-102761249D01*
X193699240Y-102803166D01*
X193693872Y-102860044D01*
X193691944Y-102936184D01*
X193691831Y-102968917D01*
X193692161Y-103040656D01*
X193693527Y-103091927D01*
X193696500Y-103127404D01*
X193701649Y-103151763D01*
X193709543Y-103169680D01*
X193717757Y-103181902D01*
X193770187Y-103233905D01*
X193831930Y-103265184D01*
X193898536Y-103274592D01*
X193965558Y-103260980D01*
X193986792Y-103251354D01*
X194037624Y-103224859D01*
X194037624Y-103640052D01*
X194000525Y-103620868D01*
X193951643Y-103606025D01*
X193891561Y-103602222D01*
X193831564Y-103609243D01*
X193786256Y-103625013D01*
X193748675Y-103655047D01*
X193716564Y-103698024D01*
X193714150Y-103702436D01*
X193703967Y-103723221D01*
X193696530Y-103744170D01*
X193691411Y-103769548D01*
X193688181Y-103803618D01*
X193686413Y-103850641D01*
X193685677Y-103914882D01*
X193685544Y-103987176D01*
X193685544Y-104217822D01*
X193823861Y-104217822D01*
X193823861Y-103792533D01*
X193862549Y-103759979D01*
X193902738Y-103733940D01*
X193940797Y-103729205D01*
X193979066Y-103741389D01*
X193999462Y-103753320D01*
X194014642Y-103770313D01*
X194025438Y-103795995D01*
X194032683Y-103833991D01*
X194037208Y-103887926D01*
X194039844Y-103961425D01*
X194040772Y-104010347D01*
X194043911Y-104211535D01*
X194109926Y-104215336D01*
X194175940Y-104219136D01*
X194175940Y-102970650D01*
X194037624Y-102970650D01*
X194034097Y-103040254D01*
X194022215Y-103088569D01*
X194000020Y-103118631D01*
X193965559Y-103133471D01*
X193930742Y-103136436D01*
X193891329Y-103133028D01*
X193865171Y-103119617D01*
X193848814Y-103101896D01*
X193835937Y-103082835D01*
X193828272Y-103061601D01*
X193824861Y-103031849D01*
X193824749Y-102987236D01*
X193825897Y-102949880D01*
X193828532Y-102893604D01*
X193832456Y-102856658D01*
X193839063Y-102833223D01*
X193849749Y-102817480D01*
X193859833Y-102808380D01*
X193901970Y-102788537D01*
X193951840Y-102785332D01*
X193980476Y-102792168D01*
X194008828Y-102816464D01*
X194027609Y-102863728D01*
X194036712Y-102933624D01*
X194037624Y-102970650D01*
X194175940Y-102970650D01*
X194175940Y-102658614D01*
X194106782Y-102658614D01*
X194065260Y-102660256D01*
X194043838Y-102666087D01*
X194037626Y-102677461D01*
X194037624Y-102677798D01*
X194034742Y-102688938D01*
X194022030Y-102687673D01*
X193996757Y-102675433D01*
X193937869Y-102656707D01*
X193871615Y-102654739D01*
X193808759Y-102669184D01*
G36*
X192893356Y-103603020D02*
G01*
X192874539Y-103608660D01*
X192868473Y-103621053D01*
X192868218Y-103626647D01*
X192867129Y-103642230D01*
X192859632Y-103644676D01*
X192839381Y-103633993D01*
X192827351Y-103626694D01*
X192789400Y-103611063D01*
X192744072Y-103603334D01*
X192696544Y-103602740D01*
X192651995Y-103608513D01*
X192615602Y-103619884D01*
X192592543Y-103636088D01*
X192587996Y-103656355D01*
X192590291Y-103661843D01*
X192607020Y-103684626D01*
X192632963Y-103712647D01*
X192637655Y-103717177D01*
X192662383Y-103738005D01*
X192683718Y-103744735D01*
X192713555Y-103740038D01*
X192725508Y-103736917D01*
X192762705Y-103729421D01*
X192788859Y-103732792D01*
X192810946Y-103744681D01*
X192831178Y-103760635D01*
X192846079Y-103780700D01*
X192856434Y-103808702D01*
X192863029Y-103848467D01*
X192866649Y-103903823D01*
X192868078Y-103978594D01*
X192868218Y-104023740D01*
X192868218Y-104217822D01*
X192993960Y-104217822D01*
X192993960Y-103601683D01*
X192931089Y-103601683D01*
X192893356Y-103603020D01*
X192893356Y-103603020D01*
G37*
X192893356Y-103603020D02*
X192874539Y-103608660D01*
X192868473Y-103621053D01*
X192868218Y-103626647D01*
X192867129Y-103642230D01*
X192859632Y-103644676D01*
X192839381Y-103633993D01*
X192827351Y-103626694D01*
X192789400Y-103611063D01*
X192744072Y-103603334D01*
X192696544Y-103602740D01*
X192651995Y-103608513D01*
X192615602Y-103619884D01*
X192592543Y-103636088D01*
X192587996Y-103656355D01*
X192590291Y-103661843D01*
X192607020Y-103684626D01*
X192632963Y-103712647D01*
X192637655Y-103717177D01*
X192662383Y-103738005D01*
X192683718Y-103744735D01*
X192713555Y-103740038D01*
X192725508Y-103736917D01*
X192762705Y-103729421D01*
X192788859Y-103732792D01*
X192810946Y-103744681D01*
X192831178Y-103760635D01*
X192846079Y-103780700D01*
X192856434Y-103808702D01*
X192863029Y-103848467D01*
X192866649Y-103903823D01*
X192868078Y-103978594D01*
X192868218Y-104023740D01*
X192868218Y-104217822D01*
X192993960Y-104217822D01*
X192993960Y-103601683D01*
X192931089Y-103601683D01*
X192893356Y-103603020D01*
G36*
X192101188Y-104217822D02*
G01*
X192170346Y-104217822D01*
X192210488Y-104216645D01*
X192231394Y-104211772D01*
X192238922Y-104201186D01*
X192239505Y-104194029D01*
X192240774Y-104179676D01*
X192248779Y-104176923D01*
X192269815Y-104185771D01*
X192286173Y-104194029D01*
X192348977Y-104213597D01*
X192417248Y-104214729D01*
X192472752Y-104200135D01*
X192524438Y-104164877D01*
X192563838Y-104112835D01*
X192585413Y-104051450D01*
X192585962Y-104048018D01*
X192589167Y-104010571D01*
X192590761Y-103956813D01*
X192590633Y-103916155D01*
X192453279Y-103916155D01*
X192450097Y-103970194D01*
X192442859Y-104014735D01*
X192433060Y-104039888D01*
X192395989Y-104074260D01*
X192351974Y-104086582D01*
X192306584Y-104076618D01*
X192267797Y-104046895D01*
X192253108Y-104026905D01*
X192244519Y-104003050D01*
X192240496Y-103968230D01*
X192239505Y-103915930D01*
X192241278Y-103864139D01*
X192245963Y-103818634D01*
X192252603Y-103788181D01*
X192253710Y-103785452D01*
X192280491Y-103753000D01*
X192319579Y-103735183D01*
X192363315Y-103732306D01*
X192404038Y-103744674D01*
X192434087Y-103772593D01*
X192437204Y-103778148D01*
X192446961Y-103812022D01*
X192452277Y-103860728D01*
X192453279Y-103916155D01*
X192590633Y-103916155D01*
X192590568Y-103895540D01*
X192589664Y-103862563D01*
X192583514Y-103780981D01*
X192570733Y-103719730D01*
X192549471Y-103674449D01*
X192517878Y-103640779D01*
X192487207Y-103621014D01*
X192444354Y-103607120D01*
X192391056Y-103602354D01*
X192336480Y-103606236D01*
X192289792Y-103618282D01*
X192265124Y-103632693D01*
X192239505Y-103655878D01*
X192239505Y-103362773D01*
X192101188Y-103362773D01*
X192101188Y-104217822D01*
X192101188Y-104217822D01*
G37*
X192101188Y-104217822D02*
X192170346Y-104217822D01*
X192210488Y-104216645D01*
X192231394Y-104211772D01*
X192238922Y-104201186D01*
X192239505Y-104194029D01*
X192240774Y-104179676D01*
X192248779Y-104176923D01*
X192269815Y-104185771D01*
X192286173Y-104194029D01*
X192348977Y-104213597D01*
X192417248Y-104214729D01*
X192472752Y-104200135D01*
X192524438Y-104164877D01*
X192563838Y-104112835D01*
X192585413Y-104051450D01*
X192585962Y-104048018D01*
X192589167Y-104010571D01*
X192590761Y-103956813D01*
X192590633Y-103916155D01*
X192453279Y-103916155D01*
X192450097Y-103970194D01*
X192442859Y-104014735D01*
X192433060Y-104039888D01*
X192395989Y-104074260D01*
X192351974Y-104086582D01*
X192306584Y-104076618D01*
X192267797Y-104046895D01*
X192253108Y-104026905D01*
X192244519Y-104003050D01*
X192240496Y-103968230D01*
X192239505Y-103915930D01*
X192241278Y-103864139D01*
X192245963Y-103818634D01*
X192252603Y-103788181D01*
X192253710Y-103785452D01*
X192280491Y-103753000D01*
X192319579Y-103735183D01*
X192363315Y-103732306D01*
X192404038Y-103744674D01*
X192434087Y-103772593D01*
X192437204Y-103778148D01*
X192446961Y-103812022D01*
X192452277Y-103860728D01*
X192453279Y-103916155D01*
X192590633Y-103916155D01*
X192590568Y-103895540D01*
X192589664Y-103862563D01*
X192583514Y-103780981D01*
X192570733Y-103719730D01*
X192549471Y-103674449D01*
X192517878Y-103640779D01*
X192487207Y-103621014D01*
X192444354Y-103607120D01*
X192391056Y-103602354D01*
X192336480Y-103606236D01*
X192289792Y-103618282D01*
X192265124Y-103632693D01*
X192239505Y-103655878D01*
X192239505Y-103362773D01*
X192101188Y-103362773D01*
X192101188Y-104217822D01*
D12*
G36*
X229100000Y-106900000D02*
G01*
X229100000Y-123800000D01*
X229100000Y-123900000D01*
X240900000Y-123900000D01*
X241100000Y-123900000D01*
X241100000Y-106900000D01*
X229100000Y-106900000D01*
G37*
X229100000Y-106900000D02*
X229100000Y-123800000D01*
X229100000Y-123900000D01*
X240900000Y-123900000D01*
X241100000Y-123900000D01*
X241100000Y-106900000D01*
X229100000Y-106900000D01*
G36*
X207450000Y-106900000D02*
G01*
X207350000Y-123800000D01*
X222350000Y-123900000D01*
X222350000Y-106900000D01*
X207450000Y-106900000D01*
G37*
X207450000Y-106900000D02*
X207350000Y-123800000D01*
X222350000Y-123900000D01*
X222350000Y-106900000D01*
X207450000Y-106900000D01*
G36*
X187950000Y-106900000D02*
G01*
X187850000Y-123800000D01*
X202850000Y-123900000D01*
X202850000Y-106900000D01*
X187950000Y-106900000D01*
G37*
X187950000Y-106900000D02*
X187850000Y-123800000D01*
X202850000Y-123900000D01*
X202850000Y-106900000D01*
X187950000Y-106900000D01*
G36*
X199797654Y-104831293D02*
G01*
X200363773Y-105003022D01*
X200885506Y-105281895D01*
X201342808Y-105657192D01*
X201718105Y-106114494D01*
X201996978Y-106636227D01*
X202168707Y-107202346D01*
X202227000Y-107794199D01*
X202227000Y-121005801D01*
X202168707Y-121597654D01*
X201996978Y-122163773D01*
X201718105Y-122685506D01*
X201342808Y-123142808D01*
X200885506Y-123518105D01*
X200363773Y-123796978D01*
X199797654Y-123968707D01*
X199205801Y-124027000D01*
X191494199Y-124027000D01*
X190902346Y-123968707D01*
X190336227Y-123796978D01*
X189814494Y-123518105D01*
X189357192Y-123142808D01*
X188981895Y-122685506D01*
X188703022Y-122163773D01*
X188531293Y-121597654D01*
X188473000Y-121005801D01*
X188473000Y-107794199D01*
X188531293Y-107202346D01*
X188703022Y-106636227D01*
X188981895Y-106114494D01*
X189357192Y-105657192D01*
X189814494Y-105281895D01*
X190336227Y-105003022D01*
X190902346Y-104831293D01*
X191494199Y-104773000D01*
X199205801Y-104773000D01*
X199797654Y-104831293D01*
X199797654Y-104831293D01*
G37*
G36*
X219297654Y-104831293D02*
G01*
X219863773Y-105003022D01*
X220385506Y-105281895D01*
X220842808Y-105657192D01*
X221218105Y-106114494D01*
X221496978Y-106636227D01*
X221668707Y-107202346D01*
X221727000Y-107794199D01*
X221727000Y-121005801D01*
X221668707Y-121597654D01*
X221496978Y-122163773D01*
X221218105Y-122685506D01*
X220842808Y-123142808D01*
X220385506Y-123518105D01*
X219863773Y-123796978D01*
X219297654Y-123968707D01*
X218705801Y-124027000D01*
X210994199Y-124027000D01*
X210402346Y-123968707D01*
X209836227Y-123796978D01*
X209314494Y-123518105D01*
X208857192Y-123142808D01*
X208481895Y-122685506D01*
X208203022Y-122163773D01*
X208031293Y-121597654D01*
X207973000Y-121005801D01*
X207973000Y-107794199D01*
X208031293Y-107202346D01*
X208203022Y-106636227D01*
X208481895Y-106114494D01*
X208857192Y-105657192D01*
X209314494Y-105281895D01*
X209836227Y-105003022D01*
X210402346Y-104831293D01*
X210994199Y-104773000D01*
X218705801Y-104773000D01*
X219297654Y-104831293D01*
X219297654Y-104831293D01*
G37*
G36*
X238744379Y-104820629D02*
G01*
X239206384Y-104960776D01*
X239632164Y-105188361D01*
X240005364Y-105494636D01*
X240311639Y-105867836D01*
X240539224Y-106293616D01*
X240679371Y-106755621D01*
X240727000Y-107239199D01*
X240727000Y-121560801D01*
X240679371Y-122044379D01*
X240539224Y-122506384D01*
X240311639Y-122932164D01*
X240005364Y-123305364D01*
X239632164Y-123611639D01*
X239206384Y-123839224D01*
X238744379Y-123979371D01*
X238260801Y-124027000D01*
X231939199Y-124027000D01*
X231455621Y-123979371D01*
X230993616Y-123839224D01*
X230567836Y-123611639D01*
X230194636Y-123305364D01*
X229888361Y-122932164D01*
X229660776Y-122506384D01*
X229520629Y-122044379D01*
X229473000Y-121560801D01*
X229473000Y-107239199D01*
X229520629Y-106755621D01*
X229660776Y-106293616D01*
X229888361Y-105867836D01*
X230194636Y-105494636D01*
X230567836Y-105188361D01*
X230993616Y-104960776D01*
X231455621Y-104820629D01*
X231939199Y-104773000D01*
X238260801Y-104773000D01*
X238744379Y-104820629D01*
X238744379Y-104820629D01*
G37*
G36*
X186739190Y-98233561D02*
G01*
X186739192Y-98233562D01*
X186739193Y-98233562D01*
X187262772Y-98450435D01*
X187733976Y-98765284D01*
X187733978Y-98765286D01*
X187733981Y-98765288D01*
X188134712Y-99166019D01*
X188134714Y-99166022D01*
X188134716Y-99166024D01*
X188449565Y-99637228D01*
X188666438Y-100160807D01*
X188777000Y-100716641D01*
X188777000Y-101283359D01*
X188666438Y-101839193D01*
X188449565Y-102362772D01*
X188134716Y-102833976D01*
X188134714Y-102833978D01*
X188134712Y-102833981D01*
X187733981Y-103234712D01*
X187733978Y-103234714D01*
X187733976Y-103234716D01*
X187262772Y-103549565D01*
X186739193Y-103766438D01*
X186739192Y-103766438D01*
X186739190Y-103766439D01*
X186183360Y-103877000D01*
X185616640Y-103877000D01*
X185060810Y-103766439D01*
X185060808Y-103766438D01*
X185060807Y-103766438D01*
X184537228Y-103549565D01*
X184066024Y-103234716D01*
X184066022Y-103234714D01*
X184066019Y-103234712D01*
X183665288Y-102833981D01*
X183665286Y-102833978D01*
X183665284Y-102833976D01*
X183350435Y-102362772D01*
X183133562Y-101839193D01*
X183023000Y-101283359D01*
X183023000Y-100716641D01*
X183133562Y-100160807D01*
X183350435Y-99637228D01*
X183665284Y-99166024D01*
X183665286Y-99166022D01*
X183665288Y-99166019D01*
X184066019Y-98765288D01*
X184066022Y-98765286D01*
X184066024Y-98765284D01*
X184537228Y-98450435D01*
X185060807Y-98233562D01*
X185060808Y-98233562D01*
X185060810Y-98233561D01*
X185616640Y-98123000D01*
X186183360Y-98123000D01*
X186739190Y-98233561D01*
X186739190Y-98233561D01*
G37*
G36*
X244139190Y-98233561D02*
G01*
X244139192Y-98233562D01*
X244139193Y-98233562D01*
X244662772Y-98450435D01*
X245133976Y-98765284D01*
X245133978Y-98765286D01*
X245133981Y-98765288D01*
X245534712Y-99166019D01*
X245534714Y-99166022D01*
X245534716Y-99166024D01*
X245849565Y-99637228D01*
X246066438Y-100160807D01*
X246177000Y-100716641D01*
X246177000Y-101283359D01*
X246066438Y-101839193D01*
X245849565Y-102362772D01*
X245534716Y-102833976D01*
X245534714Y-102833978D01*
X245534712Y-102833981D01*
X245133981Y-103234712D01*
X245133978Y-103234714D01*
X245133976Y-103234716D01*
X244662772Y-103549565D01*
X244139193Y-103766438D01*
X244139192Y-103766438D01*
X244139190Y-103766439D01*
X243583360Y-103877000D01*
X243016640Y-103877000D01*
X242460810Y-103766439D01*
X242460808Y-103766438D01*
X242460807Y-103766438D01*
X241937228Y-103549565D01*
X241466024Y-103234716D01*
X241466022Y-103234714D01*
X241466019Y-103234712D01*
X241065288Y-102833981D01*
X241065286Y-102833978D01*
X241065284Y-102833976D01*
X240750435Y-102362772D01*
X240533562Y-101839193D01*
X240423000Y-101283359D01*
X240423000Y-100716641D01*
X240533562Y-100160807D01*
X240750435Y-99637228D01*
X241065284Y-99166024D01*
X241065286Y-99166022D01*
X241065288Y-99166019D01*
X241466019Y-98765288D01*
X241466022Y-98765286D01*
X241466024Y-98765284D01*
X241937228Y-98450435D01*
X242460807Y-98233562D01*
X242460808Y-98233562D01*
X242460810Y-98233561D01*
X243016640Y-98123000D01*
X243583360Y-98123000D01*
X244139190Y-98233561D01*
X244139190Y-98233561D01*
G37*
G36*
X198167581Y-96560526D02*
G01*
X198463670Y-96683170D01*
X198730150Y-96861226D01*
X198956774Y-97087850D01*
X199134830Y-97354330D01*
X199257474Y-97650419D01*
X199319999Y-97964755D01*
X199319999Y-98285245D01*
X199257474Y-98599581D01*
X199134830Y-98895670D01*
X198956774Y-99162150D01*
X198730150Y-99388774D01*
X198463670Y-99566830D01*
X198167581Y-99689474D01*
X197853245Y-99751999D01*
X197532755Y-99751999D01*
X197218419Y-99689474D01*
X196922330Y-99566830D01*
X196655850Y-99388774D01*
X196429226Y-99162150D01*
X196251170Y-98895670D01*
X196128526Y-98599581D01*
X196066001Y-98285245D01*
X196066001Y-97964755D01*
X196128526Y-97650419D01*
X196251170Y-97354330D01*
X196429226Y-97087850D01*
X196655850Y-96861226D01*
X196922330Y-96683170D01*
X197218419Y-96560526D01*
X197532755Y-96498001D01*
X197853245Y-96498001D01*
X198167581Y-96560526D01*
X198167581Y-96560526D01*
G37*
G36*
X231774581Y-94135526D02*
G01*
X232070670Y-94258170D01*
X232337150Y-94436226D01*
X232563774Y-94662850D01*
X232741830Y-94929330D01*
X232864474Y-95225419D01*
X232926999Y-95539755D01*
X232926999Y-95860245D01*
X232864474Y-96174581D01*
X232741830Y-96470670D01*
X232563774Y-96737150D01*
X232337150Y-96963774D01*
X232070670Y-97141830D01*
X231774581Y-97264474D01*
X231460245Y-97326999D01*
X231139755Y-97326999D01*
X230825419Y-97264474D01*
X230529330Y-97141830D01*
X230262850Y-96963774D01*
X230036226Y-96737150D01*
X229858170Y-96470670D01*
X229735526Y-96174581D01*
X229673001Y-95860245D01*
X229673001Y-95539755D01*
X229735526Y-95225419D01*
X229858170Y-94929330D01*
X230036226Y-94662850D01*
X230262850Y-94436226D01*
X230529330Y-94258170D01*
X230825419Y-94135526D01*
X231139755Y-94073001D01*
X231460245Y-94073001D01*
X231774581Y-94135526D01*
X231774581Y-94135526D01*
G37*
G36*
X220576241Y-94167838D02*
G01*
X220576243Y-94167839D01*
X220576244Y-94167839D01*
X220835939Y-94275409D01*
X220987981Y-94377000D01*
X221069660Y-94431576D01*
X221268424Y-94630340D01*
X221290146Y-94662850D01*
X221424591Y-94864061D01*
X221532161Y-95123756D01*
X221532162Y-95123759D01*
X221562643Y-95277000D01*
X221587000Y-95399454D01*
X221587000Y-95680546D01*
X221532161Y-95956244D01*
X221424591Y-96215939D01*
X221321182Y-96370702D01*
X221268424Y-96449660D01*
X221069660Y-96648424D01*
X221017654Y-96683173D01*
X220835939Y-96804591D01*
X220576244Y-96912161D01*
X220576243Y-96912161D01*
X220576241Y-96912162D01*
X220300547Y-96967000D01*
X220019453Y-96967000D01*
X219743759Y-96912162D01*
X219743757Y-96912161D01*
X219743756Y-96912161D01*
X219484061Y-96804591D01*
X219302346Y-96683173D01*
X219250340Y-96648424D01*
X219051576Y-96449660D01*
X218998818Y-96370702D01*
X218895409Y-96215939D01*
X218787839Y-95956244D01*
X218733000Y-95680546D01*
X218733000Y-95399454D01*
X218757357Y-95277000D01*
X218787838Y-95123759D01*
X218787839Y-95123756D01*
X218895409Y-94864061D01*
X219029854Y-94662850D01*
X219051576Y-94630340D01*
X219250340Y-94431576D01*
X219332019Y-94377000D01*
X219484061Y-94275409D01*
X219743756Y-94167839D01*
X219743757Y-94167839D01*
X219743759Y-94167838D01*
X220019453Y-94113000D01*
X220300547Y-94113000D01*
X220576241Y-94167838D01*
X220576241Y-94167838D01*
G37*
G36*
X225656241Y-94167838D02*
G01*
X225656243Y-94167839D01*
X225656244Y-94167839D01*
X225915939Y-94275409D01*
X226067981Y-94377000D01*
X226149660Y-94431576D01*
X226348424Y-94630340D01*
X226370146Y-94662850D01*
X226504591Y-94864061D01*
X226612161Y-95123756D01*
X226612162Y-95123759D01*
X226642643Y-95277000D01*
X226667000Y-95399454D01*
X226667000Y-95680546D01*
X226612161Y-95956244D01*
X226504591Y-96215939D01*
X226401182Y-96370702D01*
X226348424Y-96449660D01*
X226149660Y-96648424D01*
X226097654Y-96683173D01*
X225915939Y-96804591D01*
X225656244Y-96912161D01*
X225656243Y-96912161D01*
X225656241Y-96912162D01*
X225380547Y-96967000D01*
X225099453Y-96967000D01*
X224823759Y-96912162D01*
X224823757Y-96912161D01*
X224823756Y-96912161D01*
X224564061Y-96804591D01*
X224382346Y-96683173D01*
X224330340Y-96648424D01*
X224131576Y-96449660D01*
X224078818Y-96370702D01*
X223975409Y-96215939D01*
X223867839Y-95956244D01*
X223813000Y-95680546D01*
X223813000Y-95399454D01*
X223837357Y-95277000D01*
X223867838Y-95123759D01*
X223867839Y-95123756D01*
X223975409Y-94864061D01*
X224109854Y-94662850D01*
X224131576Y-94630340D01*
X224330340Y-94431576D01*
X224412019Y-94377000D01*
X224564061Y-94275409D01*
X224823756Y-94167839D01*
X224823757Y-94167839D01*
X224823759Y-94167838D01*
X225099453Y-94113000D01*
X225380547Y-94113000D01*
X225656241Y-94167838D01*
X225656241Y-94167838D01*
G37*
G36*
X237876241Y-94167838D02*
G01*
X237876243Y-94167839D01*
X237876244Y-94167839D01*
X238135939Y-94275409D01*
X238287981Y-94377000D01*
X238369660Y-94431576D01*
X238568424Y-94630340D01*
X238590146Y-94662850D01*
X238724591Y-94864061D01*
X238832161Y-95123756D01*
X238832162Y-95123759D01*
X238862643Y-95277000D01*
X238887000Y-95399454D01*
X238887000Y-95680546D01*
X238832161Y-95956244D01*
X238724591Y-96215939D01*
X238621182Y-96370702D01*
X238568424Y-96449660D01*
X238369660Y-96648424D01*
X238317654Y-96683173D01*
X238135939Y-96804591D01*
X237876244Y-96912161D01*
X237876243Y-96912161D01*
X237876241Y-96912162D01*
X237600547Y-96967000D01*
X237319453Y-96967000D01*
X237043759Y-96912162D01*
X237043757Y-96912161D01*
X237043756Y-96912161D01*
X236784061Y-96804591D01*
X236602346Y-96683173D01*
X236550340Y-96648424D01*
X236351576Y-96449660D01*
X236298818Y-96370702D01*
X236195409Y-96215939D01*
X236087839Y-95956244D01*
X236033000Y-95680546D01*
X236033000Y-95399454D01*
X236057357Y-95277000D01*
X236087838Y-95123759D01*
X236087839Y-95123756D01*
X236195409Y-94864061D01*
X236329854Y-94662850D01*
X236351576Y-94630340D01*
X236550340Y-94431576D01*
X236632019Y-94377000D01*
X236784061Y-94275409D01*
X237043756Y-94167839D01*
X237043757Y-94167839D01*
X237043759Y-94167838D01*
X237319453Y-94113000D01*
X237600547Y-94113000D01*
X237876241Y-94167838D01*
X237876241Y-94167838D01*
G37*
G36*
X204176241Y-94167838D02*
G01*
X204176243Y-94167839D01*
X204176244Y-94167839D01*
X204435939Y-94275409D01*
X204587981Y-94377000D01*
X204669660Y-94431576D01*
X204868424Y-94630340D01*
X204890146Y-94662850D01*
X205024591Y-94864061D01*
X205132161Y-95123756D01*
X205132162Y-95123759D01*
X205162643Y-95277000D01*
X205187000Y-95399454D01*
X205187000Y-95680546D01*
X205132161Y-95956244D01*
X205024591Y-96215939D01*
X204921182Y-96370702D01*
X204868424Y-96449660D01*
X204669660Y-96648424D01*
X204617654Y-96683173D01*
X204435939Y-96804591D01*
X204176244Y-96912161D01*
X204176243Y-96912161D01*
X204176241Y-96912162D01*
X203900547Y-96967000D01*
X203619453Y-96967000D01*
X203343759Y-96912162D01*
X203343757Y-96912161D01*
X203343756Y-96912161D01*
X203084061Y-96804591D01*
X202902346Y-96683173D01*
X202850340Y-96648424D01*
X202651576Y-96449660D01*
X202598818Y-96370702D01*
X202495409Y-96215939D01*
X202387839Y-95956244D01*
X202333000Y-95680546D01*
X202333000Y-95399454D01*
X202357357Y-95277000D01*
X202387838Y-95123759D01*
X202387839Y-95123756D01*
X202495409Y-94864061D01*
X202629854Y-94662850D01*
X202651576Y-94630340D01*
X202850340Y-94431576D01*
X202932019Y-94377000D01*
X203084061Y-94275409D01*
X203343756Y-94167839D01*
X203343757Y-94167839D01*
X203343759Y-94167838D01*
X203619453Y-94113000D01*
X203900547Y-94113000D01*
X204176241Y-94167838D01*
X204176241Y-94167838D01*
G37*
G36*
X209256241Y-94167838D02*
G01*
X209256243Y-94167839D01*
X209256244Y-94167839D01*
X209515939Y-94275409D01*
X209667981Y-94377000D01*
X209749660Y-94431576D01*
X209948424Y-94630340D01*
X209970146Y-94662850D01*
X210104591Y-94864061D01*
X210212161Y-95123756D01*
X210212162Y-95123759D01*
X210242643Y-95277000D01*
X210267000Y-95399454D01*
X210267000Y-95680546D01*
X210212161Y-95956244D01*
X210104591Y-96215939D01*
X210001182Y-96370702D01*
X209948424Y-96449660D01*
X209749660Y-96648424D01*
X209697654Y-96683173D01*
X209515939Y-96804591D01*
X209256244Y-96912161D01*
X209256243Y-96912161D01*
X209256241Y-96912162D01*
X208980547Y-96967000D01*
X208699453Y-96967000D01*
X208423759Y-96912162D01*
X208423757Y-96912161D01*
X208423756Y-96912161D01*
X208164061Y-96804591D01*
X207982346Y-96683173D01*
X207930340Y-96648424D01*
X207731576Y-96449660D01*
X207678818Y-96370702D01*
X207575409Y-96215939D01*
X207467839Y-95956244D01*
X207413000Y-95680546D01*
X207413000Y-95399454D01*
X207437357Y-95277000D01*
X207467838Y-95123759D01*
X207467839Y-95123756D01*
X207575409Y-94864061D01*
X207709854Y-94662850D01*
X207731576Y-94630340D01*
X207930340Y-94431576D01*
X208012019Y-94377000D01*
X208164061Y-94275409D01*
X208423756Y-94167839D01*
X208423757Y-94167839D01*
X208423759Y-94167838D01*
X208699453Y-94113000D01*
X208980547Y-94113000D01*
X209256241Y-94167838D01*
X209256241Y-94167838D01*
G37*
G36*
X191956241Y-94167838D02*
G01*
X191956243Y-94167839D01*
X191956244Y-94167839D01*
X192215939Y-94275409D01*
X192367981Y-94377000D01*
X192449660Y-94431576D01*
X192648424Y-94630340D01*
X192670146Y-94662850D01*
X192804591Y-94864061D01*
X192912161Y-95123756D01*
X192912162Y-95123759D01*
X192942643Y-95277000D01*
X192967000Y-95399454D01*
X192967000Y-95680546D01*
X192912161Y-95956244D01*
X192804591Y-96215939D01*
X192701182Y-96370702D01*
X192648424Y-96449660D01*
X192449660Y-96648424D01*
X192397654Y-96683173D01*
X192215939Y-96804591D01*
X191956244Y-96912161D01*
X191956243Y-96912161D01*
X191956241Y-96912162D01*
X191680547Y-96967000D01*
X191399453Y-96967000D01*
X191123759Y-96912162D01*
X191123757Y-96912161D01*
X191123756Y-96912161D01*
X190864061Y-96804591D01*
X190682346Y-96683173D01*
X190630340Y-96648424D01*
X190431576Y-96449660D01*
X190378818Y-96370702D01*
X190275409Y-96215939D01*
X190167839Y-95956244D01*
X190113000Y-95680546D01*
X190113000Y-95399454D01*
X190137357Y-95277000D01*
X190167838Y-95123759D01*
X190167839Y-95123756D01*
X190275409Y-94864061D01*
X190409854Y-94662850D01*
X190431576Y-94630340D01*
X190630340Y-94431576D01*
X190712019Y-94377000D01*
X190864061Y-94275409D01*
X191123756Y-94167839D01*
X191123757Y-94167839D01*
X191123759Y-94167838D01*
X191399453Y-94113000D01*
X191680547Y-94113000D01*
X191956241Y-94167838D01*
X191956241Y-94167838D01*
G37*
G36*
X186876241Y-94167838D02*
G01*
X186876243Y-94167839D01*
X186876244Y-94167839D01*
X187135939Y-94275409D01*
X187287981Y-94377000D01*
X187369660Y-94431576D01*
X187568424Y-94630340D01*
X187590146Y-94662850D01*
X187724591Y-94864061D01*
X187832161Y-95123756D01*
X187832162Y-95123759D01*
X187862643Y-95277000D01*
X187887000Y-95399454D01*
X187887000Y-95680546D01*
X187832161Y-95956244D01*
X187724591Y-96215939D01*
X187621182Y-96370702D01*
X187568424Y-96449660D01*
X187369660Y-96648424D01*
X187317654Y-96683173D01*
X187135939Y-96804591D01*
X186876244Y-96912161D01*
X186876243Y-96912161D01*
X186876241Y-96912162D01*
X186600547Y-96967000D01*
X186319453Y-96967000D01*
X186043759Y-96912162D01*
X186043757Y-96912161D01*
X186043756Y-96912161D01*
X185784061Y-96804591D01*
X185602346Y-96683173D01*
X185550340Y-96648424D01*
X185351576Y-96449660D01*
X185298818Y-96370702D01*
X185195409Y-96215939D01*
X185087839Y-95956244D01*
X185033000Y-95680546D01*
X185033000Y-95399454D01*
X185057357Y-95277000D01*
X185087838Y-95123759D01*
X185087839Y-95123756D01*
X185195409Y-94864061D01*
X185329854Y-94662850D01*
X185351576Y-94630340D01*
X185550340Y-94431576D01*
X185632019Y-94377000D01*
X185784061Y-94275409D01*
X186043756Y-94167839D01*
X186043757Y-94167839D01*
X186043759Y-94167838D01*
X186319453Y-94113000D01*
X186600547Y-94113000D01*
X186876241Y-94167838D01*
X186876241Y-94167838D01*
G37*
G36*
X242956241Y-94167838D02*
G01*
X242956243Y-94167839D01*
X242956244Y-94167839D01*
X243215939Y-94275409D01*
X243367981Y-94377000D01*
X243449660Y-94431576D01*
X243648424Y-94630340D01*
X243670146Y-94662850D01*
X243804591Y-94864061D01*
X243912161Y-95123756D01*
X243912162Y-95123759D01*
X243942643Y-95277000D01*
X243967000Y-95399454D01*
X243967000Y-95680546D01*
X243912161Y-95956244D01*
X243804591Y-96215939D01*
X243701182Y-96370702D01*
X243648424Y-96449660D01*
X243449660Y-96648424D01*
X243397654Y-96683173D01*
X243215939Y-96804591D01*
X242956244Y-96912161D01*
X242956243Y-96912161D01*
X242956241Y-96912162D01*
X242680547Y-96967000D01*
X242399453Y-96967000D01*
X242123759Y-96912162D01*
X242123757Y-96912161D01*
X242123756Y-96912161D01*
X241864061Y-96804591D01*
X241682346Y-96683173D01*
X241630340Y-96648424D01*
X241431576Y-96449660D01*
X241378818Y-96370702D01*
X241275409Y-96215939D01*
X241167839Y-95956244D01*
X241113000Y-95680546D01*
X241113000Y-95399454D01*
X241137357Y-95277000D01*
X241167838Y-95123759D01*
X241167839Y-95123756D01*
X241275409Y-94864061D01*
X241409854Y-94662850D01*
X241431576Y-94630340D01*
X241630340Y-94431576D01*
X241712019Y-94377000D01*
X241864061Y-94275409D01*
X242123756Y-94167839D01*
X242123757Y-94167839D01*
X242123759Y-94167838D01*
X242399453Y-94113000D01*
X242680547Y-94113000D01*
X242956241Y-94167838D01*
X242956241Y-94167838D01*
G37*
G36*
X214934243Y-90744876D02*
G01*
X215264179Y-90810504D01*
X215678565Y-90982148D01*
X216051498Y-91231334D01*
X216368666Y-91548502D01*
X216617852Y-91921435D01*
X216789496Y-92335821D01*
X216877000Y-92775736D01*
X216877000Y-93224264D01*
X216789496Y-93664179D01*
X216617852Y-94078565D01*
X216368666Y-94451498D01*
X216051498Y-94768666D01*
X215678565Y-95017852D01*
X215264179Y-95189496D01*
X214934243Y-95255124D01*
X214824265Y-95277000D01*
X214375735Y-95277000D01*
X214265757Y-95255124D01*
X213935821Y-95189496D01*
X213521435Y-95017852D01*
X213148502Y-94768666D01*
X212831334Y-94451498D01*
X212582148Y-94078565D01*
X212410504Y-93664179D01*
X212323000Y-93224264D01*
X212323000Y-92775736D01*
X212410504Y-92335821D01*
X212582148Y-91921435D01*
X212831334Y-91548502D01*
X213148502Y-91231334D01*
X213521435Y-90982148D01*
X213935821Y-90810504D01*
X214265757Y-90744876D01*
X214375735Y-90723000D01*
X214824265Y-90723000D01*
X214934243Y-90744876D01*
X214934243Y-90744876D01*
G37*
G36*
X200374581Y-91435526D02*
G01*
X200670670Y-91558170D01*
X200937150Y-91736226D01*
X201163774Y-91962850D01*
X201341830Y-92229330D01*
X201464474Y-92525419D01*
X201526999Y-92839755D01*
X201526999Y-93160245D01*
X201464474Y-93474581D01*
X201341830Y-93770670D01*
X201163774Y-94037150D01*
X200937150Y-94263774D01*
X200670670Y-94441830D01*
X200374581Y-94564474D01*
X200060245Y-94626999D01*
X199739755Y-94626999D01*
X199425419Y-94564474D01*
X199129330Y-94441830D01*
X198862850Y-94263774D01*
X198636226Y-94037150D01*
X198458170Y-93770670D01*
X198335526Y-93474581D01*
X198273001Y-93160245D01*
X198273001Y-92839755D01*
X198335526Y-92525419D01*
X198458170Y-92229330D01*
X198636226Y-91962850D01*
X198862850Y-91736226D01*
X199129330Y-91558170D01*
X199425419Y-91435526D01*
X199739755Y-91373001D01*
X200060245Y-91373001D01*
X200374581Y-91435526D01*
X200374581Y-91435526D01*
G37*
G36*
X195874581Y-91435526D02*
G01*
X196170670Y-91558170D01*
X196437150Y-91736226D01*
X196663774Y-91962850D01*
X196841830Y-92229330D01*
X196964474Y-92525419D01*
X197026999Y-92839755D01*
X197026999Y-93160245D01*
X196964474Y-93474581D01*
X196841830Y-93770670D01*
X196663774Y-94037150D01*
X196437150Y-94263774D01*
X196170670Y-94441830D01*
X195874581Y-94564474D01*
X195560245Y-94626999D01*
X195239755Y-94626999D01*
X194925419Y-94564474D01*
X194629330Y-94441830D01*
X194362850Y-94263774D01*
X194136226Y-94037150D01*
X193958170Y-93770670D01*
X193835526Y-93474581D01*
X193773001Y-93160245D01*
X193773001Y-92839755D01*
X193835526Y-92525419D01*
X193958170Y-92229330D01*
X194136226Y-91962850D01*
X194362850Y-91736226D01*
X194629330Y-91558170D01*
X194925419Y-91435526D01*
X195239755Y-91373001D01*
X195560245Y-91373001D01*
X195874581Y-91435526D01*
X195874581Y-91435526D01*
G37*
G36*
X240401656Y-91675917D02*
G01*
X240401658Y-91675918D01*
X240401659Y-91675918D01*
X240652251Y-91779716D01*
X240652254Y-91779718D01*
X240877787Y-91930414D01*
X241069586Y-92122213D01*
X241069587Y-92122215D01*
X241220284Y-92347749D01*
X241293877Y-92525419D01*
X241324083Y-92598344D01*
X241357128Y-92764474D01*
X241377000Y-92864378D01*
X241377000Y-93135622D01*
X241324082Y-93401659D01*
X241220284Y-93652251D01*
X241220282Y-93652254D01*
X241069586Y-93877787D01*
X240877787Y-94069586D01*
X240652254Y-94220282D01*
X240652251Y-94220284D01*
X240401659Y-94324082D01*
X240401658Y-94324082D01*
X240401656Y-94324083D01*
X240135623Y-94377000D01*
X239864377Y-94377000D01*
X239598344Y-94324083D01*
X239598342Y-94324082D01*
X239598341Y-94324082D01*
X239347749Y-94220284D01*
X239347746Y-94220282D01*
X239122213Y-94069586D01*
X238930414Y-93877787D01*
X238779718Y-93652254D01*
X238779716Y-93652251D01*
X238675918Y-93401659D01*
X238623000Y-93135622D01*
X238623000Y-92864378D01*
X238642872Y-92764474D01*
X238675917Y-92598344D01*
X238706123Y-92525419D01*
X238779716Y-92347749D01*
X238930413Y-92122215D01*
X238930414Y-92122213D01*
X239122213Y-91930414D01*
X239347746Y-91779718D01*
X239347749Y-91779716D01*
X239598341Y-91675918D01*
X239598342Y-91675918D01*
X239598344Y-91675917D01*
X239864377Y-91623000D01*
X240135623Y-91623000D01*
X240401656Y-91675917D01*
X240401656Y-91675917D01*
G37*
G36*
X206701656Y-91675917D02*
G01*
X206701658Y-91675918D01*
X206701659Y-91675918D01*
X206952251Y-91779716D01*
X206952254Y-91779718D01*
X207177787Y-91930414D01*
X207369586Y-92122213D01*
X207369587Y-92122215D01*
X207520284Y-92347749D01*
X207593877Y-92525419D01*
X207624083Y-92598344D01*
X207657128Y-92764474D01*
X207677000Y-92864378D01*
X207677000Y-93135622D01*
X207624082Y-93401659D01*
X207520284Y-93652251D01*
X207520282Y-93652254D01*
X207369586Y-93877787D01*
X207177787Y-94069586D01*
X206952254Y-94220282D01*
X206952251Y-94220284D01*
X206701659Y-94324082D01*
X206701658Y-94324082D01*
X206701656Y-94324083D01*
X206435623Y-94377000D01*
X206164377Y-94377000D01*
X205898344Y-94324083D01*
X205898342Y-94324082D01*
X205898341Y-94324082D01*
X205647749Y-94220284D01*
X205647746Y-94220282D01*
X205422213Y-94069586D01*
X205230414Y-93877787D01*
X205079718Y-93652254D01*
X205079716Y-93652251D01*
X204975918Y-93401659D01*
X204923000Y-93135622D01*
X204923000Y-92864378D01*
X204942872Y-92764474D01*
X204975917Y-92598344D01*
X205006123Y-92525419D01*
X205079716Y-92347749D01*
X205230413Y-92122215D01*
X205230414Y-92122213D01*
X205422213Y-91930414D01*
X205647746Y-91779718D01*
X205647749Y-91779716D01*
X205898341Y-91675918D01*
X205898342Y-91675918D01*
X205898344Y-91675917D01*
X206164377Y-91623000D01*
X206435623Y-91623000D01*
X206701656Y-91675917D01*
X206701656Y-91675917D01*
G37*
G36*
X189401656Y-91675917D02*
G01*
X189401658Y-91675918D01*
X189401659Y-91675918D01*
X189652251Y-91779716D01*
X189652254Y-91779718D01*
X189877787Y-91930414D01*
X190069586Y-92122213D01*
X190069587Y-92122215D01*
X190220284Y-92347749D01*
X190293877Y-92525419D01*
X190324083Y-92598344D01*
X190357128Y-92764474D01*
X190377000Y-92864378D01*
X190377000Y-93135622D01*
X190324082Y-93401659D01*
X190220284Y-93652251D01*
X190220282Y-93652254D01*
X190069586Y-93877787D01*
X189877787Y-94069586D01*
X189652254Y-94220282D01*
X189652251Y-94220284D01*
X189401659Y-94324082D01*
X189401658Y-94324082D01*
X189401656Y-94324083D01*
X189135623Y-94377000D01*
X188864377Y-94377000D01*
X188598344Y-94324083D01*
X188598342Y-94324082D01*
X188598341Y-94324082D01*
X188347749Y-94220284D01*
X188347746Y-94220282D01*
X188122213Y-94069586D01*
X187930414Y-93877787D01*
X187779718Y-93652254D01*
X187779716Y-93652251D01*
X187675918Y-93401659D01*
X187623000Y-93135622D01*
X187623000Y-92864378D01*
X187642872Y-92764474D01*
X187675917Y-92598344D01*
X187706123Y-92525419D01*
X187779716Y-92347749D01*
X187930413Y-92122215D01*
X187930414Y-92122213D01*
X188122213Y-91930414D01*
X188347746Y-91779718D01*
X188347749Y-91779716D01*
X188598341Y-91675918D01*
X188598342Y-91675918D01*
X188598344Y-91675917D01*
X188864377Y-91623000D01*
X189135623Y-91623000D01*
X189401656Y-91675917D01*
X189401656Y-91675917D01*
G37*
G36*
X223101656Y-91675917D02*
G01*
X223101658Y-91675918D01*
X223101659Y-91675918D01*
X223352251Y-91779716D01*
X223352254Y-91779718D01*
X223577787Y-91930414D01*
X223769586Y-92122213D01*
X223769587Y-92122215D01*
X223920284Y-92347749D01*
X223993877Y-92525419D01*
X224024083Y-92598344D01*
X224057128Y-92764474D01*
X224077000Y-92864378D01*
X224077000Y-93135622D01*
X224024082Y-93401659D01*
X223920284Y-93652251D01*
X223920282Y-93652254D01*
X223769586Y-93877787D01*
X223577787Y-94069586D01*
X223352254Y-94220282D01*
X223352251Y-94220284D01*
X223101659Y-94324082D01*
X223101658Y-94324082D01*
X223101656Y-94324083D01*
X222835623Y-94377000D01*
X222564377Y-94377000D01*
X222298344Y-94324083D01*
X222298342Y-94324082D01*
X222298341Y-94324082D01*
X222047749Y-94220284D01*
X222047746Y-94220282D01*
X221822213Y-94069586D01*
X221630414Y-93877787D01*
X221479718Y-93652254D01*
X221479716Y-93652251D01*
X221375918Y-93401659D01*
X221323000Y-93135622D01*
X221323000Y-92864378D01*
X221342872Y-92764474D01*
X221375917Y-92598344D01*
X221406123Y-92525419D01*
X221479716Y-92347749D01*
X221630413Y-92122215D01*
X221630414Y-92122213D01*
X221822213Y-91930414D01*
X222047746Y-91779718D01*
X222047749Y-91779716D01*
X222298341Y-91675918D01*
X222298342Y-91675918D01*
X222298344Y-91675917D01*
X222564377Y-91623000D01*
X222835623Y-91623000D01*
X223101656Y-91675917D01*
X223101656Y-91675917D01*
G37*
G36*
X229574581Y-89635526D02*
G01*
X229870670Y-89758170D01*
X230137150Y-89936226D01*
X230363774Y-90162850D01*
X230541830Y-90429330D01*
X230664474Y-90725419D01*
X230726999Y-91039755D01*
X230726999Y-91360245D01*
X230664474Y-91674581D01*
X230541830Y-91970670D01*
X230363774Y-92237150D01*
X230137150Y-92463774D01*
X229870670Y-92641830D01*
X229574581Y-92764474D01*
X229260245Y-92826999D01*
X228939755Y-92826999D01*
X228625419Y-92764474D01*
X228329330Y-92641830D01*
X228062850Y-92463774D01*
X227836226Y-92237150D01*
X227658170Y-91970670D01*
X227535526Y-91674581D01*
X227473001Y-91360245D01*
X227473001Y-91039755D01*
X227535526Y-90725419D01*
X227658170Y-90429330D01*
X227836226Y-90162850D01*
X228062850Y-89936226D01*
X228329330Y-89758170D01*
X228625419Y-89635526D01*
X228939755Y-89573001D01*
X229260245Y-89573001D01*
X229574581Y-89635526D01*
X229574581Y-89635526D01*
G37*
G36*
X234108581Y-89635526D02*
G01*
X234404670Y-89758170D01*
X234671150Y-89936226D01*
X234897774Y-90162850D01*
X235075830Y-90429330D01*
X235198474Y-90725419D01*
X235260999Y-91039755D01*
X235260999Y-91360245D01*
X235198474Y-91674581D01*
X235075830Y-91970670D01*
X234897774Y-92237150D01*
X234671150Y-92463774D01*
X234404670Y-92641830D01*
X234108581Y-92764474D01*
X233794245Y-92826999D01*
X233473755Y-92826999D01*
X233159419Y-92764474D01*
X232863330Y-92641830D01*
X232596850Y-92463774D01*
X232370226Y-92237150D01*
X232192170Y-91970670D01*
X232069526Y-91674581D01*
X232007001Y-91360245D01*
X232007001Y-91039755D01*
X232069526Y-90725419D01*
X232192170Y-90429330D01*
X232370226Y-90162850D01*
X232596850Y-89936226D01*
X232863330Y-89758170D01*
X233159419Y-89635526D01*
X233473755Y-89573001D01*
X233794245Y-89573001D01*
X234108581Y-89635526D01*
X234108581Y-89635526D01*
G37*
G36*
X225656241Y-89087838D02*
G01*
X225656243Y-89087839D01*
X225656244Y-89087839D01*
X225915939Y-89195409D01*
X226070702Y-89298818D01*
X226149660Y-89351576D01*
X226348424Y-89550340D01*
X226348427Y-89550345D01*
X226504591Y-89784061D01*
X226504591Y-89784062D01*
X226612162Y-90043759D01*
X226667000Y-90319453D01*
X226667000Y-90600547D01*
X226625238Y-90810504D01*
X226612161Y-90876244D01*
X226504591Y-91135939D01*
X226440850Y-91231334D01*
X226348424Y-91369660D01*
X226149660Y-91568424D01*
X226070702Y-91621182D01*
X225915939Y-91724591D01*
X225656244Y-91832161D01*
X225656243Y-91832161D01*
X225656241Y-91832162D01*
X225380547Y-91887000D01*
X225099453Y-91887000D01*
X224823759Y-91832162D01*
X224823757Y-91832161D01*
X224823756Y-91832161D01*
X224564061Y-91724591D01*
X224409298Y-91621182D01*
X224330340Y-91568424D01*
X224131576Y-91369660D01*
X224039150Y-91231334D01*
X223975409Y-91135939D01*
X223867839Y-90876244D01*
X223854763Y-90810504D01*
X223813000Y-90600547D01*
X223813000Y-90319453D01*
X223867838Y-90043759D01*
X223975409Y-89784062D01*
X223975409Y-89784061D01*
X224131573Y-89550345D01*
X224131576Y-89550340D01*
X224330340Y-89351576D01*
X224409298Y-89298818D01*
X224564061Y-89195409D01*
X224823756Y-89087839D01*
X224823757Y-89087839D01*
X224823759Y-89087838D01*
X225099453Y-89033000D01*
X225380547Y-89033000D01*
X225656241Y-89087838D01*
X225656241Y-89087838D01*
G37*
G36*
X209256241Y-89087838D02*
G01*
X209256243Y-89087839D01*
X209256244Y-89087839D01*
X209515939Y-89195409D01*
X209670702Y-89298818D01*
X209749660Y-89351576D01*
X209948424Y-89550340D01*
X209948427Y-89550345D01*
X210104591Y-89784061D01*
X210104591Y-89784062D01*
X210212162Y-90043759D01*
X210267000Y-90319453D01*
X210267000Y-90600547D01*
X210225238Y-90810504D01*
X210212161Y-90876244D01*
X210104591Y-91135939D01*
X210040850Y-91231334D01*
X209948424Y-91369660D01*
X209749660Y-91568424D01*
X209670702Y-91621182D01*
X209515939Y-91724591D01*
X209256244Y-91832161D01*
X209256243Y-91832161D01*
X209256241Y-91832162D01*
X208980547Y-91887000D01*
X208699453Y-91887000D01*
X208423759Y-91832162D01*
X208423757Y-91832161D01*
X208423756Y-91832161D01*
X208164061Y-91724591D01*
X208009298Y-91621182D01*
X207930340Y-91568424D01*
X207731576Y-91369660D01*
X207639150Y-91231334D01*
X207575409Y-91135939D01*
X207467839Y-90876244D01*
X207454763Y-90810504D01*
X207413000Y-90600547D01*
X207413000Y-90319453D01*
X207467838Y-90043759D01*
X207575409Y-89784062D01*
X207575409Y-89784061D01*
X207731573Y-89550345D01*
X207731576Y-89550340D01*
X207930340Y-89351576D01*
X208009298Y-89298818D01*
X208164061Y-89195409D01*
X208423756Y-89087839D01*
X208423757Y-89087839D01*
X208423759Y-89087838D01*
X208699453Y-89033000D01*
X208980547Y-89033000D01*
X209256241Y-89087838D01*
X209256241Y-89087838D01*
G37*
G36*
X237876241Y-89087838D02*
G01*
X237876243Y-89087839D01*
X237876244Y-89087839D01*
X238135939Y-89195409D01*
X238290702Y-89298818D01*
X238369660Y-89351576D01*
X238568424Y-89550340D01*
X238568427Y-89550345D01*
X238724591Y-89784061D01*
X238724591Y-89784062D01*
X238832162Y-90043759D01*
X238887000Y-90319453D01*
X238887000Y-90600547D01*
X238845238Y-90810504D01*
X238832161Y-90876244D01*
X238724591Y-91135939D01*
X238660850Y-91231334D01*
X238568424Y-91369660D01*
X238369660Y-91568424D01*
X238290702Y-91621182D01*
X238135939Y-91724591D01*
X237876244Y-91832161D01*
X237876243Y-91832161D01*
X237876241Y-91832162D01*
X237600547Y-91887000D01*
X237319453Y-91887000D01*
X237043759Y-91832162D01*
X237043757Y-91832161D01*
X237043756Y-91832161D01*
X236784061Y-91724591D01*
X236629298Y-91621182D01*
X236550340Y-91568424D01*
X236351576Y-91369660D01*
X236259150Y-91231334D01*
X236195409Y-91135939D01*
X236087839Y-90876244D01*
X236074763Y-90810504D01*
X236033000Y-90600547D01*
X236033000Y-90319453D01*
X236087838Y-90043759D01*
X236195409Y-89784062D01*
X236195409Y-89784061D01*
X236351573Y-89550345D01*
X236351576Y-89550340D01*
X236550340Y-89351576D01*
X236629298Y-89298818D01*
X236784061Y-89195409D01*
X237043756Y-89087839D01*
X237043757Y-89087839D01*
X237043759Y-89087838D01*
X237319453Y-89033000D01*
X237600547Y-89033000D01*
X237876241Y-89087838D01*
X237876241Y-89087838D01*
G37*
G36*
X242956241Y-89087838D02*
G01*
X242956243Y-89087839D01*
X242956244Y-89087839D01*
X243215939Y-89195409D01*
X243370702Y-89298818D01*
X243449660Y-89351576D01*
X243648424Y-89550340D01*
X243648427Y-89550345D01*
X243804591Y-89784061D01*
X243804591Y-89784062D01*
X243912162Y-90043759D01*
X243967000Y-90319453D01*
X243967000Y-90600547D01*
X243925238Y-90810504D01*
X243912161Y-90876244D01*
X243804591Y-91135939D01*
X243740850Y-91231334D01*
X243648424Y-91369660D01*
X243449660Y-91568424D01*
X243370702Y-91621182D01*
X243215939Y-91724591D01*
X242956244Y-91832161D01*
X242956243Y-91832161D01*
X242956241Y-91832162D01*
X242680547Y-91887000D01*
X242399453Y-91887000D01*
X242123759Y-91832162D01*
X242123757Y-91832161D01*
X242123756Y-91832161D01*
X241864061Y-91724591D01*
X241709298Y-91621182D01*
X241630340Y-91568424D01*
X241431576Y-91369660D01*
X241339150Y-91231334D01*
X241275409Y-91135939D01*
X241167839Y-90876244D01*
X241154763Y-90810504D01*
X241113000Y-90600547D01*
X241113000Y-90319453D01*
X241167838Y-90043759D01*
X241275409Y-89784062D01*
X241275409Y-89784061D01*
X241431573Y-89550345D01*
X241431576Y-89550340D01*
X241630340Y-89351576D01*
X241709298Y-89298818D01*
X241864061Y-89195409D01*
X242123756Y-89087839D01*
X242123757Y-89087839D01*
X242123759Y-89087838D01*
X242399453Y-89033000D01*
X242680547Y-89033000D01*
X242956241Y-89087838D01*
X242956241Y-89087838D01*
G37*
G36*
X220576241Y-89087838D02*
G01*
X220576243Y-89087839D01*
X220576244Y-89087839D01*
X220835939Y-89195409D01*
X220990702Y-89298818D01*
X221069660Y-89351576D01*
X221268424Y-89550340D01*
X221268427Y-89550345D01*
X221424591Y-89784061D01*
X221424591Y-89784062D01*
X221532162Y-90043759D01*
X221587000Y-90319453D01*
X221587000Y-90600547D01*
X221545238Y-90810504D01*
X221532161Y-90876244D01*
X221424591Y-91135939D01*
X221360850Y-91231334D01*
X221268424Y-91369660D01*
X221069660Y-91568424D01*
X220990702Y-91621182D01*
X220835939Y-91724591D01*
X220576244Y-91832161D01*
X220576243Y-91832161D01*
X220576241Y-91832162D01*
X220300547Y-91887000D01*
X220019453Y-91887000D01*
X219743759Y-91832162D01*
X219743757Y-91832161D01*
X219743756Y-91832161D01*
X219484061Y-91724591D01*
X219329298Y-91621182D01*
X219250340Y-91568424D01*
X219051576Y-91369660D01*
X218959150Y-91231334D01*
X218895409Y-91135939D01*
X218787839Y-90876244D01*
X218774763Y-90810504D01*
X218733000Y-90600547D01*
X218733000Y-90319453D01*
X218787838Y-90043759D01*
X218895409Y-89784062D01*
X218895409Y-89784061D01*
X219051573Y-89550345D01*
X219051576Y-89550340D01*
X219250340Y-89351576D01*
X219329298Y-89298818D01*
X219484061Y-89195409D01*
X219743756Y-89087839D01*
X219743757Y-89087839D01*
X219743759Y-89087838D01*
X220019453Y-89033000D01*
X220300547Y-89033000D01*
X220576241Y-89087838D01*
X220576241Y-89087838D01*
G37*
G36*
X191956241Y-89087838D02*
G01*
X191956243Y-89087839D01*
X191956244Y-89087839D01*
X192215939Y-89195409D01*
X192370702Y-89298818D01*
X192449660Y-89351576D01*
X192648424Y-89550340D01*
X192648427Y-89550345D01*
X192804591Y-89784061D01*
X192804591Y-89784062D01*
X192912162Y-90043759D01*
X192967000Y-90319453D01*
X192967000Y-90600547D01*
X192925238Y-90810504D01*
X192912161Y-90876244D01*
X192804591Y-91135939D01*
X192740850Y-91231334D01*
X192648424Y-91369660D01*
X192449660Y-91568424D01*
X192370702Y-91621182D01*
X192215939Y-91724591D01*
X191956244Y-91832161D01*
X191956243Y-91832161D01*
X191956241Y-91832162D01*
X191680547Y-91887000D01*
X191399453Y-91887000D01*
X191123759Y-91832162D01*
X191123757Y-91832161D01*
X191123756Y-91832161D01*
X190864061Y-91724591D01*
X190709298Y-91621182D01*
X190630340Y-91568424D01*
X190431576Y-91369660D01*
X190339150Y-91231334D01*
X190275409Y-91135939D01*
X190167839Y-90876244D01*
X190154763Y-90810504D01*
X190113000Y-90600547D01*
X190113000Y-90319453D01*
X190167838Y-90043759D01*
X190275409Y-89784062D01*
X190275409Y-89784061D01*
X190431573Y-89550345D01*
X190431576Y-89550340D01*
X190630340Y-89351576D01*
X190709298Y-89298818D01*
X190864061Y-89195409D01*
X191123756Y-89087839D01*
X191123757Y-89087839D01*
X191123759Y-89087838D01*
X191399453Y-89033000D01*
X191680547Y-89033000D01*
X191956241Y-89087838D01*
X191956241Y-89087838D01*
G37*
G36*
X204176241Y-89087838D02*
G01*
X204176243Y-89087839D01*
X204176244Y-89087839D01*
X204435939Y-89195409D01*
X204590702Y-89298818D01*
X204669660Y-89351576D01*
X204868424Y-89550340D01*
X204868427Y-89550345D01*
X205024591Y-89784061D01*
X205024591Y-89784062D01*
X205132162Y-90043759D01*
X205187000Y-90319453D01*
X205187000Y-90600547D01*
X205145238Y-90810504D01*
X205132161Y-90876244D01*
X205024591Y-91135939D01*
X204960850Y-91231334D01*
X204868424Y-91369660D01*
X204669660Y-91568424D01*
X204590702Y-91621182D01*
X204435939Y-91724591D01*
X204176244Y-91832161D01*
X204176243Y-91832161D01*
X204176241Y-91832162D01*
X203900547Y-91887000D01*
X203619453Y-91887000D01*
X203343759Y-91832162D01*
X203343757Y-91832161D01*
X203343756Y-91832161D01*
X203084061Y-91724591D01*
X202929298Y-91621182D01*
X202850340Y-91568424D01*
X202651576Y-91369660D01*
X202559150Y-91231334D01*
X202495409Y-91135939D01*
X202387839Y-90876244D01*
X202374763Y-90810504D01*
X202333000Y-90600547D01*
X202333000Y-90319453D01*
X202387838Y-90043759D01*
X202495409Y-89784062D01*
X202495409Y-89784061D01*
X202651573Y-89550345D01*
X202651576Y-89550340D01*
X202850340Y-89351576D01*
X202929298Y-89298818D01*
X203084061Y-89195409D01*
X203343756Y-89087839D01*
X203343757Y-89087839D01*
X203343759Y-89087838D01*
X203619453Y-89033000D01*
X203900547Y-89033000D01*
X204176241Y-89087838D01*
X204176241Y-89087838D01*
G37*
G36*
X186876241Y-89087838D02*
G01*
X186876243Y-89087839D01*
X186876244Y-89087839D01*
X187135939Y-89195409D01*
X187290702Y-89298818D01*
X187369660Y-89351576D01*
X187568424Y-89550340D01*
X187568427Y-89550345D01*
X187724591Y-89784061D01*
X187724591Y-89784062D01*
X187832162Y-90043759D01*
X187887000Y-90319453D01*
X187887000Y-90600547D01*
X187845238Y-90810504D01*
X187832161Y-90876244D01*
X187724591Y-91135939D01*
X187660850Y-91231334D01*
X187568424Y-91369660D01*
X187369660Y-91568424D01*
X187290702Y-91621182D01*
X187135939Y-91724591D01*
X186876244Y-91832161D01*
X186876243Y-91832161D01*
X186876241Y-91832162D01*
X186600547Y-91887000D01*
X186319453Y-91887000D01*
X186043759Y-91832162D01*
X186043757Y-91832161D01*
X186043756Y-91832161D01*
X185784061Y-91724591D01*
X185629298Y-91621182D01*
X185550340Y-91568424D01*
X185351576Y-91369660D01*
X185259150Y-91231334D01*
X185195409Y-91135939D01*
X185087839Y-90876244D01*
X185074763Y-90810504D01*
X185033000Y-90600547D01*
X185033000Y-90319453D01*
X185087838Y-90043759D01*
X185195409Y-89784062D01*
X185195409Y-89784061D01*
X185351573Y-89550345D01*
X185351576Y-89550340D01*
X185550340Y-89351576D01*
X185629298Y-89298818D01*
X185784061Y-89195409D01*
X186043756Y-89087839D01*
X186043757Y-89087839D01*
X186043759Y-89087838D01*
X186319453Y-89033000D01*
X186600547Y-89033000D01*
X186876241Y-89087838D01*
X186876241Y-89087838D01*
G37*
M02*
