G04 #@! TF.GenerationSoftware,KiCad,Pcbnew,(5.1.0)-1*
G04 #@! TF.CreationDate,2019-08-14T22:30:10+08:00*
G04 #@! TF.ProjectId,Kelvin Connector for Handheld LCR Meter,4b656c76-696e-4204-936f-6e6e6563746f,1.01*
G04 #@! TF.SameCoordinates,Original*
G04 #@! TF.FileFunction,Legend,Top*
G04 #@! TF.FilePolarity,Positive*
%FSLAX46Y46*%
G04 Gerber Fmt 4.6, Leading zero omitted, Abs format (unit mm)*
G04 Created by KiCad (PCBNEW (5.1.0)-1) date 2019-08-14 22:30:10*
%MOMM*%
%LPD*%
G04 APERTURE LIST*
%ADD10C,0.203200*%
%ADD11C,0.100000*%
%ADD12C,0.150000*%
G04 APERTURE END LIST*
D10*
X211107047Y-80643619D02*
X211107047Y-81369333D01*
X211058666Y-81514476D01*
X210961904Y-81611238D01*
X210816761Y-81659619D01*
X210720000Y-81659619D01*
X212074666Y-81659619D02*
X211590857Y-81659619D01*
X211590857Y-80643619D01*
X212993904Y-81562857D02*
X212945523Y-81611238D01*
X212800380Y-81659619D01*
X212703619Y-81659619D01*
X212558476Y-81611238D01*
X212461714Y-81514476D01*
X212413333Y-81417714D01*
X212364952Y-81224190D01*
X212364952Y-81079047D01*
X212413333Y-80885523D01*
X212461714Y-80788761D01*
X212558476Y-80692000D01*
X212703619Y-80643619D01*
X212800380Y-80643619D01*
X212945523Y-80692000D01*
X212993904Y-80740380D01*
X213719619Y-80643619D02*
X213719619Y-81369333D01*
X213671238Y-81514476D01*
X213574476Y-81611238D01*
X213429333Y-81659619D01*
X213332571Y-81659619D01*
X214687238Y-81659619D02*
X214203428Y-81659619D01*
X214203428Y-80643619D01*
X215606476Y-81562857D02*
X215558095Y-81611238D01*
X215412952Y-81659619D01*
X215316190Y-81659619D01*
X215171047Y-81611238D01*
X215074285Y-81514476D01*
X215025904Y-81417714D01*
X214977523Y-81224190D01*
X214977523Y-81079047D01*
X215025904Y-80885523D01*
X215074285Y-80788761D01*
X215171047Y-80692000D01*
X215316190Y-80643619D01*
X215412952Y-80643619D01*
X215558095Y-80692000D01*
X215606476Y-80740380D01*
X216332190Y-80643619D02*
X216332190Y-81369333D01*
X216283809Y-81514476D01*
X216187047Y-81611238D01*
X216041904Y-81659619D01*
X215945142Y-81659619D01*
X217299809Y-81659619D02*
X216816000Y-81659619D01*
X216816000Y-80643619D01*
X218219047Y-81562857D02*
X218170666Y-81611238D01*
X218025523Y-81659619D01*
X217928761Y-81659619D01*
X217783619Y-81611238D01*
X217686857Y-81514476D01*
X217638476Y-81417714D01*
X217590095Y-81224190D01*
X217590095Y-81079047D01*
X217638476Y-80885523D01*
X217686857Y-80788761D01*
X217783619Y-80692000D01*
X217928761Y-80643619D01*
X218025523Y-80643619D01*
X218170666Y-80692000D01*
X218219047Y-80740380D01*
X218944761Y-80643619D02*
X218944761Y-81369333D01*
X218896380Y-81514476D01*
X218799619Y-81611238D01*
X218654476Y-81659619D01*
X218557714Y-81659619D01*
X219912380Y-81659619D02*
X219428571Y-81659619D01*
X219428571Y-80643619D01*
X220831619Y-81562857D02*
X220783238Y-81611238D01*
X220638095Y-81659619D01*
X220541333Y-81659619D01*
X220396190Y-81611238D01*
X220299428Y-81514476D01*
X220251047Y-81417714D01*
X220202666Y-81224190D01*
X220202666Y-81079047D01*
X220251047Y-80885523D01*
X220299428Y-80788761D01*
X220396190Y-80692000D01*
X220541333Y-80643619D01*
X220638095Y-80643619D01*
X220783238Y-80692000D01*
X220831619Y-80740380D01*
X207773984Y-100396019D02*
X207773984Y-99380019D01*
X208354556Y-100396019D02*
X207919127Y-99815447D01*
X208354556Y-99380019D02*
X207773984Y-99960590D01*
X209177032Y-100347638D02*
X209080270Y-100396019D01*
X208886746Y-100396019D01*
X208789984Y-100347638D01*
X208741603Y-100250876D01*
X208741603Y-99863828D01*
X208789984Y-99767066D01*
X208886746Y-99718685D01*
X209080270Y-99718685D01*
X209177032Y-99767066D01*
X209225413Y-99863828D01*
X209225413Y-99960590D01*
X208741603Y-100057352D01*
X209805984Y-100396019D02*
X209709222Y-100347638D01*
X209660841Y-100250876D01*
X209660841Y-99380019D01*
X210096270Y-99718685D02*
X210338175Y-100396019D01*
X210580080Y-99718685D01*
X210967127Y-100396019D02*
X210967127Y-99718685D01*
X210967127Y-99380019D02*
X210918746Y-99428400D01*
X210967127Y-99476780D01*
X211015508Y-99428400D01*
X210967127Y-99380019D01*
X210967127Y-99476780D01*
X211450937Y-99718685D02*
X211450937Y-100396019D01*
X211450937Y-99815447D02*
X211499318Y-99767066D01*
X211596080Y-99718685D01*
X211741222Y-99718685D01*
X211837984Y-99767066D01*
X211886365Y-99863828D01*
X211886365Y-100396019D01*
X213724841Y-100299257D02*
X213676460Y-100347638D01*
X213531318Y-100396019D01*
X213434556Y-100396019D01*
X213289413Y-100347638D01*
X213192651Y-100250876D01*
X213144270Y-100154114D01*
X213095889Y-99960590D01*
X213095889Y-99815447D01*
X213144270Y-99621923D01*
X213192651Y-99525161D01*
X213289413Y-99428400D01*
X213434556Y-99380019D01*
X213531318Y-99380019D01*
X213676460Y-99428400D01*
X213724841Y-99476780D01*
X214305413Y-100396019D02*
X214208651Y-100347638D01*
X214160270Y-100299257D01*
X214111889Y-100202495D01*
X214111889Y-99912209D01*
X214160270Y-99815447D01*
X214208651Y-99767066D01*
X214305413Y-99718685D01*
X214450556Y-99718685D01*
X214547318Y-99767066D01*
X214595699Y-99815447D01*
X214644080Y-99912209D01*
X214644080Y-100202495D01*
X214595699Y-100299257D01*
X214547318Y-100347638D01*
X214450556Y-100396019D01*
X214305413Y-100396019D01*
X215079508Y-99718685D02*
X215079508Y-100396019D01*
X215079508Y-99815447D02*
X215127889Y-99767066D01*
X215224651Y-99718685D01*
X215369794Y-99718685D01*
X215466556Y-99767066D01*
X215514937Y-99863828D01*
X215514937Y-100396019D01*
X215998746Y-99718685D02*
X215998746Y-100396019D01*
X215998746Y-99815447D02*
X216047127Y-99767066D01*
X216143889Y-99718685D01*
X216289032Y-99718685D01*
X216385794Y-99767066D01*
X216434175Y-99863828D01*
X216434175Y-100396019D01*
X217305032Y-100347638D02*
X217208270Y-100396019D01*
X217014746Y-100396019D01*
X216917984Y-100347638D01*
X216869603Y-100250876D01*
X216869603Y-99863828D01*
X216917984Y-99767066D01*
X217014746Y-99718685D01*
X217208270Y-99718685D01*
X217305032Y-99767066D01*
X217353413Y-99863828D01*
X217353413Y-99960590D01*
X216869603Y-100057352D01*
X218224270Y-100347638D02*
X218127508Y-100396019D01*
X217933984Y-100396019D01*
X217837222Y-100347638D01*
X217788841Y-100299257D01*
X217740460Y-100202495D01*
X217740460Y-99912209D01*
X217788841Y-99815447D01*
X217837222Y-99767066D01*
X217933984Y-99718685D01*
X218127508Y-99718685D01*
X218224270Y-99767066D01*
X218514556Y-99718685D02*
X218901603Y-99718685D01*
X218659699Y-99380019D02*
X218659699Y-100250876D01*
X218708080Y-100347638D01*
X218804841Y-100396019D01*
X218901603Y-100396019D01*
X219385413Y-100396019D02*
X219288651Y-100347638D01*
X219240270Y-100299257D01*
X219191889Y-100202495D01*
X219191889Y-99912209D01*
X219240270Y-99815447D01*
X219288651Y-99767066D01*
X219385413Y-99718685D01*
X219530556Y-99718685D01*
X219627318Y-99767066D01*
X219675699Y-99815447D01*
X219724080Y-99912209D01*
X219724080Y-100202495D01*
X219675699Y-100299257D01*
X219627318Y-100347638D01*
X219530556Y-100396019D01*
X219385413Y-100396019D01*
X220159508Y-100396019D02*
X220159508Y-99718685D01*
X220159508Y-99912209D02*
X220207889Y-99815447D01*
X220256270Y-99767066D01*
X220353032Y-99718685D01*
X220449794Y-99718685D01*
X221417413Y-99718685D02*
X221804460Y-99718685D01*
X221562556Y-100396019D02*
X221562556Y-99525161D01*
X221610937Y-99428400D01*
X221707699Y-99380019D01*
X221804460Y-99380019D01*
X222288270Y-100396019D02*
X222191508Y-100347638D01*
X222143127Y-100299257D01*
X222094746Y-100202495D01*
X222094746Y-99912209D01*
X222143127Y-99815447D01*
X222191508Y-99767066D01*
X222288270Y-99718685D01*
X222433413Y-99718685D01*
X222530175Y-99767066D01*
X222578556Y-99815447D01*
X222626937Y-99912209D01*
X222626937Y-100202495D01*
X222578556Y-100299257D01*
X222530175Y-100347638D01*
X222433413Y-100396019D01*
X222288270Y-100396019D01*
X223062365Y-100396019D02*
X223062365Y-99718685D01*
X223062365Y-99912209D02*
X223110746Y-99815447D01*
X223159127Y-99767066D01*
X223255889Y-99718685D01*
X223352651Y-99718685D01*
X207773984Y-102123219D02*
X207773984Y-101107219D01*
X207773984Y-101591028D02*
X208354556Y-101591028D01*
X208354556Y-102123219D02*
X208354556Y-101107219D01*
X209273794Y-102123219D02*
X209273794Y-101591028D01*
X209225413Y-101494266D01*
X209128651Y-101445885D01*
X208935127Y-101445885D01*
X208838365Y-101494266D01*
X209273794Y-102074838D02*
X209177032Y-102123219D01*
X208935127Y-102123219D01*
X208838365Y-102074838D01*
X208789984Y-101978076D01*
X208789984Y-101881314D01*
X208838365Y-101784552D01*
X208935127Y-101736171D01*
X209177032Y-101736171D01*
X209273794Y-101687790D01*
X209757603Y-101445885D02*
X209757603Y-102123219D01*
X209757603Y-101542647D02*
X209805984Y-101494266D01*
X209902746Y-101445885D01*
X210047889Y-101445885D01*
X210144651Y-101494266D01*
X210193032Y-101591028D01*
X210193032Y-102123219D01*
X211112270Y-102123219D02*
X211112270Y-101107219D01*
X211112270Y-102074838D02*
X211015508Y-102123219D01*
X210821984Y-102123219D01*
X210725222Y-102074838D01*
X210676841Y-102026457D01*
X210628460Y-101929695D01*
X210628460Y-101639409D01*
X210676841Y-101542647D01*
X210725222Y-101494266D01*
X210821984Y-101445885D01*
X211015508Y-101445885D01*
X211112270Y-101494266D01*
X211596080Y-102123219D02*
X211596080Y-101107219D01*
X212031508Y-102123219D02*
X212031508Y-101591028D01*
X211983127Y-101494266D01*
X211886365Y-101445885D01*
X211741222Y-101445885D01*
X211644460Y-101494266D01*
X211596080Y-101542647D01*
X212902365Y-102074838D02*
X212805603Y-102123219D01*
X212612080Y-102123219D01*
X212515318Y-102074838D01*
X212466937Y-101978076D01*
X212466937Y-101591028D01*
X212515318Y-101494266D01*
X212612080Y-101445885D01*
X212805603Y-101445885D01*
X212902365Y-101494266D01*
X212950746Y-101591028D01*
X212950746Y-101687790D01*
X212466937Y-101784552D01*
X213531318Y-102123219D02*
X213434556Y-102074838D01*
X213386175Y-101978076D01*
X213386175Y-101107219D01*
X214353794Y-102123219D02*
X214353794Y-101107219D01*
X214353794Y-102074838D02*
X214257032Y-102123219D01*
X214063508Y-102123219D01*
X213966746Y-102074838D01*
X213918365Y-102026457D01*
X213869984Y-101929695D01*
X213869984Y-101639409D01*
X213918365Y-101542647D01*
X213966746Y-101494266D01*
X214063508Y-101445885D01*
X214257032Y-101445885D01*
X214353794Y-101494266D01*
X216095508Y-102123219D02*
X215611699Y-102123219D01*
X215611699Y-101107219D01*
X217014746Y-102026457D02*
X216966365Y-102074838D01*
X216821222Y-102123219D01*
X216724460Y-102123219D01*
X216579318Y-102074838D01*
X216482556Y-101978076D01*
X216434175Y-101881314D01*
X216385794Y-101687790D01*
X216385794Y-101542647D01*
X216434175Y-101349123D01*
X216482556Y-101252361D01*
X216579318Y-101155600D01*
X216724460Y-101107219D01*
X216821222Y-101107219D01*
X216966365Y-101155600D01*
X217014746Y-101203980D01*
X218030746Y-102123219D02*
X217692080Y-101639409D01*
X217450175Y-102123219D02*
X217450175Y-101107219D01*
X217837222Y-101107219D01*
X217933984Y-101155600D01*
X217982365Y-101203980D01*
X218030746Y-101300742D01*
X218030746Y-101445885D01*
X217982365Y-101542647D01*
X217933984Y-101591028D01*
X217837222Y-101639409D01*
X217450175Y-101639409D01*
X219240270Y-102123219D02*
X219240270Y-101107219D01*
X219578937Y-101832933D01*
X219917603Y-101107219D01*
X219917603Y-102123219D01*
X220788460Y-102074838D02*
X220691699Y-102123219D01*
X220498175Y-102123219D01*
X220401413Y-102074838D01*
X220353032Y-101978076D01*
X220353032Y-101591028D01*
X220401413Y-101494266D01*
X220498175Y-101445885D01*
X220691699Y-101445885D01*
X220788460Y-101494266D01*
X220836841Y-101591028D01*
X220836841Y-101687790D01*
X220353032Y-101784552D01*
X221127127Y-101445885D02*
X221514175Y-101445885D01*
X221272270Y-101107219D02*
X221272270Y-101978076D01*
X221320651Y-102074838D01*
X221417413Y-102123219D01*
X221514175Y-102123219D01*
X222239889Y-102074838D02*
X222143127Y-102123219D01*
X221949603Y-102123219D01*
X221852841Y-102074838D01*
X221804460Y-101978076D01*
X221804460Y-101591028D01*
X221852841Y-101494266D01*
X221949603Y-101445885D01*
X222143127Y-101445885D01*
X222239889Y-101494266D01*
X222288270Y-101591028D01*
X222288270Y-101687790D01*
X221804460Y-101784552D01*
X222723699Y-102123219D02*
X222723699Y-101445885D01*
X222723699Y-101639409D02*
X222772080Y-101542647D01*
X222820460Y-101494266D01*
X222917222Y-101445885D01*
X223013984Y-101445885D01*
D11*
X222700000Y-96500000D02*
X223100000Y-96500000D01*
X222700000Y-96500000D02*
X222300000Y-96500000D01*
X219400000Y-93300000D02*
X219400000Y-92700000D01*
X226000000Y-93300000D02*
X226000000Y-92700000D01*
X209600000Y-93300000D02*
X209600000Y-92700000D01*
X203000000Y-93300000D02*
X203000000Y-92700000D01*
X206300000Y-96500000D02*
X205900000Y-96500000D01*
X206300000Y-96500000D02*
X206700000Y-96500000D01*
X189000000Y-96500000D02*
X189400000Y-96500000D01*
X189000000Y-96500000D02*
X188600000Y-96500000D01*
X185700000Y-93300000D02*
X185700000Y-92700000D01*
X192300000Y-93300000D02*
X192300000Y-92700000D01*
X243300000Y-93300000D02*
X243300000Y-92700000D01*
X236700000Y-93300000D02*
X236700000Y-92700000D01*
X240000000Y-96500000D02*
X239600000Y-96500000D01*
X240000000Y-96500000D02*
X240400000Y-96500000D01*
D12*
X220342857Y-88652380D02*
X219866666Y-88652380D01*
X219866666Y-87652380D01*
X221104761Y-88604761D02*
X221009523Y-88652380D01*
X220819047Y-88652380D01*
X220723809Y-88604761D01*
X220676190Y-88557142D01*
X220628571Y-88461904D01*
X220628571Y-88176190D01*
X220676190Y-88080952D01*
X220723809Y-88033333D01*
X220819047Y-87985714D01*
X221009523Y-87985714D01*
X221104761Y-88033333D01*
X221961904Y-87985714D02*
X221961904Y-88652380D01*
X221533333Y-87985714D02*
X221533333Y-88509523D01*
X221580952Y-88604761D01*
X221676190Y-88652380D01*
X221819047Y-88652380D01*
X221914285Y-88604761D01*
X221961904Y-88557142D01*
X222438095Y-88652380D02*
X222438095Y-87985714D01*
X222438095Y-88176190D02*
X222485714Y-88080952D01*
X222533333Y-88033333D01*
X222628571Y-87985714D01*
X222723809Y-87985714D01*
X223009523Y-88604761D02*
X223152380Y-88652380D01*
X223390476Y-88652380D01*
X223485714Y-88604761D01*
X223533333Y-88557142D01*
X223580952Y-88461904D01*
X223580952Y-88366666D01*
X223533333Y-88271428D01*
X223485714Y-88223809D01*
X223390476Y-88176190D01*
X223200000Y-88128571D01*
X223104761Y-88080952D01*
X223057142Y-88033333D01*
X223009523Y-87938095D01*
X223009523Y-87842857D01*
X223057142Y-87747619D01*
X223104761Y-87700000D01*
X223200000Y-87652380D01*
X223438095Y-87652380D01*
X223580952Y-87700000D01*
X224009523Y-88652380D02*
X224009523Y-87652380D01*
X224342857Y-88366666D01*
X224676190Y-87652380D01*
X224676190Y-88652380D01*
X225104761Y-88366666D02*
X225580952Y-88366666D01*
X225009523Y-88652380D02*
X225342857Y-87652380D01*
X225676190Y-88652380D01*
X229993238Y-98348000D02*
X229898000Y-98300380D01*
X229755142Y-98300380D01*
X229612285Y-98348000D01*
X229517047Y-98443238D01*
X229469428Y-98538476D01*
X229421809Y-98728952D01*
X229421809Y-98871809D01*
X229469428Y-99062285D01*
X229517047Y-99157523D01*
X229612285Y-99252761D01*
X229755142Y-99300380D01*
X229850380Y-99300380D01*
X229993238Y-99252761D01*
X230040857Y-99205142D01*
X230040857Y-98871809D01*
X229850380Y-98871809D01*
X230898000Y-98633714D02*
X230898000Y-99300380D01*
X230469428Y-98633714D02*
X230469428Y-99157523D01*
X230517047Y-99252761D01*
X230612285Y-99300380D01*
X230755142Y-99300380D01*
X230850380Y-99252761D01*
X230898000Y-99205142D01*
X231802761Y-99300380D02*
X231802761Y-98776571D01*
X231755142Y-98681333D01*
X231659904Y-98633714D01*
X231469428Y-98633714D01*
X231374190Y-98681333D01*
X231802761Y-99252761D02*
X231707523Y-99300380D01*
X231469428Y-99300380D01*
X231374190Y-99252761D01*
X231326571Y-99157523D01*
X231326571Y-99062285D01*
X231374190Y-98967047D01*
X231469428Y-98919428D01*
X231707523Y-98919428D01*
X231802761Y-98871809D01*
X232278952Y-99300380D02*
X232278952Y-98633714D01*
X232278952Y-98824190D02*
X232326571Y-98728952D01*
X232374190Y-98681333D01*
X232469428Y-98633714D01*
X232564666Y-98633714D01*
X233326571Y-99300380D02*
X233326571Y-98300380D01*
X233326571Y-99252761D02*
X233231333Y-99300380D01*
X233040857Y-99300380D01*
X232945619Y-99252761D01*
X232898000Y-99205142D01*
X232850380Y-99109904D01*
X232850380Y-98824190D01*
X232898000Y-98728952D01*
X232945619Y-98681333D01*
X233040857Y-98633714D01*
X233231333Y-98633714D01*
X233326571Y-98681333D01*
X196295238Y-100700000D02*
X196200000Y-100652380D01*
X196057142Y-100652380D01*
X195914285Y-100700000D01*
X195819047Y-100795238D01*
X195771428Y-100890476D01*
X195723809Y-101080952D01*
X195723809Y-101223809D01*
X195771428Y-101414285D01*
X195819047Y-101509523D01*
X195914285Y-101604761D01*
X196057142Y-101652380D01*
X196152380Y-101652380D01*
X196295238Y-101604761D01*
X196342857Y-101557142D01*
X196342857Y-101223809D01*
X196152380Y-101223809D01*
X197200000Y-100985714D02*
X197200000Y-101652380D01*
X196771428Y-100985714D02*
X196771428Y-101509523D01*
X196819047Y-101604761D01*
X196914285Y-101652380D01*
X197057142Y-101652380D01*
X197152380Y-101604761D01*
X197200000Y-101557142D01*
X198104761Y-101652380D02*
X198104761Y-101128571D01*
X198057142Y-101033333D01*
X197961904Y-100985714D01*
X197771428Y-100985714D01*
X197676190Y-101033333D01*
X198104761Y-101604761D02*
X198009523Y-101652380D01*
X197771428Y-101652380D01*
X197676190Y-101604761D01*
X197628571Y-101509523D01*
X197628571Y-101414285D01*
X197676190Y-101319047D01*
X197771428Y-101271428D01*
X198009523Y-101271428D01*
X198104761Y-101223809D01*
X198580952Y-101652380D02*
X198580952Y-100985714D01*
X198580952Y-101176190D02*
X198628571Y-101080952D01*
X198676190Y-101033333D01*
X198771428Y-100985714D01*
X198866666Y-100985714D01*
X199628571Y-101652380D02*
X199628571Y-100652380D01*
X199628571Y-101604761D02*
X199533333Y-101652380D01*
X199342857Y-101652380D01*
X199247619Y-101604761D01*
X199200000Y-101557142D01*
X199152380Y-101461904D01*
X199152380Y-101176190D01*
X199200000Y-101080952D01*
X199247619Y-101033333D01*
X199342857Y-100985714D01*
X199533333Y-100985714D01*
X199628571Y-101033333D01*
X193923809Y-89642380D02*
X193923809Y-88642380D01*
X193923809Y-89118571D02*
X194495238Y-89118571D01*
X194495238Y-89642380D02*
X194495238Y-88642380D01*
X195400000Y-89594761D02*
X195304761Y-89642380D01*
X195114285Y-89642380D01*
X195019047Y-89594761D01*
X194971428Y-89547142D01*
X194923809Y-89451904D01*
X194923809Y-89166190D01*
X194971428Y-89070952D01*
X195019047Y-89023333D01*
X195114285Y-88975714D01*
X195304761Y-88975714D01*
X195400000Y-89023333D01*
X196257142Y-88975714D02*
X196257142Y-89642380D01*
X195828571Y-88975714D02*
X195828571Y-89499523D01*
X195876190Y-89594761D01*
X195971428Y-89642380D01*
X196114285Y-89642380D01*
X196209523Y-89594761D01*
X196257142Y-89547142D01*
X196733333Y-89642380D02*
X196733333Y-88975714D01*
X196733333Y-89166190D02*
X196780952Y-89070952D01*
X196828571Y-89023333D01*
X196923809Y-88975714D01*
X197019047Y-88975714D01*
X203347619Y-88652380D02*
X203347619Y-87652380D01*
X203347619Y-88128571D02*
X203919047Y-88128571D01*
X203919047Y-88652380D02*
X203919047Y-87652380D01*
X204395238Y-87985714D02*
X204395238Y-88985714D01*
X204395238Y-88033333D02*
X204490476Y-87985714D01*
X204680952Y-87985714D01*
X204776190Y-88033333D01*
X204823809Y-88080952D01*
X204871428Y-88176190D01*
X204871428Y-88461904D01*
X204823809Y-88557142D01*
X204776190Y-88604761D01*
X204680952Y-88652380D01*
X204490476Y-88652380D01*
X204395238Y-88604761D01*
X205442857Y-88652380D02*
X205347619Y-88604761D01*
X205300000Y-88557142D01*
X205252380Y-88461904D01*
X205252380Y-88176190D01*
X205300000Y-88080952D01*
X205347619Y-88033333D01*
X205442857Y-87985714D01*
X205585714Y-87985714D01*
X205680952Y-88033333D01*
X205728571Y-88080952D01*
X205776190Y-88176190D01*
X205776190Y-88461904D01*
X205728571Y-88557142D01*
X205680952Y-88604761D01*
X205585714Y-88652380D01*
X205442857Y-88652380D01*
X206061904Y-87985714D02*
X206442857Y-87985714D01*
X206204761Y-87652380D02*
X206204761Y-88509523D01*
X206252380Y-88604761D01*
X206347619Y-88652380D01*
X206442857Y-88652380D01*
X206728571Y-88604761D02*
X206871428Y-88652380D01*
X207109523Y-88652380D01*
X207204761Y-88604761D01*
X207252380Y-88557142D01*
X207300000Y-88461904D01*
X207300000Y-88366666D01*
X207252380Y-88271428D01*
X207204761Y-88223809D01*
X207109523Y-88176190D01*
X206919047Y-88128571D01*
X206823809Y-88080952D01*
X206776190Y-88033333D01*
X206728571Y-87938095D01*
X206728571Y-87842857D01*
X206776190Y-87747619D01*
X206823809Y-87700000D01*
X206919047Y-87652380D01*
X207157142Y-87652380D01*
X207300000Y-87700000D01*
X207728571Y-88652380D02*
X207728571Y-87652380D01*
X208061904Y-88366666D01*
X208395238Y-87652380D01*
X208395238Y-88652380D01*
X208823809Y-88366666D02*
X209300000Y-88366666D01*
X208728571Y-88652380D02*
X209061904Y-87652380D01*
X209395238Y-88652380D01*
X198423809Y-89642380D02*
X198423809Y-88642380D01*
X198423809Y-89118571D02*
X198995238Y-89118571D01*
X198995238Y-89642380D02*
X198995238Y-88642380D01*
X199471428Y-88975714D02*
X199471428Y-89975714D01*
X199471428Y-89023333D02*
X199566666Y-88975714D01*
X199757142Y-88975714D01*
X199852380Y-89023333D01*
X199900000Y-89070952D01*
X199947619Y-89166190D01*
X199947619Y-89451904D01*
X199900000Y-89547142D01*
X199852380Y-89594761D01*
X199757142Y-89642380D01*
X199566666Y-89642380D01*
X199471428Y-89594761D01*
X200519047Y-89642380D02*
X200423809Y-89594761D01*
X200376190Y-89547142D01*
X200328571Y-89451904D01*
X200328571Y-89166190D01*
X200376190Y-89070952D01*
X200423809Y-89023333D01*
X200519047Y-88975714D01*
X200661904Y-88975714D01*
X200757142Y-89023333D01*
X200804761Y-89070952D01*
X200852380Y-89166190D01*
X200852380Y-89451904D01*
X200804761Y-89547142D01*
X200757142Y-89594761D01*
X200661904Y-89642380D01*
X200519047Y-89642380D01*
X201138095Y-88975714D02*
X201519047Y-88975714D01*
X201280952Y-88642380D02*
X201280952Y-89499523D01*
X201328571Y-89594761D01*
X201423809Y-89642380D01*
X201519047Y-89642380D01*
X186047619Y-88652380D02*
X186047619Y-87652380D01*
X186047619Y-88128571D02*
X186619047Y-88128571D01*
X186619047Y-88652380D02*
X186619047Y-87652380D01*
X187523809Y-88604761D02*
X187428571Y-88652380D01*
X187238095Y-88652380D01*
X187142857Y-88604761D01*
X187095238Y-88557142D01*
X187047619Y-88461904D01*
X187047619Y-88176190D01*
X187095238Y-88080952D01*
X187142857Y-88033333D01*
X187238095Y-87985714D01*
X187428571Y-87985714D01*
X187523809Y-88033333D01*
X188380952Y-87985714D02*
X188380952Y-88652380D01*
X187952380Y-87985714D02*
X187952380Y-88509523D01*
X188000000Y-88604761D01*
X188095238Y-88652380D01*
X188238095Y-88652380D01*
X188333333Y-88604761D01*
X188380952Y-88557142D01*
X188857142Y-88652380D02*
X188857142Y-87985714D01*
X188857142Y-88176190D02*
X188904761Y-88080952D01*
X188952380Y-88033333D01*
X189047619Y-87985714D01*
X189142857Y-87985714D01*
X189428571Y-88604761D02*
X189571428Y-88652380D01*
X189809523Y-88652380D01*
X189904761Y-88604761D01*
X189952380Y-88557142D01*
X190000000Y-88461904D01*
X190000000Y-88366666D01*
X189952380Y-88271428D01*
X189904761Y-88223809D01*
X189809523Y-88176190D01*
X189619047Y-88128571D01*
X189523809Y-88080952D01*
X189476190Y-88033333D01*
X189428571Y-87938095D01*
X189428571Y-87842857D01*
X189476190Y-87747619D01*
X189523809Y-87700000D01*
X189619047Y-87652380D01*
X189857142Y-87652380D01*
X190000000Y-87700000D01*
X190428571Y-88652380D02*
X190428571Y-87652380D01*
X190761904Y-88366666D01*
X191095238Y-87652380D01*
X191095238Y-88652380D01*
X191523809Y-88366666D02*
X192000000Y-88366666D01*
X191428571Y-88652380D02*
X191761904Y-87652380D01*
X192095238Y-88652380D01*
X228219047Y-88652380D02*
X227742857Y-88652380D01*
X227742857Y-87652380D01*
X228980952Y-88604761D02*
X228885714Y-88652380D01*
X228695238Y-88652380D01*
X228600000Y-88604761D01*
X228552380Y-88557142D01*
X228504761Y-88461904D01*
X228504761Y-88176190D01*
X228552380Y-88080952D01*
X228600000Y-88033333D01*
X228695238Y-87985714D01*
X228885714Y-87985714D01*
X228980952Y-88033333D01*
X229838095Y-87985714D02*
X229838095Y-88652380D01*
X229409523Y-87985714D02*
X229409523Y-88509523D01*
X229457142Y-88604761D01*
X229552380Y-88652380D01*
X229695238Y-88652380D01*
X229790476Y-88604761D01*
X229838095Y-88557142D01*
X230314285Y-88652380D02*
X230314285Y-87985714D01*
X230314285Y-88176190D02*
X230361904Y-88080952D01*
X230409523Y-88033333D01*
X230504761Y-87985714D01*
X230600000Y-87985714D01*
X237742857Y-88652380D02*
X237266666Y-88652380D01*
X237266666Y-87652380D01*
X238076190Y-87985714D02*
X238076190Y-88985714D01*
X238076190Y-88033333D02*
X238171428Y-87985714D01*
X238361904Y-87985714D01*
X238457142Y-88033333D01*
X238504761Y-88080952D01*
X238552380Y-88176190D01*
X238552380Y-88461904D01*
X238504761Y-88557142D01*
X238457142Y-88604761D01*
X238361904Y-88652380D01*
X238171428Y-88652380D01*
X238076190Y-88604761D01*
X239123809Y-88652380D02*
X239028571Y-88604761D01*
X238980952Y-88557142D01*
X238933333Y-88461904D01*
X238933333Y-88176190D01*
X238980952Y-88080952D01*
X239028571Y-88033333D01*
X239123809Y-87985714D01*
X239266666Y-87985714D01*
X239361904Y-88033333D01*
X239409523Y-88080952D01*
X239457142Y-88176190D01*
X239457142Y-88461904D01*
X239409523Y-88557142D01*
X239361904Y-88604761D01*
X239266666Y-88652380D01*
X239123809Y-88652380D01*
X239742857Y-87985714D02*
X240123809Y-87985714D01*
X239885714Y-87652380D02*
X239885714Y-88509523D01*
X239933333Y-88604761D01*
X240028571Y-88652380D01*
X240123809Y-88652380D01*
X240409523Y-88604761D02*
X240552380Y-88652380D01*
X240790476Y-88652380D01*
X240885714Y-88604761D01*
X240933333Y-88557142D01*
X240980952Y-88461904D01*
X240980952Y-88366666D01*
X240933333Y-88271428D01*
X240885714Y-88223809D01*
X240790476Y-88176190D01*
X240600000Y-88128571D01*
X240504761Y-88080952D01*
X240457142Y-88033333D01*
X240409523Y-87938095D01*
X240409523Y-87842857D01*
X240457142Y-87747619D01*
X240504761Y-87700000D01*
X240600000Y-87652380D01*
X240838095Y-87652380D01*
X240980952Y-87700000D01*
X241409523Y-88652380D02*
X241409523Y-87652380D01*
X241742857Y-88366666D01*
X242076190Y-87652380D01*
X242076190Y-88652380D01*
X242504761Y-88366666D02*
X242980952Y-88366666D01*
X242409523Y-88652380D02*
X242742857Y-87652380D01*
X243076190Y-88652380D01*
X232753047Y-88652380D02*
X232276857Y-88652380D01*
X232276857Y-87652380D01*
X233086380Y-87985714D02*
X233086380Y-88985714D01*
X233086380Y-88033333D02*
X233181619Y-87985714D01*
X233372095Y-87985714D01*
X233467333Y-88033333D01*
X233514952Y-88080952D01*
X233562571Y-88176190D01*
X233562571Y-88461904D01*
X233514952Y-88557142D01*
X233467333Y-88604761D01*
X233372095Y-88652380D01*
X233181619Y-88652380D01*
X233086380Y-88604761D01*
X234134000Y-88652380D02*
X234038761Y-88604761D01*
X233991142Y-88557142D01*
X233943523Y-88461904D01*
X233943523Y-88176190D01*
X233991142Y-88080952D01*
X234038761Y-88033333D01*
X234134000Y-87985714D01*
X234276857Y-87985714D01*
X234372095Y-88033333D01*
X234419714Y-88080952D01*
X234467333Y-88176190D01*
X234467333Y-88461904D01*
X234419714Y-88557142D01*
X234372095Y-88604761D01*
X234276857Y-88652380D01*
X234134000Y-88652380D01*
X234753047Y-87985714D02*
X235134000Y-87985714D01*
X234895904Y-87652380D02*
X234895904Y-88509523D01*
X234943523Y-88604761D01*
X235038761Y-88652380D01*
X235134000Y-88652380D01*
M02*
